<?xml version="1.0" encoding="UTF-8" standalone="no"?>
<svg
   xmlns:dc="http://purl.org/dc/elements/1.1/"
   xmlns:cc="http://creativecommons.org/ns#"
   xmlns:rdf="http://www.w3.org/1999/02/22-rdf-syntax-ns#"
   xmlns:svg="http://www.w3.org/2000/svg"
   xmlns="http://www.w3.org/2000/svg"
   xmlns:sodipodi="http://sodipodi.sourceforge.net/DTD/sodipodi-0.dtd"
   xmlns:inkscape="http://www.inkscape.org/namespaces/inkscape"
   inkscape:export-ydpi="96"
   inkscape:export-xdpi="96"
   inkscape:export-filename="C:\Users\Marek\Desktop\graphic\web_sun\mars.png"
   width="400"
   height="400"
   viewBox="0 0 105.83333 105.83334"
   version="1.1"
   id="svg8"
   inkscape:version="1.0 (4035a4fb49, 2020-05-01)"
   sodipodi:docname="jupiter.svg">
  <defs
     id="defs2">
    <inkscape:path-effect
       lpeversion="1"
       is_visible="true"
       id="path-effect5049"
       effect="spiro" />
    <inkscape:path-effect
       lpeversion="1"
       is_visible="true"
       id="path-effect5047"
       effect="spiro" />
    <inkscape:path-effect
       lpeversion="1"
       is_visible="true"
       id="path-effect5045"
       effect="spiro" />
    <inkscape:path-effect
       lpeversion="1"
       is_visible="true"
       id="path-effect9974"
       effect="spiro" />
    <inkscape:path-effect
       lpeversion="1"
       is_visible="true"
       id="path-effect9972"
       effect="spiro" />
    <inkscape:path-effect
       lpeversion="1"
       is_visible="true"
       id="path-effect9970"
       effect="spiro" />
    <inkscape:path-effect
       lpeversion="1"
       is_visible="true"
       id="path-effect9927"
       effect="spiro" />
    <inkscape:path-effect
       lpeversion="1"
       is_visible="true"
       id="path-effect9477"
       effect="spiro" />
    <inkscape:path-effect
       effect="spiro"
       id="path-effect9029"
       is_visible="true"
       lpeversion="1" />
    <inkscape:path-effect
       effect="spiro"
       id="path-effect9027"
       is_visible="true"
       lpeversion="1" />
    <inkscape:path-effect
       effect="spiro"
       id="path-effect9025"
       is_visible="true"
       lpeversion="1" />
    <inkscape:path-effect
       effect="spiro"
       id="path-effect9023"
       is_visible="true"
       lpeversion="1" />
    <inkscape:path-effect
       effect="spiro"
       id="path-effect9021"
       is_visible="true"
       lpeversion="1" />
    <inkscape:path-effect
       lpeversion="1"
       is_visible="true"
       id="path-effect9019"
       effect="spiro" />
    <inkscape:path-effect
       lpeversion="1"
       is_visible="true"
       id="path-effect1609"
       effect="spiro" />
    <inkscape:path-effect
       lpeversion="1"
       is_visible="true"
       id="path-effect1607"
       effect="spiro" />
    <inkscape:path-effect
       lpeversion="1"
       is_visible="true"
       id="path-effect1605"
       effect="spiro" />
    <inkscape:path-effect
       lpeversion="1"
       is_visible="true"
       id="path-effect780"
       effect="spiro" />
    <inkscape:path-effect
       lpeversion="1"
       is_visible="true"
       id="path-effect776"
       effect="spiro" />
    <inkscape:path-effect
       effect="spiro"
       id="path-effect769"
       is_visible="true"
       lpeversion="1" />
    <inkscape:path-effect
       lpeversion="1"
       is_visible="true"
       id="path-effect763"
       effect="spiro" />
    <inkscape:path-effect
       lpeversion="1"
       is_visible="true"
       id="path-effect759"
       effect="spiro" />
    <inkscape:path-effect
       lpeversion="1"
       is_visible="true"
       id="path-effect755"
       effect="spiro" />
    <inkscape:path-effect
       lpeversion="1"
       is_visible="true"
       id="path-effect744"
       effect="spiro" />
    <inkscape:path-effect
       lpeversion="1"
       is_visible="true"
       id="path-effect742"
       effect="spiro" />
    <inkscape:path-effect
       lpeversion="1"
       is_visible="true"
       id="path-effect740"
       effect="spiro" />
    <inkscape:path-effect
       effect="spiro"
       id="path-effect684"
       is_visible="true"
       lpeversion="1" />
    <inkscape:path-effect
       lpeversion="1"
       is_visible="true"
       id="path-effect680"
       effect="spiro" />
    <inkscape:path-effect
       lpeversion="1"
       is_visible="true"
       id="path-effect678"
       effect="spiro" />
    <inkscape:path-effect
       lpeversion="1"
       is_visible="true"
       id="path-effect676"
       effect="spiro" />
    <inkscape:path-effect
       lpeversion="1"
       is_visible="true"
       id="path-effect658"
       effect="spiro" />
    <inkscape:path-effect
       lpeversion="1"
       is_visible="true"
       id="path-effect654"
       effect="spiro" />
    <inkscape:path-effect
       lpeversion="1"
       is_visible="true"
       id="path-effect650"
       effect="spiro" />
    <inkscape:path-effect
       lpeversion="1"
       is_visible="true"
       id="path-effect646"
       effect="spiro" />
    <inkscape:path-effect
       lpeversion="1"
       is_visible="true"
       id="path-effect642"
       effect="spiro" />
    <inkscape:path-effect
       lpeversion="1"
       is_visible="true"
       id="path-effect630"
       effect="spiro" />
    <inkscape:path-effect
       lpeversion="1"
       is_visible="true"
       id="path-effect628"
       effect="spiro" />
    <inkscape:path-effect
       lpeversion="1"
       is_visible="true"
       id="path-effect626"
       effect="spiro" />
    <inkscape:path-effect
       effect="spiro"
       id="path-effect618"
       is_visible="true"
       lpeversion="1" />
    <inkscape:path-effect
       effect="spiro"
       id="path-effect612"
       is_visible="true"
       lpeversion="1" />
    <inkscape:path-effect
       effect="spiro"
       id="path-effect606"
       is_visible="true"
       lpeversion="1" />
    <inkscape:path-effect
       effect="spiro"
       id="path-effect2043"
       is_visible="true"
       lpeversion="1" />
    <inkscape:path-effect
       effect="spiro"
       id="path-effect319"
       is_visible="true"
       lpeversion="1" />
    <inkscape:path-effect
       lpeversion="1"
       is_visible="true"
       id="path-effect1168"
       effect="spiro" />
    <inkscape:path-effect
       lpeversion="1"
       is_visible="true"
       id="path-effect1164"
       effect="spiro" />
    <inkscape:path-effect
       lpeversion="1"
       is_visible="true"
       id="path-effect1160"
       effect="spiro" />
    <inkscape:path-effect
       lpeversion="1"
       is_visible="true"
       id="path-effect1156"
       effect="spiro" />
    <inkscape:path-effect
       lpeversion="1"
       is_visible="true"
       id="path-effect1152"
       effect="spiro" />
    <inkscape:path-effect
       lpeversion="1"
       is_visible="true"
       id="path-effect1148"
       effect="spiro" />
    <inkscape:path-effect
       lpeversion="1"
       is_visible="true"
       id="path-effect1144"
       effect="spiro" />
    <inkscape:path-effect
       lpeversion="1"
       is_visible="true"
       id="path-effect1140"
       effect="spiro" />
    <inkscape:path-effect
       effect="spiro"
       id="path-effect1462"
       is_visible="true"
       lpeversion="1" />
    <inkscape:path-effect
       effect="spiro"
       id="path-effect1453"
       is_visible="true"
       lpeversion="1" />
    <inkscape:path-effect
       effect="spiro"
       id="path-effect1441"
       is_visible="true"
       lpeversion="1" />
    <inkscape:path-effect
       lpeversion="1"
       is_visible="true"
       id="path-effect103"
       effect="spiro" />
    <inkscape:path-effect
       lpeversion="1"
       is_visible="true"
       id="path-effect99"
       effect="spiro" />
    <inkscape:path-effect
       lpeversion="1"
       is_visible="true"
       id="path-effect91"
       effect="spiro" />
    <inkscape:path-effect
       lpeversion="1"
       is_visible="true"
       id="path-effect87"
       effect="spiro" />
    <inkscape:path-effect
       lpeversion="1"
       is_visible="true"
       id="path-effect83"
       effect="spiro" />
    <inkscape:path-effect
       lpeversion="1"
       is_visible="true"
       id="path-effect79"
       effect="spiro" />
    <inkscape:path-effect
       lpeversion="1"
       is_visible="true"
       id="path-effect71"
       effect="spiro" />
    <inkscape:path-effect
       lpeversion="1"
       is_visible="true"
       id="path-effect67"
       effect="spiro" />
    <inkscape:path-effect
       lpeversion="1"
       is_visible="true"
       id="path-effect63"
       effect="spiro" />
    <inkscape:path-effect
       effect="spiro"
       id="path-effect44"
       is_visible="true"
       lpeversion="1" />
    <inkscape:path-effect
       effect="spiro"
       id="path-effect40"
       is_visible="true"
       lpeversion="1" />
    <inkscape:path-effect
       effect="spiro"
       id="path-effect36"
       is_visible="true"
       lpeversion="1" />
  </defs>
  <sodipodi:namedview
     id="base"
     pagecolor="#ffffff"
     bordercolor="#666666"
     borderopacity="1.0"
     inkscape:pageopacity="0.0"
     inkscape:pageshadow="2"
     inkscape:zoom="0.90509668"
     inkscape:cx="118.20532"
     inkscape:cy="236.17981"
     inkscape:document-units="mm"
     inkscape:current-layer="layer1"
     inkscape:document-rotation="0"
     showgrid="false"
     inkscape:window-width="1920"
     inkscape:window-height="1013"
     inkscape:window-x="-9"
     inkscape:window-y="-9"
     inkscape:window-maximized="1"
     inkscape:snap-global="true"
     units="px" />
  <metadata
     id="metadata5">
    <rdf:RDF>
      <cc:Work
         rdf:about="">
        <dc:format>image/svg+xml</dc:format>
        <dc:type
           rdf:resource="http://purl.org/dc/dcmitype/StillImage" />
        <dc:title></dc:title>
      </cc:Work>
    </rdf:RDF>
  </metadata>
  <g
     inkscape:label="Warstwa 1"
     inkscape:groupmode="layer"
     id="layer1">
    <g
       transform="matrix(0.70618241,0,0,0.70618241,-1217.7998,-318.62904)"
       id="g49349">
      <path
         id="circle9031"
         style="fill:#eadec3;fill-opacity:1;stroke-width:6.12674;stroke-linecap:round;stroke-linejoin:round"
         d="m 1866.9426,524.53234 c 1.1368,36.48628 -33.0675,69.70258 -69.54,67.24347 -33.0858,-0.67342 -63.3514,-29.18857 -64.6388,-62.49525 -3.2243,-32.986 22.3035,-65.865 55.0802,-70.86399 33.9681,-7.23371 70.7604,17.37643 77.5105,51.35081 1.0949,4.83856 1.6385,9.8036 1.5881,14.76496 z" />
      <path
         id="path9033"
         style="fill:#9a8a74;stroke-width:0.234713"
         d="m 1797.3305,581.08999 c 1.1237,1.42481 -2.3914,-0.41801 0,0 z" />
      <path
         id="path9035"
         style="fill:#9a8a74;stroke-width:0.234713"
         d="m 1827.5882,578.2787 c 5.2643,4.52696 -8.5282,1.54899 -0.8714,0.15991 z" />
      <path
         id="path9079"
         style="fill:#d5a364;fill-opacity:1;stroke-width:0.234713"
         d="m 1833.8904,551.57582 c -6.6625,-2.09441 -13.1857,7.36562 -8.2938,12.52996 5.4295,1.18661 16.1721,2.20274 17.3078,-5.40849 -0.1236,-4.56822 -4.8503,-7.3304 -9.014,-7.12147 z" />
      <path
         id="path9103"
         style="fill:#9a8a74;stroke-width:0.234713"
         d="m 1744.2429,522.17745 c -1.7996,0.52133 1.801,0.51877 0,0 z" />
      <path
         id="path9107"
         style="fill:#9a8a74;stroke-width:0.234713"
         d="m 1824.5909,473.15158 c 2.8226,1.15669 -3.6914,-0.26613 0,0 z m 5.0563,0.49182 c 2.7571,1.8654 -2.8704,0.81892 0,0 z m -30.3641,1.1221 c -2.8156,0.52718 2.4203,0.51792 0,0 z m -13.9407,1.00189 c -0.9534,1.16269 1.7544,-0.0651 0,0 z m 42.7003,0.1827 c 1.0912,2.37646 -3.4005,-1.07763 0,0 z" />
      <path
         id="path9109"
         style="fill:#9a8a74;stroke-width:0.234713"
         d="m 1819.9239,472.88777 c 1.595,-0.086 -0.7532,0.8271 0,0 z" />
      <path
         id="path9115"
         style="fill:#9a8a74;stroke-width:0.234713"
         d="m 1862.1614,499.26072 c -9.9226,7.5286 -23.064,3.15638 -34.1167,7.10556 -16.4527,1.65857 -32.9979,-0.80785 -49.4558,-0.0209 -9.6298,-1.4471 -19.2411,-3.53363 -29.0284,-3.4057 -5.8336,-4.1853 -13.9209,-0.58226 -15.1037,6.35461 -2.6829,10.37131 -1.7794,21.45756 0.4276,31.84153 2.3985,6.40775 3.561,16.41313 10.1821,19.05503 4.971,1.33104 9.4783,-3.69297 11.7552,-5.06167 2.4935,0.87961 10.6878,3.11612 10.4737,1.77605 -3.3237,-1.149 -5.7452,-0.72218 -2.8403,-3.27845 -2.7655,-0.52544 -9.2133,-1.66419 -3.1238,-3.49101 6.0749,-2.84025 13.4027,2.1667 18.6464,-3.24407 4.6035,-4.88244 11.665,-3.76825 17.2416,-1.52892 6.2344,3.2181 11.7584,-1.39173 17.7546,-2.12628 10.1327,-1.34062 20.3776,-2.54382 30.5954,-2.48436 8.2596,1.9772 -9.0883,3.72148 -3.6371,9.2344 1.6838,4.09227 15.8148,6.75962 6.7817,10.08595 -3.1486,-7.40647 -0.3914,5.06051 4.1953,2.28825 -1.9092,1.704 -12.0225,4.5778 -5.1971,6.29941 -9.7436,6.85861 -22.1354,2.52473 -33.0778,4.2357 -18.7858,0.12404 -38.1361,2.69975 -56.3823,-3.12985 -0.09,-3.15913 3.4667,-6.91032 -2.4099,-5.63401 -4.9221,-1.57781 -10.8553,2.15312 -5.3242,6.54402 14.1456,14.75037 34.88,23.1692 55.365,20.98592 21.1757,-1.61424 41.1548,-13.8765 51.7843,-32.3238 4.2542,-7.06905 7.2261,-14.92546 8.5731,-23.07123 -17.4304,2.01998 -35.0944,1.8937 -52.3774,5.16811 -3.1144,0.83447 -7.4744,-1.34565 -1.991,-2.05854 -11.2709,4.05407 -23.419,2.34819 -35.1143,3.40804 -4.4744,-2.93011 8.8643,-1.25628 11.5221,-1.6823 2.5943,0.70206 11.3965,-1.87654 3.8758,-1.43368 -8.022,0.40285 -16.0429,0.36903 -24.0144,-0.46439 -10.4066,-0.4026 -20.9063,-0.65259 -31.1116,-2.93496 -2.3443,-2.32591 0.1886,-7.21621 -0.027,-8.76932 3.2489,-1.20392 5.2608,-5.30265 0.051,-4.09283 9.709,-7.65294 22.8315,-5.89836 34.3699,-7.05731 5.197,-0.66218 13.7299,2.68308 16.965,-1.33771 -3.2547,-3.12911 -8.8534,2.95093 -13.6521,0.28057 -5.1509,-0.65777 -16.8239,-4.33878 -17.4408,-6.39306 4.6411,1.44692 5.9519,0.16835 3.8157,-0.97466 5.9385,0.75826 11.3617,3.92127 17.341,4.32119 2.3335,-1.44248 -5.4519,-3.71272 0.1267,-3.54665 6.5262,0.24278 12.9962,1.74699 18.8087,4.70028 2.4573,0.35049 8.1234,3.45243 2.6549,4.37245 12.1407,-1.38944 24.377,-3.63366 36.6245,-2.18201 8.8707,6.14851 20.8867,-3.3329 29.3461,4.1253 2.0978,-1.01735 -0.4861,-10.14162 -1.6004,-14.02117 -0.6774,-2.16928 -1.4463,-4.30879 -2.2515,-6.43356 z m -14.2946,3.74779 c -0.2317,1.78029 2.1158,-0.68087 0,0 z m -12.9834,2.26942 c 2.3158,1.70049 -2.6776,1.16191 0,0 z m -82.3287,1.20724 c 1.7077,-0.82437 0.4484,2.28791 0,0 z m -2.7744,0.67157 c 3.6492,0.81077 -1.1865,3.55401 0,0 z m 67.2927,1.23939 c 1.6824,0.63127 -1.6081,0.49008 0,0 z m -37.8015,1.33623 c -1.0559,0.72663 1.2861,0.53299 0,0 z m 19.1926,0.72018 c 2.1073,2.42379 -3.8208,-0.29438 0,0 z m 11.6826,3.1237 c 1.5052,1.79056 -2.6929,-0.56323 0,0 z m -71.4237,8.42912 c 0.8486,3.34564 3.1161,-2.09861 0,0 z m 97.1134,15.66307 c -2.2368,0.11741 1.3551,0.85885 0,0 z m -6.5862,0.73443 c -1.076,0.17459 1.0762,0.1745 0,0 z m -13.0402,0.67378 c -1.4441,0.88725 2.5727,-0.0934 0,0 z m -14.4109,2.81642 c 3.674,1.61935 -3.1439,2.25588 0,0 z m 35.7641,0.95877 c -2.75,1.13182 -10.5638,4.66569 -9.8632,6.16684 3.319,-1.72177 8.5224,-2.12569 9.8632,-6.16684 z m -9.8932,2.8091 c -0.5719,1.58936 2.5071,-1.11909 0,0 z m -9.7563,0.92661 c -4.5469,2.00778 0.4067,4.857 0,0 z m -27.3945,0.46769 -0.7425,0.58689 z m 23.9307,2.34873 c -1.1242,0.87499 2.0568,-0.0893 0,0 z m -29.3228,0.38546 c -0.8041,9.06943 -16.3792,-2.00221 -14.3291,5.32998 4.3176,0.81308 17.2425,2.79011 14.3291,-5.32998 z m -27.0755,6.52436 c -1.9186,0.27585 0.4085,1.06975 0.4853,0.21881 z m 18.0482,0.83603 c -3.0366,-1.0821 -1.5953,0.98901 0.2914,0.42004 z m 34.0802,1.89416 c -1.5107,0.94673 3.6718,-0.33528 0,0 z m 35.9683,1.47435 c -1.1174,1.46307 2.5097,-0.41752 0,0 z m 2.0528,0.95695 c -7.2222,1.8948 0.3297,5.66725 0,0 z m -67.2145,2.71738 c -6.043,1.72258 3.6403,3.92524 0,0 z m -14.5399,1.17362 c -4.7596,0.93054 3.9704,2.07181 0,0 z m 33.6855,8.44813 c 1.0823,0.17061 -0.6955,0.763 0,0 z m -10.1235,2.00598 c 10.6588,3.09968 21.7263,-0.96291 32.5083,0.89918 -10.0867,4.08115 -21.672,4.07694 -31.9999,0.87015 -2.3969,5.01969 -10.5099,0.14577 -3.6279,-1.64519 1.0293,-0.19054 2.0798,-0.1985 3.1195,-0.12414 z m -2.4521,0.3409 c -1.9296,1.34092 2.2886,0.65432 0,0 z m -9.3422,0.46953 c 0.7618,0.85856 -1.5375,-0.0942 0,0 z m 17.8258,0.32922 c -2.8104,-1.33461 -0.7321,2.26823 0,0 z m -14.0737,0.72785 c 0.7506,2.16421 -2.2866,-0.57275 0,0 z" />
      <path
         sodipodi:nodetypes="cccccccccccccccccccccccccccccccccccccccccccccccccccccccccccccccccccccccccccc"
         id="path9117"
         style="fill:#9a8a74;stroke-width:0.234713"
         d="m 1800.0055,457.65951 c -24.8699,-0.27235 -49.2902,14.73776 -60.063,37.19202 6.781,0.89325 13.8033,-1.62869 18.6882,-3.84355 3.4418,0.39308 16.0463,-2.94051 7.8211,-5.42476 -3.3086,0.0332 -9.6733,-3.14053 -2.6851,-2.64913 7.7374,-0.0651 15.6999,0.79233 23.1822,-1.28678 3.8095,-0.93423 5.2262,-4.33971 0.3143,-2.11848 -2.3271,2.05626 -10.4757,-1.23664 -4.379,-2.23988 -8.7077,-2.19556 4.0618,-2.69552 7.0241,-2.71579 4.9699,0.2349 3.7512,-1.72068 -0.6378,-1.83832 11.7594,-2.35906 22.8637,3.96774 34.5111,4.21652 -5.5557,1.22061 -11.749,0.34056 -17.0108,1.84215 1.9904,0.72236 11.0746,1.7646 4.4993,2.70425 -2.4882,0.0804 -12.2135,0.34342 -5.2145,2.2712 2.2543,0.17627 6.6907,1.83717 2.6556,2.75242 4.3497,0.53454 14.1576,2.83054 15.1536,1.09579 -7.3674,-1.98765 5.0895,-6.04355 8.167,-2.96575 3.7806,0.46021 8.0016,5.27995 1.4795,3.28639 -2.0729,-0.75652 -8.0191,-3.08738 -3.2362,-0.16622 6.4186,4.65568 14.7818,-1.24047 20.1379,5.72983 4.3285,2.23859 9.3477,-0.0108 5.981,-5.14199 -6.7804,-11.41243 -18.0083,-19.77571 -29.9341,-25.25095 -8.3215,-3.5944 -17.3796,-5.54023 -26.4544,-5.44897 z m 9.9659,13.83175 c 6.3997,-2.23335 3.34,4.8329 -0.8969,1.94255 -0.8198,-1.44376 -0.7208,-2.00391 0.8969,-1.94255 z m -39.3095,0.22289 c 1.9499,1.4064 -2.4193,0.40325 0,0 z m 34.4955,0.28025 c 0.4169,3.50571 -4.1234,-0.0145 0,0 z m -23.1257,1.59748 c 1.1079,0.49714 -1.108,0.49715 0,0 z m 44.2626,3.52087 c 1.1127,0.89355 -1.6018,0.23106 0,0 z m -31.3729,0.26344 c -1.1921,-0.39059 0.36,0.59314 0,0 z m -8.1327,0.25322 c -4.2354,-0.92369 1.5062,1.45976 0,0 z m 36.3794,0.89556 c 6.8849,3.4119 -6.9882,0.41904 -0.045,-6.5e-4 z m -47.3053,1.29749 c 4.8075,0.21388 -4.4609,1.30032 0,0 z m 17.7732,0.34128 c -1.3529,1.07998 2.3298,-0.0789 0,0 z m -28.5525,0.56196 c 3.7387,-1.13177 -0.4209,2.97352 0,0 z m 55.3098,1.78529 c 1.5946,-0.0837 -0.7547,0.82564 0,0 z m -34.0194,1.64315 c -1.4479,0.51282 1.4474,0.51446 0,0 z m 48.6835,0.23458 c 3.041,-1.06842 -0.1091,1.68671 0,0 z m -65.7003,0.46952 c -1.4886,0.32893 1.2938,0.50139 0,0 z m 55.5239,0.0445 c -1.1135,1.56378 2.1195,0.84203 0,0 z m 1.394,1.59822 c -1.4479,0.5131 1.4473,0.51477 0,0 z m -45.5182,0.82467 c -1.9027,0.0238 1.201,1.02039 0,0 z m 63.6958,0.0154 c 2.3798,-1.04871 0.6396,1.55372 0,0 z m -2.2383,0.099 c 1.7493,-0.20169 0.045,1.95265 0,0 z m -65.7606,0.01 c -4.8987,4.02855 4.9931,0.51997 0,0 z m -2.6981,0.01 c -2.8705,0.1659 1.7218,0.94917 0,0 z m -15.3327,0.72785 c 2.4076,0.20538 -1.014,1.21973 -0.7507,0.3198 z m 3.8442,4.57867 c -5.0247,-1.01021 2.2005,1.69367 0,0 z m -2.5526,0.10121 c -1.1914,-0.38845 0.3618,0.59211 0,0 z" />
      <path
         id="path9119"
         style="fill:#8c7764;stroke-width:0.234713"
         d="m 1795.3738,589.58196 c -4.0388,0.49186 2.617,1.13706 0,0 z" />
      <path
         id="path9121"
         style="fill:#8c7764;stroke-width:0.234713"
         d="m 1805.6763,589.34228 c -6.7759,-1.87804 1.3991,4.00343 0,0 z m 2.7638,0.08 c -3.1066,1.31917 2.8242,1.21586 0,0 z" />
      <path
         id="path9123"
         style="fill:#8c7764;stroke-width:0.234713"
         d="m 1799.5177,588.83548 c -3.3824,0.35019 2.9609,0.88028 0,0 z" />
      <path
         id="path9125"
         style="fill:#8c7764;stroke-width:0.234713"
         d="m 1791.7722,588.60091 c -1.4479,0.51496 1.4485,0.51322 0,0 z" />
      <path
         id="path9127"
         style="fill:#8c7764;stroke-width:0.234713"
         d="m 1812.175,586.9815 c -4.7282,-0.0696 1.6819,2.6217 0,0 z" />
      <path
         id="path9129"
         style="fill:#8c7764;stroke-width:0.234713"
         d="m 1800.4761,584.84546 c -1.91,0.36896 1.3204,0.9971 0,0 z" />
      <path
         id="path9131"
         style="fill:#8c7764;stroke-width:0.234713"
         d="m 1789.7844,583.01523 c -10.6927,0.36779 5.4092,4.0648 0,0 z m 3.2893,0.44724 c -1.867,1.21635 2.3843,0.25773 0,0 z m -15.2327,0.27659 c 1.3774,0.72568 -1.5355,0.28741 0,0 z m 27.9029,0.50021 c -5.336,-0.0415 -3.3232,5.32217 0,0 z" />
      <path
         id="path9133"
         style="fill:#8c7764;stroke-width:0.234713"
         d="m 1806.5042,582.97978 c -0.5702,1.58962 2.5054,-1.11974 0,0 z" />
      <path
         id="path9135"
         style="fill:#8c7764;stroke-width:0.234713"
         d="m 1829.9018,576.86538 c -2.1822,0.94366 2.186,0.67331 0,0 z" />
      <path
         id="path9137"
         style="fill:#8c7764;stroke-width:0.234713"
         d="m 1837.6524,576.33412 c -5.9354,-1.39083 -2.6688,3.77576 0.1316,0.65889 z" />
      <path
         id="path9143"
         style="fill:#8c7764;stroke-width:0.234713"
         d="m 1744.7757,557.69095 c 0.847,0.7697 0.9338,-1.31282 0,0 z" />
      <path
         id="path9145"
         style="fill:#b57224;fill-opacity:1;stroke-width:0.234713"
         d="m 1749.3481,553.86716 c -2.2076,2.59264 3.2347,-0.61507 0,0 z m 89.8499,0.46551 c -1.5952,-0.0856 0.7537,0.8272 0,0 z m 1.0922,0.50496 c -4.7218,-0.80594 -15.3043,2.3463 -13.0581,7.91597 4.8514,2.48946 13.9054,0.11099 13.8798,-6.17418 l -0.2997,-0.85404 z" />
      <path
         id="path9161"
         style="fill:#8c7764;stroke-width:0.234713"
         d="m 1824.9808,512.69639 c 2.8767,2.0151 9.4313,1.02606 2.6925,0.0298 l -1.2521,-0.0541 z" />
      <path
         id="path9163"
         style="fill:#965d4c;fill-opacity:1;stroke-width:0.234713"
         d="m 1804.8264,508.12318 c -4.4629,-0.38659 -4.6486,1.64273 -0.2025,1.82446 3.1303,0.9093 11.6031,0.77335 3.857,-1.05141 -1.1945,-0.37857 -2.4172,-0.59139 -3.6545,-0.77305 z" />
      <path
         id="path9167"
         style="fill:#965d4c;fill-opacity:1;stroke-width:0.234713"
         d="m 1761.3847,506.54911 c 0.9357,1.71715 2.2833,-1.14377 0,0 z m 20.6952,0.52652 c 1.2945,3.12855 10.8532,3.74712 9.7597,1.20643 -3.258,-0.49239 -6.6213,0.12142 -9.7597,-1.20643 z m -15.9667,0.0881 c 0.1003,1.76267 2.123,-0.67086 0,0 z" />
      <path
         id="path9169"
         style="fill:#8c7764;stroke-width:0.234713"
         d="m 1748.8037,505.9992 c -2.3072,-0.8573 -0.081,1.83462 0,0 z" />
      <path
         id="path9171"
         style="fill:#8c7764;stroke-width:0.234713"
         d="m 1751.022,504.80875 c -0.561,1.0402 1.2847,-0.1645 0,0 z" />
      <path
         id="path9175"
         style="fill:#8c7764;stroke-width:0.234713"
         d="m 1741.6863,502.6961 c -2.2368,0.35715 1.2846,1.34689 0,0 z" />
      <path
         id="path9177"
         style="fill:#8c7764;stroke-width:0.234713"
         d="m 1845.5426,486.117 c -1.2344,0.63303 1.5549,0.57655 0,0 z" />
      <path
         id="path9179"
         style="fill:#8c7764;stroke-width:0.234713"
         d="m 1848.3024,485.81117 c -0.9904,2.21409 1.8166,-1.14808 0,0 z" />
      <path
         id="path9181"
         style="fill:#8c7764;stroke-width:0.234713"
         d="m 1757.1528,485.32776 c -2.3039,5.125 12.1333,1.26784 2.9115,0.48473 -0.9824,-0.0859 -1.9425,-0.31416 -2.9115,-0.48473 z m 77.7581,0.37817 c -0.1465,0.71745 -0.1134,0.55545 0,0 z" />
      <path
         id="path9183"
         style="fill:#8c7764;stroke-width:0.234713"
         d="m 1818.3136,482.98051 c -3.7633,0.0904 0.7975,3.74203 0,0 z" />
      <path
         id="path9187"
         style="fill:#8c7764;stroke-width:0.234713"
         d="m 1816.8528,469.6614 c -3.372,1.65676 2.7652,1.47356 0,0 z" />
      <path
         id="path9189"
         style="fill:#8c7764;stroke-width:0.234713"
         d="m 1808.5716,467.99232 c -1.6584,-0.0115 0.9803,1.15791 0,0 z" />
      <path
         id="path9191"
         style="fill:#8c7764;stroke-width:0.234713"
         d="m 1807.3519,466.79713 c -1.8462,0.57387 1.5409,1.33582 0,0 z" />
      <path
         id="path9197"
         style="fill:#8c7764;stroke-width:0.234713"
         d="m 1749.7994,482.21451 c 2.8193,4.05151 12.312,-3.86439 5.2687,-2.27366 -1.466,1.41419 -4.9376,-0.74704 -5.2687,2.27366 z m 28.4403,-3.51245 c -1.3078,0.71374 1.308,0.71378 0,0 z m 70.0587,0.74683 c 2.7487,0.22292 -1.4567,1.4588 0,0 z m -14.7025,0.084 c -1.8704,3.44359 4.032,-1.10199 0,0 z m -68.8521,0.10778 c -2.1725,0.52221 2.1724,0.52221 0,0 z" />
      <path
         id="path9199"
         style="fill:#8c7764;stroke-width:0.234713"
         d="m 1744.8177,487.14604 c 4.5845,2.71647 2.2465,-4.55622 0,0 z" />
      <path
         id="path9201"
         style="fill:#9a6a4d;fill-opacity:1;stroke-width:0.234713"
         d="m 1733.4363,518.68316 c 11.4739,-1.94133 22.8548,-5.91897 34.6395,-4.77576 -10.9184,-0.48116 -20.9245,-8.32065 -32.0337,-5.81565 -3.2001,1.97293 -1.4607,7.35386 -2.6058,10.59141 z m 35.9559,-9.05905 c 0.045,1.53814 1.6398,-0.69834 0,0 z m 6.6296,0.92772 c -3.2303,1.48488 4.7455,-0.39928 0,0 z m -19.9827,0.0391 c -1.0565,1.71809 3.5146,-1.20895 0,0 z m 61.0841,0.7063 c 1.2977,1.97771 2.2579,-1.51485 0,0 z m -19.34,1.16485 c 0.3309,1.91906 2.5115,-1.55226 0,0 z m -62.8328,0.94709 c 2.2241,-1.04878 -0.2784,2.06049 0,0 z m 50.9347,0.20095 c -0.09,1.35798 3.4167,-0.8336 0,0 z m -50.2284,1.03186 c 4.6504,0.72941 -3.3394,2.02804 0,0 z" />
      <path
         id="path9203"
         style="fill:#94795c;fill-opacity:1;stroke-width:0.234713"
         d="m 1738.2965,547.05815 c 3.1847,1.57516 16.2956,-1.78757 7.6531,-3.94757 -2.2195,-1.1586 -5.5222,-7.78362 -9.6509,-3.10854 -1.2227,2.45343 0.6501,5.10177 1.9978,7.05611 z m 123.1045,-8.84457 c -1.4634,0.97056 2.9754,-0.1259 0,0 z m -2.9337,0.14139 c -2.3203,-1.34497 0.026,1.30878 0,0 z m -117.6792,2.54166 c -1.5119,3.64903 -3.9072,-1.83454 0,0 z m 5.3825,0.44685 c -3.486,-1.33929 -1.273,3.20072 0,0 z m 7.1601,2.05531 c -3.9406,7.24424 5.046,3.29076 9.0525,4.61485 3.5641,0.67549 8.6322,-3.89016 1.9867,-3.06806 -3.7396,0.33134 -7.6453,0.28128 -11.0392,-1.54679 z" />
      <path
         id="path9205"
         style="fill:#94795c;fill-opacity:1;stroke-width:0.234713"
         d="m 1741.4745,555.09968 c 6.9987,2.41392 1.7125,-5.26788 0.2364,-6.99879 -4.5657,-0.44522 -3.4692,5.99034 -0.2364,6.99879 z m 7.0202,-2.16894 c -1.421,2.23603 2.6821,1.29601 0,0 z" />
      <path
         id="path9207"
         style="fill:#8c7764;stroke-width:0.234713"
         d="m 1741.3815,557.62517 c 4.9086,2.11299 -1.6518,-3.34021 0,0 z" />
      <path
         id="path9209"
         style="fill:#8c7764;stroke-width:0.234713"
         d="m 1756.2157,574.41405 c 0.6116,-4.77565 -5.1944,-0.6144 0,0 z m 1.1167,-2.49631 c -1.1301,2.60689 3.7975,-1.30269 0,0 z m 74.4385,1.30881 c -4.1455,2.10438 4.983,-0.61473 0,0 z" />
      <path
         id="path9211"
         style="fill:#8c7764;stroke-width:0.234713"
         d="m 1768.5887,584.20419 c -0.045,-0.0246 -0.045,-0.0246 0,0 z" />
      <path
         id="path9213"
         style="fill:#8c7764;stroke-width:0.234713"
         d="m 1773.3279,585.85387 c 4.3064,3.54585 12.9225,-4.47124 4.8096,-4.94506 -4.49,1.71155 -9.8842,-2.2027 -13.8265,-0.20289 2.6248,2.2289 6.0264,3.44279 9.0169,5.14795 z m 7.5774,-6.59014 c -2.0752,1.27432 2.7888,0.26899 0,0 z m -11.6731,2.72544 c 0.7723,0.72709 -1.2303,0.12138 0,0 z m 31.1533,0.32228 c -3.1754,0.008 2.0205,1.07734 0,0 z" />
      <path
         id="path9217"
         style="fill:#8c7764;stroke-width:0.234713"
         d="m 1788.1742,590.9544 c 4.846,0.36118 -3.2079,-1.65204 0,0 z" />
      <path
         id="path9219"
         style="fill:#8c7764;stroke-width:0.234713"
         d="m 1801.0504,591.99606 c -0.1187,-0.007 -0.1187,-0.007 0,0 z" />
      <path
         id="path9221"
         style="fill:#8c7764;stroke-width:0.234713"
         d="m 1817.9001,588.42632 c -2.8317,-3.94386 -8.317,2.79217 -2.5761,1.3562 0.9158,-0.336 1.7646,-0.82197 2.5761,-1.3562 z" />
      <path
         id="path9225"
         style="fill:#8c7764;stroke-width:0.234713"
         d="m 1843.735,575.82073 c -10.1228,6.15052 -22.3006,6.15301 -33.5511,8.6365 -3.4345,3.13674 7.0235,1.45669 9.3412,1.96543 8.2184,1.7117 15.5369,-4.41077 22.1258,-8.70786 l 1.0585,-0.91902 z m -26.3689,7.48352 c -1.7758,1.97076 -4.0393,-0.36763 0,0 z m 6.2039,1.60842 c -1.1614,2.98186 -3.6386,-0.8261 0,0 z" />
      <path
         id="path9229"
         style="fill:#94795c;fill-opacity:1;stroke-width:0.234713"
         d="m 1862.4892,543.57782 c -4.745,4.93368 -12.4742,2.832 -18.6087,3.3051 -6.8033,1.02051 4.5053,7.34648 7.4187,6.80789 6.0055,0.88962 12.2909,-3.63789 11.19,-10.11299 z" />
      <path
         id="path9231"
         style="fill:#8c7764;stroke-width:0.234713"
         d="m 1864.8563,537.7985 c -7.571,-1.80898 2.0742,7.29485 0,0 z" />
      <path
         id="path9233"
         style="fill:#9a6a4d;fill-opacity:1;stroke-width:0.234713"
         d="m 1862.7691,501.41597 c -1.4803,7.57328 -10.9785,5.74277 -16.6743,5.92587 -6.4804,-0.40665 -12.722,1.87484 -19.2181,1.17383 -3.1854,-0.45679 -8.4607,0.29335 -2.366,1.44267 8.4523,1.28815 17.0917,1.70623 25.5608,3.16374 5.3601,-0.20837 11.5023,3.00784 16.0819,1.55517 0.553,-4.6241 -2.864,-8.75355 -3.3843,-13.26128 z m -27.0766,6.1798 c -1.4487,0.51314 1.4479,0.51509 0,0 z" />
      <path
         id="path9235"
         style="fill:#8c7764;stroke-width:0.234713"
         d="m 1846.6446,476.49048 c -0.7314,0.59224 0.8553,0.22808 0,0 z" />
      <path
         id="path9237"
         style="fill:#8c7764;stroke-width:0.234713"
         d="m 1843.0994,473.70472 c -0.5031,1.26116 1.4709,-0.18177 0,0 z" />
      <path
         id="path9239"
         style="fill:#b1a18a;fill-opacity:1;stroke-width:0.234713"
         d="m 1800.0055,457.65951 c -13.2436,-0.49842 -26.3063,4.40185 -37.3789,11.37425 -3.4938,2.16119 -4.3712,3.95509 0.3605,2.33723 9.1399,-1.73884 18.8575,-3.49798 27.9227,-0.44529 3.1033,-0.96697 -0.2046,-7.22063 4.8389,-5.58913 0.3069,4.24088 8.8242,-3.2332 12.6716,-1.97865 4.0146,0.98192 4.9382,3.87091 9.4591,2.73804 6.6965,1.15162 13.3025,5.22774 20.2286,3.4023 -11.134,-7.63296 -24.5888,-11.89183 -38.1025,-11.83875 z m 2.6808,2.78865 c 3.0198,0.9856 -2.529,0.71526 0,0 z m -3.0276,0.0252 c 1.8694,0.55853 -1.2623,1.26001 0,0 z m 5.8502,0.24079 c 4.484,0.38324 -2.794,0.83797 0,0 z m -5.3964,0.92955 c 4.3973,0.25656 -1.5881,3.68732 0,0 z m 2.2829,0.0643 c 2.6418,0.8914 -1.7846,1.30462 0,0 z m -21.3221,0.17757 c 0.4413,0.63478 -1.2319,-0.42586 0,0 z m 39.0989,0.20572 c 1.2603,0.35012 -1.4582,0.37278 0,0 z m -43.5709,0.0559 c 0.8036,1.38364 -1.9922,-0.38561 0,0 z m 16.9175,0.64821 c 1.0822,0.1709 -0.6952,0.76277 0,0 z m -14.9649,0.47062 c 1.9709,1.49962 -2.3357,0.25233 0,0 z m 5.59,0.11619 c 1.3424,0.41628 -0.9476,0.64826 0,0 z m 35.0897,0.11729 c 2.1726,0.52213 -2.1725,0.52228 0,0 z m -23.3537,0.0303 c 1.0761,0.1746 -1.0762,0.17451 0,0 z m 25.8183,0.16735 c 3.5261,0.28893 -2.9025,0.76539 0,0 z m -22.4919,0.0701 c 1.6624,0.25105 -1.1731,0.90871 0,0 z m -19.6019,0.45124 c 1.8359,1.48426 -2.2176,0.34477 0,0 z m 2.9289,0.072 c 0.8554,5.37597 -11.9429,-0.84517 -3.0291,0.67895 1.0639,0.34911 2.2303,0.0783 3.0291,-0.67895 z m 6.1996,0.007 c 7.1119,-1.50898 -3.6114,3.10783 0,0 z m 3.8333,0.14066 c 1.2858,-0.16395 -0.5618,1.04032 0,0 z m 31.3747,0.24006 c 1.2123,1.0806 -2.1026,-0.0751 0,0 z m -18.5135,0.24336 c 0.03,1.70387 1.703,-0.81568 0,0 z m 12.0319,0.22069 c 1.5119,-0.15344 -0.7845,0.98241 0,0 z m -45.2745,0.0157 c 4.4898,-0.75631 -1.5344,1.35239 0,0 z m 48.8849,0.0325 c 1.498,-0.13313 -0.5636,1.16732 0,0 z m -32.0836,0.67962 c 0.3686,1.56201 -1.6517,-0.59164 0,0 z m 9.4511,0.53237 c 1.7656,4.41575 4.8756,-0.29673 0,0 z m 31.7482,0.14798 c 1.0882,1.71889 -2.2122,-0.10719 0,0 z m -43.851,0.47282 c 1.1261,2.13177 -2.4835,-0.67283 0,0 z m 32.2696,0.70081 c 0.4533,0.62328 0.3957,0.54407 0,0 z m -31.9367,0.78448 c 3.1348,0.7134 -2.5779,0.35342 0,0 z m 43.8809,0.004 c 0.6498,1.23491 -1.4926,-0.31186 0,0 z m -32.2626,0.39279 c 1.1549,2.98819 3.9089,-0.72675 0,0 z m -1.9366,0.22727 c -2.1013,1.07767 2.2824,0.73247 0,0 z m -5.3982,0.23494 c 3.0797,0.48734 -2.6418,0.64037 0,0 z" />
      <path
         sodipodi:nodetypes="ccssccsssssssssscscc"
         d="m 1811.6866,458.19681 c -18.4357,-3.25348 -37.3931,1.31267 -52.3314,12.60474 0.05,-0.0256 0.098,-0.0512 0.1471,-0.0768 0.093,-0.048 0.1848,-0.096 0.2774,-0.14364 0.093,-0.0474 0.1853,-0.0949 0.2782,-0.14187 65.6816,-15.79697 117.1705,51.61189 73.7368,111.91344 -0.079,0.0664 -0.1598,0.13376 -0.2398,0.20028 -0.079,0.0663 -0.1607,0.13268 -0.2412,0.19878 -0.08,0.0656 -0.1611,0.13209 -0.2418,0.19782 -0.081,0.0656 -0.1616,0.13124 -0.2425,0.19659 -0.081,0.0649 -0.1625,0.13047 -0.2442,0.19547 -0.081,0.0649 -0.1627,0.12979 -0.2443,0.19445 -0.082,0.064 -0.1637,0.129 -0.2456,0.19321 -0.082,0.064 -0.1642,0.12822 -0.2465,0.19214 -0.082,0.064 -0.1648,0.12762 -0.2472,0.19113 -0.083,0.0634 -0.1654,0.12676 -0.2484,0.18992 -0.06,0.0453 -0.1204,0.0912 -0.1807,0.1367 18.5507,-9.69424 31.5506,-27.4618 35.1847,-48.08852 6.4646,-36.69402 -18.0161,-71.68546 -54.6791,-78.15553 z"
         style="fill:#000000;fill-opacity:0.474708;stroke-width:6.7066;stroke-linecap:round;stroke-linejoin:round"
         id="path48933" />
    </g>
  </g>
</svg>
