<?xml version="1.0" encoding="UTF-8" standalone="no"?>
<svg
   xmlns:dc="http://purl.org/dc/elements/1.1/"
   xmlns:cc="http://creativecommons.org/ns#"
   xmlns:rdf="http://www.w3.org/1999/02/22-rdf-syntax-ns#"
   xmlns:svg="http://www.w3.org/2000/svg"
   xmlns="http://www.w3.org/2000/svg"
   xmlns:xlink="http://www.w3.org/1999/xlink"
   xmlns:sodipodi="http://sodipodi.sourceforge.net/DTD/sodipodi-0.dtd"
   xmlns:inkscape="http://www.inkscape.org/namespaces/inkscape"
   sodipodi:docname="luna.svg"
   inkscape:version="1.0 (4035a4fb49, 2020-05-01)"
   id="svg8"
   version="1.1"
   viewBox="0 0 166.6875 164.04167"
   height="620"
   width="630">
  <defs
     id="defs2">
    <linearGradient
       id="linearGradient946"
       inkscape:collect="always">
      <stop
         id="stop942"
         offset="0"
         style="stop-color:#1a1a1a;stop-opacity:1" />
      <stop
         id="stop944"
         offset="1"
         style="stop-color:#666666;stop-opacity:1" />
    </linearGradient>
    <linearGradient
       id="linearGradient938"
       inkscape:collect="always">
      <stop
         id="stop934"
         offset="0"
         style="stop-color:#cccccc;stop-opacity:1" />
      <stop
         id="stop936"
         offset="1"
         style="stop-color:#333333;stop-opacity:1" />
    </linearGradient>
    <linearGradient
       gradientTransform="rotate(105,-110.19797,290.61017)"
       gradientUnits="userSpaceOnUse"
       y2="39.383862"
       x2="-279.76486"
       y1="205.94032"
       x1="-389.11929"
       id="linearGradient948"
       xlink:href="#linearGradient946"
       inkscape:collect="always" />
    <radialGradient
       gradientUnits="userSpaceOnUse"
       gradientTransform="matrix(1.1799281,-0.39096706,0.38266957,1.154892,303.92706,-213.44917)"
       r="38.8055"
       fy="174.97752"
       fx="-249.77797"
       cy="174.97752"
       cx="-249.77797"
       id="radialGradient950"
       xlink:href="#linearGradient938"
       inkscape:collect="always" />
    <linearGradient
       y2="39.383862"
       x2="-279.76486"
       y1="205.94032"
       x1="-389.11929"
       gradientTransform="rotate(105,-110.19797,290.61017)"
       gradientUnits="userSpaceOnUse"
       id="linearGradient970"
       xlink:href="#linearGradient946"
       inkscape:collect="always" />
  </defs>
  <sodipodi:namedview
     inkscape:window-maximized="0"
     inkscape:window-y="18"
     inkscape:window-x="224"
     inkscape:window-height="977"
     inkscape:window-width="1661"
     units="px"
     showgrid="false"
     inkscape:document-rotation="0"
     inkscape:current-layer="layer1"
     inkscape:document-units="mm"
     inkscape:cy="394.41611"
     inkscape:cx="198.01425"
     inkscape:zoom="0.49497475"
     inkscape:pageshadow="2"
     inkscape:pageopacity="0.0"
     borderopacity="1.0"
     bordercolor="#666666"
     pagecolor="#ffffff"
     id="base" />
  <metadata
     id="metadata5">
    <rdf:RDF>
      <cc:Work
         rdf:about="">
        <dc:format>image/svg+xml</dc:format>
        <dc:type
           rdf:resource="http://purl.org/dc/dcmitype/StillImage" />
        <dc:title></dc:title>
      </cc:Work>
    </rdf:RDF>
  </metadata>
  <g
     id="layer1"
     inkscape:groupmode="layer"
     inkscape:label="Warstwa 1">
    <g
       transform="matrix(0.96726857,0.25917883,-0.25917883,0.96726857,4.8388432,-48.473287)"
       id="g968">
      <path
         id="path952"
         style="fill:#333333;stroke:none;stroke-width:0.0472469;stroke-linecap:round;stroke-linejoin:round"
         d="m 187.77576,164.33231 c -0.0283,-0.50219 -0.45232,-0.84707 -0.753,-1.20633 -1.60715,-1.72177 -3.29616,-3.36524 -4.99572,-4.99511 -0.88187,-0.82845 -1.75401,-1.6712 -2.69206,-2.4363 -0.17761,-0.15209 -0.41644,-0.22253 -0.64122,-0.13982 -0.13797,-7.4e-4 -0.1955,0.29201 -0.22775,0.0629 -0.16774,-0.37805 -0.64785,-0.43737 -1.0117,-0.38079 -0.81195,0.12312 -1.46096,0.6906 -2.24757,0.8864 -0.20539,0.0166 -0.40237,0.0901 -0.51945,0.26878 -0.13099,0.10422 -0.0301,0.29757 -0.0562,0.4416 -0.0155,0.21224 0.21458,0.34378 0.38556,0.41931 0.40648,0.19774 0.8851,0.29296 1.21402,0.62016 0.34463,0.45047 0.55938,0.99413 0.96353,1.40186 0.6778,0.70392 1.48784,1.26126 2.25083,1.86663 1.48668,1.12682 2.96846,2.2622 4.50153,3.32557 0.49108,0.32086 1.06139,0.66933 1.67421,0.52832 0.43296,-0.12333 0.88939,-0.14835 1.33134,-0.059 0.35461,0.0699 0.77693,-0.14288 0.81344,-0.52748 0.003,-0.0256 0.007,-0.0512 0.0102,-0.0768 z m -8.06535,-6.00665 c -0.35471,-0.26317 -0.80823,-0.36519 -1.13772,-0.66168 -0.0204,-0.12107 0.11142,-0.2611 0.12322,-0.39627 0.033,-0.1258 0.0443,-0.25805 0.0246,-0.38694 0.33913,0.50425 0.67746,1.01033 1.05185,1.48931 -0.0206,-0.0148 -0.0413,-0.0296 -0.0619,-0.0444 z m -1.34093,-2.0317 c -0.14279,-0.1604 0.0561,-0.0479 0,0 z" />
      <path
         id="path954"
         style="fill:#333333;stroke:none;stroke-width:0.0472469;stroke-linecap:round;stroke-linejoin:round"
         d="m 184.27116,164.69116 c -0.15148,-0.34977 -0.52993,-0.50551 -0.80313,-0.7451 -1.35353,-1.01325 -2.7303,-2.01228 -4.05811,-3.02639 -0.7822,-0.62224 -1.57494,-1.2477 -2.23053,-2.0067 -0.28713,-0.31278 -0.44443,-0.7406 -0.79564,-0.99238 -0.22927,-0.11609 -0.49069,-0.0855 -0.71381,0.0295 -0.13285,0.0559 -0.26658,0.16748 -0.41488,0.0871 -0.32012,-0.107 -0.72593,0.0271 -0.84771,0.35912 -0.0417,0.21423 -0.0313,0.42941 0.0748,0.62459 0.20783,0.48453 0.39071,0.98462 0.65168,1.44337 0.45532,0.6708 1.28711,0.87332 1.98818,1.18309 1.79008,0.80049 3.4193,1.90033 5.06926,2.94165 0.46237,0.26804 0.9035,0.58959 1.40471,0.77964 0.18318,0.0653 0.35526,-0.0829 0.53282,-0.1164 0.16906,-0.14154 0.10289,-0.36815 0.14226,-0.56107 z" />
      <path
         id="path956"
         style="fill:#333333;stroke:none;stroke-width:0.0472469;stroke-linecap:round;stroke-linejoin:round"
         d="m 188.11626,166.55763 c 0.0949,-0.45459 -0.33721,-0.88271 -0.78704,-0.83152 -0.20107,0.006 -0.37895,0.14454 -0.49056,0.28857 -0.94961,-0.19264 -1.89047,-0.44805 -2.79603,-0.79412 -1.53988,-0.71367 -2.94414,-1.67766 -4.39071,-2.5573 -0.89362,-0.55002 -1.79137,-1.09927 -2.74676,-1.53662 -0.55193,-0.31726 -1.0144,-0.77343 -1.42645,-1.25399 -0.21599,-0.22482 -0.29084,-0.52907 -0.43666,-0.79429 -0.14614,-0.22372 -0.46475,-0.33051 -0.70261,-0.19137 -0.28122,0.10747 -0.36839,0.45358 -0.33212,0.72943 0.0748,0.9175 0.62261,1.72372 1.31042,2.30556 1.11147,0.94944 2.40722,1.64579 3.66738,2.37351 1.72562,0.95724 3.45945,1.90723 5.26051,2.71643 0.80316,0.32968 1.66672,0.6645 2.55082,0.54689 0.45331,-0.0892 0.90038,-0.32046 1.19165,-0.68463 0.0641,-0.0953 0.1067,-0.20345 0.12804,-0.31611 z" />
      <path
         id="path928"
         style="fill:#333333;stroke:none;stroke-width:0.0472469;stroke-linecap:round;stroke-linejoin:round"
         d="m 55.816316,41.735651 c 0.0088,-0.454264 -0.425139,-0.709635 -0.739937,-0.955322 -1.461765,-1.058283 -2.939594,-2.094978 -4.431876,-3.109725 -0.383161,-0.251044 -0.8529,-0.564109 -1.326343,-0.368023 -0.318767,0.139769 -0.557723,0.417123 -0.782737,0.669101 -0.03821,0.177365 -0.212261,0.360787 -0.07334,0.530257 0.104537,0.296675 0.396319,0.460806 0.60454,0.680783 0.854318,0.750455 1.697343,1.517441 2.601346,2.208232 0.242363,0.211867 0.587293,0.316124 0.734386,0.622473 0.251716,0.442435 0.624298,0.849528 1.136008,0.975045 0.368414,0.136503 0.782797,0.152292 1.142971,-0.01907 0.475504,-0.216415 0.89279,-0.601536 1.107374,-1.080643 0.0095,-0.05097 0.01805,-0.102158 0.02766,-0.153077 z" />
      <path
         id="path930"
         style="fill:#333333;stroke:none;stroke-width:0.0472469;stroke-linecap:round;stroke-linejoin:round"
         d="m 42.600367,52.794948 c 0.08302,-0.302117 -0.07705,-0.599127 -0.301211,-0.793383 -0.418732,-0.59117 -0.648427,-1.290312 -0.908639,-1.960102 -0.423912,-1.153325 -0.77621,-2.334484 -1.255879,-3.466452 -0.09218,-0.182227 -0.27241,-0.318146 -0.483863,-0.289177 -0.175901,-0.06411 -0.292009,0.04617 -0.400726,0.170049 -0.17714,0.105456 -0.18306,0.333908 -0.15048,0.516005 0.350236,1.243448 0.798974,2.462881 1.04639,3.733129 0.126577,0.518302 -0.0987,1.072479 0.135829,1.570323 0.144386,0.336351 0.456304,0.545415 0.710607,0.790152 -0.185246,0.469182 -0.587106,0.832669 -0.723652,1.320552 -0.04089,0.168054 0.02162,0.304149 0.146326,0.41639 0.08626,0.146052 0.199163,0.245358 0.378327,0.207188 0.336309,0.06082 0.540626,-0.280638 0.731419,-0.499329 0.376818,-0.503861 0.773594,-1.006629 1.035154,-1.582194 0.01676,-0.04324 0.02979,-0.08799 0.04082,-0.133038 z" />
      <path
         id="path868"
         style="fill:url(#radialGradient950);fill-opacity:1;stroke:none;stroke-width:0.302506;stroke-linecap:round;stroke-linejoin:round"
         d="m 102.41272,108.34401 c -0.11067,-1.5573 -0.78417,-3.02613 -1.44595,-4.42137 -0.0358,-0.35404 -1.288757,-0.8064 -0.58346,-0.74291 1.14206,-0.15131 1.67549,-1.45212 1.9297,-2.45513 0.28358,-1.132514 0.33722,-2.329953 0.78639,-3.410175 0.39537,-2.66034 0.26796,-5.333089 1.03202,-7.896159 0.93235,-3.400729 2.30548,-6.618386 3.5687,-9.925476 0.62866,-2.898401 -0.25212,-5.841571 -0.006,-8.75895 4.1e-4,-2.250385 0.27915,-4.552494 -0.24016,-6.764959 -0.50407,-1.568374 -2.04064,-2.444821 -2.90696,-3.789946 -2.01968,-2.714837 -3.37095,-5.844356 -4.81129,-8.879618 -2.937033,-2.853864 -4.909966,-6.73199 -8.509864,-8.869993 -1.87318,-0.967419 -4.089101,-1.171557 -6.154937,-0.839687 -0.550088,0.08115 -0.238437,-0.936554 -1.167441,-0.836871 -1.518123,-0.482252 -3.042763,-1.195843 -4.65854,-1.181891 -0.362194,0.396384 -0.782258,0.178437 -1.278754,0.08609 -2.047484,-0.369032 -4.123324,0.0017 -6.177302,-0.347017 -2.579137,-0.109015 -5.132479,0.379974 -7.696159,0.580632 -2.446706,0.193561 -4.700755,1.199683 -6.949929,2.097434 -0.704968,0.387867 -1.603021,0.246041 -2.240214,0.741796 -0.335377,0.456917 -1.092827,0.635386 -1.469205,0.109317 -1.265432,-1.039902 -2.426329,-2.230462 -3.756143,-3.17714 -1.282284,-0.24596 -2.507895,0.493432 -3.684083,0.911063 -0.852786,0.370984 -1.698922,0.757259 -2.537127,1.160217 -0.188064,0.554271 -0.13667,1.001523 0.320518,1.373755 1.112414,1.48606 2.166138,3.071455 2.791566,4.828601 0.09401,0.80116 -0.280854,-0.462313 -0.433453,-0.706582 -0.852649,-1.652251 -1.792047,-3.311099 -3.09507,-4.65094 -0.719518,-0.617143 -1.39862,0.359801 -1.999103,0.691703 -0.595863,0.544897 -1.519672,0.98138 -1.686091,1.828068 0.257643,0.921979 0.7354,1.810486 1.020568,2.742211 0.590897,1.505214 0.993608,3.146634 1.988211,4.446487 0.483492,0.325798 -0.351934,0.911574 -0.496759,1.310618 -0.762163,1.169052 -2.056398,2.304457 -1.727799,3.846416 0.26402,0.755765 -0.628589,0.175106 -0.314921,-0.301946 -0.08377,-0.849601 -1.298427,-1.225899 -1.965596,-0.855504 -0.817744,0.984125 -0.76081,2.387831 -1.137035,3.564273 -0.467922,1.443395 -1.199714,2.7968 -1.613914,4.265263 -1.329691,4.091982 -2.237814,8.370955 -2.096259,12.69412 -0.02206,5.162779 1.275357,10.268063 3.481009,14.919357 0.918979,2.099052 2.117144,4.055639 3.383605,5.957477 1.13207,2.069881 1.180846,4.591546 2.583766,6.538636 1.152591,1.64409 2.476495,3.24014 4.156391,4.36357 1.800913,0.55077 3.600619,1.40851 5.520355,1.32968 1.464138,0.07 2.701247,0.82608 4.076695,1.28729 0.953837,0.34616 1.890353,0.74978 2.914991,0.80239 3.06178,0.64345 5.378389,2.83559 8.156508,4.10646 0.900971,0.45734 2.224421,0.33229 2.640773,-0.71587 0.132873,-0.50749 0.326217,-0.92846 0.923689,-0.93543 3.068774,-0.57302 6.363955,-0.0269 9.279104,-1.33339 1.407622,-0.57282 2.177732,-2.18456 1.81794,-3.64781 -0.262446,-1.44312 -1.038659,-2.72825 -1.784934,-3.95615 -0.425531,-1.67167 -1.344544,-3.18428 -2.212644,-4.66206 -0.0967,-0.47849 -0.774843,-0.58809 -0.790998,-0.991716 0.04955,-0.758915 -0.46902,-1.511215 -1.110701,-1.886781 -0.569902,-0.712686 -1.022577,-1.516993 -1.723704,-2.119239 -0.811367,-0.6974 -1.050692,-1.897929 -1.984881,-2.448091 -0.980919,-0.317189 -2.101095,0.609815 -3.014581,-0.143915 -0.42987,-0.208669 -0.695827,-0.86154 -0.108694,-1.07612 0.452914,-0.372697 0.850624,0.390006 1.328864,0.457835 0.510924,0.343657 1.388839,0.01976 1.246291,-0.67601 0.579056,0.152052 0.416742,0.521283 0.599455,0.977518 0.551726,0.531777 1.153007,1.030763 1.573571,1.695151 0.690106,0.899348 1.227065,1.937631 1.935951,2.802711 0.646884,0.09786 0.847736,0.13998 1.044308,0.911972 0.730352,0.904354 1.179424,2.025755 2.143549,2.732215 0.554856,0.56662 1.225411,1.12667 1.633843,1.77197 -0.910852,0.72396 -0.210376,1.95108 0.232996,2.73756 0.626942,1.14834 1.379081,2.27174 1.628523,3.56646 0.497774,1.14875 1.239138,2.60338 2.675128,2.63367 1.879122,0.95931 3.934704,1.50908 5.726333,2.62627 0.510454,0.49389 1.263111,1.05675 1.944597,0.50894 1.903703,-0.95811 4.066051,-1.48093 5.649554,-2.98835 0.654418,-0.54636 1.32671,-1.09518 1.826693,-1.77002 0.93879,-0.1674 1.7938,-0.90789 2.00802,-1.84187 z m -3.828879,-6.0628 c -1.195127,0.0181 -1.456049,1.42283 -2.21514,2.09185 -0.897043,0.99396 -2.308357,1.1891 -3.363693,1.9621 -0.487605,0.22382 -1.285958,0.40259 -1.65702,-0.0278 0.750144,-0.84087 1.833372,-1.3375 2.781978,-1.93593 1.308713,-0.65199 2.575913,-1.40357 3.884634,-2.0408 0.122988,-0.0784 0.728631,-0.0836 0.569241,-0.0494 z m 2.092529,-25.452651 c -0.937053,0.02151 -2.121018,-0.603939 -2.974199,0.104894 -0.671372,0.866688 0.275629,1.859303 0.482375,2.727547 0.53817,1.236647 0.09905,3.128497 -1.385238,3.403951 -1.197814,0.186539 -2.880828,-0.01991 -3.249179,-1.404434 -0.152585,-0.65468 -0.307248,-1.576086 0.19235,-2.083717 0.830508,0.517546 1.8001,0.0023 2.698144,0.223527 0.249964,-0.537427 0.510648,-0.985546 -0.01278,-1.408729 0.761168,-0.182255 1.11548,-1.205788 0.441911,-1.709505 -0.699877,-0.677776 -1.763569,-0.970577 -2.375946,-1.690109 0.912605,-0.222274 1.786977,1.019523 2.675295,0.286158 0.288352,-0.401852 0.546555,-0.65413 1.020325,-0.284712 0.896484,0.244354 1.294016,1.2832 2.236632,1.39601 0.16183,0.07691 0.24919,0.266786 0.25034,0.439127 z m -4.371871,10.218628 c -0.411924,0.102653 -0.705237,0.164889 -0.389427,-0.28229 0.134962,-0.199611 0.934831,0.34832 0.389427,0.28229 z M 92.074218,86.0896 c -0.662522,0.240812 -0.643783,-0.65584 -0.393083,-0.487488 0.06997,0.120618 0.439116,0.461311 0.393083,0.487488 z m -1.620921,-2.55341 c -0.70611,-0.165598 0.03368,-0.902248 0.0362,-0.06712 0.04889,0.148669 0.158493,0.280458 -0.0362,0.06712 z m -6.96307,-0.417978 c -0.04848,-0.06134 0.108388,-0.04519 0,0 z m -4.154102,4.764931 c -0.743783,-0.567699 -1.846806,-0.585748 -2.694569,-0.267046 -0.435524,0.115577 -0.440963,0.688077 -0.816743,0.814402 0.330435,-0.306335 0.409304,-0.795604 0.890544,-0.92091 0.712053,-0.686157 -0.132628,-1.679597 -0.75356,-2.093883 -1.652098,-1.178531 -4.0628,-1.693836 -5.892166,-0.628179 -0.527501,0.173546 -0.392806,0.938845 -0.794393,1.063038 -0.490236,0.351681 0.18556,-0.755496 0.210214,-1.063873 0.191577,-0.614133 0.624505,-1.040055 1.225018,-1.251868 0.488905,-0.313484 1.204162,-0.648798 1.80518,-0.239279 0.581742,0.307514 1.171568,0.02315 1.708193,-0.192983 1.898208,0.07999 3.431228,1.510124 4.560403,2.91601 0.416053,0.562841 0.593961,1.259909 0.657047,1.947351 l -0.07857,-0.06184 z m -3.77158,6.303075 c -0.481809,-1.090406 -1.107571,-2.294183 -1.569356,-3.281669 0.502619,0.148859 0.494092,0.489624 0.591331,0.946871 0.310484,0.872561 0.719337,1.728558 1.307258,2.449301 -0.09654,0.784019 -0.0671,0.364793 -0.32923,-0.114513 z m -4.201276,-3.020367 c -0.3565,-0.400733 -0.894834,-0.612386 -0.05152,-0.569863 0.01955,0.138376 0.01459,0.44295 0.05152,0.569863 z m 9.208839,-42.283927 c -0.444988,0.176514 0.0151,-0.392486 0,0 z M 69.380321,90.137103 c -0.37795,-0.188235 0.233561,0.02997 0,0 z m 7.721474,-39.427009 c -0.745096,0.468541 -1.487653,0.941167 -2.225051,1.421781 0.977311,-0.719189 1.966486,-1.457851 3.093877,-1.924998 -0.289612,0.167738 -0.579224,0.335476 -0.868826,0.503217 z M 38.311206,60.69414 c -0.441177,0.08541 0.385087,-0.484761 0.03523,0.0053 z" />
      <path
         style="fill:url(#linearGradient970);fill-opacity:1;stroke-width:0.264583"
         d="m 38.775645,47.387378 c -0.62669,-2.015206 -0.619455,-2.545958 0.04016,-2.946442 0.227501,-0.138125 0.89562,-0.615033 1.484707,-1.059802 1.133834,-0.348735 0.639687,-0.908513 2.122744,-1.364249 0.476894,-0.244512 0.594342,-0.234451 0.522786,0.04473 -0.07954,0.308423 -0.04588,0.317285 0.23212,0.06116 0.259146,-0.238837 0.540647,-0.0069 1.398965,1.152519 0.591,0.798346 1.448788,2.193879 1.906207,3.101183 0.671135,1.331213 0.770478,1.776125 0.514643,2.304825 -0.465745,1.694526 0.146029,2.375084 -1.183526,-0.86841 -0.73541,-1.782091 -3.010181,-5.13756 -3.334285,-4.918334 -1.624849,1.099047 -2.764296,2.092332 -2.600153,2.266624 0.111407,0.118264 0.695052,1.625966 1.297006,3.350402 0.618406,1.77157 1.304873,3.255132 1.5782,3.410747 0.634203,0.361087 0.53464,0.639164 -0.955347,2.668443 -1.162804,1.583666 -1.245229,1.778885 -1.142859,2.70686 0.144682,1.311526 0.04362,3.311362 -0.16432,3.251658 -0.08999,-0.02618 -0.260579,-0.564601 -0.378951,-1.197213 -0.118383,-0.632606 -0.299655,-1.172809 -0.402845,-1.200459 -0.10318,-0.02765 -0.374494,0.423515 -0.602915,1.002597 -0.360388,0.913605 -0.34459,1.168572 0.119545,1.927788 0.45606,0.746007 0.466311,0.882118 0.06957,0.923773 -0.274439,0.02885 -0.544037,-0.155092 -0.657504,-0.447337 -0.175135,-0.452103 -0.215598,-0.458193 -0.455389,-0.0685 -0.785601,1.276807 -2.06237,5.438688 -2.588625,8.438095 -0.5802,3.306904 -0.0969,8.57745 1.058744,11.545911 0.303437,0.779434 0.519892,1.535871 0.481012,1.680973 -0.03888,0.145091 0.547979,1.395197 1.30414,2.777994 0.756152,1.382794 1.354182,2.601088 1.328948,2.707316 -0.11372,0.478885 -0.591438,-0.07358 -1.618489,-1.871733 -0.609581,-1.067268 -1.229015,-1.972815 -1.376522,-2.012339 -0.147506,-0.03952 -0.296717,-0.45852 -0.331573,-0.931094 -0.03486,-0.472574 -0.248543,-1.254876 -0.474847,-1.738445 -1.089017,-2.327072 -1.635786,-7.607989 -1.197214,-11.563178 0.354636,-3.198148 2.626245,-10.369437 3.353906,-10.587992 0.347256,-0.104297 1.232206,-2.233103 1.170932,-2.81677 -0.02341,-0.222884 -0.386389,-0.394393 -1.019375,-0.481645 -0.597756,0.252213 -0.811693,3.142486 -1.32136,4.19975 -1.56818,3.24337 -3.144592,9.294419 -3.339522,12.818726 -0.403714,7.29934 0.697442,12.534907 4.067133,19.337801 0.575072,1.160979 1.519682,2.762161 2.09913,3.558187 0.718931,0.987625 1.219176,2.123668 1.575006,3.576782 0.286792,1.17121 0.837893,2.65954 1.224666,3.30738 0.992145,1.66187 2.913452,3.78756 4.205832,4.65325 7.919299,2.77605 2.835221,-0.13965 9.417595,2.55097 l 1.99886,0.71834 c 5.408756,0.2573 10.702626,7.55257 11.500034,2.98587 2.696922,-1.8663 16.80836,1.70471 9.904897,-8.67376 0.153552,-0.0461 -0.301559,-1.21292 -1.011357,-2.59291 -0.70979,-1.37998 -1.388393,-2.47967 -1.508007,-2.44374 -0.256341,0.077 -0.671981,-0.72462 -0.443971,-0.856262 0.08573,-0.0495 -0.115578,-0.523491 -0.447294,-1.05335 -0.79925,-0.334727 -1.112613,-1.330615 -1.714506,-1.953967 -0.532684,-0.449764 -1.242414,-1.309759 -1.577174,-1.911091 -0.439817,-0.790012 -0.739151,-1.066558 -1.079002,-0.996853 -0.258679,0.05307 -0.810546,0.155928 -1.226361,0.228593 -1.163556,0.203339 -2.49125,-0.791471 -2.251332,-1.686856 0.133473,-0.498128 1.218632,-1.144306 1.398506,-0.832755 2.68832,1.921233 1.322681,-0.753044 -0.245791,-0.898211 -0.549413,-0.0087 -0.691184,-0.142446 -0.748587,-0.705747 -0.07653,-0.751214 -0.902176,-1.405056 -1.246914,-0.987462 -0.116493,0.141118 0.04078,-0.415326 0.34945,-1.23655 1.399072,-3.823247 1.036435,-3.126659 1.753873,-4.25062 1.079519,-0.434029 1.823038,-1.278031 2.903045,-0.775584 0.476837,0.235768 0.839736,0.245298 1.143557,0.03013 0.777493,-0.550695 2.801226,0.187365 4.265642,1.555708 1.539945,1.438907 1.92047,2.149332 2.078477,3.880453 0.166289,1.821764 -0.317211,2.128911 -0.618858,0.393134 -0.631095,-0.406532 -0.518609,-0.697638 -2.148438,-0.604971 -0.32398,0.03006 -0.649232,0.279231 -0.722781,0.553718 -0.158941,0.593175 -1.683661,0.642851 -2.016881,0.06571 -0.149953,-0.259741 -0.09025,-0.32581 0.219465,-0.242822 1.213955,-0.217528 0.869138,-0.889396 1.381405,-1.102679 0.495977,-0.202564 0.500836,-0.267333 0.07192,-0.959428 -1.481186,-1.497164 -4.070124,-1.902305 -5.506367,-1.230159 -0.77032,0.356514 -0.848489,0.883427 -0.2179,1.468884 1.612029,1.496682 2.227341,2.153953 2.090417,2.232997 -0.08708,0.05028 -0.549339,-0.224323 -1.027154,-0.610292 -1.759092,-0.72911 -1.04627,-0.965658 -1.596049,-1.571775 -0.433922,-0.465084 -0.48339,-0.41995 -1.26147,1.15079 -0.314225,0.634337 -0.296624,0.817628 0.102861,1.073201 0.264983,0.16956 0.458952,0.393504 0.431025,0.497727 0.516644,0.557535 2.244634,1.231828 2.230978,0.471837 -0.02971,-0.283023 0.05977,-0.376467 0.244567,-0.255404 0.160296,0.104964 0.25658,0.480076 0.213978,0.833492 -0.107575,0.892437 0.192778,1.440312 0.775055,1.413783 0.379916,-0.01731 0.43334,0.08143 0.233771,0.431942 -0.18737,0.32913 -0.105763,0.541146 0.295975,0.769111 0.305049,0.173152 1.122336,1.178415 1.81615,2.234006 l 1.261489,1.919275 -0.793422,-1.856098 c -0.436384,-1.020849 -1.200237,-2.643043 -1.697448,-3.604875 -0.497212,-0.961831 -0.779843,-1.756592 -0.628072,-1.766136 0.706122,-0.04444 0.35105,-0.838648 -0.857987,-1.919054 -0.729295,-0.651712 -1.296477,-1.295113 -1.260395,-1.429772 0.03608,-0.13466 0.737484,0.352816 1.558678,1.083277 1.142734,1.016477 1.513279,1.531862 1.579165,2.196492 0.06125,0.617803 0.215108,0.854852 0.533169,0.821454 0.315865,-0.03316 0.407192,0.10186 0.310833,0.461474 -0.143114,0.534109 1.215597,3.163266 1.538403,2.976893 0.102879,-0.0594 0.06149,0.06493 -0.09205,0.276301 -0.178523,0.24577 -0.06283,0.980384 0.320933,2.037842 l 0.600094,1.653528 c 0.794266,0.989176 0.502732,0.797304 1.291261,1.908659 5.505911,5.179482 0.527786,1.539022 2.758232,5.392272 0.891814,1.52873 1.582319,2.92566 1.534455,3.10429 -0.04786,0.17863 0.21068,0.82231 0.574545,1.43039 0,0 0.660809,1.48752 1.85345,1.39856 1.590293,0.82122 5.200843,2.07524 5.928606,2.7348 0.357233,0.32559 0.781242,0.62726 0.942223,0.6704 4.257066,-2.11909 3.692343,-1.03397 7.363609,-4.327 0.623364,-1.29555 1.137264,-0.1191 2.231934,-1.87588 0.32563,-0.56857 -1.2114,-4.34914 -1.47932,-4.49153 -0.17987,-0.0513 -0.560185,-0.35348 -0.844915,-0.67231 -0.584045,-0.654 -1.239138,-0.68606 -1.672545,-0.0819 -1.691871,2.81506 -2.628965,2.28169 -4.179869,3.33164 -1.72959,1.18595 -3.948874,0.1656 -2.252054,-1.10058 2.886914,-2.0037 2.913808,-1.66747 6.121137,-3.53484 1.30687,-0.51596 1.727298,0.0152 2.805206,0.77577 1.86927,-0.65862 1.53099,-4.281598 2.22045,-5.361167 0.84247,-6.008342 -0.56588,-5.156785 4.59875,-17.872933 0.30309,-1.165941 0.35013,-2.76282 -0.0562,-6.831179 0.52679,-15.212562 -0.29506,-3.846825 -7.741125,-20.970069 -2.793682,-2.624382 -5.695005,-7.947242 -9.406172,-9.242 -2.006602,-0.499777 -2.790806,-0.565793 -4.419991,-0.371828 -1.089337,0.129698 -2.141896,0.307173 -2.339035,0.394382 -0.2281,0.100911 -0.630866,-0.06862 -1.107738,-0.466106 -0.678481,-0.565638 -0.68607,-0.594112 -0.08034,-0.301217 0.40176,0.194304 1.04826,0.231394 1.618593,0.09296 L 84.57758,41.54978 82.699657,40.891228 c -2.219356,-0.778291 -3.969615,-1.076803 -3.262961,-0.556612 0.292025,0.214997 -0.0677,0.19819 -1.03472,-0.04836 -0.815312,-0.207902 -2.198935,-0.334411 -3.074703,-0.281182 -0.875767,0.05323 -2.304717,-0.0046 -3.17544,-0.128545 -0.909756,-0.129484 -2.823407,-0.04933 -4.499127,0.188442 -2.12096,0.236307 -4.29174,0.296819 -6.338548,0.90089 -0.571779,0.166009 -1.884152,0.661392 -2.916405,1.100849 -1.032246,0.43947 -2.148818,0.811413 -2.48129,0.82657 -0.332459,0.01515 -0.632502,0.132139 -0.666759,0.259989 -0.03426,0.127849 -0.383022,0.338117 -0.775036,0.467267 -0.666248,0.219481 -0.797581,0.159392 -2.013011,-0.921111 -0.715135,-0.635744 -2.002566,-1.754972 -2.860958,-2.487169 -0.858385,-0.732185 -7.470605,2.854852 -7.48977,2.727512 -0.0192,-0.127337 -0.323622,-0.08568 -0.676579,0.09264 -0.443084,0.223808 -0.274975,-0.02409 0.543094,-0.800824 1.060385,-1.006819 8.156189,-5.910902 8.443762,-5.592628 0.05813,0.06434 1.040274,0.768965 2.182621,1.565922 1.142344,0.796966 2.570727,1.804883 3.174177,2.239828 0.873878,0.629858 1.203385,0.752572 1.618904,0.602927 2.408519,-0.867364 8.115882,-2.437532 9.296391,-2.557554 5.817625,-0.591472 13.089561,0.338751 17.066989,2.183203 1.111214,0.515302 1.783081,0.696456 2.411113,0.650197 2.96526,-0.218727 7.394024,1.083814 9.99414,2.93936 1.763695,1.258645 3.469407,4.011839 3.932249,6.34702 0.27515,1.388206 0.62342,2.128004 1.5305,3.251071 0.64586,0.799649 1.90763,2.622635 2.80392,4.051095 l 1.62963,2.597186 1.8407,-0.296951 c 1.01238,-0.16332 2.01516,-0.220976 2.22842,-0.128118 0.21324,0.09286 0.75575,0.175379 1.20559,0.183327 1.96814,0.151682 -1.07781,1.110221 10.90747,-2.078554 0.73846,-0.190948 -0.12028,0.278883 10.05168,-2.538572 9.3074,-2.57797 20.06233,-5.030828 24.38503,-6.157607 3.1788,-0.828598 5.09582,-1.306462 8.07186,-2.0121 1.04568,-0.247934 3.1559,-0.763021 4.68937,-1.144624 1.53346,-0.381612 3.49727,-0.860251 4.36401,-1.063652 0.86674,-0.203402 1.86015,-0.473327 2.20757,-0.599838 0.34743,-0.126511 0.78681,-0.188449 0.97642,-0.137645 0.18961,0.05081 0.56347,-0.03391 0.83081,-0.188254 0.26734,-0.154347 0.64215,-0.238817 0.83292,-0.187702 0.55649,0.149113 0.97394,1.100888 0.73171,1.668266 -0.24057,0.563477 -0.93198,0.761245 -12.5494,3.58963 -7.76921,1.891492 -22.14426,5.424252 -28.00307,6.881939 -11.43183,2.844261 -14.32617,3.606721 -15.32545,4.037207 -3.70539,1.71731 -12.76767,1.940287 -14.94872,4.938957 -0.44499,0.659138 -0.44165,1.001994 0.0334,3.432909 0.68162,3.488226 0.99716,8.376683 0.71333,11.051224 l -0.22399,2.110605 1.47909,1.176403 c 2.35849,1.771307 3.1754,4.556554 3.18093,6.560849 6.6e-4,1.367893 0.20753,3.050529 0.47014,3.823857 0.46891,1.380853 0.46927,1.381177 2.8819,2.598514 1.32712,0.66962 3.50959,1.955002 4.84993,2.856402 1.34034,0.901401 8.34522,4.890287 15.5664,8.864197 7.22118,3.9739 14.90149,8.20217 17.06736,9.39614 2.16588,1.19397 6.19737,3.39236 8.95888,4.88529 2.76152,1.49294 5.23565,2.95487 5.49808,3.24872 0.58255,0.65233 0.40889,1.48059 -0.34749,1.65738 -0.61877,0.14462 -3.64085,-1.47686 -34.66131,-18.59733 -9.12447,-5.03588 -11.99787,-6.51237 -13.96447,-7.17561 -2.672,-0.90113 -6.4723,-2.749407 -7.35647,-3.577814 -1.24069,-1.162463 -3.96482,-2.091455 -5.78705,-1.973535 -1.12851,0.07303 -1.30046,0.160307 -1.18815,0.603063 0.0722,0.284721 -0.01,0.771511 -0.18252,1.081751 -0.17258,0.310254 -0.21747,0.666358 -0.0998,0.791336 0.1177,0.125023 0.15703,0.439983 0.0874,0.699961 -0.12395,0.462611 0.21886,0.825451 6.45158,6.828628 0.926,0.89191 3.30186,3.06561 5.27969,4.83044 1.97782,1.76483 3.69088,3.33613 3.8068,3.49175 0.19832,0.26625 9.32197,7.34412 15.86392,12.30678 1.62766,1.23473 6.23383,4.74532 10.23591,7.80131 4.00209,3.05598 8.65883,6.60778 10.34832,7.89288 1.6895,1.28509 3.89,2.96317 4.89001,3.72907 1.00002,0.76589 3.86663,2.94816 6.37026,4.84949 2.50362,1.90133 5.13067,3.90477 5.83787,4.45211 1.08707,0.84134 1.32394,0.94268 1.53246,0.65562 0.39412,-0.5426 2.10323,-0.63918 3.70307,-0.20928 1.2204,0.32783 1.6715,0.6037 2.59275,1.58495 0.61342,0.65337 2.14017,2.26377 3.39278,3.57865 2.41491,2.53497 3.08846,3.8048 2.91687,5.49912 -0.138,1.36272 -1.56679,2.26224 -3.18993,2.00826 -1.46514,-0.22924 -8.83087,-3.91854 -10.09098,-5.05431 -1.24977,-1.12644 -2.0075,-2.91659 -1.70946,-4.03859 l 0.23926,-0.90066 -2.67808,-2.00918 c -2.84469,-2.13417 -4.94842,-3.73575 -13.47809,-10.2609 -2.93812,-2.24765 -7.33802,-5.60793 -9.77756,-7.46731 -2.43954,-1.85938 -5.30514,-4.04542 -6.36801,-4.85786 -1.06287,-0.81246 -3.00817,-2.29291 -4.3229,-3.28991 -2.32647,-1.76422 -9.73692,-7.45841 -14.08322,-10.82154 -6.59175,-5.29909 -13.64474,-9.11528 -20.36215,-13.8317 -0.30655,2.50615 1.22406,1.216 -1.1317,3.80182 -1.09978,1.20716 -1.54264,1.90832 -1.782,2.82135 -0.272783,1.04121 -0.489951,1.32588 -1.516864,1.99033 -0.961262,0.62197 -1.374304,0.72821 -2.087766,0.53704 -0.67186,-0.18002 -1.236147,-0.0665 -2.306856,0.46392 -2.387959,1.18308 -2.786061,1.10788 -6.005286,-1.13441 l -2.784536,-1.93952 3.624771,6.80371 c 2.658303,4.98965 3.580275,6.96977 3.45789,7.42652 -0.167697,0.62585 -0.666792,0.82139 -1.51586,0.59388 -3.153876,-4.84103 -4.946652,-8.67286 -7.849177,-14.20099 l -0.866255,0.67722 c -1.503331,1.17529 -2.283635,1.53733 -2.936359,1.36244 -0.810093,-0.21707 -1.00799,0.1301 -1.625466,2.85145 -0.378695,1.66909 -0.641404,2.33618 -1.09653,2.78487 -0.512622,0.50535 -0.594435,0.75859 -0.570057,1.76467 0.825535,4.61676 1.88638,3.3045 2.712485,13.11817 0.181971,2.18879 4.166496,19.47876 10.530767,45.69594 2.890792,11.90843 2.946802,12.17433 2.65046,12.58231 -0.18046,0.24844 -0.566287,0.3008 -1.113582,0.15111 -0.815491,-0.22265 -0.862928,-0.3386 -1.804339,-4.38679 -0.964206,-4.14628 -2.04219,-8.66824 -6.887025,-28.89 -1.407823,-5.87611 -3.110415,-12.9885 -3.783538,-15.80531 -0.67312,-2.81681 -1.726493,-6.40952 -2.340827,-7.98378 -1.232093,-3.1573 -2.651834,-8.37158 -2.467113,-9.06097 0.178381,-0.66573 -0.676352,-3.857 -1.106798,-4.13237 -0.207517,-0.13273 -0.431437,-0.56512 -0.497626,-0.96082 -0.06619,-0.39571 -0.280792,-0.83601 -0.476898,-0.97845 -1.021855,-1.64325 -0.810427,-4.27812 -2.823311,-4.31318 -1.066739,-0.001 -1.621096,-0.25095 -4.383424,-1.97616 -0.709807,-0.44331 -1.649315,-0.96223 -2.087782,-1.15315 l -0.797222,-0.34712 -0.363431,1.35634 c -0.199889,0.746 -0.662078,2.9468 -1.027095,4.89071 -0.365014,1.94389 -1.684902,8.93079 -2.933072,15.52644 -1.248178,6.59564 -2.55069,13.51913 -2.894481,15.38552 -0.343781,1.86638 -1.104769,5.85341 -1.691073,8.86005 -0.586302,3.00664 -1.625171,8.45998 -2.308583,12.11855 -0.683422,3.65856 -1.597314,8.46744 -2.03087,10.68642 -0.433554,2.21897 -0.856202,4.54015 -0.939212,5.1582 -0.119061,0.88638 -0.231729,1.10205 -0.533755,1.02112 -0.240371,-0.0644 -0.338361,-0.42191 -0.263331,-0.96079 l 0.119475,-0.85822 -0.263417,0.81965 c -0.300997,0.93633 -0.779716,0.98651 -0.734852,0.077 0.01655,-0.33453 0.416447,-2.53855 0.888785,-4.89778 0.47233,-2.35924 1.37265,-7.11014 2.000707,-10.55755 0.628057,-3.44742 1.884586,-10.19832 2.792275,-15.00203 1.701351,-9.00381 4.997016,-26.5876 6.061653,-32.34147 0.331981,-1.79422 0.948933,-5.08026 1.371015,-7.30231 0.481429,-2.53457 0.688142,-4.26547 0.55472,-4.6449 -0.31582,-0.89816 -4.241494,-2.42417 -6.128331,-2.38223 -0.919313,0.0204 -2.145761,-0.22253 -3.901655,-0.7729 -2.178917,-0.68302 -2.778095,-0.98388 -4.01734,-2.0175 -1.820738,-1.51864 -3.682654,-4.43093 -4.374481,-6.84229 C 40.362994,100.03597 39.26019,97.70885 38.200602,95.869432 37.141016,94.030004 35.789968,91.326 35.198277,89.860535 33.183287,84.869988 32.29374,78.736151 32.782471,73.202407 c 0.281122,-3.183082 2.11274,-10.030753 3.535072,-13.216249 3.224125,-8.995572 3.731768,-8.435552 2.458102,-12.59878 z m 1.597666,2.069721 c 0.249263,0.836724 0.386517,1.770206 0.305007,2.074405 -0.0961,0.358658 0.05893,0.702571 0.441039,0.978325 0.591374,0.426771 0.567382,0.575695 -0.284494,1.765713 -0.113148,0.157998 -0.146646,0.303103 -0.07459,0.322411 0.07215,0.01933 0.443076,-0.430606 0.824366,-0.999837 0.636802,-0.950677 0.661488,-1.05579 0.303045,-1.290551 -0.214619,-0.140536 -0.789183,-1.470864 -1.276829,-2.956228 -0.487645,-1.485365 -0.942556,-2.715645 -1.010914,-2.733962 -0.06839,-0.01832 -0.02432,0.270823 0.0979,0.642544 0.122207,0.371715 0.42614,1.360449 0.675406,2.197164 z m 10.117055,-9.678325 c 0.893251,0.784585 1.745199,1.458964 1.893198,1.49862 0.148009,0.03966 0.358898,0.267412 0.468635,0.506117 0.374398,0.81435 1.372896,1.075364 1.993532,0.521121 0.311955,-0.278593 0.522762,-0.583491 0.468456,-0.677552 -0.0898,-0.155542 -0.691686,-0.589612 -4.471026,-3.224457 -1.127867,-0.786317 -1.232295,-0.817963 -1.57568,-0.47759 -0.202264,0.200493 -0.375275,0.378634 -0.384482,0.395879 -0.0088,0.01741 0.71411,0.673297 1.607362,1.457882 z M 176.98899,158.09109 c 0.35448,0.82751 0.63633,1.07235 5.02756,4.36749 2.69342,2.02111 3.02543,2.20572 3.6272,2.01678 0.36432,-0.11439 0.91054,-0.14149 1.21382,-0.0602 0.4495,0.12044 0.51341,0.0651 0.34579,-0.29954 -0.28337,-0.61636 -7.8747,-8.01791 -8.35569,-8.14679 -0.18074,-0.0484 0.0478,0.32438 1.20904,1.97202 0.26479,0.3757 1.6822,1.75615 3.14981,3.06767 2.75546,2.46238 3.14974,2.88511 2.85156,3.05726 -0.0962,0.0556 -1.61242,-1.14987 -3.36933,-2.67871 -1.75692,-1.52884 -3.42535,-2.84349 -3.70765,-2.92143 -0.76742,-0.21184 -1.14218,-0.73426 -0.83258,-1.16048 0.18654,-0.25682 0.11055,-0.49265 -0.23994,-0.74456 -0.28213,-0.20278 -0.61282,-0.34102 -0.73488,-0.30719 -0.12206,0.0339 -0.20368,-0.007 -0.18142,-0.0896 0.0223,-0.0831 0.32711,-0.18577 0.67744,-0.22815 0.50245,-0.0608 0.54161,-0.10627 0.18544,-0.2154 -0.24839,-0.0759 -0.88122,0.1163 -1.40643,0.42754 -0.5252,0.31123 -1.16543,0.531 -1.42273,0.48838 -0.2573,-0.0426 0.006,0.0964 0.58495,0.30906 0.74824,0.27472 1.14687,0.60622 1.37804,1.14588 z m -1.52547,1.96972 c 0.13993,0.36534 0.64017,0.68354 1.58413,1.00768 0.75878,0.26056 2.52554,1.2271 3.92614,2.14787 2.59407,1.7054 3.83875,2.34194 2.18394,1.1169 -0.50286,-0.37227 -1.83632,-1.35592 -2.96324,-2.18589 -2.32852,-1.71494 -3.46901,-2.76723 -3.80438,-3.51013 -0.35454,-0.66609 -0.61032,0.0589 -1.1561,-0.0758 -0.43699,-0.11709 -0.46086,-0.074 -0.23118,0.41741 0.14089,0.30139 0.3482,0.78827 0.46069,1.08195 z m -0.78664,0.21149 c 0.40427,1.11022 1.65211,2.0245 5.93854,4.35108 4.14025,2.24724 5.55315,2.75997 6.45852,2.34374 0.57834,-0.26589 0.75901,-0.64713 0.35765,-0.75468 -0.14886,-0.0399 -0.23039,0.0615 -0.18119,0.22538 0.0566,0.18846 -0.61343,0.10954 -1.82401,-0.21483 -1.5312,-0.41028 -2.51246,-0.89606 -4.91148,-2.43144 -1.6489,-1.05529 -3.21609,-1.97462 -3.48264,-2.04295 -0.68138,-0.17429 -2.13623,-1.53606 -2.30507,-2.15688 -0.0777,-0.28551 -0.17634,-0.40188 -0.21932,-0.2586 -0.0429,0.14329 0.0331,0.56592 0.169,0.93918 z M 47.442784,53.375447 c 0.315234,-0.44283 1.042382,-1.592556 1.615903,-2.554961 1.23685,-2.075522 4.630499,-5.472541 6.652839,-6.659434 0.773613,-0.454035 1.432944,-0.923959 1.465186,-1.044285 0.06461,-0.241124 2.28804,-1.125833 4.139196,-1.647007 -1.897843,0.92588 -5.604382,2.691292 -9.425829,6.72575 -1.252367,1.154875 -4.611319,6.314804 -4.964261,7.625973 -0.170649,0.63382 -0.143398,1.248601 0.07363,1.663219 0.347719,0.664323 0.431125,3.604276 0.133737,4.714144 -0.103745,0.03018 0.856432,6.857381 -0.145364,5.280102 -0.301987,-0.576824 -0.816795,-4.756092 -0.658591,-5.346514 0.25447,-0.949698 0.287708,-3.821686 0.05626,-4.861511 -0.216946,-0.974681 0.279093,-2.802239 1.057252,-3.895489 z m -0.0084,20.627258 c 0.03663,0.06344 -0.482856,1.190378 -1.154468,2.504221 -0.742805,1.038773 -7.135564,14.21223 -6.364086,11.331525 0.852701,-2.543844 5.714187,-12.082884 7.518554,-13.835746 z m 0.277681,-6.575558 c 0.250464,-0.934746 1.905358,1.133517 2.125283,2.074553 -0.191639,1.745889 -0.842017,2.889766 -2.263736,4.177828 -0.145026,-0.03804 1.05778,-2.522716 1.602078,-3.309449 0.406416,-0.587428 -1.242818,-2.502754 -1.712546,-1.920406 -0.393664,0.488063 -0.472531,0.51329 -0.360509,0.115313 0.07919,-0.280088 0.498057,-0.722191 0.609422,-1.13781 z M 54.9054,64.249478 c 0.311824,-0.534383 0.75363,-1.103321 0.981793,-1.264314 0.508566,-0.358851 2.455555,-2.752712 2.562028,-3.150074 0.04245,-0.158422 0.435548,-0.573441 0.873545,-0.922265 0.438006,-0.348822 1.386359,-1.277339 2.107461,-2.063377 0.7211,-0.786029 1.770272,-1.75293 2.331478,-2.148663 0.561216,-0.395731 1.468339,-1.200399 2.015817,-1.788158 0.913991,-0.981216 1.072081,-1.048109 1.932402,-0.817587 0.76681,0.205466 1.177241,0.105953 2.259998,-0.547991 1.352874,-0.781997 0.668077,-0.45755 1.695954,-0.947635 4.049617,-2.556648 2.814232,-1.027743 -1.754729,2.455492 -1.012528,0.754031 -1.368154,1.182819 -1.405544,1.694703 -0.0399,0.546266 -0.193747,0.699893 -0.758239,0.757412 -1.124718,0.114576 -2.495573,1.312687 -2.562087,2.239233 -0.04738,0.659913 -0.19009,0.812973 -0.932505,1.000046 -1.053072,0.265356 -2.733954,1.710794 -2.498101,2.148181 0.09021,0.1673 0.09315,0.568686 0.0065,0.891981 -0.126151,0.470802 -0.29741,0.550368 -0.860389,0.399746 -0.578501,-0.154781 -0.893016,0.0066 -1.777425,0.912263 -0.994625,1.018487 -1.048483,1.132709 -0.724124,1.535784 0.192741,0.239496 0.248593,0.646541 0.124125,0.904547 -0.276741,0.573651 -1.398455,0.459604 -2.438893,-0.247971 -0.649219,-0.441515 -0.798554,-0.44547 -1.334715,-0.03529 -0.67718,0.518065 -0.656773,0.386152 0.15563,-1.006061 z m 12.413759,-5.436694 c 0.399349,-0.04193 1.681821,1.228063 5.281032,5.229617 2.642515,2.93791 4.325529,4.553838 5.074691,4.87242 0.506227,0.215256 0.556533,0.382857 0.329041,1.09606 -0.332165,1.041446 -3.429878,-3.646147 -4.827588,-3.566425 -3.307532,-4.518403 -4.834822,-4.204716 -5.8568,-7.631685 z m 1.339364,-1.00791 c 0.77591,-0.769231 3.079708,-2.32336 3.181836,-2.14647 0.05346,0.09259 -0.161237,0.335149 -0.477045,0.539101 -0.315808,0.203953 -0.721737,0.702902 -0.90207,1.108778 -0.305491,0.687551 -0.234993,0.831026 1.03212,2.100692 0.748003,0.749496 1.680692,1.704919 2.072631,2.123151 l 0.712621,0.76042 1.316238,-0.851941 c 1.418263,-0.917966 1.312917,-0.629129 -0.191288,0.524575 -0.509499,0.390767 -1.037718,0.865542 -1.173827,1.055062 -0.157236,0.218986 -0.223138,0.224383 -0.180727,0.01483 0.04449,-0.219763 -0.160273,-0.333351 -0.613884,-0.34056 -0.486671,-0.0077 -0.969556,-0.31756 -1.69453,-1.087399 -0.557651,-0.592116 -1.241453,-1.250791 -1.519558,-1.463725 -0.348444,-0.266785 -0.409868,-0.47627 -0.197588,-0.673809 0.24108,-0.224349 0.607549,0.03761 1.685695,1.204947 0.757705,0.820393 1.469301,1.516176 1.581329,1.546193 0.235222,0.06303 -2.071741,-2.522425 -3.029786,-3.395546 -0.545774,-0.497385 -0.704303,-0.545691 -1.031128,-0.314181 -0.292869,0.207438 -0.315,0.326932 -0.0916,0.494461 0.16206,0.121484 -0.02411,0.145238 -0.413579,0.05277 -0.769603,-0.182714 -0.78817,-0.535262 -0.06587,-1.251338 z m 3.026925,-0.882257 c 1.322723,-0.829239 1.424888,-0.412476 0.121893,0.497221 l -0.874605,0.610632 0.712663,0.552901 c 0.391968,0.304101 0.969646,0.601861 1.28374,0.661703 0.325074,0.06195 0.704217,0.419634 0.880178,0.830402 0.170014,0.396876 0.471954,0.765236 0.670993,0.818568 0.497954,0.133426 1.56078,-0.39324 2.209898,-1.09508 0.537502,-0.581167 0.532645,-0.591672 -1.064743,-2.300711 -0.882584,-0.944285 -1.665957,-1.681518 -1.740814,-1.638299 -0.126161,0.07284 0.213415,0.461894 2.208509,2.530281 0.549296,0.569473 0.563477,0.955465 0.30026,0.756707 -1.272424,-0.960796 -3.247544,-3.246798 -2.961134,-3.506675 0.383856,-0.348298 1.176609,0.09958 2.400611,1.366393 1.449258,1.499945 1.969725,2.159661 1.902316,2.411236 -0.09618,0.358958 -3.198537,2.313002 -3.530873,2.223953 -0.187428,-0.05022 -0.792419,-0.620559 -1.344438,-1.267423 -0.552018,-0.646864 -1.326883,-1.424118 -1.72192,-1.72724 -0.395037,-0.303122 -0.690721,-0.653872 -0.657072,-0.779452 0.03365,-0.12557 0.575692,-0.55087 1.204538,-0.945117 z m 2.353107,-4.813662 c 1.996588,-1.581514 3.883191,-2.675129 4.213375,-2.442391 0.364172,0.256691 1.658337,-0.44429 1.613238,-0.873808 -0.0201,-0.191197 0.203449,-0.45714 0.496625,-0.591043 0.412638,-0.188422 0.53806,-0.164733 0.555032,0.104825 0.01203,0.191541 0.161494,0.385669 0.332067,0.431374 0.170582,0.04571 0.937745,0.775128 1.704807,1.620949 0.767056,0.845809 2.281055,2.514924 3.364423,3.709143 1.549683,0.488533 2.248686,2.346104 3.371177,3.520927 0.344692,0.360766 0.667588,0.792022 0.717541,0.958348 0.117287,0.390502 -1.303294,1.939831 -2.172754,2.369685 l -0.672065,0.332258 0.729527,-0.763231 c 0.401238,-0.419775 0.89793,-0.816686 1.103751,-0.882012 0.798571,-0.253461 0.501335,-0.908097 -1.205819,-2.65571 -0.975361,-0.998474 -3.006669,-3.142625 -4.514033,-4.764794 -2.671941,-2.875458 -2.758037,-2.942444 -3.434393,-2.672178 -0.938068,0.239604 -0.348054,0.25162 -0.603894,0.534648 -0.242183,-0.06572 -1.811776,0.786073 -3.487945,1.892695 -1.676169,1.106623 -3.093935,1.999627 -3.150586,1.984447 -5.105974,3.940869 -2.715494,1.175089 1.03995,-1.814064 z m 3.568559,-7.075687 c 0.612843,-0.34117 1.082682,-0.725451 1.044094,-0.853947 -0.03856,-0.128497 0.510119,-0.324115 1.219367,-0.434696 0.70925,-0.110591 2.036498,-0.45208 2.94946,-0.758871 1.432698,-0.481456 4.199081,-0.837226 4.116603,-0.529415 -0.01537,0.05738 -0.991897,0.366662 -2.170069,0.687336 -2.569873,0.699471 -4.665879,1.439667 -6.622341,2.33866 -0.796979,0.366215 -1.519346,0.647 -1.605265,0.623978 -0.366279,-0.09814 0.02744,-0.493671 1.068151,-1.073045 z m -1.330809,7.158294 c 1.112126,-0.700303 1.287802,-0.760962 0.657758,-0.227129 -2.062483,1.747536 -1.736106,1.665369 0.922358,-0.232209 0.959106,-0.684592 1.882992,-1.205823 2.05307,-1.158273 0.170065,0.04764 1.017051,0.895081 1.882128,1.883416 0.865089,0.988328 1.969468,2.041695 2.454175,2.340819 0.884086,1.39406 0.633565,1.071302 0.884086,1.39406 0.38255,0.34864 0.679847,0.692483 0.660658,0.764097 -0.0192,0.07167 -0.225445,-0.0484 -0.458335,-0.266797 -0.232891,-0.218357 -0.586956,-0.440826 -0.786806,-0.494376 -0.324734,-0.08701 -3.020794,1.825379 -3.496331,2.480059 -0.1037,0.142827 0.64468,1.073017 1.663153,2.067111 1.018473,0.994093 1.890352,1.935872 1.937498,2.092853 0.05147,0.171475 0.29068,0.198342 0.599147,0.06726 0.463687,-0.197002 0.465941,-0.182577 0.02334,0.148957 -0.27768,0.207978 -0.677694,0.260268 -0.922931,0.120638 -0.238063,-0.135533 -0.39632,-0.124932 -0.351713,0.02368 0.192796,0.641891 -0.708974,-0.06241 -2.391441,-1.867773 -1.225543,-1.315074 -1.787261,-2.124374 -1.742899,-2.51113 0.05236,-0.456597 -0.03825,-0.546451 -0.453291,-0.449445 -0.399884,0.09346 -0.801587,-0.206502 -1.753265,-1.308505 -0.678981,-0.786358 -1.549592,-1.768566 -1.934689,-2.182698 -0.354116,-0.553243 -0.219177,-0.507966 -0.692582,-1.069889 -0.861677,0.09047 -0.294298,-0.644273 1.246959,-1.614796 z m 1.391105,3.134759 c 0.909962,0.961383 1.810193,1.974729 2.000502,2.251858 0.190308,0.277128 0.405864,0.469306 0.479011,0.427059 0.07312,-0.04221 0.938131,-0.718786 1.92219,-1.503419 1.607587,-1.281781 1.745097,-1.45783 1.354655,-1.734284 -0.60919,-0.431337 -2.787112,-2.842514 -2.8965,-3.206705 -0.215044,-0.715994 -1.153529,-0.498946 -2.765563,0.639594 -0.935874,0.66098 -1.712202,1.241409 -1.72518,1.289841 -0.01297,0.04839 0.720916,0.87466 1.630885,1.836056 z m -3.380294,8.448232 c 0.292749,0.212644 0.371765,0.164836 0.333288,-0.201806 -0.03347,-0.318805 0.251181,-0.650349 0.8459,-0.985039 0.697101,-0.318013 1.1584,-1.904954 2.049821,-2.632321 0.747738,-0.521253 1.164484,-0.681926 1.27451,-0.491355 0.04695,0.08132 -0.326194,0.397261 -0.829145,0.702198 -0.645427,0.391294 -0.787153,0.569246 -0.481734,0.604858 0.238009,0.02775 0.606255,-0.04971 0.81832,-0.172149 0.609215,-0.351739 0.890393,-0.167817 2.425637,1.586645 1.572043,1.796519 1.748871,2.119977 1.412262,2.583387 -0.328945,0.452853 -0.752435,0.245563 -0.506059,-0.247719 0.146723,-0.293734 -0.08934,-0.715949 -0.773399,-1.383336 -0.541507,-0.528304 -1.235922,-1.24493 -1.543131,-1.592505 -0.366133,-0.414237 -0.640832,-0.554494 -0.797316,-0.407123 -0.131281,0.123666 -0.08835,0.265583 0.09556,0.31543 0.183863,0.04981 -0.08862,0.214833 -0.605459,0.3667 -0.516876,0.151857 -1.070161,0.479936 -1.229541,0.729064 -0.159409,0.24912 -0.564974,0.594056 -0.901319,0.76651 -0.595731,0.305431 -0.581592,0.352504 0.54658,1.819741 0.636964,0.828416 1.38136,1.823124 1.654204,2.21047 l 0.496087,0.704264 -0.593258,-0.341617 c -0.326298,-0.187853 -0.80334,-0.568594 -1.060127,-0.846019 -0.292168,-0.315654 -0.550666,-0.425501 -0.690787,-0.29353 -0.500509,0.416873 -2.366183,-2.916139 -2.365675,-2.920278 0.02265,-0.08452 0.213849,-0.02821 0.424927,0.12504 z m 5.351171,2.33741 c 0.43917,-0.235592 0.827858,-0.368636 0.863773,-0.295653 0.110106,0.223845 -1.652726,1.982081 -1.774978,1.770334 -0.246073,-0.426211 0.149186,-1.065887 0.911205,-1.474681 z m 6.117763,-2.095271 c 1.249441,-0.850853 2.640487,-1.896555 3.091216,-2.323806 1.059876,-1.004647 1.792168,-1.364704 1.642951,-0.807819 -0.05842,0.218019 -0.29701,0.508153 -0.530207,0.644741 -0.233201,0.136598 -1.129768,0.860454 -1.992367,1.608568 -1.851143,1.605475 -4.737936,3.375583 -4.587114,2.812709 0.05709,-0.213074 1.126074,-1.083552 2.375521,-1.934393 z m -1.382849,9.88308 c 0.691049,-1.193698 2.406115,-2.862302 2.826283,-2.749718 0.145092,0.03888 -0.01513,0.409984 -0.371081,0.859276 -2.298003,2.901023 -2.631875,3.424963 -2.07616,3.258056 0.21877,-0.06571 0.655955,-0.03796 0.971534,0.06166 0.315583,0.09957 1.088203,0.331338 1.716987,0.514832 1.909719,0.557467 1.153067,0.834531 -0.987082,0.36144 -2.069992,-0.457544 -2.890795,-0.76237 -2.785872,-1.034559 0.03352,-0.08647 0.350778,-0.658437 0.705397,-1.271008 z m -0.98704,8.642325 c 0.176219,0.04515 1.161546,-0.06695 2.189615,-0.249155 1.028076,-0.182193 2.379662,-0.281148 3.003538,-0.219901 0.623866,0.06125 1.147989,0.06027 1.164719,-0.0022 0.01672,-0.0624 -0.02828,-0.548985 -0.100009,-1.081216 -0.07174,-0.532221 -0.01106,-1.177349 0.13484,-1.43361 0.145897,-0.256261 0.193601,-0.775072 0.105971,-1.152927 -0.145097,-0.625715 -0.129763,-0.645542 0.171906,-0.222313 0.182169,0.255577 0.265741,0.709391 0.185717,1.00847 -0.261811,0.978096 0.488339,3.976373 1.340135,5.35706 1.233598,1.999603 3.461072,3.302853 3.757062,2.198201 0.171015,-0.638236 0.930324,-0.754017 1.430337,-0.218103 0.501943,0.537983 1.416784,0.187551 2.776494,-1.06355 0.578994,-0.532749 1.014334,-0.825397 0.967424,-0.650342 -0.26705,0.996642 -2.692622,2.615664 -4.132582,2.758409 -0.447065,0.04432 -0.766289,0.161223 -0.709381,0.259791 0.05692,0.09859 0.388985,0.11251 0.737953,0.03092 1.16956,-0.27335 0.799082,0.104922 -0.914033,0.933271 -2.835229,1.370922 -4.12983,1.550152 -6.535676,0.904834 -1.819465,-0.488073 -2.230072,-0.701674 -3.389946,-1.763679 -1.615393,-1.479103 -2.15888,-2.295475 -2.460351,-3.695724 -0.269079,-1.24983 -0.177228,-1.814477 0.276267,-1.698264 z m 0.685334,2.165402 c 0.146789,0.499512 0.95314,1.622362 1.79191,2.495213 1.507229,1.568464 1.548517,1.591991 3.53695,2.014916 2.394613,0.509317 4.812988,0.196934 5.0402,-0.651033 0.07533,-0.281123 0.333218,-0.553528 0.573082,-0.605342 0.284004,-0.06135 0.218568,-0.109926 -0.187618,-0.139306 -0.343042,-0.02483 -1.16549,-0.35215 -1.827655,-0.727387 -1.197301,-0.678566 -1.216265,-0.679579 -3.454131,-0.184781 -1.237623,0.273633 -2.393861,0.395147 -2.569429,0.270024 -0.181661,-0.129428 0.493669,-0.368278 1.567127,-0.554202 2.821846,-0.488736 2.998812,-0.720273 1.822517,-2.384508 -0.403191,-0.570431 -0.510541,-0.587113 -2.761158,-0.42905 -1.287914,0.09045 -2.58671,0.198514 -2.886232,0.240151 -0.388465,0.05401 -0.467704,0.0033 -0.276422,-0.17687 0.386453,-0.363939 2.435901,-0.759522 3.063617,-0.591326 0.684185,0.183326 2.228962,-0.150459 2.323151,-0.501979 0.109069,-0.407051 -1.393719,-0.410405 -3.76412,-0.0083 -1.144251,0.194079 -2.120549,0.504222 -2.169548,0.689214 -0.04902,0.184986 0.031,0.745039 0.177775,1.244548 z m 10.214833,-10.22367 c 1.357184,-0.415886 2.048818,1.226278 2.82683,0.08683 0.256265,-0.400562 0.452412,-0.41124 1.272362,-0.06927 0.533164,0.22237 1.113774,0.608137 1.290224,0.857275 0.176473,0.249134 0.524426,0.47216 0.773246,0.495618 0.57364,0.05411 0.96937,0.885971 0.63826,1.341805 -0.17755,0.244435 -0.62241,0.247595 -1.506512,0.0107 -3.666606,-0.542006 0.282002,1.909699 -0.857681,4.772816 -0.518833,1.244014 -1.33667,1.726897 -2.822075,1.66628 -1.789394,-0.07302 -2.733273,-0.816132 -2.970688,-2.338876 -0.236435,-1.516394 0.371298,-2.650101 1.152649,-2.15024 0.266486,0.170481 0.754484,0.191811 1.142821,0.05069 5.593586,0.02694 1.41271,2.010233 0.508076,-1.137489 3.436756,-0.944682 -3.403666,-2.279165 -1.447515,-3.586129 z"
         id="path847"
         sodipodi:nodetypes="csccccssccsssssscssssscsssssssssssssccssssscccccsssccssssccssccccssccssccccssccssccsssscscsssssssssssscccscccccccsccccccccccsscsscsssssccssssssssssssssscsssscssccssssssssssssccsscccsssssssssssssssssssssssssscsssssscsssssccccsssscssccssssccsscsssssssccsscsssssssssscccssssssscsssssccssssssssssssssssssscsssssscssscscsscsscsscssssssccssssssssscscsscssccssccsssscsccsscsscsssssssssscccssssssssssssscssscccsssssscsssssssssssssssssccssssssssssssssssscssssssccsscssssccscccscssssssscsscsccssssssssscssscccccscssssssscsccssssssssssssssssccsccccssssssssssssscsccscsssssssssscssssssscssssssssssscsssssscssssssccssssccssscccc" />
    </g>
  </g>
</svg>
