<?xml version="1.0" encoding="UTF-8" standalone="no"?>
<svg
   xmlns:dc="http://purl.org/dc/elements/1.1/"
   xmlns:cc="http://creativecommons.org/ns#"
   xmlns:rdf="http://www.w3.org/1999/02/22-rdf-syntax-ns#"
   xmlns:svg="http://www.w3.org/2000/svg"
   xmlns="http://www.w3.org/2000/svg"
   xmlns:sodipodi="http://sodipodi.sourceforge.net/DTD/sodipodi-0.dtd"
   xmlns:inkscape="http://www.inkscape.org/namespaces/inkscape"
   sodipodi:docname="magnifying.svg"
   inkscape:version="1.0 (4035a4fb49, 2020-05-01)"
   id="svg8"
   version="1.1"
   viewBox="0 0 126 124"
   height="124mm"
   width="126mm">
  <defs
     id="defs2" />
  <sodipodi:namedview
     inkscape:window-maximized="1"
     inkscape:window-y="-9"
     inkscape:window-x="-9"
     inkscape:window-height="1013"
     inkscape:window-width="1920"
     showgrid="false"
     inkscape:document-rotation="0"
     inkscape:current-layer="layer1"
     inkscape:document-units="mm"
     inkscape:cy="1013.864"
     inkscape:cx="-161.21634"
     inkscape:zoom="0.35"
     inkscape:pageshadow="2"
     inkscape:pageopacity="0.0"
     borderopacity="1.0"
     bordercolor="#666666"
     pagecolor="#ffffff"
     id="base" />
  <metadata
     id="metadata5">
    <rdf:RDF>
      <cc:Work
         rdf:about="">
        <dc:format>image/svg+xml</dc:format>
        <dc:type
           rdf:resource="http://purl.org/dc/dcmitype/StillImage" />
        <dc:title></dc:title>
      </cc:Work>
    </rdf:RDF>
  </metadata>
  <g
     id="layer1"
     inkscape:groupmode="layer"
     inkscape:label="Warstwa 1">
    <path
       d="m 80.95238,3.7273601 c -1.413028,0.001 -2.83704,0.005 -4.253715,0.0393 -3.30208,0.13553 -6.517518,1.0308 -9.619414,2.11982 -5.272408,1.9051 -10.055569,5.0685899 -14.005732,9.0334299 -3.873307,3.78576 -7.015911,8.37316 -8.857684,13.48299 -1.577808,4.31633 -2.429637,8.89772 -2.484974,13.49392 -0.05016,3.95459 0.454289,7.92734 1.60211,11.71591 1.212456,3.53192 2.915142,6.88447 4.926227,10.02606 0.153011,0.20432 0.309901,0.41321 0.476514,0.60251 0.146058,0.0454 0.281964,0.22929 0.435727,0.16968 0.134776,-0.0755 0.361908,-0.0576 0.383484,-0.24757 0.05827,-0.15291 0.152459,-0.3047 0.05382,-0.46249 -0.225965,-0.44433 -0.510757,-0.86248 -0.749311,-1.30265 -1.329261,-2.32104 -2.505178,-4.77879 -3.391008,-7.32477 -0.513263,-1.57927 -0.865905,-3.20768 -1.136026,-4.84505 -0.02622,-0.16677 -0.06334,-0.41865 -0.09374,-0.61807 -0.324898,-2.26735 -0.448434,-4.56304 -0.374449,-6.85228 0.01538,-0.47183 0.04131,-1.00487 0.07544,-1.47931 0.06001,-0.88061 0.149,-1.74581 0.265972,-2.60841 0.459981,-3.39299 1.365065,-6.72573 2.677872,-9.88771 1.552588,-3.67061 3.796112,-7.03074 6.485051,-9.96523 0.305125,-0.33016 0.651917,-0.69886 0.983819,-1.03386 1.938027,-1.98811 4.057361,-3.80459 6.365888,-5.35032 2.964042,-1.99766 6.225714,-3.5522999 9.647647,-4.5864999 0.701927,-0.22112 1.410105,-0.422 2.122408,-0.60691 0.163066,-0.0408 0.411179,-0.10104 0.606875,-0.1493 1.050301,-0.24483 2.112285,-0.44351 3.184626,-0.56228 0.315624,-0.0345 0.697838,-0.0701 1.040415,-0.0915 1.073316,-0.0627 2.149194,-0.0438 3.22382,-0.0607 1.615954,-0.002 3.265771,-0.0148 4.860789,0.0215 0.426318,0.0134 0.80334,0.0285 1.232124,0.0559 0.709045,0.0445 1.435696,0.11846 2.114182,0.22697 0.823554,0.12184 1.626072,0.34436 2.42499,0.57207 1.247566,0.32312 2.515519,0.70735 3.71288,1.11959 3.946786,1.36693 7.782583,3.3078599 11.031653,5.9853899 0.51251,0.40684 1.01135,0.83045 1.50298,1.26223 0.12414,0.11407 0.314,0.28404 0.46336,0.41956 2.00932,1.84633 3.81315,3.91318 5.39261,6.13766 0.1446,0.0543 0.27904,0.21796 0.43033,0.20019 0.14197,-0.0784 0.38336,-0.0525 0.41285,-0.249 0.0611,-0.15194 0.15912,-0.30232 0.0598,-0.46097 -0.14911,-0.33229 -0.38014,-0.6273 -0.56412,-0.94319 -2.30722,-3.43389 -5.16593,-6.49357 -8.42245,-9.0441 -4.11339,-3.2882399 -9.023493,-5.4472199 -14.074216,-6.8414099 -0.99845,-0.25494 -1.980057,-0.58147 -2.999816,-0.74621 -2.365981,-0.41248 -4.778299,-0.35731 -7.169589,-0.36483 z"
       style="fill:#e6e6e6;stroke:none;stroke-width:0.61472;stroke-linecap:round;stroke-linejoin:round"
       id="path856" />
    <path
       d="m 82.987915,0.51102007 c -2.002076,0.0289 -4.005384,8.9e-4 -6.00644,0.0789 -1.956715,0.0825 -3.919275,0.34759 -5.780476,0.97612003 -4.643409,1.42735 -9.147672,3.3878 -13.21548,6.05859 -3.038581,2.12272 -5.545497,4.8814199 -8.072146,7.5665699 -1.893835,2.03942 -3.592431,4.2831 -4.842383,6.77777 -2.620838,4.96886 -4.498192,10.34416 -5.411261,15.89165 -0.362815,3.38904 -0.294415,6.80635 -0.132583,10.20525 0.249103,3.75897 1.515576,7.34211 2.739224,10.87308 1.190458,3.46689 1.617636,7.17072 3.119707,10.53476 0.214349,0.61769 0.518152,1.20408 0.677995,1.8402 -0.147148,0.21106 -0.353656,0.46688 -0.486275,0.63407 -1.024615,1.23393 -2.218913,2.31048 -3.318412,3.47489 -11.937111,11.85618 -24.093734,23.501439 -36.1084303,35.28385 -1.753457,1.74514 -3.587911,3.41143 -5.27027104,5.22635 -0.52239,0.71603 -0.51949,1.69199 -0.19493,2.48953 0.12908,0.41009 0.51707004,0.64747 0.79641004,0.94985 0.86541,0.82983 1.83602,1.61821 2.998418,1.97514 0.471591,0.0693 0.922346,-0.1773 1.30456,-0.42739 0.5940875,-0.41896 1.0547055,-0.99222 1.6165355,-1.44947 C 14.318348,112.85036 20.975637,105.96321 27.722496,99.176599 35.123818,91.69842 42.477089,84.17202 49.968742,76.78386 c 0.397309,-0.30501 0.711348,-0.70701 1.123963,-0.9927 2.789264,1.17876 5.679996,2.1037 8.609735,2.86267 4.195239,1.16447 8.212881,2.92539 12.477562,3.84601 3.833024,0.71772 7.750206,0.5452 11.628499,0.52146 2.091883,0.0196 4.182926,-0.22288 6.21895,-0.70103 1.265677,-0.28682 2.501725,-0.68511 3.73132,-1.09631 7.133369,-2.24237 13.738759,-6.25987 18.844939,-11.7412 1.96231,-2.10862 3.77381,-4.36362 5.32613,-6.79245 2.31688,-3.60151 4.09424,-7.56143 5.13303,-11.72028 1.07217,-3.72306 1.24429,-7.63436 1.12807,-11.48599 -0.0492,-1.40219 -0.0498,-2.80816 -0.20808,-4.20423 -0.15631,-1.55855 -0.46426,-3.10105 -0.92392,-4.59851 -1.0875,-4.02742 -2.61176,-7.9595 -4.76074,-11.54417 -0.74263,-1.20029 -1.62121,-2.31111 -2.53877,-3.38148 -2.68538,-3.02655 -5.771,-5.69312 -9.12081,-7.9598199 -2.2565,-1.51557 -4.62467,-2.87593 -7.123357,-3.95231 -3.308539,-1.44096 -6.784194,-2.50906 -10.341163,-3.12401003 -2.055745,-0.19605 -4.122679,-0.21866 -6.186185,-0.20851 z m -0.90072,4.27519003 c 0.933371,0.003 1.87178,0.004 2.787628,0.042 0.377791,0.0177 0.828456,0.0414 1.233812,0.0763 1.30626,0.10199 2.603711,0.33121 3.85549,0.72053 1.491451,0.38386 2.983346,0.83732 4.414911,1.35489 3.828137,1.37721 7.490574,3.2980799 10.627334,5.9063599 3.00031,2.41428 5.63274,5.28734 7.77224,8.4894 0.32768,0.5497 0.69595,1.08675 1.06307,1.61834 0.27503,0.40751 0.55323,0.84022 0.79718,1.23439 1.74226,2.80296 3.11986,5.83054 4.09221,8.9842 0.80009,2.48728 1.28583,5.0861 1.30737,7.70319 0.10011,3.41101 0.20203,6.85753 -0.41739,10.22974 -0.54926,2.48387 -1.35282,4.90967 -2.37063,7.24045 -0.40361,0.91792 -0.85944,1.8702 -1.34126,2.7726 -0.73328,1.38071 -1.55511,2.74218 -2.45767,4.03807 -2.39167,3.24721 -5.30103,6.08761 -8.45175,8.59353 -3.39424,2.4772 -7.243177,4.28942 -11.244524,5.54594 -0.971325,0.30099 -2.015741,0.60357 -3.039089,0.83563 -1.779145,0.40259 -3.594529,0.62699 -5.413625,0.74412 -0.315805,0.0169 -0.697218,0.042 -1.039287,0.0545 -2.22385,0.0914 -4.451039,0.0614 -6.675085,-0.002 -1.890339,-0.0931 -3.754993,-0.49522 -5.546878,-1.09514 -2.017956,-0.62191 -4.025527,-1.28827 -5.971167,-2.11237 -1.401657,-0.59526 -2.807163,-1.29512 -4.113961,-2.10995 -1.16477,-0.74333 -2.304696,-1.54554 -3.392609,-2.37394 -3.246848,-2.47938 -6.200852,-5.39269 -8.473612,-8.80072 -0.282051,-0.45678 -0.528016,-0.93843 -0.888116,-1.34152 -0.596085,-0.88326 -1.126022,-1.81081 -1.65167,-2.73761 -0.39229,-0.69741 -0.780515,-1.44398 -1.126379,-2.13637 -0.500779,-1.01457 -0.964766,-2.04723 -1.386993,-3.09696 -0.08685,-0.22873 -0.207648,-0.5224 -0.30121,-0.77929 -0.576508,-1.47407 -0.944567,-3.01946 -1.253344,-4.56883 -0.07348,-0.37655 -0.128477,-0.70175 -0.192762,-1.08455 -0.0709,-0.42768 -0.142158,-0.93269 -0.201457,-1.39428 -0.256368,-2.03797 -0.347829,-4.12653 -0.282617,-6.16031 0.03465,-1.04259 0.104722,-2.05606 0.219371,-3.0977 0.228947,-2.09642 0.637506,-4.22077 1.209609,-6.27033 0.194347,-0.70053 0.4088,-1.39524 0.63232,-2.05719 1.091874,-3.3393 2.740707,-6.48842 4.817361,-9.31984 1.725054,-2.37189 3.759332,-4.50503 5.939679,-6.46104 3.822142,-3.38947 8.329401,-6.0284999 13.210077,-7.5606899 0.857787,-0.2776 1.723197,-0.53172 2.596192,-0.75715 0.163065,-0.0408 0.411178,-0.10104 0.606875,-0.1493 1.050329,-0.24465 2.112266,-0.44393 3.184625,-0.56228 0.127265,-0.0137 0.304467,-0.0329 0.44386,-0.0447 1.252072,-0.12145 2.511464,-0.0848 3.767459,-0.10739 0.884941,-0.002 1.769515,-0.006 2.654412,-0.002 z"
       style="fill:#e6e6e6;stroke:none;stroke-width:0.61472;stroke-linecap:round;stroke-linejoin:round"
       id="path862" />
    <path
       d="m 117.02201,18.29805 c -0.0501,0.18478 -0.23286,0.36316 -0.12286,0.55569 0.11701,0.31685 0.355,0.5769 0.51922,0.87213 1.08407,1.80875 1.99718,3.7167 2.78174,5.67303 0.12745,0.32447 0.27712,0.70908 0.40664,1.05901 0.61174,1.63133 1.10894,3.30235 1.56841,4.98197 0.55056,1.86849 0.79906,3.81323 0.88834,5.7552 0.0161,0.37501 0.0298,0.81226 0.0345,1.21178 0.0781,2.14328 0.11187,4.31999 -0.0552,6.47673 -0.0516,0.67479 -0.12209,1.35645 -0.20978,1.99353 -0.10532,0.78008 -0.24669,1.57946 -0.41199,2.32405 -0.22255,0.97545 -0.49695,1.93821 -0.76364,2.90223 -0.72867,2.50561 -1.76043,4.96187 -2.9812,7.2371 -0.38581,0.71727 -0.81653,1.45932 -1.22783,2.13062 -1.50745,2.44765 -3.27487,4.72879 -5.21333,6.84936 -5.06544,5.60398 -11.72113,9.69527 -18.91994,11.93322 -1.146546,0.38924 -2.303114,0.75316 -3.483644,1.02603 -0.125102,0.0287 -0.344422,0.0769 -0.505622,0.11314 -1.822653,0.39616 -3.688019,0.58847 -5.553217,0.57032 -3.827976,0.0214 -7.695615,0.19962 -11.477826,-0.51859 -4.512445,-1.00439 -8.754322,-2.92065 -13.229889,-4.05702 -2.655991,-0.71542 -5.27041,-1.59306 -7.801118,-2.67282 -0.230251,0.0119 -0.476837,-0.0243 -0.665937,0.13621 -0.531149,0.33084 -0.928138,0.82691 -1.411076,1.21769 -8.519274,8.40549 -16.865306,16.984009 -25.298874,25.47481 -5.462521,5.52571 -10.893234,11.08086 -16.4912988,16.46458 -0.418097,0.41441 -0.854598,0.80804 -1.2879935,1.20562 -0.437221,0.40776 -0.843333,0.912 -1.439391,1.08538 -1.21614,-0.43998 -2.14663,-1.38142 -3.04839,-2.27014 -0.15148,-0.0293 -0.31115,-0.1683 -0.45724,-0.12547 -0.12704,0.10091 -0.36940004,0.11542 -0.36595004,0.3141 -0.0447,0.17159 -0.0997,0.35073 0.0168,0.50775 0.38241004,0.83266 0.97243004,1.55247 1.65059004,2.16227 0.88708,0.85664 1.87722,1.67961 3.073893,2.04755 0.47159,0.0693 0.9223445,-0.1773 1.3045585,-0.42739 0.594122,-0.41895 1.054701,-0.9922 1.616536,-1.44947 6.9228808,-6.62664 13.5863488,-13.52006 20.3394168,-20.31294 7.394925,-7.472111 14.742533,-14.9917 22.227649,-22.37393 0.397068,-0.30526 0.711686,-0.70657 1.123963,-0.9927 2.789293,1.17875 5.679979,2.10371 8.609734,2.86267 4.187492,1.16246 8.194683,2.91679 12.451541,3.84122 3.80601,0.71742 7.696818,0.5529 11.548691,0.52712 1.727056,0.0144 3.455669,-0.12761 5.152211,-0.45473 1.634242,-0.30365 3.231987,-0.7735 4.802941,-1.3117 7.138762,-2.2258 13.752432,-6.22853 18.873942,-11.69537 1.98322,-2.12476 3.81513,-4.39716 5.38293,-6.84716 2.32449,-3.60745 4.10772,-7.57532 5.14818,-11.74318 1.07675,-3.74022 1.24616,-7.66985 1.12673,-11.53888 -0.0485,-1.37576 -0.0496,-2.75519 -0.20413,-4.12501 -0.15521,-1.55857 -0.45939,-3.10194 -0.91928,-4.59939 -1.32774,-4.93515 -3.34357,-9.72907 -6.3098,-13.91096 -0.14382,-0.0563 -0.27594,-0.2217 -0.42748,-0.2061 -0.12175,0.0403 -0.24349,0.0806 -0.36524,0.12084 z"
       style="fill:#999999;stroke:none;stroke-width:0.61472;stroke-linecap:round;stroke-linejoin:round"
       id="path864" />
    <path
       sodipodi:nodetypes="ssssscsssscssssssssssscssscsssssssssssssssssscsssssssssssscssaaacsssssscssssssscscssscssss"
       id="path847"
       d="m 4.3112537,123.02722 c -3.14565,-1.70335 -5.05556004,-5.00802 -4.03498004,-6.98162 0.21674,-0.41911 2.10801004,-2.41672 4.20283504,-4.43914 C 6.5739322,109.58405 15.636623,100.7856 24.61842,92.05435 33.60022,83.3231 42.06038,75.13695 43.41878,73.86291 l 2.46982,-2.31644 -0.74526,-1.38773 c -0.90229,-1.68015 -1.76057,-4.4846 -2.08466,-6.81169 -0.13174,-0.94588 -0.59397,-2.61276 -1.02718,-3.70417 -1.08128,-2.72409 -2.05378,-6.0266 -2.61007,-8.86354 -0.64953,-3.31238 -0.64179,-10.64467 0.0151,-14.2875 1.28595,-7.13157 4.34184,-14.39327 8.29501,-19.71146 2.01237,-2.70723 6.61626,-7.2320099 9.21829,-9.0598899 4.69319,-3.29689 10.69188,-5.8804 16.50779,-7.10954003 2.32147,-0.49062 3.66969,-0.59078 8.20209,-0.60937 6.24005,-0.0256 8.35469,0.24771 13.27241,1.71535003 5.84366,1.74397 9.27507,3.49929 14.24426,7.2866 4.7911,3.6515899 9.063,8.4224199 11.46489,12.8039399 2.18633,3.98828 4.35857,10.85985 4.93256,15.60347 0.98459,8.13683 -0.88178,18.03662 -4.69013,24.87778 -1.95567,3.51309 -3.90349,6.01347 -7.69708,9.88061 -5.53243,5.63969 -11.11091,8.96186 -19.10977,11.3805 C 89.8934,84.81479 87.35172,85.13841 81.899,85.10039 74.31801,85.04749 71.46497,84.52267 64.80773,81.9562 60.6331,80.34683 60.69321,80.36518 58.05281,79.89399 56.75647,79.66265 54.97246,79.11317 53.98265,78.64037 l -1.76222,-0.84177 -9.02672,9.11569 c -4.96469,5.01363 -15.04184,15.22764 -22.39366,22.6978 -13.2260708,13.43898 -13.3794398,13.58339 -14.5520853,13.7021 -0.768182,0.0778 -1.449548,-0.0232 -1.936691,-0.28697 z M 17.762807,111.42512 C 23.87468,105.26183 33.97957,95.025779 40.21812,88.67834 46.45667,82.3309 51.72316,77.07528 51.92143,76.9992 c 0.19827,-0.0761 1.34479,0.3305 2.54781,0.90352 1.39929,0.6665 2.99756,1.18203 4.43628,1.43093 1.23693,0.21399 4.01297,1.05284 6.16899,1.86412 7.0594,2.65635 9.71657,3.14915 16.98205,3.14952 5.68963,2.7e-4 7.91931,-0.32851 12.7,-1.87282 8.55582,-2.76378 14.94434,-7.05945 20.66032,-13.89211 4.67431,-5.58749 7.35198,-11.05914 8.84177,-18.0676 0.88547,-4.16552 1.00966,-10.46949 0.28925,-14.68177 -0.62879,-3.6765 -2.14429,-8.41698 -3.84782,-12.03594 C 116.4829,14.83812 106.3815,6.2583901 96.07641,2.8827001 90.6298,1.0985201 88.54767,0.78839007 82.05656,0.79447007 c -6.29238,0.006 -8.51879,0.31643003 -13.22917,1.84514003 -2.75862,0.89529 -7.91142,3.41539 -10.58333,5.17602 -2.93706,1.93536 -8.8007,7.8594899 -10.92275,11.0354299 -4.76221,7.12731 -7.73019,16.75677 -7.73032,25.0806 -8e-5,4.87303 1.18436,10.5129 3.21514,15.3094 0.43014,1.01593 0.88868,2.6828 1.01898,3.70417 0.30763,2.41123 1.16886,5.20549 2.14415,6.95667 0.56804,1.01995 0.71117,1.51881 0.53189,1.85381 -0.13492,0.25209 -1.77467,1.9349 -3.6439,3.73957 -3.37676,3.26015 -6.58837,6.37944 -15.96632,15.50741 -4.22867,4.115949 -15.090055,14.65038 -23.6140563,22.90322 -2.84662004,2.75605 -3.01138004,3.15191 -2.0594,4.94804 0.90185,1.70156 3.482855,3.75262 4.742151,3.76846 0.5633305,0.007 2.7396635,-2.05752 11.8031823,-11.19729 z M 78.35239,81.43872 C 77.77031,81.37642 75.708781,81.27498 74.416746,81.0057 72.894884,80.68852 71.439485,80.1086 69.963241,79.62139 68.576042,79.16357 67.163526,78.76342 65.826184,78.17568 64.454938,77.57304 62.803635,76.61437 61.86559,76.05315 49.2773,68.59543 42.19999,54.95013 43.54228,40.72516 c 0.89094,-9.44168 4.38027,-17.0905 10.73303,-23.52739 4.19031,-4.2458 8.61906,-7.07946 14.41979,-9.2262499 5.44915,-2.01667 12.35398,-2.74321 18.42214,-1.93841 4.16395,0.55224 10.347453,2.54001 13.72915,4.4133999 10.16548,5.63148 17.22735,15.51601 19.36385,27.10365 0.58881,3.19347 0.5737,9.19927 -0.0319,12.7 -1.99515,11.53235 -9.6795,21.81993 -20.248257,27.10778 -2.738,1.3699 -7.857813,3.08156 -10.729733,3.58718 -2.36622,0.4166 -8.82346,0.7104 -10.84792,0.49358 z m 11.32698,-1.27981 c 4.95875,-1.11801 9.961483,-3.20552 13.86153,-5.78406 8.25519,-5.45795 13.87986,-13.93003 15.86302,-23.89343 0.64278,-3.22933 0.65434,-10.24994 0.0217,-13.19583 -3.01608,-14.04508 -11.98238,-24.34703 -25.00463,-28.7294199 -4.99167,-1.67985 -6.714,-1.95548 -12.23216,-1.95756 -7.06729,-0.003 -11.42416,0.95023 -16.98969,3.7158399 -4.79108,2.38077 -8.21637,4.97377 -11.89408,9.00401 -4.11347,4.50776 -7.25238,10.98609 -8.59708,17.74329 -0.65092,3.27091 -0.6661,10.77454 -0.0278,13.71759 0.69367,3.19813 1.68822,6.05859 3.14442,9.04383 5.37649,11.02188 15.70148,18.51534 28.41107,20.61961 2.75908,0.45681 10.92308,0.28442 13.44364,-0.28387 z"
       style="fill:#000000;stroke-width:0.264583" />
  </g>
</svg>
