<?xml version="1.0" encoding="UTF-8" standalone="no"?>
<svg
   xmlns:dc="http://purl.org/dc/elements/1.1/"
   xmlns:cc="http://creativecommons.org/ns#"
   xmlns:rdf="http://www.w3.org/1999/02/22-rdf-syntax-ns#"
   xmlns:svg="http://www.w3.org/2000/svg"
   xmlns="http://www.w3.org/2000/svg"
   xmlns:sodipodi="http://sodipodi.sourceforge.net/DTD/sodipodi-0.dtd"
   xmlns:inkscape="http://www.inkscape.org/namespaces/inkscape"
   width="126mm"
   height="124mm"
   viewBox="0 0 126 124"
   version="1.1"
   id="svg8"
   inkscape:version="1.0 (4035a4fb49, 2020-05-01)"
   sodipodi:docname="magnifying_sun.svg">
  <defs
     id="defs2">
    <filter
       inkscape:collect="always"
       style="color-interpolation-filters:sRGB"
       id="filter1227"
       x="-0.108"
       width="1.216"
       y="-0.108"
       height="1.216">
      <feGaussianBlur
         inkscape:collect="always"
         stdDeviation="8.9691628"
         id="feGaussianBlur1229" />
    </filter>
    <inkscape:path-effect
       lpeversion="1"
       is_visible="true"
       id="path-effect676"
       effect="spiro" />
    <inkscape:path-effect
       lpeversion="1"
       is_visible="true"
       id="path-effect678"
       effect="spiro" />
    <inkscape:path-effect
       lpeversion="1"
       is_visible="true"
       id="path-effect680"
       effect="spiro" />
    <inkscape:path-effect
       lpeversion="1"
       is_visible="true"
       id="path-effect755"
       effect="spiro" />
  </defs>
  <sodipodi:namedview
     inkscape:snap-global="false"
     id="base"
     pagecolor="#ffffff"
     bordercolor="#666666"
     borderopacity="1.0"
     inkscape:pageopacity="0.0"
     inkscape:pageshadow="2"
     inkscape:zoom="0.49497475"
     inkscape:cx="76.626752"
     inkscape:cy="-145.60933"
     inkscape:document-units="mm"
     inkscape:current-layer="layer1"
     inkscape:document-rotation="0"
     showgrid="false"
     inkscape:window-width="1920"
     inkscape:window-height="1013"
     inkscape:window-x="-9"
     inkscape:window-y="-9"
     inkscape:window-maximized="1" />
  <metadata
     id="metadata5">
    <rdf:RDF>
      <cc:Work
         rdf:about="">
        <dc:format>image/svg+xml</dc:format>
        <dc:type
           rdf:resource="http://purl.org/dc/dcmitype/StillImage" />
        <dc:title></dc:title>
      </cc:Work>
    </rdf:RDF>
  </metadata>
  <g
     inkscape:label="Warstwa 1"
     inkscape:groupmode="layer"
     id="layer1">
    <path
       transform="scale(0.26458333)"
       d="M 275.36523 18.740234 A 149.98812 149.98812 0 0 0 274.66797 18.917969 A 149.98812 149.98812 0 0 0 273.67188 19.177734 A 149.98812 149.98812 0 0 0 272.67578 19.445312 A 149.98812 149.98812 0 0 0 271.68359 19.720703 A 149.98812 149.98812 0 0 0 270.69336 20.001953 A 149.98812 149.98812 0 0 0 269.70508 20.289062 A 149.98812 149.98812 0 0 0 268.7168 20.583984 A 149.98812 149.98812 0 0 0 267.73242 20.884766 A 149.98812 149.98812 0 0 0 266.75 21.193359 A 149.98812 149.98812 0 0 0 265.76953 21.507812 A 149.98812 149.98812 0 0 0 264.79102 21.830078 A 149.98812 149.98812 0 0 0 263.81641 22.158203 A 149.98812 149.98812 0 0 0 262.8418 22.494141 A 149.98812 149.98812 0 0 0 261.87109 22.835938 A 149.98812 149.98812 0 0 0 260.90039 23.183594 A 149.98812 149.98812 0 0 0 259.93359 23.539062 A 149.98812 149.98812 0 0 0 258.9707 23.900391 A 149.98812 149.98812 0 0 0 258.00781 24.269531 A 149.98812 149.98812 0 0 0 257.04883 24.644531 A 149.98812 149.98812 0 0 0 256.09375 25.025391 A 149.98812 149.98812 0 0 0 255.13867 25.414062 A 149.98812 149.98812 0 0 0 254.1875 25.808594 A 149.98812 149.98812 0 0 0 253.23828 26.208984 A 149.98812 149.98812 0 0 0 252.29297 26.617188 A 149.98812 149.98812 0 0 0 251.34961 27.03125 A 149.98812 149.98812 0 0 0 250.41016 27.451172 A 149.98812 149.98812 0 0 0 249.47266 27.878906 A 149.98812 149.98812 0 0 0 248.53906 28.3125 A 149.98812 149.98812 0 0 0 247.60742 28.751953 A 149.98812 149.98812 0 0 0 246.67969 29.199219 A 149.98812 149.98812 0 0 0 245.75391 29.652344 A 149.98812 149.98812 0 0 0 244.83203 30.109375 A 149.98812 149.98812 0 0 0 243.91406 30.576172 A 149.98812 149.98812 0 0 0 242.99805 31.046875 A 149.98812 149.98812 0 0 0 242.08594 31.525391 A 149.98812 149.98812 0 0 0 241.17773 32.009766 A 149.98812 149.98812 0 0 0 240.27148 32.5 A 149.98812 149.98812 0 0 0 239.36914 32.996094 A 149.98812 149.98812 0 0 0 238.4707 33.498047 A 149.98812 149.98812 0 0 0 237.57617 34.007812 A 149.98812 149.98812 0 0 0 236.68359 34.523438 A 149.98812 149.98812 0 0 0 235.79492 35.042969 A 149.98812 149.98812 0 0 0 234.91016 35.570312 A 149.98812 149.98812 0 0 0 234.0293 36.103516 A 149.98812 149.98812 0 0 0 233.15234 36.644531 A 149.98812 149.98812 0 0 0 232.2793 37.189453 A 149.98812 149.98812 0 0 0 231.4082 37.740234 A 149.98812 149.98812 0 0 0 230.54297 38.296875 A 149.98812 149.98812 0 0 0 229.68164 38.861328 A 149.98812 149.98812 0 0 0 228.82227 39.429688 A 149.98812 149.98812 0 0 0 227.96875 40.003906 A 149.98812 149.98812 0 0 0 227.11719 40.585938 A 149.98812 149.98812 0 0 0 226.27148 41.171875 A 149.98812 149.98812 0 0 0 225.42969 41.765625 A 149.98812 149.98812 0 0 0 224.58984 42.363281 A 149.98812 149.98812 0 0 0 223.75586 42.966797 A 149.98812 149.98812 0 0 0 222.92578 43.576172 A 149.98812 149.98812 0 0 0 222.10156 44.191406 A 149.98812 149.98812 0 0 0 221.2793 44.8125 A 149.98812 149.98812 0 0 0 220.46289 45.439453 A 149.98812 149.98812 0 0 0 219.64844 46.072266 A 149.98812 149.98812 0 0 0 218.83984 46.708984 A 149.98812 149.98812 0 0 0 218.03711 47.353516 A 149.98812 149.98812 0 0 0 217.23633 48.001953 A 149.98812 149.98812 0 0 0 216.44141 48.65625 A 149.98812 149.98812 0 0 0 215.65039 49.316406 A 149.98812 149.98812 0 0 0 214.86523 49.980469 A 149.98812 149.98812 0 0 0 214.08203 50.652344 A 149.98812 149.98812 0 0 0 213.30664 51.328125 A 149.98812 149.98812 0 0 0 212.5332 52.009766 A 149.98812 149.98812 0 0 0 211.76562 52.695312 A 149.98812 149.98812 0 0 0 211.00391 53.386719 A 149.98812 149.98812 0 0 0 210.24414 54.083984 A 149.98812 149.98812 0 0 0 209.49219 54.787109 A 149.98812 149.98812 0 0 0 208.74219 55.494141 A 149.98812 149.98812 0 0 0 208 56.207031 A 149.98812 149.98812 0 0 0 207.26172 56.923828 A 149.98812 149.98812 0 0 0 206.52734 57.646484 A 149.98812 149.98812 0 0 0 205.79883 58.375 A 149.98812 149.98812 0 0 0 205.07422 59.107422 A 149.98812 149.98812 0 0 0 204.35547 59.84375 A 149.98812 149.98812 0 0 0 203.64258 60.585938 A 149.98812 149.98812 0 0 0 202.93359 61.333984 A 149.98812 149.98812 0 0 0 202.23047 62.085938 A 149.98812 149.98812 0 0 0 201.53125 62.84375 A 149.98812 149.98812 0 0 0 200.83984 63.605469 A 149.98812 149.98812 0 0 0 200.15234 64.371094 A 149.98812 149.98812 0 0 0 199.46875 65.142578 A 149.98812 149.98812 0 0 0 198.79102 65.919922 A 149.98812 149.98812 0 0 0 198.11914 66.699219 A 149.98812 149.98812 0 0 0 197.45312 67.484375 A 149.98812 149.98812 0 0 0 196.79297 68.275391 A 149.98812 149.98812 0 0 0 196.13672 69.068359 A 149.98812 149.98812 0 0 0 195.48633 69.867188 A 149.98812 149.98812 0 0 0 194.8418 70.669922 A 149.98812 149.98812 0 0 0 194.20312 71.478516 A 149.98812 149.98812 0 0 0 193.57031 72.291016 A 149.98812 149.98812 0 0 0 192.94141 73.105469 A 149.98812 149.98812 0 0 0 192.32031 73.927734 A 149.98812 149.98812 0 0 0 191.70312 74.751953 A 149.98812 149.98812 0 0 0 191.0918 75.580078 A 149.98812 149.98812 0 0 0 190.48633 76.414062 A 149.98812 149.98812 0 0 0 189.88672 77.251953 A 149.98812 149.98812 0 0 0 189.29297 78.091797 A 149.98812 149.98812 0 0 0 188.70508 78.9375 A 149.98812 149.98812 0 0 0 188.12305 79.787109 A 149.98812 149.98812 0 0 0 187.54688 80.640625 A 149.98812 149.98812 0 0 0 186.97656 81.498047 A 149.98812 149.98812 0 0 0 186.41211 82.359375 A 149.98812 149.98812 0 0 0 185.85352 83.224609 A 149.98812 149.98812 0 0 0 185.30078 84.09375 A 149.98812 149.98812 0 0 0 184.75391 84.966797 A 149.98812 149.98812 0 0 0 184.21289 85.84375 A 149.98812 149.98812 0 0 0 183.67773 86.722656 A 149.98812 149.98812 0 0 0 183.15039 87.607422 A 149.98812 149.98812 0 0 0 182.62695 88.494141 A 149.98812 149.98812 0 0 0 182.11133 89.386719 A 149.98812 149.98812 0 0 0 181.60156 90.28125 A 149.98812 149.98812 0 0 0 181.0957 91.177734 A 149.98812 149.98812 0 0 0 180.59961 92.080078 A 149.98812 149.98812 0 0 0 180.10742 92.984375 A 149.98812 149.98812 0 0 0 179.62109 93.892578 A 149.98812 149.98812 0 0 0 179.14258 94.804688 A 149.98812 149.98812 0 0 0 178.66992 95.71875 A 149.98812 149.98812 0 0 0 178.20312 96.636719 A 149.98812 149.98812 0 0 0 177.74219 97.558594 A 149.98812 149.98812 0 0 0 177.28711 98.482422 A 149.98812 149.98812 0 0 0 176.83984 99.410156 A 149.98812 149.98812 0 0 0 176.39844 100.33984 A 149.98812 149.98812 0 0 0 175.96484 101.27344 A 149.98812 149.98812 0 0 0 175.53516 102.21094 A 149.98812 149.98812 0 0 0 175.11328 103.15039 A 149.98812 149.98812 0 0 0 174.69727 104.0918 A 149.98812 149.98812 0 0 0 174.28906 105.03711 A 149.98812 149.98812 0 0 0 173.88672 105.98438 A 149.98812 149.98812 0 0 0 173.49023 106.93555 A 149.98812 149.98812 0 0 0 173.09961 107.88867 A 149.98812 149.98812 0 0 0 172.7168 108.8457 A 149.98812 149.98812 0 0 0 172.3418 109.80469 A 149.98812 149.98812 0 0 0 171.9707 110.76562 A 149.98812 149.98812 0 0 0 171.60742 111.72852 A 149.98812 149.98812 0 0 0 171.25195 112.69531 A 149.98812 149.98812 0 0 0 170.90234 113.66406 A 149.98812 149.98812 0 0 0 170.55859 114.63477 A 149.98812 149.98812 0 0 0 170.2207 115.60742 A 149.98812 149.98812 0 0 0 169.89062 116.58203 A 149.98812 149.98812 0 0 0 169.56836 117.56055 A 149.98812 149.98812 0 0 0 169.25195 118.54102 A 149.98812 149.98812 0 0 0 168.94141 119.52344 A 149.98812 149.98812 0 0 0 168.63867 120.50781 A 149.98812 149.98812 0 0 0 168.3418 121.49414 A 149.98812 149.98812 0 0 0 168.05273 122.48242 A 149.98812 149.98812 0 0 0 167.76953 123.47266 A 149.98812 149.98812 0 0 0 167.49414 124.46484 A 149.98812 149.98812 0 0 0 167.22461 125.45898 A 149.98812 149.98812 0 0 0 166.96289 126.45508 A 149.98812 149.98812 0 0 0 166.70703 127.45117 A 149.98812 149.98812 0 0 0 166.45898 128.45117 A 149.98812 149.98812 0 0 0 166.2168 129.45312 A 149.98812 149.98812 0 0 0 165.98242 130.45508 A 149.98812 149.98812 0 0 0 165.75391 131.45898 A 149.98812 149.98812 0 0 0 165.5332 132.46484 A 149.98812 149.98812 0 0 0 165.32031 133.47266 A 149.98812 149.98812 0 0 0 165.11328 134.48047 A 149.98812 149.98812 0 0 0 164.91211 135.49219 A 149.98812 149.98812 0 0 0 164.71875 136.50391 A 149.98812 149.98812 0 0 0 164.5332 137.51562 A 149.98812 149.98812 0 0 0 164.35352 138.5293 A 149.98812 149.98812 0 0 0 164.18164 139.54492 A 149.98812 149.98812 0 0 0 164.01562 140.5625 A 149.98812 149.98812 0 0 0 163.85742 141.58008 A 149.98812 149.98812 0 0 0 163.70508 142.59766 A 149.98812 149.98812 0 0 0 163.56055 143.61719 A 149.98812 149.98812 0 0 0 163.42383 144.63867 A 149.98812 149.98812 0 0 0 163.29297 145.66016 A 149.98812 149.98812 0 0 0 163.16992 146.68164 A 149.98812 149.98812 0 0 0 163.05273 147.70508 A 149.98812 149.98812 0 0 0 162.94336 148.72852 A 149.98812 149.98812 0 0 0 162.8418 149.75391 A 149.98812 149.98812 0 0 0 162.74609 150.7793 A 149.98812 149.98812 0 0 0 162.6582 151.80664 A 149.98812 149.98812 0 0 0 162.57617 152.83203 A 149.98812 149.98812 0 0 0 162.50195 153.85938 A 149.98812 149.98812 0 0 0 162.43555 154.88672 A 149.98812 149.98812 0 0 0 162.375 155.91602 A 149.98812 149.98812 0 0 0 162.32227 156.94336 A 149.98812 149.98812 0 0 0 162.27539 157.97266 A 149.98812 149.98812 0 0 0 162.23828 159.00195 A 149.98812 149.98812 0 0 0 162.20508 160.03125 A 149.98812 149.98812 0 0 0 162.18164 161.06055 A 149.98812 149.98812 0 0 0 162.16406 162.08984 A 149.98812 149.98812 0 0 0 162.15234 163.11914 A 149.98812 149.98812 0 0 0 162.14844 164.15039 A 149.98812 149.98812 0 0 0 162.15039 164.94727 A 149.98812 149.98812 0 0 0 162.16016 165.97656 A 149.98812 149.98812 0 0 0 162.17578 167.00586 A 149.98812 149.98812 0 0 0 162.19922 168.03516 A 149.98812 149.98812 0 0 0 162.23047 169.06445 A 149.98812 149.98812 0 0 0 162.26758 170.09375 A 149.98812 149.98812 0 0 0 162.31055 171.12305 A 149.98812 149.98812 0 0 0 162.36328 172.15234 A 149.98812 149.98812 0 0 0 162.42188 173.17969 A 149.98812 149.98812 0 0 0 162.48633 174.20703 A 149.98812 149.98812 0 0 0 162.55859 175.23438 A 149.98812 149.98812 0 0 0 162.63867 176.26172 A 149.98812 149.98812 0 0 0 162.72461 177.28711 A 149.98812 149.98812 0 0 0 162.81836 178.3125 A 149.98812 149.98812 0 0 0 162.91992 179.33789 A 149.98812 149.98812 0 0 0 163.02734 180.36328 A 149.98812 149.98812 0 0 0 163.14258 181.38672 A 149.98812 149.98812 0 0 0 163.26367 182.4082 A 149.98812 149.98812 0 0 0 163.39258 183.42969 A 149.98812 149.98812 0 0 0 163.5293 184.45117 A 149.98812 149.98812 0 0 0 163.67188 185.4707 A 149.98812 149.98812 0 0 0 163.82227 186.49023 A 149.98812 149.98812 0 0 0 163.97852 187.50781 A 149.98812 149.98812 0 0 0 164.14258 188.52344 A 149.98812 149.98812 0 0 0 164.31445 189.53906 A 149.98812 149.98812 0 0 0 164.49219 190.55469 A 149.98812 149.98812 0 0 0 164.67578 191.56641 A 149.98812 149.98812 0 0 0 164.86719 192.58008 A 149.98812 149.98812 0 0 0 165.06641 193.58984 A 149.98812 149.98812 0 0 0 165.27148 194.59961 A 149.98812 149.98812 0 0 0 165.48438 195.60547 A 149.98812 149.98812 0 0 0 165.70508 196.61328 A 149.98812 149.98812 0 0 0 165.92969 197.61719 A 149.98812 149.98812 0 0 0 166.16406 198.62109 A 149.98812 149.98812 0 0 0 166.4043 199.62109 A 149.98812 149.98812 0 0 0 166.65039 200.62109 A 149.98812 149.98812 0 0 0 166.9043 201.61914 A 149.98812 149.98812 0 0 0 167.16602 202.61523 A 149.98812 149.98812 0 0 0 167.43359 203.61133 A 149.98812 149.98812 0 0 0 167.70703 204.60352 A 149.98812 149.98812 0 0 0 167.98828 205.59375 A 149.98812 149.98812 0 0 0 168.27734 206.58203 A 149.98812 149.98812 0 0 0 168.57031 207.56836 A 149.98812 149.98812 0 0 0 168.87305 208.55469 A 149.98812 149.98812 0 0 0 169.18164 209.53711 A 149.98812 149.98812 0 0 0 169.49609 210.51758 A 149.98812 149.98812 0 0 0 169.81836 211.49609 A 149.98812 149.98812 0 0 0 170.14648 212.4707 A 149.98812 149.98812 0 0 0 170.48047 213.44531 A 149.98812 149.98812 0 0 0 170.82227 214.41602 A 149.98812 149.98812 0 0 0 171.17188 215.38672 A 149.98812 149.98812 0 0 0 171.52734 216.35156 A 149.98812 149.98812 0 0 0 171.88867 217.31641 A 149.98812 149.98812 0 0 0 172.25586 218.2793 A 149.98812 149.98812 0 0 0 172.63086 219.23828 A 149.98812 149.98812 0 0 0 173.01367 220.19336 A 149.98812 149.98812 0 0 0 173.40039 221.14844 A 149.98812 149.98812 0 0 0 173.79688 222.09961 A 149.98812 149.98812 0 0 0 174.19727 223.04688 A 149.98812 149.98812 0 0 0 174.60547 223.99414 A 149.98812 149.98812 0 0 0 175.01953 224.93555 A 149.98812 149.98812 0 0 0 175.43945 225.87695 A 149.98812 149.98812 0 0 0 175.86719 226.81445 A 149.98812 149.98812 0 0 0 176.30078 227.74805 A 149.98812 149.98812 0 0 0 176.74023 228.67969 A 149.98812 149.98812 0 0 0 177.18555 229.60742 A 149.98812 149.98812 0 0 0 177.63867 230.53125 A 149.98812 149.98812 0 0 0 178.09766 231.45312 A 149.98812 149.98812 0 0 0 178.5625 232.37305 A 149.98812 149.98812 0 0 0 179.03516 233.28906 A 149.98812 149.98812 0 0 0 179.51172 234.20117 A 149.98812 149.98812 0 0 0 179.99609 235.10938 A 149.98812 149.98812 0 0 0 180.48633 236.01562 A 149.98812 149.98812 0 0 0 180.98242 236.91797 A 149.98812 149.98812 0 0 0 181.48633 237.81641 A 149.98812 149.98812 0 0 0 181.99414 238.71094 A 149.98812 149.98812 0 0 0 182.50977 239.60352 A 149.98812 149.98812 0 0 0 183.03125 240.49219 A 149.98812 149.98812 0 0 0 183.55859 241.37695 A 149.98812 149.98812 0 0 0 184.0918 242.25781 A 149.98812 149.98812 0 0 0 184.63086 243.13477 A 149.98812 149.98812 0 0 0 185.17578 244.00781 A 149.98812 149.98812 0 0 0 185.72852 244.87891 A 149.98812 149.98812 0 0 0 186.28516 245.74414 A 149.98812 149.98812 0 0 0 186.84766 246.60547 A 149.98812 149.98812 0 0 0 187.41797 247.46484 A 149.98812 149.98812 0 0 0 187.99219 248.31836 A 149.98812 149.98812 0 0 0 188.57227 249.16992 A 149.98812 149.98812 0 0 0 189.16016 250.01562 A 149.98812 149.98812 0 0 0 189.75195 250.85742 A 149.98812 149.98812 0 0 0 190.34961 251.69727 A 149.98812 149.98812 0 0 0 190.95508 252.53125 A 149.98812 149.98812 0 0 0 191.56445 253.36133 A 149.98812 149.98812 0 0 0 192.17969 254.18555 A 149.98812 149.98812 0 0 0 192.80078 255.00781 A 149.98812 149.98812 0 0 0 193.42773 255.82422 A 149.98812 149.98812 0 0 0 194.05859 256.63867 A 149.98812 149.98812 0 0 0 194.69727 257.44727 A 149.98812 149.98812 0 0 0 195.33984 258.25 A 149.98812 149.98812 0 0 0 195.99023 259.05078 A 149.98812 149.98812 0 0 0 196.64453 259.8457 A 149.98812 149.98812 0 0 0 197.30273 260.63672 A 149.98812 149.98812 0 0 0 197.96875 261.42188 A 149.98812 149.98812 0 0 0 198.63867 262.20508 A 149.98812 149.98812 0 0 0 199.31445 262.98047 A 149.98812 149.98812 0 0 0 199.99609 263.75391 A 149.98812 149.98812 0 0 0 200.68359 264.52148 A 149.98812 149.98812 0 0 0 201.375 265.2832 A 149.98812 149.98812 0 0 0 202.07227 266.04297 A 149.98812 149.98812 0 0 0 202.77344 266.79492 A 149.98812 149.98812 0 0 0 203.48047 267.54297 A 149.98812 149.98812 0 0 0 204.19336 268.28711 A 149.98812 149.98812 0 0 0 204.91211 269.02539 A 149.98812 149.98812 0 0 0 205.63477 269.75977 A 149.98812 149.98812 0 0 0 206.36133 270.48828 A 149.98812 149.98812 0 0 0 207.09375 271.21289 A 149.98812 149.98812 0 0 0 207.83203 271.93164 A 149.98812 149.98812 0 0 0 208.57422 272.64453 A 149.98812 149.98812 0 0 0 209.32227 273.35352 A 149.98812 149.98812 0 0 0 210.07422 274.05664 A 149.98812 149.98812 0 0 0 210.83008 274.75391 A 149.98812 149.98812 0 0 0 211.5918 275.44727 A 149.98812 149.98812 0 0 0 212.35938 276.13477 A 149.98812 149.98812 0 0 0 213.13086 276.81836 A 149.98812 149.98812 0 0 0 213.90625 277.49609 A 149.98812 149.98812 0 0 0 214.6875 278.16602 A 149.98812 149.98812 0 0 0 215.47266 278.83398 A 149.98812 149.98812 0 0 0 216.26172 279.49414 A 149.98812 149.98812 0 0 0 217.05664 280.15039 A 149.98812 149.98812 0 0 0 217.85547 280.80078 A 149.98812 149.98812 0 0 0 218.6582 281.44531 A 149.98812 149.98812 0 0 0 219.46484 282.08398 A 149.98812 149.98812 0 0 0 220.27734 282.7168 A 149.98812 149.98812 0 0 0 221.09375 283.3457 A 149.98812 149.98812 0 0 0 221.91406 283.9668 A 149.98812 149.98812 0 0 0 222.73828 284.58398 A 149.98812 149.98812 0 0 0 223.56836 285.19531 A 149.98812 149.98812 0 0 0 224.40039 285.80078 A 149.98812 149.98812 0 0 0 225.23828 286.40039 A 149.98812 149.98812 0 0 0 226.08008 286.99414 A 149.98812 149.98812 0 0 0 226.92578 287.58203 A 149.98812 149.98812 0 0 0 227.77539 288.16406 A 149.98812 149.98812 0 0 0 228.62891 288.74023 A 149.98812 149.98812 0 0 0 229.48633 289.31055 A 149.98812 149.98812 0 0 0 230.34766 289.875 A 149.98812 149.98812 0 0 0 231.21289 290.43359 A 149.98812 149.98812 0 0 0 232.08203 290.98633 A 149.98812 149.98812 0 0 0 232.95508 291.5332 A 149.98812 149.98812 0 0 0 233.83008 292.07422 A 149.98812 149.98812 0 0 0 234.71094 292.60742 A 149.98812 149.98812 0 0 0 235.59375 293.13672 A 149.98812 149.98812 0 0 0 236.48242 293.66016 A 149.98812 149.98812 0 0 0 237.37305 294.17578 A 149.98812 149.98812 0 0 0 238.26758 294.68555 A 149.98812 149.98812 0 0 0 239.16602 295.18945 A 149.98812 149.98812 0 0 0 240.06641 295.6875 A 149.98812 149.98812 0 0 0 240.97266 296.17969 A 149.98812 149.98812 0 0 0 241.88086 296.66602 A 149.98812 149.98812 0 0 0 242.79102 297.14453 A 149.98812 149.98812 0 0 0 243.70703 297.61719 A 149.98812 149.98812 0 0 0 244.625 298.08398 A 149.98812 149.98812 0 0 0 245.54492 298.54492 A 149.98812 149.98812 0 0 0 246.4707 298.99805 A 149.98812 149.98812 0 0 0 247.39844 299.44727 A 149.98812 149.98812 0 0 0 248.32812 299.88867 A 149.98812 149.98812 0 0 0 249.26172 300.32227 A 149.98812 149.98812 0 0 0 250.19727 300.75195 A 149.98812 149.98812 0 0 0 251.13672 301.17383 A 149.98812 149.98812 0 0 0 252.08008 301.58984 A 149.98812 149.98812 0 0 0 253.02539 301.99805 A 149.98812 149.98812 0 0 0 253.97266 302.40039 A 149.98812 149.98812 0 0 0 254.92383 302.79688 A 149.98812 149.98812 0 0 0 255.87695 303.18555 A 149.98812 149.98812 0 0 0 256.83203 303.57031 A 149.98812 149.98812 0 0 0 257.79102 303.94531 A 149.98812 149.98812 0 0 0 258.75195 304.31641 A 149.98812 149.98812 0 0 0 259.7168 304.67969 A 149.98812 149.98812 0 0 0 260.68164 305.03516 A 149.98812 149.98812 0 0 0 261.65039 305.38477 A 149.98812 149.98812 0 0 0 262.62109 305.72852 A 149.98812 149.98812 0 0 0 263.5957 306.06641 A 149.98812 149.98812 0 0 0 264.57031 306.39453 A 149.98812 149.98812 0 0 0 265.54883 306.71875 A 149.98812 149.98812 0 0 0 266.52734 307.03516 A 149.98812 149.98812 0 0 0 267.50977 307.3457 A 149.98812 149.98812 0 0 0 268.49414 307.64844 A 149.98812 149.98812 0 0 0 269.48047 307.94531 A 149.98812 149.98812 0 0 0 270.46875 308.23438 A 149.98812 149.98812 0 0 0 271.45898 308.51562 A 149.98812 149.98812 0 0 0 272.45117 308.79297 A 149.98812 149.98812 0 0 0 273.44531 309.06055 A 149.98812 149.98812 0 0 0 274.44141 309.32422 A 149.98812 149.98812 0 0 0 275.43945 309.58008 A 149.98812 149.98812 0 0 0 276.43945 309.82812 A 149.98812 149.98812 0 0 0 277.43945 310.07031 A 149.98812 149.98812 0 0 0 278.44336 310.30469 A 149.98812 149.98812 0 0 0 279.44727 310.53125 A 149.98812 149.98812 0 0 0 280.45312 310.75391 A 149.98812 149.98812 0 0 0 281.45898 310.9668 A 149.98812 149.98812 0 0 0 282.46875 311.17383 A 149.98812 149.98812 0 0 0 283.47852 311.375 A 149.98812 149.98812 0 0 0 284.49023 311.56836 A 149.98812 149.98812 0 0 0 285.50391 311.75391 A 149.98812 149.98812 0 0 0 286.51758 311.93359 A 149.98812 149.98812 0 0 0 287.5332 312.10547 A 149.98812 149.98812 0 0 0 288.54883 312.27148 A 149.98812 149.98812 0 0 0 289.56641 312.42969 A 149.98812 149.98812 0 0 0 290.58594 312.58203 A 149.98812 149.98812 0 0 0 291.60547 312.72656 A 149.98812 149.98812 0 0 0 292.625 312.86328 A 149.98812 149.98812 0 0 0 293.64648 312.99414 A 149.98812 149.98812 0 0 0 294.66992 313.11719 A 149.98812 149.98812 0 0 0 295.69336 313.23438 A 149.98812 149.98812 0 0 0 296.7168 313.34375 A 149.98812 149.98812 0 0 0 297.74219 313.44531 A 149.98812 149.98812 0 0 0 298.76758 313.54102 A 149.98812 149.98812 0 0 0 299.79297 313.62891 A 149.98812 149.98812 0 0 0 300.82031 313.71094 A 149.98812 149.98812 0 0 0 301.84766 313.78516 A 149.98812 149.98812 0 0 0 302.875 313.85156 A 149.98812 149.98812 0 0 0 303.90234 313.91211 A 149.98812 149.98812 0 0 0 304.93164 313.96484 A 149.98812 149.98812 0 0 0 305.95898 314.00977 A 149.98812 149.98812 0 0 0 306.98828 314.04883 A 149.98812 149.98812 0 0 0 308.01758 314.08203 A 149.98812 149.98812 0 0 0 309.04688 314.10547 A 149.98812 149.98812 0 0 0 310.07812 314.12305 A 149.98812 149.98812 0 0 0 311.10742 314.13477 A 149.98812 149.98812 0 0 0 312.13672 314.13867 A 149.98812 149.98812 0 0 0 312.93359 314.13672 A 149.98812 149.98812 0 0 0 313.96289 314.12695 A 149.98812 149.98812 0 0 0 314.99414 314.11133 A 149.98812 149.98812 0 0 0 316.02344 314.08789 A 149.98812 149.98812 0 0 0 317.05273 314.05664 A 149.98812 149.98812 0 0 0 318.08203 314.01953 A 149.98812 149.98812 0 0 0 319.10938 313.97656 A 149.98812 149.98812 0 0 0 320.13867 313.92383 A 149.98812 149.98812 0 0 0 321.16797 313.86523 A 149.98812 149.98812 0 0 0 322.19531 313.80078 A 149.98812 149.98812 0 0 0 323.22266 313.72852 A 149.98812 149.98812 0 0 0 324.24805 313.64844 A 149.98812 149.98812 0 0 0 325.27539 313.56055 A 149.98812 149.98812 0 0 0 326.30078 313.4668 A 149.98812 149.98812 0 0 0 327.32617 313.36719 A 149.98812 149.98812 0 0 0 328.34961 313.25977 A 149.98812 149.98812 0 0 0 329.37305 313.14453 A 149.98812 149.98812 0 0 0 330.39648 313.02148 A 149.98812 149.98812 0 0 0 331.41797 312.89453 A 149.98812 149.98812 0 0 0 332.4375 312.75781 A 149.98812 149.98812 0 0 0 333.45898 312.61523 A 149.98812 149.98812 0 0 0 334.47656 312.46484 A 149.98812 149.98812 0 0 0 335.49414 312.30859 A 149.98812 149.98812 0 0 0 336.51172 312.14453 A 149.98812 149.98812 0 0 0 337.52734 311.97266 A 149.98812 149.98812 0 0 0 338.54102 311.79492 A 149.98812 149.98812 0 0 0 339.55469 311.61133 A 149.98812 149.98812 0 0 0 340.56641 311.41992 A 149.98812 149.98812 0 0 0 341.57617 311.2207 A 149.98812 149.98812 0 0 0 342.58594 311.01562 A 149.98812 149.98812 0 0 0 343.59375 310.80273 A 149.98812 149.98812 0 0 0 344.59961 310.58203 A 149.98812 149.98812 0 0 0 345.60547 310.35547 A 149.98812 149.98812 0 0 0 346.60742 310.12305 A 149.98812 149.98812 0 0 0 347.60938 309.88281 A 149.98812 149.98812 0 0 0 348.60938 309.63672 A 149.98812 149.98812 0 0 0 349.60742 309.38281 A 149.98812 149.98812 0 0 0 350.60352 309.12109 A 149.98812 149.98812 0 0 0 351.59766 308.85352 A 149.98812 149.98812 0 0 0 352.58984 308.58008 A 149.98812 149.98812 0 0 0 353.58203 308.29883 A 149.98812 149.98812 0 0 0 354.57031 308.00977 A 149.98812 149.98812 0 0 0 355.55664 307.71484 A 149.98812 149.98812 0 0 0 356.54102 307.41406 A 149.98812 149.98812 0 0 0 357.52344 307.10547 A 149.98812 149.98812 0 0 0 358.50391 306.79102 A 149.98812 149.98812 0 0 0 359.48242 306.46875 A 149.98812 149.98812 0 0 0 360.45898 306.14062 A 149.98812 149.98812 0 0 0 361.43359 305.80664 A 149.98812 149.98812 0 0 0 362.4043 305.46484 A 149.98812 149.98812 0 0 0 363.37305 305.11523 A 149.98812 149.98812 0 0 0 364.33984 304.75977 A 149.98812 149.98812 0 0 0 365.30469 304.39844 A 149.98812 149.98812 0 0 0 366.26562 304.0293 A 149.98812 149.98812 0 0 0 367.22461 303.6543 A 149.98812 149.98812 0 0 0 368.18164 303.27344 A 149.98812 149.98812 0 0 0 369.13477 302.88477 A 149.98812 149.98812 0 0 0 370.08594 302.49023 A 149.98812 149.98812 0 0 0 371.03516 302.08984 A 149.98812 149.98812 0 0 0 371.98047 301.68164 A 149.98812 149.98812 0 0 0 372.92383 301.26758 A 149.98812 149.98812 0 0 0 373.86328 300.84766 A 149.98812 149.98812 0 0 0 374.80078 300.41992 A 149.98812 149.98812 0 0 0 375.73438 299.98633 A 149.98812 149.98812 0 0 0 376.66602 299.54688 A 149.98812 149.98812 0 0 0 377.59375 299.10156 A 149.98812 149.98812 0 0 0 378.51953 298.64844 A 149.98812 149.98812 0 0 0 379.44141 298.18945 A 149.98812 149.98812 0 0 0 380.35938 297.72461 A 149.98812 149.98812 0 0 0 381.27539 297.25195 A 149.98812 149.98812 0 0 0 382.1875 296.77539 A 149.98812 149.98812 0 0 0 383.09766 296.29102 A 149.98812 149.98812 0 0 0 384.00195 295.80078 A 149.98812 149.98812 0 0 0 384.9043 295.30273 A 149.98812 149.98812 0 0 0 385.80273 294.80078 A 149.98812 149.98812 0 0 0 386.69922 294.29102 A 149.98812 149.98812 0 0 0 387.58984 293.77734 A 149.98812 149.98812 0 0 0 387.95117 293.56445 A 432.55241 432.55241 0 0 0 275.36523 18.740234 z "
       style="opacity:0.58998647;fill:#dc3f03;fill-opacity:1;stroke-width:43.1664;stroke-linecap:round;stroke-linejoin:round;filter:url(#filter1227)"
       id="circle1589" />
    <path
       sodipodi:nodetypes="scscccsssssscssscssssssccscssssssscsssscsssss"
       inkscape:original-d="m 73.844424,26.893516 c 1.069869,-7.234117 0.537128,-0.997532 0.537128,-0.997532 0,0 0.409541,-0.460093 0.613864,-0.6906 0.204311,-0.230494 1.227728,-1.918315 1.227728,-1.918315 l 0.383656,2.148523 1.841591,-1.304464 c 0,0 -0.05087,1.483809 -0.07671,2.225248 -0.02584,0.741451 0.563013,1.893051 0.844072,2.839123 0.281047,0.946061 0.511851,0.563013 0.767324,0.84406 0.255472,0.281047 0.511852,1.586119 0.767324,2.378719 0.255472,0.792601 1.023416,0.153771 1.534659,0.230197 0.511243,0.07648 0.511852,0.102551 0.767324,0.15346 0.255473,0.05087 2.301995,-2.53218 2.301995,-2.53218 0,0 0.35838,1.586119 0.537128,2.37872 0.178737,0.7926 -0.767025,0.972255 -1.150991,1.457923 -0.383978,0.485669 0.665323,-0.05087 0.99752,-0.07671 0.332208,-0.02584 2.301983,-3.069319 2.301983,-3.069319 0,0 0.540975,1.104115 0.811009,1.655712 0.270034,0.551598 -0.198638,0.705655 -0.298422,1.058029 -0.0998,0.352386 0.181171,2.604713 0.271297,3.906604 0.09015,1.301902 -0.705058,0.380107 -1.05804,0.569708 -0.352983,0.1896 -0.488023,2.152554 -0.732482,3.228383 -0.244471,1.075806 -0.433761,1.392925 -0.651106,2.088945 -0.217334,0.696008 -0.976643,0.759606 -0.976643,0.759606 l 1.790523,0.298423 c 0,0 2.441927,0.633317 3.662431,0.949517 1.220516,0.316211 4.04224,-0.298422 4.04224,-0.298422 0,0 -1.808299,2.098304 -2.848551,2.197468 -1.040252,0.09922 -1.862561,-0.433761 -2.794301,-0.651095 -0.93174,-0.217346 -1.175303,0.163072 -1.763397,0.24416 -0.588105,0.08108 -0.397586,1.04929 -0.596845,1.573487 -0.199247,0.524197 1.031214,0.99504 1.546362,1.4921 0.515148,0.497072 -0.650796,2.405764 -0.0542,2.848574 0.596546,0.442799 2.098292,2.8579 2.523015,3.228361 0.424711,0.370461 -1.901584,1.341281 -1.604884,2.445533 2.03296,0.832943 -0.36163,-3.028161 -0.949839,-1.748376 -0.588208,1.279773 1.14037,3.995994 0.570662,4.582825 -0.569697,0.586831 -0.05271,2.409175 -0.07947,3.613314 -0.02676,1.204129 0.297308,3.304454 0.526884,3.816799 0.229587,0.512357 0.937665,1.144251 -0.493007,2.773952 0,0 -5.037624,-7.084354 -7.014313,-8.131106 C 79.892253,62.416118 75.611617,57.150502 71.885668,52.474646 68.159707,47.798777 71.051542,49.88848 70.634019,48.594938 70.216508,47.301407 72.774676,34.127635 73.844545,26.89353 Z"
       inkscape:path-effect="#path-effect676"
       id="path662"
       d="m 73.844424,26.893516 0.537128,-0.997532 c 0.21492,-0.220763 0.419822,-0.451279 0.613864,-0.6906 0.479133,-0.590938 0.891799,-1.235726 1.227728,-1.918315 l 0.383656,2.148523 1.841591,-1.304464 c -0.0707,0.739276 -0.09633,1.482859 -0.07671,2.225248 0.01333,0.504327 0.04802,1.011328 0.17019,1.500815 0.122172,0.489487 0.336064,0.963604 0.673882,1.338308 0.255486,0.283382 0.581199,0.51099 0.767324,0.84406 0.104247,0.18655 0.158767,0.397115 0.190852,0.608394 0.03208,0.211279 0.04273,0.425164 0.06517,0.637684 0.02244,0.21252 0.05722,0.425702 0.135116,0.624701 0.07789,0.199 0.201817,0.384393 0.376186,0.50794 0.214216,0.151781 0.485463,0.19878 0.747792,0.209246 0.262329,0.01047 0.526325,-0.01136 0.786867,0.02095 0.258971,0.03212 0.508916,0.117084 0.767324,0.15346 0.664799,0.09358 1.368892,-0.160693 1.820494,-0.657453 0.451603,-0.49676 0.637828,-1.221828 0.481501,-1.874727 0.251954,0.04913 0.488864,0.172959 0.673035,0.351778 0.184172,0.178818 0.31493,0.411974 0.371471,0.66237 0.05654,0.250396 0.03866,0.517116 -0.05081,0.757722 -0.08946,0.240607 -0.250177,0.454219 -0.456572,0.60685 -0.289645,0.214195 -0.656995,0.304897 -0.942438,0.52466 -0.142721,0.109882 -0.264275,0.255322 -0.314407,0.428325 -0.02507,0.0865 -0.03165,0.178837 -0.01464,0.267277 0.01701,0.08844 0.05807,0.172747 0.120493,0.237661 0.06275,0.06525 0.145689,0.1096 0.233479,0.131682 0.08779,0.02208 0.180272,0.02248 0.269536,0.0074 0.178527,-0.03011 0.341018,-0.119798 0.494505,-0.21582 1.109096,-0.693852 1.946435,-1.810308 2.301983,-3.069319 0.288083,0.156313 0.525682,0.404024 0.669859,0.698369 0.144177,0.294344 0.194243,0.633914 0.14115,0.957343 -0.05944,0.362093 -0.242411,0.69539 -0.298422,1.058029 -0.05237,0.339076 0.0094,0.686653 0.111714,1.014134 0.102329,0.327482 0.244708,0.640941 0.35963,0.964218 0.114923,0.323277 0.20301,0.662318 0.190269,1.005178 -0.0064,0.17143 -0.03831,0.342614 -0.102423,0.501732 -0.06411,0.159118 -0.160926,0.305981 -0.287893,0.421342 -0.148798,0.135197 -0.333557,0.223434 -0.518121,0.303152 -0.184565,0.07972 -0.373519,0.153729 -0.539919,0.266556 -0.238982,0.162041 -0.421631,0.399313 -0.542914,0.661344 -0.121283,0.26203 -0.183521,0.548459 -0.210426,0.83594 -0.05381,0.574963 0.03055,1.153705 0.02086,1.731099 -0.01247,0.742248 -0.193557,1.504363 -0.651106,2.088945 -0.256772,0.328061 -0.59547,0.591491 -0.976643,0.759606 l 1.790523,0.298423 c 1.160627,0.506754 2.401789,0.828536 3.662431,0.949517 1.351353,0.129687 2.724583,0.02831 4.04224,-0.298422 -0.158725,0.626485 -0.532791,1.196278 -1.044503,1.591029 -0.511711,0.394752 -1.157791,0.611934 -1.804048,0.606439 -0.959256,-0.0082 -1.849751,-0.483575 -2.794301,-0.651095 -0.298889,-0.05301 -0.604915,-0.07495 -0.906587,-0.0412 -0.301671,0.03375 -0.599359,0.124543 -0.85681,0.285365 -0.259366,0.162018 -0.476597,0.397794 -0.593054,0.680562 -0.116457,0.282769 -0.126476,0.612802 -0.0038,0.892925 0.07269,0.165966 0.188514,0.310316 0.320628,0.434307 0.132115,0.123992 0.280753,0.228896 0.430237,0.331282 0.298967,0.204771 0.61446,0.412603 0.795497,0.726511 0.120823,0.2095 0.172554,0.453665 0.178763,0.69543 0.0062,0.241764 -0.03127,0.48257 -0.07917,0.719622 -0.0958,0.474106 -0.234505,0.956615 -0.153794,1.433522 0.05801,0.342744 0.22777,0.659148 0.443636,0.931619 0.215865,0.27247 0.477388,0.504919 0.742284,0.730015 0.264896,0.225096 0.535453,0.445146 0.774174,0.697833 0.23872,0.252687 0.446464,0.541364 0.562921,0.868894 0.18901,0.531581 0.114731,1.149841 -0.194812,1.621525 -0.309543,0.471683 -0.84718,0.785864 -1.410072,0.824008 0.167478,-0.153029 0.28183,-0.363134 0.319404,-0.586863 0.03757,-0.22373 -0.0019,-0.459664 -0.110162,-0.659009 -0.108298,-0.199345 -0.284767,-0.360835 -0.492911,-0.451073 -0.208144,-0.09024 -0.446642,-0.108651 -0.66617,-0.05143 -0.215336,0.05613 -0.409772,0.183306 -0.556591,0.350532 -0.146819,0.167225 -0.246818,0.373271 -0.299139,0.589564 -0.10464,0.432586 -0.01927,0.893125 0.151012,1.304324 0.340562,0.822398 1.006483,1.489868 1.27538,2.338405 0.183258,0.578293 0.168008,1.200499 0.103238,1.803667 -0.06477,0.603168 -0.177282,1.203036 -0.182708,1.809647 -0.0115,1.28618 0.457338,2.532449 0.526884,3.816799 0.05123,0.946085 -0.118922,1.903457 -0.493007,2.773952 -2.044151,-2.946474 -4.399541,-5.676879 -7.014313,-8.131106 -1.817698,-1.706092 -3.759409,-3.278414 -5.536879,-5.026377 -1.777471,-1.747962 -3.404476,-3.697078 -4.446395,-5.961847 -0.56901,-1.236831 -0.955593,-2.550846 -1.251649,-3.879708 -1.626248,-7.2995 -0.459592,-15.185457 3.210526,-21.701408 z"
       style="mix-blend-mode:normal;fill:#dc3f03;fill-opacity:1;stroke:none;stroke-width:0.303846px;stroke-linecap:butt;stroke-linejoin:miter;stroke-opacity:1" />
    <path
       transform="scale(0.26458333)"
       d="M 226.63281 40.921875 A 149.98812 149.98812 0 0 0 226.27148 41.171875 A 149.98812 149.98812 0 0 0 225.42969 41.765625 A 149.98812 149.98812 0 0 0 224.58984 42.363281 A 149.98812 149.98812 0 0 0 223.75586 42.966797 A 149.98812 149.98812 0 0 0 222.92578 43.576172 A 149.98812 149.98812 0 0 0 222.10156 44.191406 A 149.98812 149.98812 0 0 0 221.2793 44.8125 A 149.98812 149.98812 0 0 0 220.46289 45.439453 A 149.98812 149.98812 0 0 0 219.64844 46.072266 A 149.98812 149.98812 0 0 0 218.83984 46.708984 A 149.98812 149.98812 0 0 0 218.03711 47.353516 A 149.98812 149.98812 0 0 0 217.23633 48.001953 A 149.98812 149.98812 0 0 0 216.44141 48.65625 A 149.98812 149.98812 0 0 0 215.65039 49.316406 A 149.98812 149.98812 0 0 0 214.86523 49.980469 A 149.98812 149.98812 0 0 0 214.08203 50.652344 A 149.98812 149.98812 0 0 0 213.30664 51.328125 A 149.98812 149.98812 0 0 0 212.5332 52.009766 A 149.98812 149.98812 0 0 0 211.76562 52.695312 A 149.98812 149.98812 0 0 0 211.00391 53.386719 A 149.98812 149.98812 0 0 0 210.24414 54.083984 A 149.98812 149.98812 0 0 0 209.49219 54.787109 A 149.98812 149.98812 0 0 0 208.74219 55.494141 A 149.98812 149.98812 0 0 0 208 56.207031 A 149.98812 149.98812 0 0 0 207.26172 56.923828 A 149.98812 149.98812 0 0 0 206.52734 57.646484 A 149.98812 149.98812 0 0 0 205.79883 58.375 A 149.98812 149.98812 0 0 0 205.07422 59.107422 A 149.98812 149.98812 0 0 0 204.35547 59.84375 A 149.98812 149.98812 0 0 0 203.64258 60.585938 A 149.98812 149.98812 0 0 0 202.93359 61.333984 A 149.98812 149.98812 0 0 0 202.23047 62.085938 A 149.98812 149.98812 0 0 0 201.53125 62.84375 A 149.98812 149.98812 0 0 0 200.83984 63.605469 A 149.98812 149.98812 0 0 0 200.15234 64.371094 A 149.98812 149.98812 0 0 0 199.46875 65.142578 A 149.98812 149.98812 0 0 0 198.79102 65.919922 A 149.98812 149.98812 0 0 0 198.11914 66.699219 A 149.98812 149.98812 0 0 0 197.45312 67.484375 A 149.98812 149.98812 0 0 0 196.79297 68.275391 A 149.98812 149.98812 0 0 0 196.13672 69.068359 A 149.98812 149.98812 0 0 0 195.48633 69.867188 A 149.98812 149.98812 0 0 0 194.8418 70.669922 A 149.98812 149.98812 0 0 0 194.20312 71.478516 A 149.98812 149.98812 0 0 0 193.57031 72.291016 A 149.98812 149.98812 0 0 0 192.94141 73.105469 A 149.98812 149.98812 0 0 0 192.32031 73.927734 A 149.98812 149.98812 0 0 0 191.70312 74.751953 A 149.98812 149.98812 0 0 0 191.0918 75.580078 A 149.98812 149.98812 0 0 0 190.48633 76.414062 A 149.98812 149.98812 0 0 0 189.88672 77.251953 A 149.98812 149.98812 0 0 0 189.29297 78.091797 A 149.98812 149.98812 0 0 0 188.70508 78.9375 A 149.98812 149.98812 0 0 0 188.12305 79.787109 A 149.98812 149.98812 0 0 0 187.54688 80.640625 A 149.98812 149.98812 0 0 0 186.97656 81.498047 A 149.98812 149.98812 0 0 0 186.41211 82.359375 A 149.98812 149.98812 0 0 0 185.85352 83.224609 A 149.98812 149.98812 0 0 0 185.30078 84.09375 A 149.98812 149.98812 0 0 0 184.75391 84.966797 A 149.98812 149.98812 0 0 0 184.21289 85.84375 A 149.98812 149.98812 0 0 0 183.67773 86.722656 A 149.98812 149.98812 0 0 0 183.15039 87.607422 A 149.98812 149.98812 0 0 0 182.62695 88.494141 A 149.98812 149.98812 0 0 0 182.11133 89.386719 A 149.98812 149.98812 0 0 0 181.60156 90.28125 A 149.98812 149.98812 0 0 0 181.0957 91.177734 A 149.98812 149.98812 0 0 0 180.59961 92.080078 A 149.98812 149.98812 0 0 0 180.10742 92.984375 A 149.98812 149.98812 0 0 0 179.62109 93.892578 A 149.98812 149.98812 0 0 0 179.14258 94.804688 A 149.98812 149.98812 0 0 0 178.66992 95.71875 A 149.98812 149.98812 0 0 0 178.20312 96.636719 A 149.98812 149.98812 0 0 0 177.74219 97.558594 A 149.98812 149.98812 0 0 0 177.28711 98.482422 A 149.98812 149.98812 0 0 0 176.83984 99.410156 A 149.98812 149.98812 0 0 0 176.39844 100.33984 A 149.98812 149.98812 0 0 0 175.96484 101.27344 A 149.98812 149.98812 0 0 0 175.53516 102.21094 A 149.98812 149.98812 0 0 0 175.11328 103.15039 A 149.98812 149.98812 0 0 0 174.69727 104.0918 A 149.98812 149.98812 0 0 0 174.28906 105.03711 A 149.98812 149.98812 0 0 0 173.88672 105.98438 A 149.98812 149.98812 0 0 0 173.49023 106.93555 A 149.98812 149.98812 0 0 0 173.09961 107.88867 A 149.98812 149.98812 0 0 0 172.7168 108.8457 A 149.98812 149.98812 0 0 0 172.3418 109.80469 A 149.98812 149.98812 0 0 0 171.9707 110.76562 A 149.98812 149.98812 0 0 0 171.60742 111.72852 A 149.98812 149.98812 0 0 0 171.25195 112.69531 A 149.98812 149.98812 0 0 0 170.90234 113.66406 A 149.98812 149.98812 0 0 0 170.55859 114.63477 A 149.98812 149.98812 0 0 0 170.2207 115.60742 A 149.98812 149.98812 0 0 0 169.89062 116.58203 A 149.98812 149.98812 0 0 0 169.56836 117.56055 A 149.98812 149.98812 0 0 0 169.25195 118.54102 A 149.98812 149.98812 0 0 0 168.94141 119.52344 A 149.98812 149.98812 0 0 0 168.63867 120.50781 A 149.98812 149.98812 0 0 0 168.3418 121.49414 A 149.98812 149.98812 0 0 0 168.05273 122.48242 A 149.98812 149.98812 0 0 0 167.76953 123.47266 A 149.98812 149.98812 0 0 0 167.49414 124.46484 A 149.98812 149.98812 0 0 0 167.22461 125.45898 A 149.98812 149.98812 0 0 0 166.96289 126.45508 A 149.98812 149.98812 0 0 0 166.70703 127.45117 A 149.98812 149.98812 0 0 0 166.45898 128.45117 A 149.98812 149.98812 0 0 0 166.2168 129.45312 A 149.98812 149.98812 0 0 0 165.98242 130.45508 A 149.98812 149.98812 0 0 0 165.75391 131.45898 A 149.98812 149.98812 0 0 0 165.5332 132.46484 A 149.98812 149.98812 0 0 0 165.32031 133.47266 A 149.98812 149.98812 0 0 0 165.11328 134.48047 A 149.98812 149.98812 0 0 0 164.91211 135.49219 A 149.98812 149.98812 0 0 0 164.71875 136.50391 A 149.98812 149.98812 0 0 0 164.5332 137.51562 A 149.98812 149.98812 0 0 0 164.35352 138.5293 A 149.98812 149.98812 0 0 0 164.18164 139.54492 A 149.98812 149.98812 0 0 0 164.01562 140.5625 A 149.98812 149.98812 0 0 0 163.85742 141.58008 A 149.98812 149.98812 0 0 0 163.70508 142.59766 A 149.98812 149.98812 0 0 0 163.56055 143.61719 A 149.98812 149.98812 0 0 0 163.42383 144.63867 A 149.98812 149.98812 0 0 0 163.29297 145.66016 A 149.98812 149.98812 0 0 0 163.16992 146.68164 A 149.98812 149.98812 0 0 0 163.05273 147.70508 A 149.98812 149.98812 0 0 0 162.94336 148.72852 A 149.98812 149.98812 0 0 0 162.8418 149.75391 A 149.98812 149.98812 0 0 0 162.74609 150.7793 A 149.98812 149.98812 0 0 0 162.6582 151.80664 A 149.98812 149.98812 0 0 0 162.57617 152.83203 A 149.98812 149.98812 0 0 0 162.50195 153.85938 A 149.98812 149.98812 0 0 0 162.43555 154.88672 A 149.98812 149.98812 0 0 0 162.375 155.91602 A 149.98812 149.98812 0 0 0 162.32227 156.94336 A 149.98812 149.98812 0 0 0 162.27539 157.97266 A 149.98812 149.98812 0 0 0 162.23828 159.00195 A 149.98812 149.98812 0 0 0 162.20508 160.03125 A 149.98812 149.98812 0 0 0 162.18164 161.06055 A 149.98812 149.98812 0 0 0 162.16406 162.08984 A 149.98812 149.98812 0 0 0 162.15234 163.11914 A 149.98812 149.98812 0 0 0 162.14844 164.15039 A 149.98812 149.98812 0 0 0 162.15039 164.94727 A 149.98812 149.98812 0 0 0 162.16016 165.97656 A 149.98812 149.98812 0 0 0 162.17578 167.00586 A 149.98812 149.98812 0 0 0 162.19922 168.03516 A 149.98812 149.98812 0 0 0 162.23047 169.06445 A 149.98812 149.98812 0 0 0 162.26758 170.09375 A 149.98812 149.98812 0 0 0 162.31055 171.12305 A 149.98812 149.98812 0 0 0 162.36328 172.15234 A 149.98812 149.98812 0 0 0 162.42188 173.17969 A 149.98812 149.98812 0 0 0 162.48633 174.20703 A 149.98812 149.98812 0 0 0 162.55859 175.23438 A 149.98812 149.98812 0 0 0 162.63867 176.26172 A 149.98812 149.98812 0 0 0 162.72461 177.28711 A 149.98812 149.98812 0 0 0 162.81836 178.3125 A 149.98812 149.98812 0 0 0 162.91992 179.33789 A 149.98812 149.98812 0 0 0 163.02734 180.36328 A 149.98812 149.98812 0 0 0 163.14258 181.38672 A 149.98812 149.98812 0 0 0 163.26367 182.4082 A 149.98812 149.98812 0 0 0 163.39258 183.42969 A 149.98812 149.98812 0 0 0 163.5293 184.45117 A 149.98812 149.98812 0 0 0 163.67188 185.4707 A 149.98812 149.98812 0 0 0 163.82227 186.49023 A 149.98812 149.98812 0 0 0 163.97852 187.50781 A 149.98812 149.98812 0 0 0 164.14258 188.52344 A 149.98812 149.98812 0 0 0 164.31445 189.53906 A 149.98812 149.98812 0 0 0 164.49219 190.55469 A 149.98812 149.98812 0 0 0 164.67578 191.56641 A 149.98812 149.98812 0 0 0 164.86719 192.58008 A 149.98812 149.98812 0 0 0 165.06641 193.58984 A 149.98812 149.98812 0 0 0 165.27148 194.59961 A 149.98812 149.98812 0 0 0 165.48438 195.60547 A 149.98812 149.98812 0 0 0 165.70508 196.61328 A 149.98812 149.98812 0 0 0 165.92969 197.61719 A 149.98812 149.98812 0 0 0 166.16406 198.62109 A 149.98812 149.98812 0 0 0 166.4043 199.62109 A 149.98812 149.98812 0 0 0 166.65039 200.62109 A 149.98812 149.98812 0 0 0 166.9043 201.61914 A 149.98812 149.98812 0 0 0 167.16602 202.61523 A 149.98812 149.98812 0 0 0 167.43359 203.61133 A 149.98812 149.98812 0 0 0 167.70703 204.60352 A 149.98812 149.98812 0 0 0 167.98828 205.59375 A 149.98812 149.98812 0 0 0 168.27734 206.58203 A 149.98812 149.98812 0 0 0 168.57031 207.56836 A 149.98812 149.98812 0 0 0 168.87305 208.55469 A 149.98812 149.98812 0 0 0 169.18164 209.53711 A 149.98812 149.98812 0 0 0 169.49609 210.51758 A 149.98812 149.98812 0 0 0 169.81836 211.49609 A 149.98812 149.98812 0 0 0 170.14648 212.4707 A 149.98812 149.98812 0 0 0 170.48047 213.44531 A 149.98812 149.98812 0 0 0 170.82227 214.41602 A 149.98812 149.98812 0 0 0 171.17188 215.38672 A 149.98812 149.98812 0 0 0 171.52734 216.35156 A 149.98812 149.98812 0 0 0 171.88867 217.31641 A 149.98812 149.98812 0 0 0 172.25586 218.2793 A 149.98812 149.98812 0 0 0 172.63086 219.23828 A 149.98812 149.98812 0 0 0 173.01367 220.19336 A 149.98812 149.98812 0 0 0 173.40039 221.14844 A 149.98812 149.98812 0 0 0 173.79688 222.09961 A 149.98812 149.98812 0 0 0 174.19727 223.04688 A 149.98812 149.98812 0 0 0 174.60547 223.99414 A 149.98812 149.98812 0 0 0 175.01953 224.93555 A 149.98812 149.98812 0 0 0 175.43945 225.87695 A 149.98812 149.98812 0 0 0 175.86719 226.81445 A 149.98812 149.98812 0 0 0 176.30078 227.74805 A 149.98812 149.98812 0 0 0 176.74023 228.67969 A 149.98812 149.98812 0 0 0 177.18555 229.60742 A 149.98812 149.98812 0 0 0 177.63867 230.53125 A 149.98812 149.98812 0 0 0 178.09766 231.45312 A 149.98812 149.98812 0 0 0 178.5625 232.37305 A 149.98812 149.98812 0 0 0 179.03516 233.28906 A 149.98812 149.98812 0 0 0 179.51172 234.20117 A 149.98812 149.98812 0 0 0 179.99609 235.10938 A 149.98812 149.98812 0 0 0 180.48633 236.01562 A 149.98812 149.98812 0 0 0 180.98242 236.91797 A 149.98812 149.98812 0 0 0 181.48633 237.81641 A 149.98812 149.98812 0 0 0 181.99414 238.71094 A 149.98812 149.98812 0 0 0 182.50977 239.60352 A 149.98812 149.98812 0 0 0 183.03125 240.49219 A 149.98812 149.98812 0 0 0 183.55859 241.37695 A 149.98812 149.98812 0 0 0 184.0918 242.25781 A 149.98812 149.98812 0 0 0 184.63086 243.13477 A 149.98812 149.98812 0 0 0 185.17578 244.00781 A 149.98812 149.98812 0 0 0 185.72852 244.87891 A 149.98812 149.98812 0 0 0 186.28516 245.74414 A 149.98812 149.98812 0 0 0 186.84766 246.60547 A 149.98812 149.98812 0 0 0 187.41797 247.46484 A 149.98812 149.98812 0 0 0 187.99219 248.31836 A 149.98812 149.98812 0 0 0 188.57227 249.16992 A 149.98812 149.98812 0 0 0 189.16016 250.01562 A 149.98812 149.98812 0 0 0 189.75195 250.85742 A 149.98812 149.98812 0 0 0 190.34961 251.69727 A 149.98812 149.98812 0 0 0 190.95508 252.53125 A 149.98812 149.98812 0 0 0 191.56445 253.36133 A 149.98812 149.98812 0 0 0 192.17969 254.18555 A 149.98812 149.98812 0 0 0 192.80078 255.00781 A 149.98812 149.98812 0 0 0 193.42773 255.82422 A 149.98812 149.98812 0 0 0 194.05859 256.63867 A 149.98812 149.98812 0 0 0 194.69727 257.44727 A 149.98812 149.98812 0 0 0 195.33984 258.25 A 149.98812 149.98812 0 0 0 195.99023 259.05078 A 149.98812 149.98812 0 0 0 196.64453 259.8457 A 149.98812 149.98812 0 0 0 197.30273 260.63672 A 149.98812 149.98812 0 0 0 197.96875 261.42188 A 149.98812 149.98812 0 0 0 198.63867 262.20508 A 149.98812 149.98812 0 0 0 199.31445 262.98047 A 149.98812 149.98812 0 0 0 199.99609 263.75391 A 149.98812 149.98812 0 0 0 200.68359 264.52148 A 149.98812 149.98812 0 0 0 201.375 265.2832 A 149.98812 149.98812 0 0 0 202.07227 266.04297 A 149.98812 149.98812 0 0 0 202.77344 266.79492 A 149.98812 149.98812 0 0 0 203.48047 267.54297 A 149.98812 149.98812 0 0 0 204.19336 268.28711 A 149.98812 149.98812 0 0 0 204.91211 269.02539 A 149.98812 149.98812 0 0 0 205.63477 269.75977 A 149.98812 149.98812 0 0 0 206.36133 270.48828 A 149.98812 149.98812 0 0 0 207.09375 271.21289 A 149.98812 149.98812 0 0 0 207.83203 271.93164 A 149.98812 149.98812 0 0 0 208.57422 272.64453 A 149.98812 149.98812 0 0 0 209.32227 273.35352 A 149.98812 149.98812 0 0 0 210.07422 274.05664 A 149.98812 149.98812 0 0 0 210.83008 274.75391 A 149.98812 149.98812 0 0 0 211.5918 275.44727 A 149.98812 149.98812 0 0 0 212.35938 276.13477 A 149.98812 149.98812 0 0 0 213.13086 276.81836 A 149.98812 149.98812 0 0 0 213.90625 277.49609 A 149.98812 149.98812 0 0 0 214.6875 278.16602 A 149.98812 149.98812 0 0 0 215.47266 278.83398 A 149.98812 149.98812 0 0 0 216.26172 279.49414 A 149.98812 149.98812 0 0 0 217.05664 280.15039 A 149.98812 149.98812 0 0 0 217.85547 280.80078 A 149.98812 149.98812 0 0 0 218.6582 281.44531 A 149.98812 149.98812 0 0 0 219.46484 282.08398 A 149.98812 149.98812 0 0 0 220.27734 282.7168 A 149.98812 149.98812 0 0 0 221.09375 283.3457 A 149.98812 149.98812 0 0 0 221.91406 283.9668 A 149.98812 149.98812 0 0 0 222.73828 284.58398 A 149.98812 149.98812 0 0 0 223.56836 285.19531 A 149.98812 149.98812 0 0 0 224.40039 285.80078 A 149.98812 149.98812 0 0 0 225.23828 286.40039 A 149.98812 149.98812 0 0 0 226.08008 286.99414 A 149.98812 149.98812 0 0 0 226.92578 287.58203 A 149.98812 149.98812 0 0 0 227.77539 288.16406 A 149.98812 149.98812 0 0 0 228.62891 288.74023 A 149.98812 149.98812 0 0 0 229.48633 289.31055 A 149.98812 149.98812 0 0 0 230.34766 289.875 A 149.98812 149.98812 0 0 0 231.21289 290.43359 A 149.98812 149.98812 0 0 0 232.08203 290.98633 A 149.98812 149.98812 0 0 0 232.95508 291.5332 A 149.98812 149.98812 0 0 0 233.83008 292.07422 A 149.98812 149.98812 0 0 0 234.71094 292.60742 A 149.98812 149.98812 0 0 0 235.59375 293.13672 A 149.98812 149.98812 0 0 0 236.48242 293.66016 A 149.98812 149.98812 0 0 0 237.37305 294.17578 A 149.98812 149.98812 0 0 0 238.26758 294.68555 A 149.98812 149.98812 0 0 0 239.16602 295.18945 A 149.98812 149.98812 0 0 0 240.06641 295.6875 A 149.98812 149.98812 0 0 0 240.97266 296.17969 A 149.98812 149.98812 0 0 0 241.88086 296.66602 A 149.98812 149.98812 0 0 0 242.79102 297.14453 A 149.98812 149.98812 0 0 0 243.70703 297.61719 A 149.98812 149.98812 0 0 0 244.625 298.08398 A 149.98812 149.98812 0 0 0 245.54492 298.54492 A 149.98812 149.98812 0 0 0 246.4707 298.99805 A 149.98812 149.98812 0 0 0 247.39844 299.44727 A 149.98812 149.98812 0 0 0 248.32812 299.88867 A 149.98812 149.98812 0 0 0 249.26172 300.32227 A 149.98812 149.98812 0 0 0 250.19727 300.75195 A 149.98812 149.98812 0 0 0 251.13672 301.17383 A 149.98812 149.98812 0 0 0 252.08008 301.58984 A 149.98812 149.98812 0 0 0 253.02539 301.99805 A 149.98812 149.98812 0 0 0 253.97266 302.40039 A 149.98812 149.98812 0 0 0 254.92383 302.79688 A 149.98812 149.98812 0 0 0 255.87695 303.18555 A 149.98812 149.98812 0 0 0 256.83203 303.57031 A 149.98812 149.98812 0 0 0 257.79102 303.94531 A 149.98812 149.98812 0 0 0 258.75195 304.31641 A 149.98812 149.98812 0 0 0 259.7168 304.67969 A 149.98812 149.98812 0 0 0 260.68164 305.03516 A 149.98812 149.98812 0 0 0 261.65039 305.38477 A 149.98812 149.98812 0 0 0 262.62109 305.72852 A 149.98812 149.98812 0 0 0 263.5957 306.06641 A 149.98812 149.98812 0 0 0 264.57031 306.39453 A 149.98812 149.98812 0 0 0 265.54883 306.71875 A 149.98812 149.98812 0 0 0 266.52734 307.03516 A 149.98812 149.98812 0 0 0 267.50977 307.3457 A 149.98812 149.98812 0 0 0 268.49414 307.64844 A 149.98812 149.98812 0 0 0 269.48047 307.94531 A 149.98812 149.98812 0 0 0 270.46875 308.23438 A 149.98812 149.98812 0 0 0 271.45898 308.51562 A 149.98812 149.98812 0 0 0 272.45117 308.79297 A 149.98812 149.98812 0 0 0 273.44531 309.06055 A 149.98812 149.98812 0 0 0 274.44141 309.32422 A 149.98812 149.98812 0 0 0 275.43945 309.58008 A 149.98812 149.98812 0 0 0 276.43945 309.82812 A 149.98812 149.98812 0 0 0 277.43945 310.07031 A 149.98812 149.98812 0 0 0 278.44336 310.30469 A 149.98812 149.98812 0 0 0 279.44727 310.53125 A 149.98812 149.98812 0 0 0 280.45312 310.75391 A 149.98812 149.98812 0 0 0 281.45898 310.9668 A 149.98812 149.98812 0 0 0 282.46875 311.17383 A 149.98812 149.98812 0 0 0 283.47852 311.375 A 149.98812 149.98812 0 0 0 284.49023 311.56836 A 149.98812 149.98812 0 0 0 285.50391 311.75391 A 149.98812 149.98812 0 0 0 286.51758 311.93359 A 149.98812 149.98812 0 0 0 287.5332 312.10547 A 149.98812 149.98812 0 0 0 288.54883 312.27148 A 149.98812 149.98812 0 0 0 289.56641 312.42969 A 149.98812 149.98812 0 0 0 290.58594 312.58203 A 149.98812 149.98812 0 0 0 291.60547 312.72656 A 149.98812 149.98812 0 0 0 292.625 312.86328 A 149.98812 149.98812 0 0 0 293.64648 312.99414 A 149.98812 149.98812 0 0 0 294.66992 313.11719 A 149.98812 149.98812 0 0 0 295.69336 313.23438 A 149.98812 149.98812 0 0 0 296.7168 313.34375 A 149.98812 149.98812 0 0 0 297.74219 313.44531 A 149.98812 149.98812 0 0 0 298.76758 313.54102 A 149.98812 149.98812 0 0 0 299.79297 313.62891 A 149.98812 149.98812 0 0 0 300.82031 313.71094 A 149.98812 149.98812 0 0 0 301.84766 313.78516 A 149.98812 149.98812 0 0 0 302.875 313.85156 A 149.98812 149.98812 0 0 0 303.90234 313.91211 A 149.98812 149.98812 0 0 0 304.93164 313.96484 A 149.98812 149.98812 0 0 0 305.95898 314.00977 A 149.98812 149.98812 0 0 0 306.98828 314.04883 A 149.98812 149.98812 0 0 0 308.01758 314.08203 A 149.98812 149.98812 0 0 0 309.04688 314.10547 A 149.98812 149.98812 0 0 0 310.07812 314.12305 A 149.98812 149.98812 0 0 0 311.10742 314.13477 A 149.98812 149.98812 0 0 0 312.13672 314.13867 A 149.98812 149.98812 0 0 0 312.93359 314.13672 A 149.98812 149.98812 0 0 0 313.96289 314.12695 A 149.98812 149.98812 0 0 0 314.99414 314.11133 A 149.98812 149.98812 0 0 0 316.02344 314.08789 A 149.98812 149.98812 0 0 0 317.05273 314.05664 A 149.98812 149.98812 0 0 0 318.08203 314.01953 A 149.98812 149.98812 0 0 0 319.10938 313.97656 A 149.98812 149.98812 0 0 0 320.13867 313.92383 A 149.98812 149.98812 0 0 0 321.16797 313.86523 A 149.98812 149.98812 0 0 0 322.19531 313.80078 A 149.98812 149.98812 0 0 0 323.22266 313.72852 A 149.98812 149.98812 0 0 0 324.24805 313.64844 A 149.98812 149.98812 0 0 0 325.27539 313.56055 A 149.98812 149.98812 0 0 0 326.30078 313.4668 A 149.98812 149.98812 0 0 0 327.32617 313.36719 A 149.98812 149.98812 0 0 0 328.34961 313.25977 A 149.98812 149.98812 0 0 0 329.37305 313.14453 A 149.98812 149.98812 0 0 0 329.54883 313.12305 A 376.86975 376.86975 0 0 0 329.7793 299.96875 A 376.86975 376.86975 0 0 0 226.63281 40.921875 z "
       style="fill:#fb8108;fill-opacity:1;stroke-width:37.6095;stroke-linecap:round;stroke-linejoin:round"
       id="circle732" />
    <g
       transform="matrix(1.0770834,0.39837869,-0.39837869,1.0770834,-702.64951,-981.37561)"
       id="g823">
      <path
         id="path700"
         style="fill:#dc3f03;fill-opacity:1;stroke:none;stroke-width:0.568358px;stroke-linecap:butt;stroke-linejoin:miter;stroke-opacity:1"
         d="m 925.28034,653.57251 c -0.0789,-0.14086 -0.15466,-0.28334 -0.23751,-0.42183 -0.0565,-0.0947 -0.13527,-0.17443 -0.1942,-0.26752 0.0129,0.0578 -0.0254,0.11863 -0.004,0.17421 0.0808,0.2146 0.25451,0.37475 0.43622,0.5151 z" />
      <path
         id="path698"
         style="fill:#fb8108;fill-opacity:1;stroke:none;stroke-width:0.568358px;stroke-linecap:butt;stroke-linejoin:miter;stroke-opacity:1"
         d="m 927.06983,653.61912 c 0.009,-0.0151 0.0172,-0.0281 0.0255,-0.0422 0.151,-0.2569 0.24542,-0.54062 0.29968,-0.83367 0.0544,-0.29304 0.0674,-0.59587 0.0567,-0.89362 -0.0215,-0.59548 -0.13355,-1.18345 -0.18324,-1.77721 -0.0151,-0.18538 0.0194,-0.36993 0.0194,-0.5562 -0.0812,0.15102 -0.18452,0.28998 -0.30189,0.41519 -0.4622,0.49284 -1.06762,0.8298 -1.54748,1.30547 -0.23989,0.2378 -0.44947,0.5134 -0.56943,0.82924 -0.0988,0.26024 -0.0786,0.54618 -0.0215,0.81702 0.0591,0.0932 0.13771,0.17293 0.1942,0.26753 0.0826,0.13857 0.15874,0.28092 0.23752,0.42183 0.0397,0.0305 0.0526,0.0861 0.0954,0.11217 0.23903,0.14435 0.52106,0.21309 0.80034,0.20859 0.2793,-0.004 0.55557,-0.0803 0.8048,-0.20644 0.0333,-0.0172 0.0565,-0.0492 0.0889,-0.0677 z" />
      <path
         id="path690"
         style="fill:#fb8108;fill-opacity:1;stroke:none;stroke-width:0.568358px;stroke-linecap:butt;stroke-linejoin:miter;stroke-opacity:1"
         d="m 932.53912,619.24562 c -0.0657,0.18517 -0.11447,0.3769 -0.18752,0.55837 -0.27612,0.685 -0.61475,1.33712 -1.07899,1.91041 -0.34799,0.4298 -0.75904,0.8038 -1.1167,1.22555 -0.35773,0.42175 -0.6676,0.9075 -0.75821,1.45309 -0.044,0.26514 -0.0331,0.53623 0.0221,0.79926 0.0552,0.26298 0.15488,0.5179 0.28976,0.75041 0.26973,0.46492 0.67247,0.84425 1.12561,1.13337 0.45318,0.28912 0.94963,0.48833 1.46307,0.64941 0.51347,0.1611 1.04363,0.28424 1.56415,0.41847 1.07691,0.27783 2.13736,0.61656 3.21474,0.89251 0.70271,0.18002 1.41731,0.33477 2.08361,0.62167 0.33315,0.14349 0.65576,0.32384 0.94245,0.54614 0.26519,0.20557 0.48855,0.45633 0.67049,0.73708 0.0634,-0.0562 0.10759,-0.13111 0.17422,-0.18324 0.25075,-0.19654 0.51824,-0.36891 0.77261,-0.56057 0.65061,-0.49009 1.2205,-1.11795 1.5186,-1.87605 0.0849,-0.21567 0.1465,-0.44227 0.15767,-0.67377 0.01,-0.23155 -0.0311,-0.46884 -0.14542,-0.67049 -0.11433,-0.20172 -0.30414,-0.3645 -0.5284,-0.42298 -0.11217,-0.0293 -0.23138,-0.0324 -0.34415,-0.006 -0.11275,0.0268 -0.21853,0.0838 -0.30082,0.16541 -0.11791,0.11705 -0.18324,0.27927 -0.21757,0.44178 -0.0344,0.16261 -0.041,0.32908 -0.061,0.49401 -0.0194,0.16498 -0.0541,0.33148 -0.13771,0.47509 -0.0417,0.0717 -0.0951,0.13685 -0.1609,0.18754 -0.0657,0.0506 -0.14435,0.0868 -0.22643,0.0988 -0.0746,0.01 -0.15166,10e-4 -0.22314,-0.0221 -0.0716,-0.0238 -0.13714,-0.0623 -0.19549,-0.11003 -0.11662,-0.0951 -0.20171,-0.22472 -0.27081,-0.35857 -0.0691,-0.13383 -0.12394,-0.27422 -0.1942,-0.40741 -0.0704,-0.13312 -0.1581,-0.26008 -0.27753,-0.35186 -0.17872,-0.13742 -0.41575,-0.18216 -0.64053,-0.16327 -0.22474,0.0194 -0.44071,0.0954 -0.64936,0.18089 -0.20859,0.0858 -0.41374,0.18173 -0.63168,0.23972 -0.21791,0.0582 -0.45291,0.0772 -0.66821,0.01 -0.26319,-0.0821 -0.47588,-0.29032 -0.59837,-0.53728 -0.1225,-0.24694 -0.16003,-0.5296 -0.14435,-0.8048 0.0316,-0.55038 0.26538,-1.06728 0.38632,-1.60517 0.17292,-0.76863 0.10973,-1.58811 -0.17872,-2.32117 0.006,0.32094 -0.12996,0.64186 -0.36524,0.86028 -0.23525,0.21847 -0.56518,0.33112 -0.88476,0.30082 -0.32061,-0.0303 -0.61849,-0.19805 -0.84588,-0.42627 -0.22736,-0.22807 -0.38934,-0.51338 -0.51392,-0.8103 -0.24927,-0.59393 -0.36209,-1.24806 -0.69492,-1.79942 -0.27102,-0.44895 -0.69069,-0.77126 -1.14453,-1.04016 z" />
      <path
         sodipodi:nodetypes="ccccccccccccccccccscccccccscccscccccccc"
         id="path686"
         style="fill:#faba70;fill-opacity:1;stroke:none;stroke-width:0.568358px;stroke-linecap:butt;stroke-linejoin:miter;stroke-opacity:1"
         d="m 920.27432,615.62215 c 0.22086,-0.12336 0.45742,-0.22525 0.70714,-0.26532 0.2497,-0.0399 0.51437,-0.0151 0.73711,0.10544 0.19504,0.10485 0.34847,0.27586 0.46181,0.46621 0.11318,0.19032 0.18925,0.40054 0.25972,0.61053 0.0704,0.21009 0.13599,0.42207 0.22979,0.62275 0.0937,0.20064 0.21815,0.39132 0.38853,0.53284 0.237,0.19698 0.55518,0.28708 0.86254,0.26532 0.30737,-0.0217 0.60218,-0.15102 0.84139,-0.34523 0.19355,-0.15703 0.32607,-0.37347 0.44738,-0.59165 -0.53246,-0.1639 -1.04857,-0.36474 -1.51748,-0.66387 -0.45314,-0.28911 -0.85588,-0.66842 -1.12557,-1.13334 -0.26975,-0.465 -0.40002,-1.01943 -0.31198,-1.54969 0.0907,-0.54558 0.40047,-1.03136 0.75821,-1.45307 0.35772,-0.42177 0.76871,-0.79576 1.11676,-1.22555 0.92847,-1.14668 1.35156,-2.60844 1.78605,-4.01847 0.12466,-0.404 0.25361,-0.81224 0.47515,-1.17225 0.22157,-0.35999 0.54819,-0.67275 0.95354,-0.79257 0.37433,-0.1106 0.78196,-0.0479 1.14673,0.0911 0.36478,0.139 0.69669,0.35074 1.03458,0.5462 0.33788,0.19549 0.69044,0.37858 1.07346,0.454 0.1914,0.0376 0.38881,0.0478 0.58166,0.0172 0.19289,-0.0301 0.38138,-0.10099 0.53947,-0.21534 0.21439,-0.15511 0.36854,-0.38809 0.44072,-0.64271 0.0721,-0.25467 0.0638,-0.52948 -0.01,-0.7837 -0.0737,-0.25423 -0.21181,-0.48896 -0.38851,-0.68607 -0.17658,-0.19719 -0.3906,-0.35789 -0.62277,-0.48509 -0.46423,-0.25435 -0.99086,-0.37132 -1.5141,-0.45179 -0.52322,-0.0806 -1.05248,-0.12796 -1.56634,-0.25531 -1.58078,-0.39187 -2.87806,-1.50297 -4.3759,-2.1425 -0.87233,-0.37238 -1.83875,-0.58347 -2.77412,-0.42624 -0.46764,0.0786 -0.92255,0.24949 -1.31318,0.51844 -0.39065,0.26889 -0.71568,0.63689 -0.91359,1.0679 -0.25723,0.56 -0.29128,1.19558 -0.27423,1.81162 0.0172,0.616 0.0815,1.23569 0.004,1.84719 -0.0385,0.30571 -0.11347,0.60802 -0.24202,0.88805 -0.12867,0.27998 -0.31248,0.53733 -0.55169,0.73154 -0.23929,0.19419 -0.53524,0.32344 -0.84262,0.34523 13.49082,-2.61324 -2.63514,8.05329 3.49836,8.3782 z" />
    </g>
    <path
       d="m 63.028322,69.299213 c -0.225189,-0.0023 -0.475873,0.0441 -0.745333,0.14704 -0.256471,0.0983 -0.481017,0.243943 -0.66816,0.422518 -0.187177,0.178576 -0.336514,0.39049 -0.441707,0.621398 -0.105193,0.230896 -0.166311,0.480948 -0.176899,0.736317 -0.01148,0.255392 0.02894,0.515951 0.125646,0.767864 0.105193,0.27403 0.231562,0.497359 0.371805,0.67381 0.140276,0.176451 0.294735,0.306128 0.456349,0.391557 0.161591,0.08533 0.330566,0.126944 0.499702,0.127885 0.169159,8.85e-4 0.33849,-0.03905 0.501401,-0.116068 0.1629,-0.07706 0.319094,-0.191725 0.461966,-0.34027 0.14286,-0.148522 0.272376,-0.330738 0.381405,-0.544213 0.108983,-0.213476 0.19772,-0.458222 0.259136,-0.730116 0.06155,-0.271918 0.09509,-0.571385 0.09509,-0.895221 0,-0.198248 -0.02768,-0.375733 -0.08004,-0.530686 -0.05225,-0.154953 -0.128667,-0.28711 -0.226487,-0.39491 -0.09784,-0.10772 -0.217047,-0.191151 -0.353775,-0.247893 -0.136751,-0.05673 -0.291279,-0.08716 -0.460277,-0.08889 z"
       style="fill:#dc3f03;fill-opacity:1;stroke-width:9.44649;stroke-linecap:round;stroke-linejoin:round"
       id="path1047" />
    <path
       sodipodi:nodetypes="ccccscscccsssscccccscccccssscscsccccccccscccscsccscssccscsscsccccccsscccccscccsssscscsccscscccsscsccccccscccssccc"
       d="m 67.006286,48.537871 v 5.63e-4 c -0.65454,0.02951 -1.338823,0.102551 -2.018008,0.21297 -1.014505,0.164645 -1.822941,0.324571 -2.456868,0.504203 -0.633914,0.179609 -1.093307,0.378466 -1.40899,0.620846 -0.157836,0.12119 -0.279589,0.253566 -0.369566,0.399412 -0.08992,0.145835 -0.148108,0.305233 -0.178012,0.481672 -0.05983,0.352914 -0.0069,0.773296 0.126197,1.284505 0.09463,0.361859 0.134466,0.71699 0.123935,1.052367 -0.01148,0.335366 -0.07132,0.65067 -0.17745,0.934071 -0.106227,0.283402 -0.257459,0.5349 -0.449575,0.740819 -0.192138,0.205954 -0.425033,0.366304 -0.693516,0.469304 -0.30096,0.115448 -0.563151,0.239234 -0.786457,0.371828 -0.223328,0.132594 -0.407692,0.274214 -0.55324,0.426468 -0.145547,0.152255 -0.252337,0.315097 -0.319989,0.489562 -0.06775,0.174464 -0.09601,0.36078 -0.08555,0.560004 0.0092,0.199212 0.05972,0.411241 0.148177,0.637739 0.08843,0.226486 0.215784,0.467041 0.382497,0.723363 0.333448,0.512644 0.823767,1.087922 1.470969,1.73517 0.350399,0.350398 0.636017,0.673683 0.860827,0.967294 0.224821,0.293633 0.388778,0.557179 0.4952,0.788179 0.106456,0.230988 0.155676,0.429592 0.150979,0.59209 -0.0046,0.162521 -0.06316,0.289293 -0.171823,0.377478 -0.108638,0.0882 -0.267335,0.137348 -0.472657,0.145341 -0.205333,0.0069 -0.457303,-0.02515 -0.752119,-0.103126 -0.294782,-0.07809 -0.632468,-0.200751 -1.009555,-0.370725 -0.377053,-0.16994 -0.793485,-0.387492 -1.245585,-0.655195 -0.548371,-0.324697 -1.011669,-0.57065 -1.405063,-0.738568 -0.393407,-0.167919 -0.717185,-0.257838 -0.985325,-0.270413 -0.268173,-0.01252 -0.480902,0.05248 -0.653529,0.193803 -0.172604,0.141311 -0.305014,0.35915 -0.411826,0.652933 -0.07729,0.213062 -0.202646,0.396782 -0.36279,0.546476 -0.160156,0.149693 -0.355153,0.265543 -0.571821,0.342543 -0.216714,0.07694 -0.454915,0.114851 -0.701958,0.109902 -0.247066,-0.0046 -0.502618,-0.05351 -0.753796,-0.149854 -0.264246,-0.101404 -0.614277,-0.142493 -1.023634,-0.133525 -3.64201,2.26165 -3.979014,4.598029 -0.246768,10.233793 0.101404,0.194883 0.154265,0.400377 0.152117,0.605079 6.632446,5.730997 3.742292,-0.104318 7.872031,-0.539172 -0.160982,-0.360723 -0.355946,-0.692839 -0.574107,-0.993202 -0.218115,-0.300352 -0.459393,-0.568468 -0.71266,-0.801684 -0.253221,-0.233194 -0.518512,-0.431097 -0.78478,-0.590403 -0.266232,-0.159317 -0.533786,-0.280231 -0.790969,-0.358862 -0.257138,-0.07855 -0.504123,-0.115219 -0.730105,-0.106456 -0.225993,0.008 -0.430625,0.0627 -0.603379,0.165621 -0.172741,0.102897 -0.313822,0.254749 -0.411263,0.45859 -0.09727,0.203851 -0.151554,0.459726 -0.151554,0.77124 0,0.189026 -0.03181,0.349893 -0.08889,0.478904 -0.05719,0.128988 -0.139611,0.226303 -0.241703,0.287857 -0.102092,0.06167 -0.223765,0.08774 -0.358265,0.07442 -0.134546,-0.01332 -0.282104,-0.06615 -0.436621,-0.161683 -0.175785,-0.108638 -0.312111,-0.303004 -0.412974,-0.560566 -0.10083,-0.257517 -0.16646,-0.577988 -0.200556,-0.937988 -0.03411,-0.360022 -0.03629,-0.75971 -0.01217,-1.175762 0.02446,-0.416053 0.07614,-0.848642 0.150968,-1.274353 0.07487,-0.425687 0.172983,-0.844312 0.290154,-1.233217 0.117159,-0.388893 0.253244,-0.747801 0.404511,-1.053504 0.151232,-0.305703 0.317463,-0.55858 0.494626,-0.734641 0.177163,-0.176038 0.365638,-0.2755 0.560578,-0.2755 0.157652,0 0.308448,0.04548 0.446726,0.127908 0.138279,0.08246 0.263592,0.201682 0.369577,0.348722 0.105997,0.147052 0.192701,0.322114 0.253497,0.516067 0.06075,0.193918 0.09589,0.406727 0.09853,0.629815 0.0034,0.251234 0.02814,0.447266 0.07384,0.587634 0.04571,0.140323 0.11128,0.224914 0.195492,0.252923 0.08406,0.02802 0.186695,-4.02e-4 0.304784,-0.08625 0.118136,-0.08579 0.251821,-0.228772 0.399424,-0.429867 0.160052,-0.21784 0.36612,-0.418304 0.603942,-0.599417 0.237821,-0.181091 0.507258,-0.342682 0.794908,-0.482809 0.287662,-0.14015 0.593526,-0.258814 0.903088,-0.35381 0.30955,-0.09497 0.623246,-0.166758 0.926744,-0.212373 0.303498,-0.04571 0.596948,-0.06534 0.866465,-0.05753 0.269529,0.0069 0.515182,0.04364 0.722812,0.109212 0.20763,0.06569 0.376858,0.161396 0.494638,0.289006 0.117768,0.127632 0.18364,0.287374 0.18364,0.48112 0,0.219826 0.08406,0.386286 0.236064,0.504778 0.151979,0.118503 0.371977,0.189164 0.645054,0.215795 0.273066,0.02653 0.598992,0.0092 0.96223,-0.04628 0.363261,-0.05581 0.763925,-0.151118 1.186466,-0.280002 0.422529,-0.128885 0.866809,-0.29144 1.317727,-0.483923 0.45093,-0.192483 0.908761,-0.414766 1.357175,-0.661407 0.448415,-0.246653 0.887481,-0.517617 1.3025,-0.809011 0.415007,-0.291383 0.805887,-0.602851 1.156607,-0.92957 0.569559,-0.530628 0.994293,-0.936126 1.261376,-1.257999 0.133547,-0.160925 0.227589,-0.300822 0.280565,-0.425332 0.05294,-0.12452 0.06511,-0.23379 0.03434,-0.33238 -0.03078,-0.09865 -0.104504,-0.186649 -0.222536,-0.269885 -0.11801,-0.08314 -0.2806,-0.161636 -0.489011,-0.23998 -0.416764,-0.15671 -1.017594,-0.314017 -1.815729,-0.514355 -0.4976,-0.124888 -0.938252,-0.281449 -1.321678,-0.464217 -0.383415,-0.182732 -0.70964,-0.391396 -0.977435,-0.619697 -0.267829,-0.228313 -0.477342,-0.476424 -0.628184,-0.738017 -0.150785,-0.261593 -0.242518,-0.537117 -0.274926,-0.819703 -0.03239,-0.282597 -0.0046,-0.572372 0.08234,-0.863674 0.08739,-0.291256 0.234686,-0.58381 0.443373,-0.871507 0.208686,-0.287719 0.478801,-0.570397 0.810124,-0.842256 0.331347,-0.27186 0.724317,-0.533166 1.179702,-0.776868 0.36194,-0.193734 0.685662,-0.412951 0.961667,-0.64394 0.276017,-0.231 0.504204,-0.473828 0.673787,-0.713223 0.169573,-0.239418 0.280749,-0.475746 0.323366,-0.694642 0.0426,-0.218907 0.017,-0.420325 -0.08797,-0.589839 -0.104734,-0.16955 -0.158858,-0.331026 -0.166782,-0.478307 -0.0069,-0.147317 0.0302,-0.280473 0.109213,-0.392109 0.07912,-0.111739 0.199545,-0.201681 0.356048,-0.264223 0.156504,-0.06259 0.349366,-0.09738 0.57351,-0.09738 0.265061,0 0.47183,-0.02768 0.620283,-0.08234 0.148442,-0.05455 0.238625,-0.135913 0.269839,-0.242805 0.03135,-0.106801 0.0034,-0.239016 -0.0828,-0.396048 -0.08659,-0.157055 -0.232734,-0.338639 -0.437745,-0.543651 -0.130355,-0.130354 -0.334322,-0.24408 -0.597718,-0.339167 -0.263442,-0.09509 -0.585923,-0.17164 -0.9538,-0.229289 -0.735778,-0.115207 -1.651854,-0.153288 -2.633744,-0.105882 z"
       style="fill:#dc3f03;fill-opacity:1;stroke-width:9.44649;stroke-linecap:round;stroke-linejoin:round"
       id="path999" />
    <path
       d="m 51.541249,38.353834 c -0.376961,-0.0046 -0.734285,0.02021 -1.058558,0.07878 -0.324307,0.05857 -0.615253,0.150049 -0.859161,0.277165 -0.243896,0.127151 -0.440525,0.289856 -0.576323,0.49071 -0.135786,0.200866 -0.210719,0.440284 -0.210719,0.719987 0,0.242415 -0.03629,0.451079 -0.101403,0.621398 -0.065,0.170318 -0.159237,0.302143 -0.275478,0.389869 -0.116194,0.08785 -0.25453,0.131583 -0.407899,0.126186 -0.153333,-0.0046 -0.321562,-0.05995 -0.49799,-0.169021 -0.182997,-0.113003 -0.334608,-0.166173 -0.451825,-0.163934 -0.117286,0.0023 -0.200062,0.05949 -0.246768,0.166173 -0.04674,0.106686 -0.05742,0.263304 -0.02859,0.463688 0.02859,0.200372 0.09635,0.44467 0.205046,0.727865 0.05754,0.149556 0.0882,0.31659 0.09463,0.498576 0.0057,0.181975 -0.01217,0.379235 -0.05409,0.589288 -0.08464,0.420095 -0.264418,0.891638 -0.530123,1.397737 -0.265693,0.506064 -0.617079,1.046269 -1.045615,1.603345 -0.428524,0.557075 -0.93391,1.131136 -1.507017,1.704186 l -3.805556,3.80559 4.649489,-0.697467 c 0.639508,-0.09589 1.309172,-0.261053 1.971808,-0.477744 0.662613,-0.21668 1.318233,-0.484693 1.93011,-0.785905 0.611854,-0.301236 1.179805,-0.635971 1.667024,-0.985336 0.487207,-0.349365 0.893831,-0.713786 1.182503,-1.074911 0.288615,-0.36109 0.546074,-0.773146 0.765039,-1.208997 0.218953,-0.435816 0.39916,-0.895359 0.532397,-1.350962 0.133214,-0.455569 0.219791,-0.906911 0.251257,-1.327282 0.03158,-0.420416 0.0069,-0.80947 -0.07832,-1.139715 -0.08969,-0.342635 -0.130906,-0.664462 -0.128448,-0.953777 0.0023,-0.289339 0.04869,-0.546109 0.134649,-0.76056 0.0859,-0.21444 0.211225,-0.386206 0.371828,-0.504215 0.16058,-0.118009 0.355922,-0.182526 0.582512,-0.182526 0.219631,0 0.408198,0.05432 0.560579,0.152679 0.152357,0.0983 0.268621,0.24083 0.344771,0.416879 0.07614,0.176073 0.112199,0.38616 0.103126,0.61917 -0.008,0.232998 -0.06351,0.489056 -0.166735,0.758275 -0.111395,0.290498 -0.167471,0.557339 -0.172409,0.794357 -0.0046,0.237017 0.04111,0.444441 0.135775,0.615207 0.09451,0.170744 0.23735,0.304842 0.424206,0.396599 0.18689,0.09187 0.418062,0.140851 0.690152,0.140851 0.250993,0 0.485415,-0.06994 0.694045,-0.196054 0.208663,-0.12614 0.391327,-0.308379 0.539711,-0.533511 0.148408,-0.225132 0.262696,-0.492834 0.332955,-0.789844 0.07028,-0.296998 0.09669,-0.623338 0.07097,-0.965055 -0.01792,-0.236627 -0.08636,-0.464767 -0.19718,-0.683353 -0.11082,-0.218586 -0.263936,-0.427422 -0.451825,-0.624785 -0.187906,-0.197375 -0.410201,-0.383599 -0.659138,-0.556605 -0.248927,-0.173017 -0.524622,-0.33284 -0.818577,-0.478307 -0.587911,-0.290923 -1.250156,-0.523899 -1.922232,-0.685627 -0.672076,-0.16174 -1.354212,-0.251981 -1.982488,-0.259147 z"
       style="fill:#dc3f03;fill-opacity:1;stroke-width:9.44649;stroke-linecap:round;stroke-linejoin:round"
       id="path987" />
    <path
       d="m 55.641888,18.657709 c -0.300903,-0.0034 -0.573107,0.03376 -0.804509,0.112198 -0.231379,0.07844 -0.421737,0.197398 -0.558856,0.358311 -0.13713,0.160868 -0.221296,0.363433 -0.239441,0.607284 -0.01814,0.243885 0.0294,0.529525 0.154931,0.856899 0.102781,0.267725 0.161866,0.522738 0.180263,0.755495 0.01838,0.232746 -0.0034,0.442673 -0.06259,0.619135 -0.0588,0.17644 -0.154402,0.319714 -0.283379,0.418568 -0.128919,0.09888 -0.29144,0.153804 -0.483371,0.153804 -0.191978,0 -0.354809,0.0526 -0.485037,0.148167 -0.130239,0.09566 -0.227911,0.234031 -0.289028,0.404522 -0.06098,0.170468 -0.08579,0.372862 -0.0704,0.597718 0.01539,0.224844 0.07086,0.472094 0.170124,0.73069 0.109097,0.284458 0.146615,0.563564 0.117159,0.830405 -0.02951,0.266842 -0.125795,0.521131 -0.283367,0.754921 -0.157606,0.233814 -0.376502,0.447358 -0.65183,0.632675 -0.275316,0.185317 -0.606663,0.34275 -0.989286,0.464228 -0.347838,0.110361 -0.680723,0.258791 -0.984198,0.43267 -0.303487,0.173878 -0.577851,0.372953 -0.809,0.584763 -0.231172,0.211845 -0.418946,0.436632 -0.549841,0.660833 -0.130928,0.224236 -0.204598,0.44807 -0.207331,0.659157 -0.0023,0.226774 -0.03675,0.386734 -0.09738,0.481098 -0.06075,0.0944 -0.148304,0.123131 -0.257999,0.08797 -0.109786,-0.03526 -0.241806,-0.134856 -0.391545,-0.296907 -0.149763,-0.162015 -0.317199,-0.386619 -0.498026,-0.67265 -0.249087,-0.393946 -0.469361,-0.692242 -0.681113,-0.897437 -0.211753,-0.20523 -0.415019,-0.317325 -0.629299,-0.337457 -0.214256,-0.02021 -0.439652,0.0511 -0.696307,0.212373 -0.256655,0.161212 -0.544466,0.412596 -0.883369,0.751557 -0.338927,0.33888 -0.589759,0.626668 -0.75096,0.883358 -0.161223,0.256667 -0.232584,0.482028 -0.212419,0.696319 0.02021,0.214279 0.13171,0.417557 0.336905,0.629298 0.205196,0.211718 0.504089,0.432027 0.898023,0.681102 0.568261,0.359265 1.127818,0.638669 1.666427,0.837733 0.538621,0.199051 1.05618,0.31752 1.53915,0.35436 0.482946,0.03686 0.931602,-0.0069 1.332943,-0.135235 0.200637,-0.06374 0.389112,-0.148338 0.564483,-0.253508 0.175372,-0.105079 0.337663,-0.23061 0.484497,-0.377455 0.163405,-0.163406 0.422082,-0.311239 0.74872,-0.441662 0.326604,-0.130458 0.72109,-0.243862 1.154919,-0.339168 0.867602,-0.19061 1.893201,-0.308803 2.853467,-0.345897 0.480121,-0.01849 0.944085,-0.01688 1.363342,0.0057 0.419245,0.02308 0.793955,0.06776 1.096316,0.13465 0.302385,0.06684 0.532512,0.155895 0.661959,0.268702 0.06477,0.05639 0.104504,0.118744 0.11546,0.187051 0.01148,0.06833 -0.0057,0.142619 -0.05639,0.223098 -0.09727,0.157549 -0.148039,0.308092 -0.156055,0.445061 -0.0069,0.13697 0.02641,0.260641 0.09911,0.36449 0.07269,0.10393 0.183618,0.188004 0.328453,0.246216 0.144825,0.05822 0.323504,0.09015 0.531834,0.09015 0.208078,0 0.385218,-0.0557 0.527298,-0.157181 0.142091,-0.101288 0.249363,-0.248249 0.317187,-0.429282 0.06787,-0.180998 0.09635,-0.396667 0.08165,-0.635476 -0.0147,-0.238798 -0.07258,-0.500977 -0.178036,-0.775742 -0.115207,-0.300099 -0.174281,-0.635879 -0.184777,-0.993788 -0.01148,-0.357921 0.02745,-0.737638 0.105997,-1.126186 0.07855,-0.388526 0.197742,-0.785549 0.349848,-1.177463 0.152059,-0.391878 0.336962,-0.778991 0.547015,-1.146995 0.210053,-0.368015 0.444981,-0.716932 0.697444,-1.033786 0.252487,-0.316889 0.522325,-0.601496 0.801684,-0.839984 0.279359,-0.23851 0.56848,-0.431085 0.859139,-0.563943 0.290693,-0.13288 0.583385,-0.206206 0.869864,-0.206206 0.224787,0 0.439434,-0.03537 0.634902,-0.09911 0.195446,-0.06397 0.371782,-0.156446 0.520006,-0.270413 0.148212,-0.114036 0.267898,-0.249122 0.350973,-0.399435 0.08303,-0.150291 0.128999,-0.315557 0.128999,-0.488436 0,-0.172891 -0.04995,-0.318634 -0.140265,-0.434358 -0.09038,-0.115701 -0.221239,-0.201314 -0.382531,-0.25352 -0.161281,-0.05225 -0.352891,-0.07109 -0.56562,-0.05352 -0.21274,0.01769 -0.446554,0.07224 -0.691265,0.166173 -0.244712,0.09405 -0.535153,0.12637 -0.850686,0.105308 -0.315534,-0.02101 -0.655873,-0.09566 -1.000552,-0.216909 -0.34468,-0.121305 -0.693724,-0.28935 -1.025897,-0.496325 -0.332174,-0.206964 -0.64765,-0.453272 -0.925619,-0.731242 -0.330072,-0.330095 -0.68108,-0.619295 -1.041125,-0.868164 -0.359988,-0.248915 -0.728887,-0.457303 -1.09402,-0.624774 -0.36519,-0.167471 -0.726694,-0.293863 -1.072108,-0.379706 -0.345449,-0.0859 -0.674913,-0.13125 -0.975747,-0.135235 z"
       style="fill:#dc3f03;fill-opacity:1;stroke-width:9.44649;stroke-linecap:round;stroke-linejoin:round"
       id="path959" />
    <path
       d="m 77.46131,47.624643 c -0.0395,0.0057 -0.08785,0.0057 -0.126186,0.01412 -0.298319,0.05972 -0.56485,0.141954 -0.787616,0.249019 -0.222766,0.10703 -0.401709,0.238923 -0.525047,0.396059 -0.123337,0.157146 -0.190978,0.340086 -0.190978,0.549829 0,0.247353 -0.03066,0.464549 -0.08567,0.64564 -0.05501,0.181079 -0.134524,0.325673 -0.232654,0.428179 -0.09819,0.102437 -0.214865,0.162579 -0.344243,0.174074 -0.129356,0.01148 -0.271539,-0.02538 -0.420267,-0.117171 -0.148741,-0.0921 -0.29035,-0.128551 -0.419716,-0.115448 -0.129356,0.01298 -0.246642,0.07534 -0.344783,0.180827 -0.09819,0.105422 -0.17768,0.254323 -0.232689,0.439422 -0.05489,0.18511 -0.08498,0.406555 -0.08498,0.658582 0,0.252027 0.0263,0.476045 0.07442,0.665347 0.04812,0.189313 0.117653,0.343887 0.203381,0.456901 0.08579,0.113002 0.187809,0.184754 0.300846,0.207882 0.113002,0.02308 0.236787,-0.0023 0.366763,-0.0828 0.13001,-0.08039 0.275523,-0.102092 0.426468,-0.07327 0.150923,0.02871 0.307541,0.108065 0.460829,0.230954 0.153276,0.123005 0.302924,0.28958 0.439985,0.491824 0.137107,0.202267 0.261582,0.440422 0.363938,0.707045 0.14146,0.368566 0.300823,0.681252 0.471555,0.939698 0.170721,0.258435 0.352569,0.462746 0.539712,0.614645 0.187131,0.151875 0.379441,0.251361 0.570133,0.300283 0.190668,0.04892 0.379786,0.04708 0.561118,-0.0034 0.18132,-0.05041 0.354728,-0.149555 0.513781,-0.295769 0.159041,-0.146237 0.303693,-0.339581 0.427594,-0.578022 0.07304,-0.140633 0.121293,-0.329119 0.178598,-0.500851 a 94.659363,94.659363 0 0 0 -2.104184,-6.583538 z"
       style="fill:#dc3f03;fill-opacity:1;stroke-width:9.44649;stroke-linecap:round;stroke-linejoin:round"
       id="path865" />
    <path
       id="path856"
       style="fill:#e6e6e6;stroke:none;stroke-width:0.61472;stroke-linecap:round;stroke-linejoin:round"
       d="m 80.95238,3.7273601 c -1.413028,0.001 -2.83704,0.005 -4.253715,0.0393 -3.30208,0.13553 -6.517518,1.0308 -9.619414,2.11982 -5.272408,1.9051 -10.055569,5.0685899 -14.005732,9.0334299 -3.873307,3.78576 -7.015911,8.37316 -8.857684,13.48299 -1.577808,4.31633 -2.429637,8.89772 -2.484974,13.49392 -0.05016,3.95459 0.454289,7.92734 1.60211,11.71591 1.212456,3.53192 2.915142,6.88447 4.926227,10.02606 0.153011,0.20432 0.309901,0.41321 0.476514,0.60251 0.146058,0.0454 0.281964,0.22929 0.435727,0.16968 0.134776,-0.0755 0.361908,-0.0576 0.383484,-0.24757 0.05827,-0.15291 0.152459,-0.3047 0.05382,-0.46249 -0.225965,-0.44433 -0.510757,-0.86248 -0.749311,-1.30265 -1.329261,-2.32104 -2.505178,-4.77879 -3.391008,-7.32477 -0.513263,-1.57927 -0.865905,-3.20768 -1.136026,-4.84505 -0.02622,-0.16677 -0.06334,-0.41865 -0.09374,-0.61807 -0.324898,-2.26735 -0.448434,-4.56304 -0.374449,-6.85228 0.01538,-0.47183 0.04131,-1.00487 0.07544,-1.47931 0.06001,-0.88061 0.149,-1.74581 0.265972,-2.60841 0.459981,-3.39299 1.365065,-6.72573 2.677872,-9.88771 1.552588,-3.67061 3.796112,-7.03074 6.485051,-9.96523 0.305125,-0.33016 0.651917,-0.69886 0.983819,-1.03386 1.938027,-1.98811 4.057361,-3.80459 6.365888,-5.35032 2.964042,-1.99766 6.225714,-3.5522999 9.647647,-4.5864999 0.701927,-0.22112 1.410105,-0.422 2.122408,-0.60691 0.163066,-0.0408 0.411179,-0.10104 0.606875,-0.1493 1.050301,-0.24483 2.112285,-0.44351 3.184626,-0.56228 0.315624,-0.0345 0.697838,-0.0701 1.040415,-0.0915 1.073316,-0.0627 2.149194,-0.0438 3.22382,-0.0607 1.615954,-0.002 3.265771,-0.0148 4.860789,0.0215 0.426318,0.0134 0.80334,0.0285 1.232124,0.0559 0.709045,0.0445 1.435696,0.11846 2.114182,0.22697 0.823554,0.12184 1.626072,0.34436 2.42499,0.57207 1.247566,0.32312 2.515519,0.70735 3.71288,1.11959 3.946786,1.36693 7.782583,3.3078599 11.031653,5.9853899 0.51251,0.40684 1.01135,0.83045 1.50298,1.26223 0.12414,0.11407 0.314,0.28404 0.46336,0.41956 2.00932,1.84633 3.81315,3.91318 5.39261,6.13766 0.1446,0.0543 0.27904,0.21796 0.43033,0.20019 0.14197,-0.0784 0.38336,-0.0525 0.41285,-0.249 0.0611,-0.15194 0.15912,-0.30232 0.0598,-0.46097 -0.14911,-0.33229 -0.38014,-0.6273 -0.56412,-0.94319 -2.30722,-3.43389 -5.16593,-6.49357 -8.42245,-9.0441 -4.11339,-3.2882399 -9.023493,-5.4472199 -14.074216,-6.8414099 -0.99845,-0.25494 -1.980057,-0.58147 -2.999816,-0.74621 -2.365981,-0.41248 -4.778299,-0.35731 -7.169589,-0.36483 z" />
    <path
       id="path862"
       style="fill:#e6e6e6;stroke:none;stroke-width:0.61472;stroke-linecap:round;stroke-linejoin:round"
       d="m 82.987915,0.51102007 c -2.002076,0.0289 -4.005384,8.9e-4 -6.00644,0.0789 -1.956715,0.0825 -3.919275,0.34759 -5.780476,0.97612003 -4.643409,1.42735 -9.147672,3.3878 -13.21548,6.05859 -3.038581,2.12272 -5.545497,4.8814199 -8.072146,7.5665699 -1.893835,2.03942 -3.592431,4.2831 -4.842383,6.77777 -2.620838,4.96886 -4.498192,10.34416 -5.411261,15.89165 -0.362815,3.38904 -0.294415,6.80635 -0.132583,10.20525 0.249103,3.75897 1.515576,7.34211 2.739224,10.87308 1.190458,3.46689 1.617636,7.17072 3.119707,10.53476 0.214349,0.61769 0.518152,1.20408 0.677995,1.8402 -0.147148,0.21106 -0.353656,0.46688 -0.486275,0.63407 -1.024615,1.23393 -2.218913,2.31048 -3.318412,3.47489 -11.937111,11.85618 -24.093734,23.501439 -36.1084303,35.28385 -1.753457,1.74514 -3.587911,3.41143 -5.27027104,5.22635 -0.52239,0.71603 -0.51949,1.69199 -0.19493,2.48953 0.12908,0.41009 0.51707004,0.64747 0.79641004,0.94985 0.86541,0.82983 1.83602,1.61821 2.998418,1.97514 0.471591,0.0693 0.922346,-0.1773 1.30456,-0.42739 0.5940875,-0.41896 1.0547055,-0.99222 1.6165355,-1.44947 C 14.318348,112.85036 20.975637,105.96321 27.722496,99.176599 35.123818,91.69842 42.477089,84.17202 49.968742,76.78386 c 0.397309,-0.30501 0.711348,-0.70701 1.123963,-0.9927 2.789264,1.17876 5.679996,2.1037 8.609735,2.86267 4.195239,1.16447 8.212881,2.92539 12.477562,3.84601 3.833024,0.71772 7.750206,0.5452 11.628499,0.52146 2.091883,0.0196 4.182926,-0.22288 6.21895,-0.70103 1.265677,-0.28682 2.501725,-0.68511 3.73132,-1.09631 7.133369,-2.24237 13.738759,-6.25987 18.844939,-11.7412 1.96231,-2.10862 3.77381,-4.36362 5.32613,-6.79245 2.31688,-3.60151 4.09424,-7.56143 5.13303,-11.72028 1.07217,-3.72306 1.24429,-7.63436 1.12807,-11.48599 -0.0492,-1.40219 -0.0498,-2.80816 -0.20808,-4.20423 -0.15631,-1.55855 -0.46426,-3.10105 -0.92392,-4.59851 -1.0875,-4.02742 -2.61176,-7.9595 -4.76074,-11.54417 -0.74263,-1.20029 -1.62121,-2.31111 -2.53877,-3.38148 -2.68538,-3.02655 -5.771,-5.69312 -9.12081,-7.9598199 -2.2565,-1.51557 -4.62467,-2.87593 -7.123357,-3.95231 -3.308539,-1.44096 -6.784194,-2.50906 -10.341163,-3.12401003 -2.055745,-0.19605 -4.122679,-0.21866 -6.186185,-0.20851 z m -0.90072,4.27519003 c 0.933371,0.003 1.87178,0.004 2.787628,0.042 0.377791,0.0177 0.828456,0.0414 1.233812,0.0763 1.30626,0.10199 2.603711,0.33121 3.85549,0.72053 1.491451,0.38386 2.983346,0.83732 4.414911,1.35489 3.828137,1.37721 7.490574,3.2980799 10.627334,5.9063599 3.00031,2.41428 5.63274,5.28734 7.77224,8.4894 0.32768,0.5497 0.69595,1.08675 1.06307,1.61834 0.27503,0.40751 0.55323,0.84022 0.79718,1.23439 1.74226,2.80296 3.11986,5.83054 4.09221,8.9842 0.80009,2.48728 1.28583,5.0861 1.30737,7.70319 0.10011,3.41101 0.20203,6.85753 -0.41739,10.22974 -0.54926,2.48387 -1.35282,4.90967 -2.37063,7.24045 -0.40361,0.91792 -0.85944,1.8702 -1.34126,2.7726 -0.73328,1.38071 -1.55511,2.74218 -2.45767,4.03807 -2.39167,3.24721 -5.30103,6.08761 -8.45175,8.59353 -3.39424,2.4772 -7.243177,4.28942 -11.244524,5.54594 -0.971325,0.30099 -2.015741,0.60357 -3.039089,0.83563 -1.779145,0.40259 -3.594529,0.62699 -5.413625,0.74412 -0.315805,0.0169 -0.697218,0.042 -1.039287,0.0545 -2.22385,0.0914 -4.451039,0.0614 -6.675085,-0.002 -1.890339,-0.0931 -3.754993,-0.49522 -5.546878,-1.09514 -2.017956,-0.62191 -4.025527,-1.28827 -5.971167,-2.11237 -1.401657,-0.59526 -2.807163,-1.29512 -4.113961,-2.10995 -1.16477,-0.74333 -2.304696,-1.54554 -3.392609,-2.37394 -3.246848,-2.47938 -6.200852,-5.39269 -8.473612,-8.80072 -0.282051,-0.45678 -0.528016,-0.93843 -0.888116,-1.34152 -0.596085,-0.88326 -1.126022,-1.81081 -1.65167,-2.73761 -0.39229,-0.69741 -0.780515,-1.44398 -1.126379,-2.13637 -0.500779,-1.01457 -0.964766,-2.04723 -1.386993,-3.09696 -0.08685,-0.22873 -0.207648,-0.5224 -0.30121,-0.77929 -0.576508,-1.47407 -0.944567,-3.01946 -1.253344,-4.56883 -0.07348,-0.37655 -0.128477,-0.70175 -0.192762,-1.08455 -0.0709,-0.42768 -0.142158,-0.93269 -0.201457,-1.39428 -0.256368,-2.03797 -0.347829,-4.12653 -0.282617,-6.16031 0.03465,-1.04259 0.104722,-2.05606 0.219371,-3.0977 0.228947,-2.09642 0.637506,-4.22077 1.209609,-6.27033 0.194347,-0.70053 0.4088,-1.39524 0.63232,-2.05719 1.091874,-3.3393 2.740707,-6.48842 4.817361,-9.31984 1.725054,-2.37189 3.759332,-4.50503 5.939679,-6.46104 3.822142,-3.38947 8.329401,-6.0284999 13.210077,-7.5606899 0.857787,-0.2776 1.723197,-0.53172 2.596192,-0.75715 0.163065,-0.0408 0.411178,-0.10104 0.606875,-0.1493 1.050329,-0.24465 2.112266,-0.44393 3.184625,-0.56228 0.127265,-0.0137 0.304467,-0.0329 0.44386,-0.0447 1.252072,-0.12145 2.511464,-0.0848 3.767459,-0.10739 0.884941,-0.002 1.769515,-0.006 2.654412,-0.002 z" />
    <path
       id="path864"
       style="fill:#999999;stroke:none;stroke-width:0.61472;stroke-linecap:round;stroke-linejoin:round"
       d="m 117.02201,18.29805 c -0.0501,0.18478 -0.23286,0.36316 -0.12286,0.55569 0.11701,0.31685 0.355,0.5769 0.51922,0.87213 1.08407,1.80875 1.99718,3.7167 2.78174,5.67303 0.12745,0.32447 0.27712,0.70908 0.40664,1.05901 0.61174,1.63133 1.10894,3.30235 1.56841,4.98197 0.55056,1.86849 0.79906,3.81323 0.88834,5.7552 0.0161,0.37501 0.0298,0.81226 0.0345,1.21178 0.0781,2.14328 0.11187,4.31999 -0.0552,6.47673 -0.0516,0.67479 -0.12209,1.35645 -0.20978,1.99353 -0.10532,0.78008 -0.24669,1.57946 -0.41199,2.32405 -0.22255,0.97545 -0.49695,1.93821 -0.76364,2.90223 -0.72867,2.50561 -1.76043,4.96187 -2.9812,7.2371 -0.38581,0.71727 -0.81653,1.45932 -1.22783,2.13062 -1.50745,2.44765 -3.27487,4.72879 -5.21333,6.84936 -5.06544,5.60398 -11.72113,9.69527 -18.91994,11.93322 -1.146546,0.38924 -2.303114,0.75316 -3.483644,1.02603 -0.125102,0.0287 -0.344422,0.0769 -0.505622,0.11314 -1.822653,0.39616 -3.688019,0.58847 -5.553217,0.57032 -3.827976,0.0214 -7.695615,0.19962 -11.477826,-0.51859 -4.512445,-1.00439 -8.754322,-2.92065 -13.229889,-4.05702 -2.655991,-0.71542 -5.27041,-1.59306 -7.801118,-2.67282 -0.230251,0.0119 -0.476837,-0.0243 -0.665937,0.13621 -0.531149,0.33084 -0.928138,0.82691 -1.411076,1.21769 -8.519274,8.40549 -16.865306,16.984009 -25.298874,25.47481 -5.462521,5.52571 -10.893234,11.08086 -16.4912988,16.46458 -0.418097,0.41441 -0.854598,0.80804 -1.2879935,1.20562 -0.437221,0.40776 -0.843333,0.912 -1.439391,1.08538 -1.21614,-0.43998 -2.14663,-1.38142 -3.04839,-2.27014 -0.15148,-0.0293 -0.31115,-0.1683 -0.45724,-0.12547 -0.12704,0.10091 -0.36940004,0.11542 -0.36595004,0.3141 -0.0447,0.17159 -0.0997,0.35073 0.0168,0.50775 0.38241004,0.83266 0.97243004,1.55247 1.65059004,2.16227 0.88708,0.85664 1.87722,1.67961 3.073893,2.04755 0.47159,0.0693 0.9223445,-0.1773 1.3045585,-0.42739 0.594122,-0.41895 1.054701,-0.9922 1.616536,-1.44947 6.9228808,-6.62664 13.5863488,-13.52006 20.3394168,-20.31294 7.394925,-7.472111 14.742533,-14.9917 22.227649,-22.37393 0.397068,-0.30526 0.711686,-0.70657 1.123963,-0.9927 2.789293,1.17875 5.679979,2.10371 8.609734,2.86267 4.187492,1.16246 8.194683,2.91679 12.451541,3.84122 3.80601,0.71742 7.696818,0.5529 11.548691,0.52712 1.727056,0.0144 3.455669,-0.12761 5.152211,-0.45473 1.634242,-0.30365 3.231987,-0.7735 4.802941,-1.3117 7.138762,-2.2258 13.752432,-6.22853 18.873942,-11.69537 1.98322,-2.12476 3.81513,-4.39716 5.38293,-6.84716 2.32449,-3.60745 4.10772,-7.57532 5.14818,-11.74318 1.07675,-3.74022 1.24616,-7.66985 1.12673,-11.53888 -0.0485,-1.37576 -0.0496,-2.75519 -0.20413,-4.12501 -0.15521,-1.55857 -0.45939,-3.10194 -0.91928,-4.59939 -1.32774,-4.93515 -3.34357,-9.72907 -6.3098,-13.91096 -0.14382,-0.0563 -0.27594,-0.2217 -0.42748,-0.2061 -0.12175,0.0403 -0.24349,0.0806 -0.36524,0.12084 z" />
    <path
       style="fill:#000000;stroke-width:0.264583"
       d="m 4.3112537,123.02722 c -3.14565,-1.70335 -5.05556004,-5.00802 -4.03498004,-6.98162 0.21674,-0.41911 2.10801004,-2.41672 4.20283504,-4.43914 C 6.5739322,109.58405 15.636623,100.7856 24.61842,92.05435 33.60022,83.3231 42.06038,75.13695 43.41878,73.86291 l 2.46982,-2.31644 -0.74526,-1.38773 c -0.90229,-1.68015 -1.76057,-4.4846 -2.08466,-6.81169 -0.13174,-0.94588 -0.59397,-2.61276 -1.02718,-3.70417 -1.08128,-2.72409 -2.05378,-6.0266 -2.61007,-8.86354 -0.64953,-3.31238 -0.64179,-10.64467 0.0151,-14.2875 1.28595,-7.13157 4.34184,-14.39327 8.29501,-19.71146 2.01237,-2.70723 6.61626,-7.2320099 9.21829,-9.0598899 4.69319,-3.29689 10.69188,-5.8804 16.50779,-7.10954003 2.32147,-0.49062 3.66969,-0.59078 8.20209,-0.60937 6.24005,-0.0256 8.35469,0.24771 13.27241,1.71535003 5.84366,1.74397 9.27507,3.49929 14.24426,7.2866 4.7911,3.6515899 9.063,8.4224199 11.46489,12.8039399 2.18633,3.98828 4.35857,10.85985 4.93256,15.60347 0.98459,8.13683 -0.88178,18.03662 -4.69013,24.87778 -1.95567,3.51309 -3.90349,6.01347 -7.69708,9.88061 -5.53243,5.63969 -11.11091,8.96186 -19.10977,11.3805 C 89.8934,84.81479 87.35172,85.13841 81.899,85.10039 74.31801,85.04749 71.46497,84.52267 64.80773,81.9562 60.6331,80.34683 60.69321,80.36518 58.05281,79.89399 56.75647,79.66265 54.97246,79.11317 53.98265,78.64037 l -1.76222,-0.84177 -9.02672,9.11569 c -4.96469,5.01363 -15.04184,15.22764 -22.39366,22.6978 -13.2260708,13.43898 -13.3794398,13.58339 -14.5520853,13.7021 -0.768182,0.0778 -1.449548,-0.0232 -1.936691,-0.28697 z M 17.762807,111.42512 C 23.87468,105.26183 33.97957,95.025779 40.21812,88.67834 46.45667,82.3309 51.72316,77.07528 51.92143,76.9992 c 0.19827,-0.0761 1.34479,0.3305 2.54781,0.90352 1.39929,0.6665 2.99756,1.18203 4.43628,1.43093 1.23693,0.21399 4.01297,1.05284 6.16899,1.86412 7.0594,2.65635 9.71657,3.14915 16.98205,3.14952 5.68963,2.7e-4 7.91931,-0.32851 12.7,-1.87282 8.55582,-2.76378 14.94434,-7.05945 20.66032,-13.89211 4.67431,-5.58749 7.35198,-11.05914 8.84177,-18.0676 0.88547,-4.16552 1.00966,-10.46949 0.28925,-14.68177 -0.62879,-3.6765 -2.14429,-8.41698 -3.84782,-12.03594 C 116.4829,14.83812 106.3815,6.2583901 96.07641,2.8827001 90.6298,1.0985201 88.54767,0.78839007 82.05656,0.79447007 c -6.29238,0.006 -8.51879,0.31643003 -13.22917,1.84514003 -2.75862,0.89529 -7.91142,3.41539 -10.58333,5.17602 -2.93706,1.93536 -8.8007,7.8594899 -10.92275,11.0354299 -4.76221,7.12731 -7.73019,16.75677 -7.73032,25.0806 -8e-5,4.87303 1.18436,10.5129 3.21514,15.3094 0.43014,1.01593 0.88868,2.6828 1.01898,3.70417 0.30763,2.41123 1.16886,5.20549 2.14415,6.95667 0.56804,1.01995 0.71117,1.51881 0.53189,1.85381 -0.13492,0.25209 -1.77467,1.9349 -3.6439,3.73957 -3.37676,3.26015 -6.58837,6.37944 -15.96632,15.50741 -4.22867,4.115949 -15.090055,14.65038 -23.6140563,22.90322 -2.84662004,2.75605 -3.01138004,3.15191 -2.0594,4.94804 0.90185,1.70156 3.482855,3.75262 4.742151,3.76846 0.5633305,0.007 2.7396635,-2.05752 11.8031823,-11.19729 z M 78.35239,81.43872 C 77.77031,81.37642 75.708781,81.27498 74.416746,81.0057 72.894884,80.68852 71.439485,80.1086 69.963241,79.62139 68.576042,79.16357 67.163526,78.76342 65.826184,78.17568 64.454938,77.57304 62.803635,76.61437 61.86559,76.05315 49.2773,68.59543 42.19999,54.95013 43.54228,40.72516 c 0.89094,-9.44168 4.38027,-17.0905 10.73303,-23.52739 4.19031,-4.2458 8.61906,-7.07946 14.41979,-9.2262499 5.44915,-2.01667 12.35398,-2.74321 18.42214,-1.93841 4.16395,0.55224 10.347453,2.54001 13.72915,4.4133999 10.16548,5.63148 17.22735,15.51601 19.36385,27.10365 0.58881,3.19347 0.5737,9.19927 -0.0319,12.7 -1.99515,11.53235 -9.6795,21.81993 -20.248257,27.10778 -2.738,1.3699 -7.857813,3.08156 -10.729733,3.58718 -2.36622,0.4166 -8.82346,0.7104 -10.84792,0.49358 z m 11.32698,-1.27981 c 4.95875,-1.11801 9.961483,-3.20552 13.86153,-5.78406 8.25519,-5.45795 13.87986,-13.93003 15.86302,-23.89343 0.64278,-3.22933 0.65434,-10.24994 0.0217,-13.19583 -3.01608,-14.04508 -11.98238,-24.34703 -25.00463,-28.7294199 -4.99167,-1.67985 -6.714,-1.95548 -12.23216,-1.95756 -7.06729,-0.003 -11.42416,0.95023 -16.98969,3.7158399 -4.79108,2.38077 -8.21637,4.97377 -11.89408,9.00401 -4.11347,4.50776 -7.25238,10.98609 -8.59708,17.74329 -0.65092,3.27091 -0.6661,10.77454 -0.0278,13.71759 0.69367,3.19813 1.68822,6.05859 3.14442,9.04383 5.37649,11.02188 15.70148,18.51534 28.41107,20.61961 2.75908,0.45681 10.92308,0.28442 13.44364,-0.28387 z"
       id="path847"
       sodipodi:nodetypes="ssssscsssscssssssssssscssscsssssssssssssssssscsssssssssssscssaaacsssssscssssssscscssscssss" />
    <circle
       r="39.684357"
       cy="43.431301"
       cx="82.586288"
       id="path1826"
       style="fill:none;stroke:#1a1a1a;stroke-width:0.618882;stroke-linecap:round;stroke-linejoin:round" />
    <circle
       style="fill:none;stroke:#1a1a1a;stroke-width:0.618882;stroke-linecap:round;stroke-linejoin:round"
       id="circle1828"
       cx="82.586288"
       cy="43.431301"
       r="39.684357" />
  </g>
</svg>
