<?xml version="1.0" encoding="UTF-8" standalone="no"?>
<svg
   xmlns:dc="http://purl.org/dc/elements/1.1/"
   xmlns:cc="http://creativecommons.org/ns#"
   xmlns:rdf="http://www.w3.org/1999/02/22-rdf-syntax-ns#"
   xmlns:svg="http://www.w3.org/2000/svg"
   xmlns="http://www.w3.org/2000/svg"
   xmlns:sodipodi="http://sodipodi.sourceforge.net/DTD/sodipodi-0.dtd"
   xmlns:inkscape="http://www.inkscape.org/namespaces/inkscape"
   inkscape:export-ydpi="96"
   inkscape:export-xdpi="96"
   inkscape:export-filename="C:\Users\Marek\Desktop\graphic\web_sun\earth.png"
   width="400"
   height="400"
   viewBox="0 0 105.83333 105.83334"
   version="1.1"
   id="svg8"
   inkscape:version="1.0 (4035a4fb49, 2020-05-01)"
   sodipodi:docname="mars.svg">
  <defs
     id="defs2">
    <inkscape:path-effect
       lpeversion="1"
       is_visible="true"
       id="path-effect5049"
       effect="spiro" />
    <inkscape:path-effect
       lpeversion="1"
       is_visible="true"
       id="path-effect5047"
       effect="spiro" />
    <inkscape:path-effect
       lpeversion="1"
       is_visible="true"
       id="path-effect5045"
       effect="spiro" />
    <inkscape:path-effect
       lpeversion="1"
       is_visible="true"
       id="path-effect9974"
       effect="spiro" />
    <inkscape:path-effect
       lpeversion="1"
       is_visible="true"
       id="path-effect9972"
       effect="spiro" />
    <inkscape:path-effect
       lpeversion="1"
       is_visible="true"
       id="path-effect9970"
       effect="spiro" />
    <inkscape:path-effect
       lpeversion="1"
       is_visible="true"
       id="path-effect9927"
       effect="spiro" />
    <inkscape:path-effect
       lpeversion="1"
       is_visible="true"
       id="path-effect9477"
       effect="spiro" />
    <inkscape:path-effect
       effect="spiro"
       id="path-effect9029"
       is_visible="true"
       lpeversion="1" />
    <inkscape:path-effect
       effect="spiro"
       id="path-effect9027"
       is_visible="true"
       lpeversion="1" />
    <inkscape:path-effect
       effect="spiro"
       id="path-effect9025"
       is_visible="true"
       lpeversion="1" />
    <inkscape:path-effect
       effect="spiro"
       id="path-effect9023"
       is_visible="true"
       lpeversion="1" />
    <inkscape:path-effect
       effect="spiro"
       id="path-effect9021"
       is_visible="true"
       lpeversion="1" />
    <inkscape:path-effect
       lpeversion="1"
       is_visible="true"
       id="path-effect9019"
       effect="spiro" />
    <inkscape:path-effect
       lpeversion="1"
       is_visible="true"
       id="path-effect1609"
       effect="spiro" />
    <inkscape:path-effect
       lpeversion="1"
       is_visible="true"
       id="path-effect1607"
       effect="spiro" />
    <inkscape:path-effect
       lpeversion="1"
       is_visible="true"
       id="path-effect1605"
       effect="spiro" />
    <inkscape:path-effect
       lpeversion="1"
       is_visible="true"
       id="path-effect780"
       effect="spiro" />
    <inkscape:path-effect
       lpeversion="1"
       is_visible="true"
       id="path-effect776"
       effect="spiro" />
    <inkscape:path-effect
       effect="spiro"
       id="path-effect769"
       is_visible="true"
       lpeversion="1" />
    <inkscape:path-effect
       lpeversion="1"
       is_visible="true"
       id="path-effect763"
       effect="spiro" />
    <inkscape:path-effect
       lpeversion="1"
       is_visible="true"
       id="path-effect759"
       effect="spiro" />
    <inkscape:path-effect
       lpeversion="1"
       is_visible="true"
       id="path-effect755"
       effect="spiro" />
    <inkscape:path-effect
       lpeversion="1"
       is_visible="true"
       id="path-effect744"
       effect="spiro" />
    <inkscape:path-effect
       lpeversion="1"
       is_visible="true"
       id="path-effect742"
       effect="spiro" />
    <inkscape:path-effect
       lpeversion="1"
       is_visible="true"
       id="path-effect740"
       effect="spiro" />
    <inkscape:path-effect
       effect="spiro"
       id="path-effect684"
       is_visible="true"
       lpeversion="1" />
    <inkscape:path-effect
       lpeversion="1"
       is_visible="true"
       id="path-effect680"
       effect="spiro" />
    <inkscape:path-effect
       lpeversion="1"
       is_visible="true"
       id="path-effect678"
       effect="spiro" />
    <inkscape:path-effect
       lpeversion="1"
       is_visible="true"
       id="path-effect676"
       effect="spiro" />
    <inkscape:path-effect
       lpeversion="1"
       is_visible="true"
       id="path-effect658"
       effect="spiro" />
    <inkscape:path-effect
       lpeversion="1"
       is_visible="true"
       id="path-effect654"
       effect="spiro" />
    <inkscape:path-effect
       lpeversion="1"
       is_visible="true"
       id="path-effect650"
       effect="spiro" />
    <inkscape:path-effect
       lpeversion="1"
       is_visible="true"
       id="path-effect646"
       effect="spiro" />
    <inkscape:path-effect
       lpeversion="1"
       is_visible="true"
       id="path-effect642"
       effect="spiro" />
    <inkscape:path-effect
       lpeversion="1"
       is_visible="true"
       id="path-effect630"
       effect="spiro" />
    <inkscape:path-effect
       lpeversion="1"
       is_visible="true"
       id="path-effect628"
       effect="spiro" />
    <inkscape:path-effect
       lpeversion="1"
       is_visible="true"
       id="path-effect626"
       effect="spiro" />
    <inkscape:path-effect
       effect="spiro"
       id="path-effect618"
       is_visible="true"
       lpeversion="1" />
    <inkscape:path-effect
       effect="spiro"
       id="path-effect612"
       is_visible="true"
       lpeversion="1" />
    <inkscape:path-effect
       effect="spiro"
       id="path-effect606"
       is_visible="true"
       lpeversion="1" />
    <inkscape:path-effect
       effect="spiro"
       id="path-effect2043"
       is_visible="true"
       lpeversion="1" />
    <inkscape:path-effect
       effect="spiro"
       id="path-effect319"
       is_visible="true"
       lpeversion="1" />
    <inkscape:path-effect
       lpeversion="1"
       is_visible="true"
       id="path-effect1168"
       effect="spiro" />
    <inkscape:path-effect
       lpeversion="1"
       is_visible="true"
       id="path-effect1164"
       effect="spiro" />
    <inkscape:path-effect
       lpeversion="1"
       is_visible="true"
       id="path-effect1160"
       effect="spiro" />
    <inkscape:path-effect
       lpeversion="1"
       is_visible="true"
       id="path-effect1156"
       effect="spiro" />
    <inkscape:path-effect
       lpeversion="1"
       is_visible="true"
       id="path-effect1152"
       effect="spiro" />
    <inkscape:path-effect
       lpeversion="1"
       is_visible="true"
       id="path-effect1148"
       effect="spiro" />
    <inkscape:path-effect
       lpeversion="1"
       is_visible="true"
       id="path-effect1144"
       effect="spiro" />
    <inkscape:path-effect
       lpeversion="1"
       is_visible="true"
       id="path-effect1140"
       effect="spiro" />
    <inkscape:path-effect
       effect="spiro"
       id="path-effect1462"
       is_visible="true"
       lpeversion="1" />
    <inkscape:path-effect
       effect="spiro"
       id="path-effect1453"
       is_visible="true"
       lpeversion="1" />
    <inkscape:path-effect
       effect="spiro"
       id="path-effect1441"
       is_visible="true"
       lpeversion="1" />
    <inkscape:path-effect
       lpeversion="1"
       is_visible="true"
       id="path-effect103"
       effect="spiro" />
    <inkscape:path-effect
       lpeversion="1"
       is_visible="true"
       id="path-effect99"
       effect="spiro" />
    <inkscape:path-effect
       lpeversion="1"
       is_visible="true"
       id="path-effect91"
       effect="spiro" />
    <inkscape:path-effect
       lpeversion="1"
       is_visible="true"
       id="path-effect87"
       effect="spiro" />
    <inkscape:path-effect
       lpeversion="1"
       is_visible="true"
       id="path-effect83"
       effect="spiro" />
    <inkscape:path-effect
       lpeversion="1"
       is_visible="true"
       id="path-effect79"
       effect="spiro" />
    <inkscape:path-effect
       lpeversion="1"
       is_visible="true"
       id="path-effect71"
       effect="spiro" />
    <inkscape:path-effect
       lpeversion="1"
       is_visible="true"
       id="path-effect67"
       effect="spiro" />
    <inkscape:path-effect
       lpeversion="1"
       is_visible="true"
       id="path-effect63"
       effect="spiro" />
    <inkscape:path-effect
       effect="spiro"
       id="path-effect44"
       is_visible="true"
       lpeversion="1" />
    <inkscape:path-effect
       effect="spiro"
       id="path-effect40"
       is_visible="true"
       lpeversion="1" />
    <inkscape:path-effect
       effect="spiro"
       id="path-effect36"
       is_visible="true"
       lpeversion="1" />
  </defs>
  <sodipodi:namedview
     id="base"
     pagecolor="#ffffff"
     bordercolor="#666666"
     borderopacity="1.0"
     inkscape:pageopacity="0.0"
     inkscape:pageshadow="2"
     inkscape:zoom="1.28"
     inkscape:cx="151.48848"
     inkscape:cy="176.37021"
     inkscape:document-units="mm"
     inkscape:current-layer="layer1"
     inkscape:document-rotation="0"
     showgrid="false"
     inkscape:window-width="1920"
     inkscape:window-height="1013"
     inkscape:window-x="-9"
     inkscape:window-y="-9"
     inkscape:window-maximized="1"
     inkscape:snap-global="true"
     units="px" />
  <metadata
     id="metadata5">
    <rdf:RDF>
      <cc:Work
         rdf:about="">
        <dc:format>image/svg+xml</dc:format>
        <dc:type
           rdf:resource="http://purl.org/dc/dcmitype/StillImage" />
        <dc:title></dc:title>
      </cc:Work>
    </rdf:RDF>
  </metadata>
  <g
     inkscape:label="Warstwa 1"
     inkscape:groupmode="layer"
     id="layer1">
    <g
       id="g49442"
       transform="matrix(0.94658104,0,0,0.94658104,-1683.7261,-819.22645)">
      <path
         id="circle9243"
         style="fill:#f9f9f9;fill-opacity:1;stroke:none;stroke-width:4.70291;stroke-linecap:round;stroke-linejoin:round;stroke-opacity:1"
         d="m 1885.1315,920.38829 c 0.4649,23.48511 -17.9482,45.64997 -41.1576,49.41955 -20.3235,3.81062 -42.5554,-6.16925 -52.5799,-24.39668 -10.0518,-17.32299 -8.6104,-40.65215 4.1898,-56.20857 11.9456,-15.21184 33.0493,-22.60099 51.7989,-17.45807 18.6241,4.65813 33.8665,20.71706 36.9573,39.75722 0.5301,2.93034 0.799,5.90845 0.7915,8.88655 z" />
      <path
         id="path9245"
         style="fill:#f8825e;fill-opacity:1;stroke-width:0.143602"
         d="m 1834.8896,870.1975 c -23.2748,-0.41859 -45.2628,17.64969 -49.2543,40.61351 -3.9213,19.57744 4.986,41.07894 21.9852,51.71664 16.2335,10.69873 38.6876,10.74717 54.8493,-0.13829 16.4691,-10.5951 25.5128,-31.33811 21.9666,-50.61587 -3.2586,-19.70318 -19.3037,-36.49051 -38.9005,-40.46562 -3.4931,-0.76157 -7.0706,-1.14326 -10.6463,-1.11037 z m 7.5483,2.22136 c 3.776,-0.76169 1.7091,3.61757 -1.0378,2.07982 -1.4369,2.81105 -9.3308,2.6106 -6.812,4.42294 -3.3048,0.78455 -9.7385,4.4752 -11.4681,0.98072 3.8182,-3.9655 8.75,-5.78722 14.3318,-7.02007 1.6394,-0.32847 3.3131,-0.50471 4.9861,-0.46341 z m -10.3256,6.68844 c -1.5048,0.30181 0.8699,0.79207 0,0 z m 38.0402,6.27302 c 11.4222,11.20148 16.7309,28.38797 13.2405,44.045 1.181,-9.32101 -2.5967,-18.15978 -5.7221,-26.70067 0.4162,-5.65075 -5.0158,-9.10995 -5.829,-14.20373 3.484,2.64718 -1.0628,-1.05139 -1.5578,-2.42868 z m -0.663,1.27865 c 1.2291,0.61406 -0.031,1.52222 0,0 z" />
      <path
         id="path9247"
         style="fill:#db7857;stroke-width:0.143602"
         d="m 1830.2357,962.18378 c 1.002,0.54379 -1.0265,0.49591 0,0 z" />
      <path
         id="path9249"
         style="fill:#db7857;stroke-width:0.143602"
         d="m 1860.7693,957.8011 c 0.3594,0.44119 -0.5898,0.20305 0,0 z" />
      <path
         id="path9251"
         style="fill:#db7857;stroke-width:0.143602"
         d="m 1863.3505,957.76185 c 6.3281,-0.13376 -1.9633,4.91861 -4.0482,5.92138 -8.3485,4.40731 -18.1122,4.34761 -27.299,4.63529 -2.8276,0.48997 -10.5225,-1.92747 -4.4195,-3.96193 6.1725,-1.99259 12.5739,-3.29859 19.1191,-3.29733 5.2086,-1.41508 10.6931,-1.78673 15.9239,-2.72503 0.2412,-0.19079 0.4825,-0.38158 0.7237,-0.57238 z" />
      <path
         id="path9253"
         style="fill:#db7857;stroke-width:0.143602"
         d="m 1863.0585,952.99045 c 0.6335,0.3752 -0.6685,0.44221 0,0 z" />
      <path
         id="path9255"
         style="fill:#db7857;stroke-width:0.143602"
         d="m 1876.8107,895.6047 c -0.1066,2.23815 2.2491,3.21359 0.4019,0.50145 z" />
      <path
         id="path9257"
         style="fill:#9b6853;stroke-width:0.143602"
         d="m 1829.9718,962.35936 c 1.0015,0.54375 -1.0262,0.49528 0,0 z" />
      <path
         id="path9259"
         style="fill:#9b6853;stroke-width:0.143602"
         d="m 1860.5054,957.97667 c 0.3594,0.44129 -0.5898,0.20293 0,0 z" />
      <path
         id="path9261"
         style="fill:#9b6853;stroke-width:0.143602"
         d="m 1843.0684,954.24306 c 0.7964,0.71002 -1.1436,0.33667 0,0 z" />
      <path
         id="path9263"
         style="fill:#9b6853;stroke-width:0.143602"
         d="m 1850.7004,950.79184 c 0.8743,1.92855 -2.3844,0.4005 0,0 z" />
      <path
         id="path9265"
         style="fill:#9b6853;stroke-width:0.143602"
         d="m 1852.7203,937.76585 c -0.9189,0.35496 0.7347,0.53902 0,0 z" />
      <path
         id="path9267"
         style="fill:#9b6853;stroke-width:0.143602"
         d="m 1864.2155,935.89088 c 0.6486,1.11567 -1.3723,0.98519 0,0 z" />
      <path
         id="path9269"
         style="fill:#9b6853;stroke-width:0.143602"
         d="m 1839.0285,935.144 c 0.8268,0.33257 -0.8269,0.33231 0,0 z" />
      <path
         id="path9271"
         style="fill:#9b6853;stroke-width:0.143602"
         d="m 1876.1603,933.44124 c -0.9345,0.15023 0.539,0.61778 0,0 z" />
      <path
         id="path9273"
         style="fill:#9b6853;stroke-width:0.143602"
         d="m 1832.6382,932.12833 c -0.6067,0.3299 0.6068,0.3299 0,0 z" />
      <path
         id="path9275"
         style="fill:#9b6853;stroke-width:0.143602"
         d="m 1849.2363,930.11794 c -0.9119,0.37265 0.739,0.53197 0,0 z" />
      <path
         id="path9277"
         style="fill:#9b6853;stroke-width:0.143602"
         d="m 1835.0794,928.25111 c -0.6786,0.48588 0.6787,0.48588 0,0 z" />
      <path
         id="path9279"
         style="fill:#9b6853;stroke-width:0.143602"
         d="m 1883.2595,923.92091 c 0,0.0456 0,0.0456 0,0 z" />
      <path
         id="path9281"
         style="fill:#9b6853;stroke-width:0.143602"
         d="m 1808.3591,923.51222 c -1.6471,1.13878 1.1908,1.33866 0,0 z" />
      <path
         id="path9283"
         style="fill:#9b6853;stroke-width:0.143602"
         d="m 1806.7574,921.99378 c -1.1036,-0.009 0.5455,0.62911 0,0 z" />
      <path
         id="path9285"
         style="fill:#9b6853;stroke-width:0.143602"
         d="m 1813.252,920.55664 c -1.0034,0.91788 1.995,-0.29269 0,0 z" />
      <path
         id="path9287"
         style="fill:#9b6853;stroke-width:0.143602"
         d="m 1850.948,883.14691 c -5.5173,2.08833 4.607,8.20506 2.6819,2.00367 -0.478,-1.068 -1.5375,-1.81994 -2.6819,-2.00367 z" />
      <path
         id="path9289"
         style="fill:#9b6853;stroke-width:0.143602"
         d="m 1824.2005,882.87206 c -2.0384,0.49401 1.1628,0.83663 0,0 z m 21.0124,0.20028 c -4.0484,2.91802 -0.3389,9.40427 1.976,3.16545 -0.3124,-1.23881 -1.263,-2.15263 -1.976,-3.16545 z" />
      <path
         id="path9291"
         style="fill:#9b6853;stroke-width:0.143602"
         d="m 1857.3142,880.08728 c 1.7195,-0.23734 -0.23,0.88697 0,0 z" />
      <path
         id="path9293"
         style="fill:#9b6853;stroke-width:0.143602"
         d="m 1831.8605,879.28592 c -1.0167,0.20803 0.4599,0.99905 0,0 z" />
      <path
         id="path9295"
         style="fill:#9b6853;stroke-width:0.143602"
         d="m 1831.8605,879.28592 c -0.7606,0.64967 0.7217,0.22513 0,0 z" />
      <path
         id="path9297"
         style="fill:#9b6853;stroke-width:0.143602"
         d="m 1869.7514,887.37138 c 1.2295,0.85402 -1.7013,-2.33239 0,0 z" />
      <path
         id="path9299"
         style="fill:#9b6853;stroke-width:0.143602"
         d="m 1872.7713,889.34085 c -2.1399,-2.35992 -0.8376,0.51995 0.5364,0.57845 z" />
      <path
         id="path9301"
         style="fill:#9b6853;stroke-width:0.143602"
         d="m 1870.3309,886.72997 c -0.01,0.2893 0.2554,-0.12885 0,0 z" />
      <path
         id="path9303"
         style="fill:#9b6853;stroke-width:0.143602"
         d="m 1829.3847,875.36212 c 3.1691,-0.73949 3.429,-1.38707 0,0 z" />
      <path
         id="path9305"
         style="fill:#9b6853;stroke-width:0.143602"
         d="m 1826.2219,876.72578 c 2.0082,-0.27486 2.3346,-1.12411 0,0 z" />
      <path
         id="path9307"
         style="fill:#9b6853;stroke-width:0.143602"
         d="m 1823.4191,878.97742 c 2.2989,-0.63469 3.0165,-1.35735 0,0 z" />
      <path
         id="path9309"
         style="fill:#9b6853;stroke-width:0.143602"
         d="m 1832.6954,879.64212 c -0.7149,0.31123 -0.1648,0.65856 0,0 z" />
      <path
         id="path9311"
         style="fill:#9b6853;stroke-width:0.143602"
         d="m 1833.2662,879.31175 c -0.065,0.0347 -0.065,0.0347 0,0 z" />
      <path
         id="path9313"
         style="fill:#9b6853;stroke-width:0.143602"
         d="m 1833.35,878.037 c 1.6964,1.27511 1.3313,-0.14606 -0.1067,0.16064 z" />
      <path
         id="path9315"
         style="fill:#9b6853;stroke-width:0.143602"
         d="m 1834.4529,877.85328 c -0.077,0.0523 -0.077,0.0523 0,0 z" />
      <path
         id="path9317"
         style="fill:#9b6853;stroke-width:0.143602"
         d="m 1835.7371,876.60208 c -1.0959,0.63613 -0.5564,1.42729 0,0 z" />
      <path
         id="path9319"
         style="fill:#9b6853;stroke-width:0.143602"
         d="m 1838.6608,876.7286 c -0.03,0.0235 -0.03,0.0235 0,0 z" />
      <path
         id="path9321"
         style="fill:#9b6853;stroke-width:0.143602"
         d="m 1839.6615,876.05293 c -0.037,0.035 -0.037,0.035 0,0 z" />
      <path
         id="path9323"
         style="fill:#9b6853;stroke-width:0.143602"
         d="m 1840.4713,874.8057 c -1.183,0.69674 0.039,1.81762 0,0 z" />
      <path
         id="path9325"
         style="fill:#9b6853;stroke-width:0.143602"
         d="m 1842.4379,872.41886 c -2.2112,-0.447 -10.5742,1.78042 -4.6961,0.47139 1.375,-0.8141 12.6498,1.12703 4.6961,-0.47139 z" />
      <path
         id="path9327"
         style="fill:#b46c53;fill-opacity:1;stroke-width:0.143602"
         d="m 1834.8896,870.1975 c -23.0685,-0.40476 -44.9026,17.32453 -49.1371,40.03335 -4.1291,19.42296 4.4011,40.89761 21.1013,51.79135 16.1622,11.08419 38.8393,11.44344 55.2299,0.61956 16.7254,-10.53375 25.9462,-31.48693 22.3431,-50.93584 -3.2929,-19.68505 -19.3367,-36.45159 -38.9275,-40.41003 -3.483,-0.74814 -7.0472,-1.11821 -10.6097,-1.09839 z m 7.5483,2.22136 c 4.1678,-0.55854 1.52,3.6686 -1.2838,2.20575 -1.4776,3.107 -7.7474,1.85254 -7.1878,4.71079 -1.649,2.48278 6.6508,1.257 8.6032,0.40831 5.8423,-1.71787 12.7711,-0.95044 17.4898,3.04231 0.5738,2.10394 -1.7802,3.0803 1.5818,2.63603 3.7324,-0.69521 7.9116,2.24482 10.3197,2.96577 -2.7227,-1.79148 -1.3328,-3.18689 0.4625,-0.71786 9.7655,11.36018 14.4846,27.51402 10.7855,42.23013 -0.2278,-2.32865 0.2001,-5.98931 -0.7917,-1.73458 -1.1393,2.7669 -2.7098,12.43209 -6.5772,7.84783 -4.1514,-2.21946 -9.4793,-2.76577 -13.9567,-0.0374 -3.6404,-2.14285 -4.469,6.40059 -6.827,1.13929 -2.0081,0.9717 -4.6485,2.58901 -5.4653,1.21061 -2.5315,1.26338 -2.2892,-6.89041 -4.9047,-2.17229 -3.6562,0.26766 -6.9586,-2.10678 -10.6052,-2.13807 -5.9573,-0.0552 -3.8533,-7.02547 -7.1472,-9.09615 0.7337,2.11911 2.4047,8.2422 -1.8443,7.09359 -1.7681,-1.66457 -1.5182,-9.88482 -3.2596,-4.28831 -3.5448,1.98367 -7.8986,-0.863 -11.6533,0.28876 -5.4334,-2.53388 -5.653,-10.29705 -2.7741,-14.77485 1.7051,-5.16586 0.1606,-10.97943 3.1889,-15.64178 1.0264,-3.839 7.3648,-0.74704 2.1632,0.11567 -3.0591,2.37299 -3.3619,9.10343 -1.8262,12.35649 2.3197,-2.15559 3.7381,-10.48598 7.6497,-8.18322 3.1312,-1.7089 5.3152,-6.57428 6.7167,-9.68989 -1.8461,-1.46777 -8.2031,0.5529 -8.104,-1.38766 1.6188,-2.5546 7.0704,-6.08565 6.1568,-10.28123 0.7707,-3.24939 7.1141,-5.74367 10.9497,-6.8844 2.5964,-0.97407 5.4033,-1.07357 8.1406,-1.22361 z m -25.6121,19.87009 c 0.9687,0.61766 -0.8599,1.51387 0,0 z m 0.447,1.06687 c 0.6334,0.37537 -0.6682,0.44199 0,0 z m -3.8857,0.14362 c 1.1681,0.44831 -1.4891,1.56436 0,0 z m 3.1876,0.18567 c 1.4549,0.50208 -1.2202,0.61637 0,0 z m 25.9667,10.39486 c -2.2495,1.11099 0.017,2.66158 0,0 z m 0.9786,1.78857 c -0.7978,0.66001 0.6372,0.70303 0,0 z m -7.8457,4.36977 c -2.6381,-0.24045 0.037,1.714 0,0 z m -2.0225,40.70186 c 0.3594,0.44129 -0.5898,0.20293 0,0 z m 2.0071,0.57445 c 3.3761,0.72571 -1.5967,7.19968 -1.0543,3.09865 -3.4554,1.01678 -0.1476,-2.98695 1.0543,-3.09865 z m -0.1526,0.34746 c -1.5865,1.37881 1.8284,0.344 0,0 z m -3.2905,0.37054 c 0.3593,0.4413 -0.5896,0.20287 0,0 z m 0.8852,0.019 c 1.1275,0.71616 -1.178,0.67561 0,0 z m -1.0911,0.86921 c 1.785,0.13571 -1.0433,0.54534 0,0 z m 30.7847,0.0451 c 0.6333,0.37531 -0.6681,0.44188 0,0 z m -31.5941,0.60413 c 1.2545,0.9822 -1.3045,-0.2138 0,0 z" />
      <path
         id="path9329"
         style="fill:#f9f9f9;fill-opacity:1;stroke-width:0.143602"
         d="m 1863.0869,957.93743 c 6.3277,-0.13294 -1.9638,4.91878 -4.0485,5.92178 -8.3484,4.40757 -18.1122,4.34703 -27.2989,4.63539 -2.8277,0.49021 -10.5228,-1.92761 -4.4196,-3.96209 6.1725,-1.99257 12.5738,-3.29887 19.119,-3.29757 5.2087,-1.4155 10.6933,-1.78651 15.9242,-2.72518 0.2413,-0.19078 0.4825,-0.38155 0.7238,-0.57233 z" />
      <path
         id="path9331"
         style="fill:#b26d53;fill-opacity:1;stroke-width:0.143602"
         d="m 1834.8896,870.1975 c -23.154,-0.41144 -45.0696,17.46714 -49.1831,40.28989 -3.3077,16.40001 2.0776,34.42672 14.3038,45.9475 -3.7043,-4.69354 -8.9417,-10.8659 -7.9861,-16.81509 -1.2036,-5.5272 -5.1382,-10.31566 -4.4187,-16.36874 -0.5492,-5.25631 -0.1388,-10.54124 1.7374,-15.50167 1.475,-4.98042 3.2427,-9.98711 6.3399,-14.21544 2.9711,-2.304 0.9088,-7.44448 5.2726,-9.07372 10.7176,-9.7514 25.7672,-15.47 40.3013,-13.56336 14.6275,2.46589 28.5119,11.22285 35.6964,24.4092 7.6428,13.23616 8.5629,29.92206 2.5398,43.9592 -6.3842,16.39583 -22.0794,29.16828 -39.8318,30.54105 -10.2947,1.14399 -20.7368,-1.36412 -29.6596,-6.53786 -2.5335,-1.11687 -7.7816,-5.1229 -8.1608,-5.1258 16.9549,15.41127 44.785,16.60358 62.956,2.61404 16.6922,-12.09349 24.4778,-35.03049 18.2613,-54.74236 -5.6443,-19.5633 -24.1672,-34.55913 -44.5475,-35.6982 -1.2049,-0.0849 -2.413,-0.12478 -3.6209,-0.11864 z m -42.2852,66.6815 c -0.9341,0.14983 0.5383,0.61796 0,0 z m 0.3862,7.87765 c -0.2377,1.06183 1.1661,0.14137 0,0 z" />
      <path
         id="path49067"
         style="fill:#000000;fill-opacity:0.474708;stroke-width:4.99321;stroke-linecap:round;stroke-linejoin:round"
         d="m 1843.8426,870.90769 c -13.7242,-2.4226 -27.8365,0.97745 -38.9568,9.38586 0.037,-0.0191 0.072,-0.0382 0.1088,-0.0572 0.071,-0.0359 0.1372,-0.0716 0.2065,-0.10685 0.071,-0.0354 0.1372,-0.0707 0.2072,-0.10568 48.8949,-11.76282 87.2245,38.43165 54.8913,83.33386 -0.06,0.0494 -0.1182,0.0997 -0.1784,0.14914 -0.06,0.0495 -0.1199,0.0988 -0.1797,0.14803 -0.06,0.0489 -0.1198,0.0984 -0.1802,0.14729 -0.06,0.0488 -0.1197,0.0978 -0.1802,0.14632 -0.061,0.0484 -0.1216,0.0971 -0.1817,0.14556 -0.06,0.0483 -0.1216,0.0967 -0.1823,0.14477 -0.062,0.0478 -0.1213,0.096 -0.1826,0.14384 -0.062,0.0478 -0.1213,0.0955 -0.1836,0.14306 -0.061,0.0478 -0.123,0.0951 -0.184,0.14228 -0.061,0.0473 -0.123,0.0944 -0.1847,0.14133 -0.044,0.0338 -0.09,0.0679 -0.1342,0.10176 13.8098,-7.21858 23.4872,-20.44878 26.1924,-35.80802 4.8123,-27.3234 -13.4116,-53.37897 -40.7044,-58.19678 z"
         sodipodi:nodetypes="ccssccsssssssssscscc" />
    </g>
  </g>
</svg>
