<?xml version="1.0" encoding="UTF-8" standalone="no"?>
<svg
   xmlns:dc="http://purl.org/dc/elements/1.1/"
   xmlns:cc="http://creativecommons.org/ns#"
   xmlns:rdf="http://www.w3.org/1999/02/22-rdf-syntax-ns#"
   xmlns:svg="http://www.w3.org/2000/svg"
   xmlns="http://www.w3.org/2000/svg"
   xmlns:xlink="http://www.w3.org/1999/xlink"
   xmlns:sodipodi="http://sodipodi.sourceforge.net/DTD/sodipodi-0.dtd"
   xmlns:inkscape="http://www.inkscape.org/namespaces/inkscape"
   inkscape:export-ydpi="96"
   inkscape:export-xdpi="96"
   inkscape:export-filename="C:\Users\Marek\Desktop\graphic\web_sun\uranus.png"
   width="400"
   height="400"
   viewBox="0 0 105.83333 105.83334"
   version="1.1"
   id="svg8"
   inkscape:version="1.0 (4035a4fb49, 2020-05-01)"
   sodipodi:docname="neptune.svg">
  <defs
     id="defs2">
    <inkscape:path-effect
       lpeversion="1"
       is_visible="true"
       id="path-effect5049"
       effect="spiro" />
    <inkscape:path-effect
       lpeversion="1"
       is_visible="true"
       id="path-effect5047"
       effect="spiro" />
    <inkscape:path-effect
       lpeversion="1"
       is_visible="true"
       id="path-effect5045"
       effect="spiro" />
    <inkscape:path-effect
       lpeversion="1"
       is_visible="true"
       id="path-effect9974"
       effect="spiro" />
    <inkscape:path-effect
       lpeversion="1"
       is_visible="true"
       id="path-effect9972"
       effect="spiro" />
    <inkscape:path-effect
       lpeversion="1"
       is_visible="true"
       id="path-effect9970"
       effect="spiro" />
    <inkscape:path-effect
       lpeversion="1"
       is_visible="true"
       id="path-effect9927"
       effect="spiro" />
    <inkscape:path-effect
       lpeversion="1"
       is_visible="true"
       id="path-effect9477"
       effect="spiro" />
    <inkscape:path-effect
       effect="spiro"
       id="path-effect9029"
       is_visible="true"
       lpeversion="1" />
    <inkscape:path-effect
       effect="spiro"
       id="path-effect9027"
       is_visible="true"
       lpeversion="1" />
    <inkscape:path-effect
       effect="spiro"
       id="path-effect9025"
       is_visible="true"
       lpeversion="1" />
    <inkscape:path-effect
       effect="spiro"
       id="path-effect9023"
       is_visible="true"
       lpeversion="1" />
    <inkscape:path-effect
       effect="spiro"
       id="path-effect9021"
       is_visible="true"
       lpeversion="1" />
    <inkscape:path-effect
       lpeversion="1"
       is_visible="true"
       id="path-effect9019"
       effect="spiro" />
    <inkscape:path-effect
       lpeversion="1"
       is_visible="true"
       id="path-effect1609"
       effect="spiro" />
    <inkscape:path-effect
       lpeversion="1"
       is_visible="true"
       id="path-effect1607"
       effect="spiro" />
    <inkscape:path-effect
       lpeversion="1"
       is_visible="true"
       id="path-effect1605"
       effect="spiro" />
    <inkscape:path-effect
       lpeversion="1"
       is_visible="true"
       id="path-effect780"
       effect="spiro" />
    <inkscape:path-effect
       lpeversion="1"
       is_visible="true"
       id="path-effect776"
       effect="spiro" />
    <inkscape:path-effect
       effect="spiro"
       id="path-effect769"
       is_visible="true"
       lpeversion="1" />
    <inkscape:path-effect
       lpeversion="1"
       is_visible="true"
       id="path-effect763"
       effect="spiro" />
    <inkscape:path-effect
       lpeversion="1"
       is_visible="true"
       id="path-effect759"
       effect="spiro" />
    <inkscape:path-effect
       lpeversion="1"
       is_visible="true"
       id="path-effect755"
       effect="spiro" />
    <inkscape:path-effect
       lpeversion="1"
       is_visible="true"
       id="path-effect744"
       effect="spiro" />
    <inkscape:path-effect
       lpeversion="1"
       is_visible="true"
       id="path-effect742"
       effect="spiro" />
    <inkscape:path-effect
       lpeversion="1"
       is_visible="true"
       id="path-effect740"
       effect="spiro" />
    <inkscape:path-effect
       effect="spiro"
       id="path-effect684"
       is_visible="true"
       lpeversion="1" />
    <inkscape:path-effect
       lpeversion="1"
       is_visible="true"
       id="path-effect680"
       effect="spiro" />
    <inkscape:path-effect
       lpeversion="1"
       is_visible="true"
       id="path-effect678"
       effect="spiro" />
    <inkscape:path-effect
       lpeversion="1"
       is_visible="true"
       id="path-effect676"
       effect="spiro" />
    <inkscape:path-effect
       lpeversion="1"
       is_visible="true"
       id="path-effect658"
       effect="spiro" />
    <inkscape:path-effect
       lpeversion="1"
       is_visible="true"
       id="path-effect654"
       effect="spiro" />
    <inkscape:path-effect
       lpeversion="1"
       is_visible="true"
       id="path-effect650"
       effect="spiro" />
    <inkscape:path-effect
       lpeversion="1"
       is_visible="true"
       id="path-effect646"
       effect="spiro" />
    <inkscape:path-effect
       lpeversion="1"
       is_visible="true"
       id="path-effect642"
       effect="spiro" />
    <inkscape:path-effect
       lpeversion="1"
       is_visible="true"
       id="path-effect630"
       effect="spiro" />
    <inkscape:path-effect
       lpeversion="1"
       is_visible="true"
       id="path-effect628"
       effect="spiro" />
    <inkscape:path-effect
       lpeversion="1"
       is_visible="true"
       id="path-effect626"
       effect="spiro" />
    <inkscape:path-effect
       effect="spiro"
       id="path-effect618"
       is_visible="true"
       lpeversion="1" />
    <inkscape:path-effect
       effect="spiro"
       id="path-effect612"
       is_visible="true"
       lpeversion="1" />
    <inkscape:path-effect
       effect="spiro"
       id="path-effect606"
       is_visible="true"
       lpeversion="1" />
    <inkscape:path-effect
       effect="spiro"
       id="path-effect2043"
       is_visible="true"
       lpeversion="1" />
    <inkscape:path-effect
       effect="spiro"
       id="path-effect319"
       is_visible="true"
       lpeversion="1" />
    <inkscape:path-effect
       lpeversion="1"
       is_visible="true"
       id="path-effect1168"
       effect="spiro" />
    <inkscape:path-effect
       lpeversion="1"
       is_visible="true"
       id="path-effect1164"
       effect="spiro" />
    <inkscape:path-effect
       lpeversion="1"
       is_visible="true"
       id="path-effect1160"
       effect="spiro" />
    <inkscape:path-effect
       lpeversion="1"
       is_visible="true"
       id="path-effect1156"
       effect="spiro" />
    <inkscape:path-effect
       lpeversion="1"
       is_visible="true"
       id="path-effect1152"
       effect="spiro" />
    <inkscape:path-effect
       lpeversion="1"
       is_visible="true"
       id="path-effect1148"
       effect="spiro" />
    <inkscape:path-effect
       lpeversion="1"
       is_visible="true"
       id="path-effect1144"
       effect="spiro" />
    <inkscape:path-effect
       lpeversion="1"
       is_visible="true"
       id="path-effect1140"
       effect="spiro" />
    <inkscape:path-effect
       effect="spiro"
       id="path-effect1462"
       is_visible="true"
       lpeversion="1" />
    <inkscape:path-effect
       effect="spiro"
       id="path-effect1453"
       is_visible="true"
       lpeversion="1" />
    <inkscape:path-effect
       effect="spiro"
       id="path-effect1441"
       is_visible="true"
       lpeversion="1" />
    <inkscape:path-effect
       lpeversion="1"
       is_visible="true"
       id="path-effect103"
       effect="spiro" />
    <inkscape:path-effect
       lpeversion="1"
       is_visible="true"
       id="path-effect99"
       effect="spiro" />
    <inkscape:path-effect
       lpeversion="1"
       is_visible="true"
       id="path-effect91"
       effect="spiro" />
    <inkscape:path-effect
       lpeversion="1"
       is_visible="true"
       id="path-effect87"
       effect="spiro" />
    <inkscape:path-effect
       lpeversion="1"
       is_visible="true"
       id="path-effect83"
       effect="spiro" />
    <inkscape:path-effect
       lpeversion="1"
       is_visible="true"
       id="path-effect79"
       effect="spiro" />
    <inkscape:path-effect
       lpeversion="1"
       is_visible="true"
       id="path-effect71"
       effect="spiro" />
    <inkscape:path-effect
       lpeversion="1"
       is_visible="true"
       id="path-effect67"
       effect="spiro" />
    <inkscape:path-effect
       lpeversion="1"
       is_visible="true"
       id="path-effect63"
       effect="spiro" />
    <inkscape:path-effect
       effect="spiro"
       id="path-effect44"
       is_visible="true"
       lpeversion="1" />
    <inkscape:path-effect
       effect="spiro"
       id="path-effect40"
       is_visible="true"
       lpeversion="1" />
    <inkscape:path-effect
       effect="spiro"
       id="path-effect36"
       is_visible="true"
       lpeversion="1" />
    <linearGradient
       gradientTransform="translate(-639.39693,-514.95283)"
       spreadMethod="reflect"
       gradientUnits="userSpaceOnUse"
       y2="1092.0673"
       x2="3185.2744"
       y1="1099.8823"
       x1="3139.4158"
       id="linearGradient1158"
       xlink:href="#linearGradient14775"
       inkscape:collect="always" />
    <linearGradient
       inkscape:collect="always"
       id="linearGradient14775">
      <stop
         style="stop-color:#c1caf1;stop-opacity:0"
         offset="0"
         id="stop14771" />
      <stop
         style="stop-color:#ececec;stop-opacity:1"
         offset="1"
         id="stop14773" />
    </linearGradient>
  </defs>
  <sodipodi:namedview
     id="base"
     pagecolor="#ffffff"
     bordercolor="#666666"
     borderopacity="1.0"
     inkscape:pageopacity="0.0"
     inkscape:pageshadow="2"
     inkscape:zoom="1.28"
     inkscape:cx="231.61746"
     inkscape:cy="156.50358"
     inkscape:document-units="mm"
     inkscape:current-layer="layer1"
     inkscape:document-rotation="0"
     showgrid="false"
     inkscape:window-width="1920"
     inkscape:window-height="1013"
     inkscape:window-x="-9"
     inkscape:window-y="-9"
     inkscape:window-maximized="1"
     inkscape:snap-global="true"
     units="px" />
  <metadata
     id="metadata5">
    <rdf:RDF>
      <cc:Work
         rdf:about="">
        <dc:format>image/svg+xml</dc:format>
        <dc:type
           rdf:resource="http://purl.org/dc/dcmitype/StillImage" />
        <dc:title></dc:title>
      </cc:Work>
    </rdf:RDF>
  </metadata>
  <g
     inkscape:label="Warstwa 1"
     inkscape:groupmode="layer"
     id="layer1">
    <g
       id="g14781"
       transform="matrix(0.54767448,0,0,0.54767448,-1347.7245,-293.10872)">
      <path
         d="m 2595.6478,707.54579 a 87.129309,87.129309 0 0 0 0.2465,-0.18759 87.129309,87.129309 0 0 0 0.3199,-0.24649 87.129309,87.129309 0 0 0 0.3189,-0.24754 87.129309,87.129309 0 0 0 0.3177,-0.24908 87.129309,87.129309 0 0 0 0.3168,-0.25064 87.129309,87.129309 0 0 0 0.3153,-0.25218 87.129309,87.129309 0 0 0 0.3141,-0.2532 87.129309,87.129309 0 0 0 0.3132,-0.25477 87.129309,87.129309 0 0 0 0.3116,-0.25683 87.129309,87.129309 0 0 0 0.3111,-0.25736 87.129309,87.129309 0 0 0 0.3095,-0.2594 87.129309,87.129309 0 0 0 0.308,-0.26098 87.129309,87.129309 0 0 0 0.307,-0.26199 87.129309,87.129309 0 0 0 0.3059,-0.26356 87.129309,87.129309 0 0 0 0.3049,-0.26508 87.129309,87.129309 0 0 0 0.3033,-0.26615 87.129309,87.129309 0 0 0 0.3024,-0.26767 87.129309,87.129309 0 0 0 0.3007,-0.26924 87.129309,87.129309 0 0 0 0.2997,-0.27078 87.129309,87.129309 0 0 0 0.2982,-0.27183 87.129309,87.129309 0 0 0 0.2971,-0.27337 87.129309,87.129309 0 0 0 0.2962,-0.2744 87.129309,87.129309 0 0 0 0.2945,-0.27646 87.129309,87.129309 0 0 0 0.2935,-0.2775 87.129309,87.129309 0 0 0 0.292,-0.27855 87.129309,87.129309 0 0 0 0.2904,-0.28009 87.129309,87.129309 0 0 0 0.2899,-0.28162 87.129309,87.129309 0 0 0 0.2879,-0.28268 87.129309,87.129309 0 0 0 0.2868,-0.28422 87.129309,87.129309 0 0 0 0.2858,-0.28524 87.129309,87.129309 0 0 0 0.2842,-0.28681 87.129309,87.129309 0 0 0 0.2826,-0.28837 87.129309,87.129309 0 0 0 0.2817,-0.28938 87.129309,87.129309 0 0 0 0.2801,-0.29093 87.129309,87.129309 0 0 0 0.2785,-0.29197 87.129309,87.129309 0 0 0 0.2775,-0.29303 87.129309,87.129309 0 0 0 0.2759,-0.29453 87.129309,87.129309 0 0 0 0.275,-0.29612 87.129309,87.129309 0 0 0 0.2733,-0.29713 87.129309,87.129309 0 0 0 0.2718,-0.29818 87.129309,87.129309 0 0 0 0.2708,-0.29972 87.129309,87.129309 0 0 0 0.2693,-0.30076 87.129309,87.129309 0 0 0 0.2677,-0.30231 87.129309,87.129309 0 0 0 0.2666,-0.30334 87.129309,87.129309 0 0 0 0.2646,-0.30488 87.129309,87.129309 0 0 0 0.2636,-0.30594 87.129309,87.129309 0 0 0 0.2625,-0.30694 87.129309,87.129309 0 0 0 0.2604,-0.30801 87.129309,87.129309 0 0 0 0.2594,-0.30953 87.129309,87.129309 0 0 0 0.2579,-0.31057 87.129309,87.129309 0 0 0 0.2563,-0.31213 87.129309,87.129309 0 0 0 0.2553,-0.31316 87.129309,87.129309 0 0 0 0.2532,-0.31419 87.129309,87.129309 0 0 0 0.2522,-0.31523 87.129309,87.129309 0 0 0 0.2506,-0.31678 87.129309,87.129309 0 0 0 0.2491,-0.31729 87.129309,87.129309 0 0 0 0.2475,-0.31935 87.129309,87.129309 0 0 0 0.246,-0.31988 87.129309,87.129309 0 0 0 0.245,-0.32092 87.129309,87.129309 0 0 0 0.2434,-0.32247 87.129309,87.129309 0 0 0 0.2413,-0.32348 87.129309,87.129309 0 0 0 0.2403,-0.32454 87.129309,87.129309 0 0 0 0.2387,-0.32557 87.129309,87.129309 0 0 0 0.2372,-0.32657 87.129309,87.129309 0 0 0 0.2356,-0.32817 87.129309,87.129309 0 0 0 0.2341,-0.32864 87.129309,87.129309 0 0 0 0.2326,-0.33022 87.129309,87.129309 0 0 0 0.231,-0.33073 87.129309,87.129309 0 0 0 0.2294,-0.33229 87.129309,87.129309 0 0 0 0.2284,-0.3333 87.129309,87.129309 0 0 0 0.2264,-0.33435 87.129309,87.129309 0 0 0 0.2248,-0.33539 87.129309,87.129309 0 0 0 0.2232,-0.33589 87.129309,87.129309 0 0 0 0.2217,-0.33745 87.129309,87.129309 0 0 0 0.2207,-0.33848 87.129309,87.129309 0 0 0 0.2186,-0.33951 87.129309,87.129309 0 0 0 0.217,-0.34055 87.129309,87.129309 0 0 0 0.2155,-0.34107 87.129309,87.129309 0 0 0 0.2139,-0.34261 87.129309,87.129309 0 0 0 0.2124,-0.34364 87.129309,87.129309 0 0 0 0.2103,-0.34417 87.129309,87.129309 0 0 0 0.2093,-0.3452 87.129309,87.129309 0 0 0 0.2078,-0.34623 87.129309,87.129309 0 0 0 0.2056,-0.34777 87.129309,87.129309 0 0 0 0.2042,-0.3478 87.129309,87.129309 0 0 0 0.2031,-0.34933 87.129309,87.129309 0 0 0 0.201,-0.35036 87.129309,87.129309 0 0 0 0.1995,-0.35089 87.129309,87.129309 0 0 0 0.1979,-0.35192 87.129309,87.129309 0 0 0 0.1958,-0.35293 87.129309,87.129309 0 0 0 0.1948,-0.35348 87.129309,87.129309 0 0 0 0.1928,-0.35502 87.129309,87.129309 0 0 0 0.1912,-0.35552 87.129309,87.129309 0 0 0 0.1896,-0.35658 87.129309,87.129309 0 0 0 0.1882,-0.35708 87.129309,87.129309 0 0 0 0.186,-0.35812 87.129309,87.129309 0 0 0 0.185,-0.35914 87.129309,87.129309 0 0 0 0.1829,-0.3602 87.129309,87.129309 0 0 0 0.1809,-0.36068 87.129309,87.129309 0 0 0 0.1798,-0.36124 87.129309,87.129309 0 0 0 0.1778,-0.36277 87.129309,87.129309 0 0 0 0.1762,-0.36327 87.129309,87.129309 0 0 0 0.1747,-0.36381 87.129309,87.129309 0 0 0 0.1731,-0.36483 87.129309,87.129309 0 0 0 0.171,-0.36586 87.129309,87.129309 0 0 0 0.1695,-0.3664 87.129309,87.129309 0 0 0 0.168,-0.3669 87.129309,87.129309 0 0 0 0.1659,-0.36795 87.129309,87.129309 0 0 0 0.1643,-0.36897 87.129309,87.129309 0 0 0 0.1628,-0.36949 87.129309,87.129309 0 0 0 0.1612,-0.37052 87.129309,87.129309 0 0 0 0.1592,-0.37102 87.129309,87.129309 0 0 0 0.1576,-0.37156 87.129309,87.129309 0 0 0 0.1555,-0.37258 87.129309,87.129309 0 0 0 0.154,-0.37312 87.129309,87.129309 0 0 0 0.1525,-0.37362 87.129309,87.129309 0 0 0 0.1509,-0.37465 87.129309,87.129309 0 0 0 0.1488,-0.37515 87.129309,87.129309 0 0 0 0.1473,-0.37621 87.129309,87.129309 0 0 0 0.1452,-0.37674 87.129309,87.129309 0 0 0 0.1436,-0.37722 87.129309,87.129309 0 0 0 0.1417,-0.37827 87.129309,87.129309 0 0 0 0.1405,-0.37828 87.129309,87.129309 0 0 0 0.138,-0.3793 87.129309,87.129309 0 0 0 0.1369,-0.37981 87.129309,87.129309 0 0 0 0.1349,-0.38087 87.129309,87.129309 0 0 0 0.1328,-0.38087 87.129309,87.129309 0 0 0 0.1318,-0.38187 87.129309,87.129309 0 0 0 0.1292,-0.3824 87.129309,87.129309 0 0 0 0.1281,-0.38294 87.129309,87.129309 0 0 0 0.1256,-0.38396 87.129309,87.129309 0 0 0 0.1245,-0.38394 87.129309,87.129309 0 0 0 0.1225,-0.38449 87.129309,87.129309 0 0 0 0.1204,-0.3855 87.129309,87.129309 0 0 0 0.1189,-0.38602 87.129309,87.129309 0 0 0 0.1173,-0.38603 87.129309,87.129309 0 0 0 0.1152,-0.38706 87.129309,87.129309 0 0 0 0.1137,-0.38756 87.129309,87.129309 0 0 0 0.1116,-0.38809 87.129309,87.129309 0 0 0 0.1101,-0.3886 87.129309,87.129309 0 0 0 0.108,-0.38862 87.129309,87.129309 0 0 0 0.1065,-0.38962 87.129309,87.129309 0 0 0 0.1044,-0.39018 87.129309,87.129309 0 0 0 0.1023,-0.39016 87.129309,87.129309 0 0 0 0.1013,-0.39118 87.129309,87.129309 0 0 0 0.099,-0.39119 87.129309,87.129309 0 0 0 0.098,-0.39172 87.129309,87.129309 0 0 0 0.095,-0.39272 87.129309,87.129309 0 0 0 0.093,-0.39274 87.129309,87.129309 0 0 0 0.092,-0.39275 87.129309,87.129309 0 0 0 0.09,-0.39378 87.129309,87.129309 0 0 0 0.088,-0.39428 87.129309,87.129309 0 0 0 0.086,-0.39428 87.129309,87.129309 0 0 0 0.084,-0.39482 87.129309,87.129309 0 0 0 0.083,-0.39481 87.129309,87.129309 0 0 0 0.081,-0.39584 87.129309,87.129309 0 0 0 0.079,-0.39584 87.129309,87.129309 0 0 0 0.077,-0.39638 87.129309,87.129309 0 0 0 0.075,-0.39687 87.129309,87.129309 0 0 0 0.073,-0.39688 87.129309,87.129309 0 0 0 0.072,-0.39737 87.129309,87.129309 0 0 0 0.07,-0.39741 87.129309,87.129309 0 0 0 0.068,-0.3979 87.129309,87.129309 0 0 0 0.066,-0.39841 87.129309,87.129309 0 0 0 0.064,-0.39844 87.129309,87.129309 0 0 0 0.062,-0.39894 87.129309,87.129309 0 0 0 0.061,-0.39947 87.129309,87.129309 0 0 0 0.058,-0.39944 87.129309,87.129309 0 0 0 0.057,-0.39947 87.129309,87.129309 0 0 0 0.055,-0.39997 87.129309,87.129309 0 0 0 0.053,-0.4005 87.129309,87.129309 0 0 0 0.051,-0.4005 87.129309,87.129309 0 0 0 0.05,-0.40047 87.129309,87.129309 0 0 0 0.048,-0.40103 87.129309,87.129309 0 0 0 0.045,-0.401 87.129309,87.129309 0 0 0 0.044,-0.40153 87.129309,87.129309 0 0 0 0.042,-0.40151 87.129309,87.129309 0 0 0 0.04,-0.40153 87.129309,87.129309 0 0 0 0.038,-0.40203 87.129309,87.129309 0 0 0 0.037,-0.40206 87.129309,87.129309 0 0 0 0.035,-0.40257 87.129309,87.129309 0 0 0 0.032,-0.40203 87.129309,87.129309 0 0 0 0.031,-0.40257 87.129309,87.129309 0 0 0 0.029,-0.40306 87.129309,87.129309 0 0 0 0.027,-0.40257 87.129309,87.129309 0 0 0 0.025,-0.40306 87.129309,87.129309 0 0 0 0.023,-0.40309 87.129309,87.129309 0 0 0 0.022,-0.40307 87.129309,87.129309 0 0 0 0.02,-0.4036 87.129309,87.129309 0 0 0 0.018,-0.40306 87.129309,87.129309 0 0 0 0.016,-0.4036 87.129309,87.129309 0 0 0 0.014,-0.40359 87.129309,87.129309 0 0 0 0.012,-0.4031 87.129309,87.129309 0 0 0 0.01,-0.40409 87.129309,87.129309 0 0 0 0.01,-0.4036 87.129309,87.129309 0 0 0 0.01,-0.4036 87.129309,87.129309 0 0 0 0.01,-0.40359 87.129309,87.129309 0 0 0 0,-0.4036 87.129309,87.129309 0 0 0 0,-0.40409 87.129309,87.129309 0 0 0 0,-0.39688 87.129309,87.129309 0 0 0 0,-0.40359 87.129309,87.129309 0 0 0 0,-0.4036 87.129309,87.129309 0 0 0 -0.01,-0.4041 87.129309,87.129309 0 0 0 -0.01,-0.40359 87.129309,87.129309 0 0 0 -0.01,-0.4036 87.129309,87.129309 0 0 0 -0.012,-0.40359 87.129309,87.129309 0 0 0 -0.014,-0.4036 87.129309,87.129309 0 0 0 -0.015,-0.40307 87.129309,87.129309 0 0 0 -0.018,-0.40359 87.129309,87.129309 0 0 0 -0.02,-0.40309 87.129309,87.129309 0 0 0 -0.021,-0.40307 87.129309,87.129309 0 0 0 -0.023,-0.40307 87.129309,87.129309 0 0 0 -0.025,-0.40309 87.129309,87.129309 0 0 0 -0.027,-0.40307 87.129309,87.129309 0 0 0 -0.029,-0.40256 87.129309,87.129309 0 0 0 -0.031,-0.40256 87.129309,87.129309 0 0 0 -0.032,-0.40257 87.129309,87.129309 0 0 0 -0.035,-0.40203 87.129309,87.129309 0 0 0 -0.037,-0.40203 87.129309,87.129309 0 0 0 -0.038,-0.40207 87.129309,87.129309 0 0 0 -0.04,-0.4015 87.129309,87.129309 0 0 0 -0.042,-0.40153 87.129309,87.129309 0 0 0 -0.043,-0.40153 87.129309,87.129309 0 0 0 -0.046,-0.40101 87.129309,87.129309 0 0 0 -0.048,-0.401 87.129309,87.129309 0 0 0 -0.05,-0.40103 87.129309,87.129309 0 0 0 -0.051,-0.40047 87.129309,87.129309 0 0 0 -0.053,-0.4 87.129309,87.129309 0 0 0 -0.055,-0.39997 87.129309,87.129309 0 0 0 -0.057,-0.39997 87.129309,87.129309 0 0 0 -0.059,-0.39947 87.129309,87.129309 0 0 0 -0.061,-0.39894 87.129309,87.129309 0 0 0 -0.062,-0.39894 87.129309,87.129309 0 0 0 -0.065,-0.3984 87.129309,87.129309 0 0 0 -0.066,-0.39844 87.129309,87.129309 0 0 0 -0.068,-0.39791 87.129309,87.129309 0 0 0 -0.07,-0.3979 87.129309,87.129309 0 0 0 -0.072,-0.39741 87.129309,87.129309 0 0 0 -0.073,-0.39687 87.129309,87.129309 0 0 0 -0.075,-0.39635 87.129309,87.129309 0 0 0 -0.077,-0.39637 87.129309,87.129309 0 0 0 -0.079,-0.39635 87.129309,87.129309 0 0 0 -0.081,-0.39531 87.129309,87.129309 0 0 0 -0.083,-0.39534 87.129309,87.129309 0 0 0 -0.084,-0.39481 87.129309,87.129309 0 0 0 -0.086,-0.39429 87.129309,87.129309 0 0 0 -0.088,-0.39377 87.129309,87.129309 0 0 0 -0.09,-0.39378 87.129309,87.129309 0 0 0 -0.092,-0.39325 87.129309,87.129309 0 0 0 -0.093,-0.39275 87.129309,87.129309 0 0 0 -0.095,-0.39222 87.129309,87.129309 0 0 0 -0.097,-0.39172 87.129309,87.129309 0 0 0 -0.099,-0.39168 87.129309,87.129309 0 0 0 -0.1008,-0.39069 87.129309,87.129309 0 0 0 -0.1028,-0.39068 87.129309,87.129309 0 0 0 -0.1044,-0.39016 87.129309,87.129309 0 0 0 -0.1065,-0.38912 87.129309,87.129309 0 0 0 -0.108,-0.38912 87.129309,87.129309 0 0 0 -0.1095,-0.3886 87.129309,87.129309 0 0 0 -0.1122,-0.38809 87.129309,87.129309 0 0 0 -0.1131,-0.38758 87.129309,87.129309 0 0 0 -0.1152,-0.38653 87.129309,87.129309 0 0 0 -0.1174,-0.38653 87.129309,87.129309 0 0 0 -0.1188,-0.38603 87.129309,87.129309 0 0 0 -0.1204,-0.385 87.129309,87.129309 0 0 0 -0.1225,-0.38499 87.129309,87.129309 0 0 0 -0.1245,-0.38397 87.129309,87.129309 0 0 0 -0.1256,-0.38393 87.129309,87.129309 0 0 0 -0.1282,-0.38293 87.129309,87.129309 0 0 0 -0.1292,-0.38241 87.129309,87.129309 0 0 0 -0.1312,-0.3819 87.129309,87.129309 0 0 0 -0.1334,-0.38084 87.129309,87.129309 0 0 0 -0.1348,-0.38086 87.129309,87.129309 0 0 0 -0.1364,-0.37981 87.129309,87.129309 0 0 0 -0.1385,-0.37931 87.129309,87.129309 0 0 0 -0.1401,-0.3788 87.129309,87.129309 0 0 0 -0.1416,-0.37775 87.129309,87.129309 0 0 0 -0.1436,-0.37724 87.129309,87.129309 0 0 0 -0.1458,-0.37672 87.129309,87.129309 0 0 0 -0.1467,-0.37621 87.129309,87.129309 0 0 0 -0.1489,-0.37515 87.129309,87.129309 0 0 0 -0.1508,-0.37468 87.129309,87.129309 0 0 0 -0.1525,-0.37362 87.129309,87.129309 0 0 0 -0.154,-0.37361 87.129309,87.129309 0 0 0 -0.1555,-0.37206 87.129309,87.129309 0 0 0 -0.1576,-0.37208 87.129309,87.129309 0 0 0 -0.1592,-0.37103 87.129309,87.129309 0 0 0 -0.1607,-0.37002 87.129309,87.129309 0 0 0 -0.1628,-0.36946 87.129309,87.129309 0 0 0 -0.1643,-0.36899 87.129309,87.129309 0 0 0 -0.1664,-0.36793 87.129309,87.129309 0 0 0 -0.1675,-0.36743 87.129309,87.129309 0 0 0 -0.1694,-0.36637 87.129309,87.129309 0 0 0 -0.1716,-0.36536 87.129309,87.129309 0 0 0 -0.1726,-0.36483 87.129309,87.129309 0 0 0 -0.1747,-0.36433 87.129309,87.129309 0 0 0 -0.1762,-0.36328 87.129309,87.129309 0 0 0 -0.1778,-0.36224 87.129309,87.129309 0 0 0 -0.1798,-0.36174 87.129309,87.129309 0 0 0 -0.1814,-0.3607 87.129309,87.129309 0 0 0 -0.1829,-0.36018 87.129309,87.129309 0 0 0 -0.1845,-0.35864 87.129309,87.129309 0 0 0 -0.186,-0.35865 87.129309,87.129309 0 0 0 -0.1881,-0.35708 87.129309,87.129309 0 0 0 -0.1897,-0.35655 87.129309,87.129309 0 0 0 -0.1912,-0.35555 87.129309,87.129309 0 0 0 -0.1928,-0.35449 87.129309,87.129309 0 0 0 -0.1943,-0.35398 87.129309,87.129309 0 0 0 -0.1963,-0.35296 87.129309,87.129309 0 0 0 -0.1979,-0.35192 87.129309,87.129309 0 0 0 -0.1995,-0.35089 87.129309,87.129309 0 0 0 -0.201,-0.35036 87.129309,87.129309 0 0 0 -0.2026,-0.34933 87.129309,87.129309 0 0 0 -0.2041,-0.3483 87.129309,87.129309 0 0 0 -0.2062,-0.34726 87.129309,87.129309 0 0 0 -0.2073,-0.34624 87.129309,87.129309 0 0 0 -0.2092,-0.3452 87.129309,87.129309 0 0 0 -0.2109,-0.34467 87.129309,87.129309 0 0 0 -0.2119,-0.34314 87.129309,87.129309 0 0 0 -0.2139,-0.34261 87.129309,87.129309 0 0 0 -0.2155,-0.34157 87.129309,87.129309 0 0 0 -0.217,-0.34005 87.129309,87.129309 0 0 0 -0.2186,-0.33951 87.129309,87.129309 0 0 0 -0.2201,-0.33848 87.129309,87.129309 0 0 0 -0.2217,-0.33745 87.129309,87.129309 0 0 0 -0.2238,-0.33642 87.129309,87.129309 0 0 0 -0.2248,-0.33536 87.129309,87.129309 0 0 0 -0.2263,-0.33435 87.129309,87.129309 0 0 0 -0.2279,-0.3328 87.129309,87.129309 0 0 0 -0.2295,-0.33229 87.129309,87.129309 0 0 0 -0.231,-0.33123 87.129309,87.129309 0 0 0 -0.2325,-0.33022 87.129309,87.129309 0 0 0 -0.2341,-0.32867 87.129309,87.129309 0 0 0 -0.2357,-0.32814 87.129309,87.129309 0 0 0 -0.2371,-0.3266 87.129309,87.129309 0 0 0 -0.2388,-0.32554 87.129309,87.129309 0 0 0 -0.2403,-0.32454 87.129309,87.129309 0 0 0 -0.2418,-0.3235 87.129309,87.129309 0 0 0 -0.2429,-0.32245 87.129309,87.129309 0 0 0 -0.245,-0.32092 87.129309,87.129309 0 0 0 -0.2459,-0.31988 87.129309,87.129309 0 0 0 -0.2476,-0.31935 87.129309,87.129309 0 0 0 -0.249,-0.31729 87.129309,87.129309 0 0 0 -0.2507,-0.31678 87.129309,87.129309 0 0 0 -0.2522,-0.31523 87.129309,87.129309 0 0 0 -0.2532,-0.31472 87.129309,87.129309 0 0 0 -0.2553,-0.31263 87.129309,87.129309 0 0 0 -0.2563,-0.31213 87.129309,87.129309 0 0 0 -0.2578,-0.31057 87.129309,87.129309 0 0 0 -0.2589,-0.30953 87.129309,87.129309 0 0 0 -0.261,-0.30853 87.129309,87.129309 0 0 0 -0.262,-0.30695 87.129309,87.129309 0 0 0 -0.2635,-0.30594 87.129309,87.129309 0 0 0 -0.2652,-0.30437 87.129309,87.129309 0 0 0 -0.2661,-0.30332 87.129309,87.129309 0 0 0 -0.2677,-0.30231 87.129309,87.129309 0 0 0 -0.2692,-0.30075 87.129309,87.129309 0 0 0 -0.2708,-0.29972 87.129309,87.129309 0 0 0 -0.2718,-0.29872 87.129309,87.129309 0 0 0 -0.2734,-0.29713 87.129309,87.129309 0 0 0 -0.2749,-0.29559 87.129309,87.129309 0 0 0 -0.276,-0.29506 87.129309,87.129309 0 0 0 -0.2775,-0.293 87.129309,87.129309 0 0 0 -0.2785,-0.292 87.129309,87.129309 0 0 0 -0.2801,-0.29093 87.129309,87.129309 0 0 0 -0.2816,-0.28938 87.129309,87.129309 0 0 0 -0.2827,-0.28837 87.129309,87.129309 0 0 0 -0.2842,-0.28678 87.129309,87.129309 0 0 0 -0.2858,-0.28527 87.129309,87.129309 0 0 0 -0.2868,-0.28422 87.129309,87.129309 0 0 0 -0.2878,-0.28265 87.129309,87.129309 0 0 0 -0.2894,-0.28165 87.129309,87.129309 0 0 0 -0.2909,-0.28009 87.129309,87.129309 0 0 0 -0.292,-0.27905 87.129309,87.129309 0 0 0 -0.293,-0.2775 87.129309,87.129309 0 0 0 -0.2946,-0.27596 87.129309,87.129309 0 0 0 -0.2961,-0.2749 87.129309,87.129309 0 0 0 -0.2971,-0.27287 87.129309,87.129309 0 0 0 -0.2982,-0.27233 87.129309,87.129309 0 0 0 -0.2997,-0.27027 87.129309,87.129309 0 0 0 -0.3013,-0.26924 87.129309,87.129309 0 0 0 -0.3018,-0.26819 87.129309,87.129309 0 0 0 -0.3033,-0.26614 87.129309,87.129309 0 0 0 -0.3049,-0.26509 87.129309,87.129309 0 0 0 -0.3059,-0.26355 87.129309,87.129309 0 0 0 -0.307,-0.26201 87.129309,87.129309 0 0 0 -0.308,-0.26096 87.129309,87.129309 0 0 0 -0.3095,-0.2589 87.129309,87.129309 0 0 0 -0.3106,-0.25786 87.129309,87.129309 0 0 0 -0.3121,-0.25683 87.129309,87.129309 0 0 0 -0.3132,-0.25477 87.129309,87.129309 0 0 0 -0.3142,-0.25373 87.129309,87.129309 0 0 0 -0.3152,-0.25168 87.129309,87.129309 0 0 0 -0.3168,-0.25061 87.129309,87.129309 0 0 0 -0.3178,-0.24908 87.129309,87.129309 0 0 0 -0.3188,-0.24805 87.129309,87.129309 0 0 0 -0.3199,-0.24598 87.129309,87.129309 0 0 0 -0.3209,-0.24445 87.129309,87.129309 0 0 0 -0.3225,-0.24339 87.129309,87.129309 0 0 0 -0.3235,-0.24183 87.129309,87.129309 0 0 0 -0.3245,-0.23979 87.129309,87.129309 0 0 0 -0.3256,-0.23873 87.129309,87.129309 0 0 0 -0.3266,-0.2372 87.129309,87.129309 0 0 0 -0.3281,-0.23564 87.129309,87.129309 0 0 0 -0.3287,-0.2341 87.129309,87.129309 0 0 0 -0.3302,-0.23307 87.129309,87.129309 0 0 0 -0.3307,-0.23098 87.129309,87.129309 0 0 0 -0.3323,-0.22945 87.129309,87.129309 0 0 0 -0.3333,-0.22789 87.129309,87.129309 0 0 0 -0.3343,-0.22635 87.129309,87.129309 0 0 0 -0.3354,-0.22532 87.129309,87.129309 0 0 0 -0.3364,-0.22323 87.129309,87.129309 0 0 0 -0.337,-0.22169 87.129309,87.129309 0 0 0 -0.3384,-0.22013 87.129309,87.129309 0 0 0 -0.3396,-0.2186 87.129309,87.129309 0 0 0 -0.3405,-0.21704 87.129309,87.129309 0 0 0 -0.3416,-0.2155 87.129309,87.129309 0 0 0 -0.3421,-0.21395 87.129309,87.129309 0 0 0 -0.3437,-0.21238 87.129309,87.129309 0 0 0 -0.3441,-0.21084 87.129309,87.129309 0 0 0 -0.3452,-0.20876 87.129309,87.129309 0 0 0 -0.3468,-0.20775 87.129309,87.129309 0 0 0 -0.3472,-0.20619 87.129309,87.129309 0 0 0 -0.3483,-0.20413 87.129309,87.129309 0 0 0 -0.3488,-0.20256 87.129309,87.129309 0 0 0 -0.3504,-0.20103 87.129309,87.129309 0 0 0 -0.3509,-0.19947 87.129309,87.129309 0 0 0 -0.3519,-0.19791 87.129309,87.129309 0 0 0 -0.353,-0.19637 87.129309,87.129309 0 0 0 -0.3539,-0.19431 87.129309,87.129309 0 0 0 -0.3545,-0.19275 87.129309,87.129309 0 0 0 -0.3556,-0.19172 87.129309,87.129309 0 0 0 -0.3565,-0.18915 87.129309,87.129309 0 0 0 -0.3571,-0.18809 87.129309,87.129309 0 0 0 -0.3582,-0.18656 87.129309,87.129309 0 0 0 -0.3591,-0.18447 87.129309,87.129309 0 0 0 -0.3602,-0.18293 87.129309,87.129309 0 0 0 -0.3607,-0.1814 87.129309,87.129309 0 0 0 -0.3612,-0.17931 87.129309,87.129309 0 0 0 -0.3628,-0.17827 87.129309,87.129309 0 0 0 -0.3633,-0.17624 87.129309,87.129309 0 0 0 -0.3638,-0.17465 87.129309,87.129309 0 0 0 -0.3648,-0.17262 87.129309,87.129309 0 0 0 -0.3659,-0.17155 87.129309,87.129309 0 0 0 -0.3664,-0.16949 87.129309,87.129309 0 0 0 -0.3669,-0.16743 87.129309,87.129309 0 0 0 -0.3684,-0.1664 87.129309,87.129309 0 0 0 -0.3684,-0.16433 87.129309,87.129309 0 0 0 -0.3695,-0.1628 87.129309,87.129309 0 0 0 -0.3706,-0.16071 87.129309,87.129309 0 0 0 -0.371,-0.15917 87.129309,87.129309 0 0 0 -0.3715,-0.15761 87.129309,87.129309 0 0 0 -0.3726,-0.15606 87.129309,87.129309 0 0 0 -0.3731,-0.15398 87.129309,87.129309 0 0 0 -0.3737,-0.15246 87.129309,87.129309 0 0 0 -0.3746,-0.15038 87.129309,87.129309 0 0 0 -0.3757,-0.14883 87.129309,87.129309 0 0 0 -0.3757,-0.14727 87.129309,87.129309 0 0 0 -0.3767,-0.1452 87.129309,87.129309 0 0 0 -0.3773,-0.14367 87.129309,87.129309 0 0 0 -0.3782,-0.14211 87.129309,87.129309 0 0 0 -0.3783,-0.14004 87.129309,87.129309 0 0 0 -0.3793,-0.13849 87.129309,87.129309 0 0 0 -0.3803,-0.13644 87.129309,87.129309 0 0 0 -0.3804,-0.13486 87.129309,87.129309 0 0 0 -0.3814,-0.13332 87.129309,87.129309 0 0 0 -0.3813,-0.13126 87.129309,87.129309 0 0 0 -0.3824,-0.12973 87.129309,87.129309 0 0 0 -0.3829,-0.12763 87.129309,87.129309 0 0 0 -0.384,-0.1261 87.129309,87.129309 0 0 0 -0.384,-0.12401 87.129309,87.129309 0 0 0 -0.385,-0.12248 87.129309,87.129309 0 0 0 -0.3849,-0.12091 87.129309,87.129309 0 0 0 -0.3861,-0.11886 87.129309,87.129309 0 0 0 -0.3865,-0.11681 87.129309,87.129309 0 0 0 -0.3865,-0.11575 87.129309,87.129309 0 0 0 -0.3876,-0.11317 87.129309,87.129309 0 0 0 -0.3881,-0.11162 87.129309,87.129309 0 0 0 -0.3886,-0.11007 87.129309,87.129309 0 0 0 -0.3886,-0.108 87.129309,87.129309 0 0 0 -0.3897,-0.10645 87.129309,87.129309 0 0 0 -0.3901,-0.1044 87.129309,87.129309 0 0 0 -0.3902,-0.10282 87.129309,87.129309 0 0 0 -0.3912,-0.10078 87.129309,87.129309 0 0 0 -0.3911,-0.0992 87.129309,87.129309 0 0 0 -0.3923,-0.0971 87.129309,87.129309 0 0 0 -0.3922,-0.0956 87.129309,87.129309 0 0 0 -0.3927,-0.0935 87.129309,87.129309 0 0 0 -0.3933,-0.092 87.129309,87.129309 0 0 0 -0.3932,-0.0899 87.129309,87.129309 0 0 0 -0.3944,-0.0878 87.129309,87.129309 0 0 0 -0.3942,-0.0863 87.129309,87.129309 0 0 0 -0.3949,-0.0848 87.129309,87.129309 0 0 0 -0.3953,-0.0827 87.129309,87.129309 0 0 0 -0.3953,-0.0806 87.129309,87.129309 0 0 0 -0.3958,-0.0791 87.129309,87.129309 0 0 0 -0.3964,-0.077 87.129309,87.129309 0 0 0 -0.3969,-0.0754 87.129309,87.129309 0 0 0 -0.3968,-0.0734 87.129309,87.129309 0 0 0 -0.3974,-0.0718 87.129309,87.129309 0 0 0 -0.3974,-0.0697 87.129309,87.129309 0 0 0 -0.3985,-0.0682 87.129309,87.129309 0 0 0 -0.3979,-0.0661 87.129309,87.129309 0 0 0 -0.3989,-0.0641 87.129309,87.129309 0 0 0 -0.3984,-0.0626 87.129309,87.129309 0 0 0 -0.3995,-0.0605 87.129309,87.129309 0 0 0 -0.3995,-0.0589 87.129309,87.129309 0 0 0 -0.3994,-0.0569 87.129309,87.129309 0 0 0 -0.4,-0.0548 87.129309,87.129309 0 0 0 -0.4005,-0.0532 87.129309,87.129309 0 0 0 -0.4005,-0.0511 87.129309,87.129309 0 0 0 -0.4005,-0.0496 87.129309,87.129309 0 0 0 -0.401,-0.0476 87.129309,87.129309 0 0 0 -0.401,-0.046 87.129309,87.129309 0 0 0 -0.4015,-0.0434 87.129309,87.129309 0 0 0 -0.4015,-0.0424 87.129309,87.129309 0 0 0 -0.4021,-0.0403 87.129309,87.129309 0 0 0 -0.4015,-0.0382 87.129309,87.129309 0 0 0 -0.402,-0.0362 87.129309,87.129309 0 0 0 -0.4026,-0.0346 87.129309,87.129309 0 0 0 -0.4026,-0.0326 87.129309,87.129309 0 0 0 -0.4025,-0.031 87.129309,87.129309 0 0 0 -0.4026,-0.0289 87.129309,87.129309 0 0 0 -0.4025,-0.0274 87.129309,87.129309 0 0 0 -0.4031,-0.0248 87.129309,87.129309 0 0 0 -0.4031,-0.0238 87.129309,87.129309 0 0 0 -0.4031,-0.0212 87.129309,87.129309 0 0 0 -0.4035,-0.0196 87.129309,87.129309 0 0 0 -0.4031,-0.0181 87.129309,87.129309 0 0 0 -0.4036,-0.0155 87.129309,87.129309 0 0 0 -0.4036,-0.014 87.129309,87.129309 0 0 0 -0.4036,-0.0124 87.129309,87.129309 0 0 0 -0.4036,-0.0103 87.129309,87.129309 0 0 0 -0.4036,-0.008 87.129309,87.129309 0 0 0 -0.4036,-0.007 87.129309,87.129309 0 0 0 -0.4036,-0.005 87.129309,87.129309 0 0 0 -0.4036,-0.003 87.129309,87.129309 0 0 0 -0.4041,-10e-4 87.129309,87.129309 0 0 0 -0.3969,10e-4 87.129309,87.129309 0 0 0 -0.4035,0.003 87.129309,87.129309 0 0 0 -0.4036,0.005 87.129309,87.129309 0 0 0 -0.4042,0.007 87.129309,87.129309 0 0 0 -0.4036,0.008 87.129309,87.129309 0 0 0 -0.4036,0.0103 87.129309,87.129309 0 0 0 -0.4035,0.0119 87.129309,87.129309 0 0 0 -0.4036,0.014 87.129309,87.129309 0 0 0 -0.4031,0.016 87.129309,87.129309 0 0 0 -0.4036,0.0176 87.129309,87.129309 0 0 0 -0.4031,0.0196 87.129309,87.129309 0 0 0 -0.403,0.0217 87.129309,87.129309 0 0 0 -0.4031,0.0233 87.129309,87.129309 0 0 0 -0.4031,0.0253 87.129309,87.129309 0 0 0 -0.4031,0.0269 87.129309,87.129309 0 0 0 -0.4025,0.0289 87.129309,87.129309 0 0 0 -0.4026,0.031 87.129309,87.129309 0 0 0 -0.4026,0.0326 87.129309,87.129309 0 0 0 -0.402,0.0346 87.129309,87.129309 0 0 0 -0.4021,0.0362 87.129309,87.129309 0 0 0 -0.402,0.0382 87.129309,87.129309 0 0 0 -0.4015,0.0403 87.129309,87.129309 0 0 0 -0.4015,0.0419 87.129309,87.129309 0 0 0 -0.4016,0.0439 87.129309,87.129309 0 0 0 -0.401,0.0455 87.129309,87.129309 0 0 0 -0.401,0.0476 87.129309,87.129309 0 0 0 -0.401,0.0496 87.129309,87.129309 0 0 0 -0.4005,0.0511 87.129309,87.129309 0 0 0 -0.4,0.0532 87.129309,87.129309 0 0 0 -0.3999,0.0553 87.129309,87.129309 0 0 0 -0.4,0.0568 87.129309,87.129309 0 0 0 -0.3995,0.0584 87.129309,87.129309 0 0 0 -0.3989,0.0605 87.129309,87.129309 0 0 0 -0.3989,0.0625 87.129309,87.129309 0 0 0 -0.3985,0.0641 87.129309,87.129309 0 0 0 -0.3984,0.0661 87.129309,87.129309 0 0 0 -0.3979,0.0682 87.129309,87.129309 0 0 0 -0.3979,0.0697 87.129309,87.129309 0 0 0 -0.3974,0.0713 87.129309,87.129309 0 0 0 -0.3969,0.0734 87.129309,87.129309 0 0 0 -0.3964,0.0755 87.129309,87.129309 0 0 0 -0.3963,0.077 87.129309,87.129309 0 0 0 -0.3964,0.0791 87.129309,87.129309 0 0 0 -0.3953,0.0811 87.129309,87.129309 0 0 0 -0.3953,0.0822 87.129309,87.129309 0 0 0 -0.3948,0.0847 87.129309,87.129309 0 0 0 -0.3943,0.0863 87.129309,87.129309 0 0 0 -0.3943,0.0878 87.129309,87.129309 0 0 0 -0.3933,0.0904 87.129309,87.129309 0 0 0 -0.3932,0.0915 87.129309,87.129309 0 0 0 -0.3928,0.0935 87.129309,87.129309 0 0 0 -0.3922,0.0956 87.129309,87.129309 0 0 0 -0.3922,0.0972 87.129309,87.129309 0 0 0 -0.3912,0.0992 87.129309,87.129309 0 0 0 -0.3907,0.10075 87.129309,87.129309 0 0 0 -0.3906,0.10232 87.129309,87.129309 0 0 0 -0.3902,0.1049 87.129309,87.129309 0 0 0 -0.3891,0.10594 87.129309,87.129309 0 0 0 -0.3891,0.10801 87.129309,87.129309 0 0 0 -0.3887,0.11006 87.129309,87.129309 0 0 0 -0.3881,0.11163 87.129309,87.129309 0 0 0 -0.3875,0.11369 87.129309,87.129309 0 0 0 -0.3866,0.11523 87.129309,87.129309 0 0 0 -0.3865,0.11678 87.129309,87.129309 0 0 0 -0.386,0.11888 87.129309,87.129309 0 0 0 -0.385,0.12092 87.129309,87.129309 0 0 0 -0.385,0.12247 87.129309,87.129309 0 0 0 -0.384,0.12401 87.129309,87.129309 0 0 0 -0.3839,0.1261 87.129309,87.129309 0 0 0 -0.3829,0.12764 87.129309,87.129309 0 0 0 -0.3825,0.12972 87.129309,87.129309 0 0 0 -0.3818,0.13124 87.129309,87.129309 0 0 0 -0.3809,0.13282 87.129309,87.129309 0 0 0 -0.3808,0.13488 87.129309,87.129309 0 0 0 -0.3799,0.13692 87.129309,87.129309 0 0 0 -0.3793,0.13798 87.129309,87.129309 0 0 0 -0.3788,0.14058 87.129309,87.129309 0 0 0 -0.3777,0.14157 87.129309,87.129309 0 0 0 -0.3772,0.14367 87.129309,87.129309 0 0 0 -0.3768,0.14521 87.129309,87.129309 0 0 0 -0.3762,0.14729 87.129309,87.129309 0 0 0 -0.3751,0.14883 87.129309,87.129309 0 0 0 -0.3747,0.15036 87.129309,87.129309 0 0 0 -0.3736,0.15245 87.129309,87.129309 0 0 0 -0.3736,0.15399 87.129309,87.129309 0 0 0 -0.3721,0.15608 87.129309,87.129309 0 0 0 -0.3721,0.15708 87.129309,87.129309 0 0 0 -0.371,0.15968 87.129309,87.129309 0 0 0 -0.37,0.16073 87.129309,87.129309 0 0 0 -0.3695,0.16277 87.129309,87.129309 0 0 0 -0.369,0.16434 87.129309,87.129309 0 0 0 -0.3679,0.16586 87.129309,87.129309 0 0 0 -0.3674,0.16796 87.129309,87.129309 0 0 0 -0.3664,0.16949 87.129309,87.129309 0 0 0 -0.3654,0.17106 87.129309,87.129309 0 0 0 -0.2914,0.13798 87.129309,87.129309 0 0 0 -34.4181,69.3756 87.129309,87.129309 0 0 0 87.1296,87.12956 87.129309,87.129309 0 0 0 37.4137,-8.44184 z"
         style="fill:#7395b8;fill-opacity:1;stroke-width:8.665;stroke-linecap:round;stroke-linejoin:round"
         id="circle14762" />
      <path
         sodipodi:nodetypes="scssccsssssssssssssssssssssssssssssssssssscss"
         d="m 2558.2341,541.72903 c -19.0382,0 -37.5525,6.23568 -52.7115,17.75344 0.097,-0.0462 0.1942,-0.0922 0.2914,-0.13798 0.1217,-0.0573 0.2435,-0.11433 0.3654,-0.17106 0.122,-0.0568 0.2441,-0.11326 0.3664,-0.16949 83.3652,-10.2998 128.3722,95.78319 100.1013,138.60034 -0.092,0.0984 -0.1837,0.19656 -0.2759,0.29453 -0.092,0.0979 -0.1848,0.19556 -0.2775,0.29303 -0.093,0.0975 -0.1855,0.19487 -0.2785,0.29197 -0.093,0.0972 -0.1865,0.19417 -0.2801,0.29093 -0.094,0.0967 -0.1876,0.19315 -0.2817,0.28938 -0.094,0.0963 -0.1882,0.19246 -0.2826,0.28837 -0.095,0.0958 -0.1893,0.19142 -0.2842,0.28681 -0.095,0.0953 -0.1903,0.19039 -0.2858,0.28524 -0.095,0.095 -0.191,0.18971 -0.2868,0.28422 -0.096,0.0945 -0.1917,0.18867 -0.2879,0.28268 -0.096,0.0941 -0.193,0.18796 -0.2899,0.28162 -0.097,0.0936 -0.1934,0.18696 -0.2904,0.28009 -0.097,0.0931 -0.1944,0.18592 -0.292,0.27855 -0.098,0.0927 -0.1954,0.18524 -0.2935,0.2775 -0.098,0.0924 -0.1961,0.18454 -0.2945,0.27646 -0.099,0.0917 -0.1972,0.18317 -0.2962,0.2744 -0.099,0.0914 -0.1978,0.18248 -0.2971,0.27337 -0.099,0.0908 -0.1986,0.18145 -0.2982,0.27183 -0.1,0.0905 -0.1996,0.18074 -0.2997,0.27078 -0.1,0.09 -0.2003,0.17973 -0.3007,0.26924 -0.1006,0.0895 -0.2014,0.17867 -0.3024,0.26767 -0.1009,0.089 -0.202,0.17767 -0.3033,0.26615 -0.1014,0.0886 -0.203,0.17695 -0.3049,0.26508 -0.1017,0.0881 -0.2037,0.17595 -0.3059,0.26356 -0.1021,0.0876 -0.2044,0.17489 -0.307,0.26199 -0.1024,0.0872 -0.2051,0.17422 -0.308,0.26098 -0.1029,0.0867 -0.2061,0.17317 -0.3095,0.2594 -0.1035,0.086 -0.2072,0.17182 -0.3111,0.25736 -0.1037,0.0859 -0.2075,0.17145 -0.3116,0.25683 -0.1042,0.0852 -0.2086,0.17007 -0.3132,0.25477 -0.1045,0.0846 -0.2092,0.16904 -0.3141,0.2532 -0.1049,0.0843 -0.21,0.16836 -0.3153,0.25218 -0.1054,0.0838 -0.211,0.16735 -0.3168,0.25064 -0.1057,0.0833 -0.2116,0.16629 -0.3177,0.24908 -0.1061,0.0828 -0.2124,0.16528 -0.3189,0.24754 -0.1064,0.0824 -0.2131,0.16457 -0.3199,0.24649 -0.082,0.0627 -0.1642,0.1252 -0.2465,0.18759 30.3671,-14.43882 49.7155,-45.06278 49.7153,-78.68772 -1e-4,-48.11998 -39.009,-87.12888 -87.129,-87.12904 z"
         style="fill:#576982;fill-opacity:1;stroke-width:8.665;stroke-linecap:round;stroke-linejoin:round"
         id="path14768" />
      <path
         id="path9469"
         d="m 2572.8656,659.17443 c -3.7773,-0.5162 -9.3185,-1.1053 -10.7157,-1.1392 -0.7276,-0.018 -1.768,-0.1501 -2.312,-0.2943 -0.544,-0.1443 -2.0918,-0.3008 -3.4396,-0.3479 -5.9552,-0.2082 -8.3196,-0.9102 -4.3048,-1.2783 0.4892,-0.045 0.8233,-0.2405 0.8748,-0.5124 0.07,-0.3694 -0.088,-0.4168 -0.9873,-0.2962 -0.6555,0.088 -1.2212,0.019 -1.4586,-0.1782 -0.2133,-0.1771 -0.5121,-0.2451 -0.664,-0.1512 -0.1519,0.094 -0.2762,0.057 -0.2762,-0.081 0,-0.1386 0.1862,-0.3233 0.4137,-0.4106 0.6555,-0.2516 0.1963,-0.6446 -0.6821,-0.5837 -0.4521,0.031 -1.0075,-0.1391 -1.2796,-0.3925 -0.2643,-0.2463 -0.8576,-0.5306 -1.3184,-0.6318 -0.4607,-0.1012 -0.8377,-0.3007 -0.8377,-0.4432 0,-0.1426 0.1108,-0.1907 0.2463,-0.107 0.1354,0.084 0.3205,0.032 0.4113,-0.1148 0.2718,-0.4398 2.3719,-0.134 2.4706,0.3596 0.047,0.2354 0.2625,0.428 0.4787,0.428 0.2162,0 0.3195,-0.1191 0.2295,-0.2646 -0.09,-0.1455 0.022,-0.2646 0.249,-0.2646 0.2269,0 0.4125,0.1832 0.4125,0.4072 0,0.3372 0.091,0.322 0.5319,-0.088 0.4534,-0.4223 0.854,-0.4798 2.712,-0.389 1.199,0.059 2.4777,0.2163 2.8415,0.3503 0.8889,0.3275 6.3049,0.5361 6.4819,0.2497 0.077,-0.1249 -0.086,-0.2991 -0.3639,-0.3871 -0.7884,-0.2503 -4.9274,-3.3192 -4.9274,-3.6536 0,-0.1646 -0.5564,-0.4721 -1.2364,-0.6833 -1.2612,-0.3917 -1.7461,-1.0518 -1.1849,-1.613 0.2177,-0.2177 0.1407,-0.336 -0.2922,-0.4492 -0.7106,-0.1859 -0.5222,-0.6228 0.2685,-0.6228 0.3994,0 0.4837,-0.083 0.2857,-0.2807 -0.16,-0.16 -0.207,-0.6437 -0.1093,-1.1245 0.124,-0.6096 0.338,-0.8677 0.7716,-0.9302 0.7324,-0.1055 1.4104,0.41 1.311,0.9967 -0.088,0.5179 0.7676,1.6649 1.5562,2.087 0.3884,0.2079 0.5227,0.4706 0.4272,0.8358 -0.084,0.3211 -0.01,0.5326 0.187,0.5326 0.1941,0 0.2712,0.2107 0.1903,0.52 -0.097,0.3692 0.029,0.571 0.4322,0.6961 0.3125,0.097 0.8877,0.4013 1.2782,0.6763 0.3906,0.275 1.2152,0.6782 1.8325,0.896 1.4684,0.5181 3.4294,1.4617 3.9819,1.9162 0.2414,0.1986 0.8368,0.4231 1.3229,0.499 1.0335,0.1612 1.3394,0.3527 0.5634,0.3527 -0.9919,0 -2.4538,0.7605 -2.2887,1.1907 0.1064,0.2774 -0.02,0.3968 -0.4208,0.3968 -0.3152,0 -0.4995,0.119 -0.4096,0.2645 0.09,0.1456 0.4016,0.2646 0.6927,0.2646 0.291,0 0.4603,0.1115 0.3761,0.2476 -0.1603,0.2595 0.3481,0.3433 4.8843,0.8051 3.0034,0.3057 5.0747,0.8099 5.229,1.2727 0.053,0.1599 0.5338,0.4349 1.0678,0.6111 l 0.9709,0.3205 -0.9956,0.3447 c -0.5476,0.1895 -1.1903,0.2699 -1.4283,0.1786 -0.238,-0.091 -0.365,-0.056 -0.2822,0.077 0.2025,0.3278 -1.058,0.3064 -3.7678,-0.064 z m -18.3886,-2.9999 c 0.092,-0.1495 -0.1243,-0.2646 -0.4979,-0.2646 -0.3638,0 -0.7351,0.1191 -0.825,0.2646 -0.092,0.1494 0.1243,0.2646 0.4979,0.2646 0.3638,0 0.7351,-0.1191 0.825,-0.2646 z m -6.4823,0.2646 c -0.3092,-0.1999 -0.2362,-0.2574 0.3308,-0.2606 0.4001,0 0.7276,0.115 0.7276,0.2606 0,0.3345 -0.5407,0.3345 -1.0584,0 z m -19.976,-0.2277 c -0.7392,-0.1686 -0.6897,-0.2045 0.7205,-0.5232 3.153,-0.7126 10.6309,-0.8361 10.8828,-0.1798 0.1253,0.3265 -4.0374,0.3473 -4.5623,0.023 -0.2092,-0.1293 -0.4318,-0.091 -0.5457,0.093 -0.1072,0.1734 -1.0376,0.3601 -2.1003,0.4213 -1.0493,0.06 -2.2889,0.1631 -2.7546,0.2283 -0.4656,0.065 -1.2038,0.037 -1.6404,-0.062 z m 18.1239,-0.3846 c -0.5093,-0.1784 -1.7892,-0.3036 -2.8442,-0.2782 -1.055,0.025 -1.9183,-0.061 -1.9183,-0.1931 0,-0.239 0.078,-0.2602 1.323,-0.3613 0.3638,-0.03 1.29,-0.1449 2.0583,-0.2564 0.8646,-0.1254 1.5204,-0.1002 1.7209,0.066 0.1781,0.1479 0.731,0.3084 1.2285,0.3567 0.4976,0.048 0.9591,0.2534 1.0257,0.4558 0.091,0.2785 -0.048,0.3256 -0.575,0.1934 -0.4105,-0.103 -0.6959,-0.064 -0.6959,0.095 0,0.3367 -0.1673,0.3268 -1.323,-0.078 z m -6.0854,-0.4461 c 0,-0.1455 0.1786,-0.2646 0.3969,-0.2646 0.2183,0 0.3969,0.1191 0.3969,0.2646 0,0.1456 -0.1786,0.2646 -0.3969,0.2646 -0.2183,0 -0.3969,-0.119 -0.3969,-0.2646 z m 9.6135,-3.3766 c -1.0749,-0.1762 -0.9169,-0.7683 0.2016,-0.7554 0.5681,0.01 1.0328,0.091 1.0328,0.1875 0,0.3496 -0.6742,0.6598 -1.2344,0.5679 z m -9.0843,-0.3358 c -2.1101,-0.1035 -3.9442,-0.1256 -4.0758,-0.049 -0.1316,0.077 -0.16,0.011 -0.063,-0.1459 0.1026,-0.166 -0.2669,-0.4804 -0.8852,-0.7532 -0.5837,-0.2576 -1.0613,-0.5715 -1.0613,-0.6976 0,-0.1261 -0.1109,-0.1608 -0.2463,-0.077 -0.1355,0.084 -0.3127,0.045 -0.3939,-0.087 -0.2627,-0.4251 0.9974,-0.5618 1.445,-0.1567 0.6197,0.5609 4.0044,0.5519 3.7888,-0.01 -0.2294,-0.5978 1.2888,-0.5128 2.3453,0.1313 0.4765,0.2905 1.1342,0.5286 1.4616,0.5292 0.3274,5e-4 0.5953,0.117 0.5953,0.2589 0,0.1455 0.3459,0.1888 0.7931,0.099 0.4825,-0.097 0.9558,-0.024 1.2085,0.1861 0.3706,0.3075 0.3492,0.3816 -0.1977,0.685 -0.3373,0.1872 -0.6728,0.3255 -0.7456,0.3074 -0.073,-0.018 -1.8586,-0.1176 -3.9687,-0.2212 z m -10.3371,-0.4867 c 0.3489,-0.6518 0.8144,-0.8233 1.4074,-0.5183 0.3497,0.1798 0.463,0.1318 0.463,-0.1964 0,-0.2604 0.1461,-0.3784 0.3647,-0.2945 0.2005,0.077 0.4982,0.01 0.6614,-0.1569 0.2194,-0.2194 0.2968,-0.214 0.2968,0.021 0,0.1747 0.1641,0.3175 0.3645,0.3175 0.2005,0 0.5058,0.1703 0.6786,0.3785 0.4744,0.5716 -0.3125,0.8502 -2.5797,0.9131 -1.844,0.051 -1.9207,0.03 -1.6567,-0.4636 z m 5.1777,0.2304 c -0.09,-0.1455 -0.037,-0.2646 0.1167,-0.2646 0.1541,0 0.2802,0.1191 0.2802,0.2646 0,0.1455 -0.053,0.2646 -0.1167,0.2646 -0.064,0 -0.1902,-0.1191 -0.2802,-0.2646 z m -2.2489,-3.175 c 0.2182,-0.1411 0.5754,-0.2565 0.7937,-0.2565 0.3528,0 0.3528,0.028 0,0.2565 -0.2183,0.141 -0.5755,0.2565 -0.7937,0.2565 -0.3528,0 -0.3528,-0.028 0,-0.2565 z m 2.9104,-0.3969 c 0,-0.2183 0.1045,-0.3969 0.2322,-0.3969 0.1277,0 0.3804,0.1786 0.5615,0.3969 0.2752,0.3316 0.237,0.3969 -0.2322,0.3969 -0.3227,0 -0.5615,-0.1688 -0.5615,-0.3969 z m -5.887,-3.4825 c 0.1819,-0.073 0.4796,-0.073 0.6615,0 0.1819,0.073 0.033,0.1334 -0.3308,0.1334 -0.3638,0 -0.5126,-0.06 -0.3307,-0.1334 z m 0.066,-1.1434 c 0.4525,-0.2973 2.5703,-0.3697 2.2785,-0.078 -0.105,0.105 -0.7499,0.2242 -1.4331,0.2648 -0.8886,0.053 -1.1292,-3e-4 -0.8454,-0.1869 z m 39.0261,-4.6461 c -1.3097,-0.2019 -2.798,-0.4501 -3.3073,-0.5516 l -0.926,-0.1845 1.0583,-0.2062 c 0.5821,-0.1134 1.8918,-0.2123 2.9104,-0.2197 1.9891,-0.014 7.7467,0.877 8.1283,1.2585 0.3742,0.3743 -5.2581,0.3052 -7.8637,-0.096 z m 8.8139,0.2277 c 0.191,-0.076 0.4192,-0.067 0.5071,0.021 0.088,0.088 -0.068,0.1505 -0.3472,0.139 -0.3083,-0.013 -0.3709,-0.075 -0.1599,-0.1599 z m -37.9162,-6.1662 c -0.093,-0.15 0.014,-0.1943 0.249,-0.104 0.4583,0.1759 0.5422,0.3655 0.1616,0.3655 -0.1369,0 -0.3217,-0.1177 -0.4106,-0.2615 z m 20.9002,-17.201 c 0.09,-0.1455 0.2756,-0.2645 0.4125,-0.2645 0.1369,0 0.249,0.119 0.249,0.2645 0,0.1456 -0.1857,0.2646 -0.4125,0.2646 -0.2269,0 -0.3389,-0.119 -0.249,-0.2646 z m 0.4859,-3.6352 c -1.2522,-0.1104 -1.7407,-0.7381 -0.7254,-0.9322 0.357,-0.068 0.7058,-0.032 0.7753,0.08 0.069,0.1123 0.3642,0.142 0.6551,0.066 0.2909,-0.076 0.5289,-0.01 0.5289,0.1506 0,0.2025 0.2077,0.2099 0.6941,0.025 0.7445,-0.283 2.6653,-0.052 2.3022,0.2764 -0.2843,0.2575 -2.824,0.4581 -4.2302,0.3341 z"
         style="fill:#ececec;fill-opacity:1;stroke-width:0.264583" />
      <path
         inkscape:original-d="m 2593.034,584.97157 c -15.5189,-2.4662 -31.038,-4.9327 -46.5574,-7.3994 -15.5197,-2.4667 -31.1492,4.7669 -46.7241,7.15"
         inkscape:path-effect="#path-effect9477"
         id="path9471"
         d="m 2593.034,584.97157 c -15.0143,-4.84485 -30.7809,-7.35064 -46.5574,-7.3994 -15.8191,-0.0489 -31.6435,2.37264 -46.7241,7.15"
         style="fill:none;stroke:url(#linearGradient1158);stroke-width:0.465;stroke-linecap:round;stroke-linejoin:miter;stroke-miterlimit:4;stroke-dasharray:none;stroke-opacity:1" />
    </g>
  </g>
</svg>
