<?xml version="1.0" encoding="UTF-8" standalone="no"?>
<svg
   xmlns:dc="http://purl.org/dc/elements/1.1/"
   xmlns:cc="http://creativecommons.org/ns#"
   xmlns:rdf="http://www.w3.org/1999/02/22-rdf-syntax-ns#"
   xmlns:svg="http://www.w3.org/2000/svg"
   xmlns="http://www.w3.org/2000/svg"
   xmlns:sodipodi="http://sodipodi.sourceforge.net/DTD/sodipodi-0.dtd"
   xmlns:inkscape="http://www.inkscape.org/namespaces/inkscape"
   inkscape:export-ydpi="96"
   inkscape:export-xdpi="96"
   inkscape:export-filename="C:\Users\Marek\Desktop\graphic\web_sun\jupiter.png"
   width="400"
   height="400"
   viewBox="0 0 105.83333 105.83334"
   version="1.1"
   id="svg8"
   inkscape:version="1.0 (4035a4fb49, 2020-05-01)"
   sodipodi:docname="uranus.svg">
  <defs
     id="defs2">
    <inkscape:path-effect
       lpeversion="1"
       is_visible="true"
       id="path-effect5049"
       effect="spiro" />
    <inkscape:path-effect
       lpeversion="1"
       is_visible="true"
       id="path-effect5047"
       effect="spiro" />
    <inkscape:path-effect
       lpeversion="1"
       is_visible="true"
       id="path-effect5045"
       effect="spiro" />
    <inkscape:path-effect
       lpeversion="1"
       is_visible="true"
       id="path-effect9974"
       effect="spiro" />
    <inkscape:path-effect
       lpeversion="1"
       is_visible="true"
       id="path-effect9972"
       effect="spiro" />
    <inkscape:path-effect
       lpeversion="1"
       is_visible="true"
       id="path-effect9970"
       effect="spiro" />
    <inkscape:path-effect
       lpeversion="1"
       is_visible="true"
       id="path-effect9927"
       effect="spiro" />
    <inkscape:path-effect
       lpeversion="1"
       is_visible="true"
       id="path-effect9477"
       effect="spiro" />
    <inkscape:path-effect
       effect="spiro"
       id="path-effect9029"
       is_visible="true"
       lpeversion="1" />
    <inkscape:path-effect
       effect="spiro"
       id="path-effect9027"
       is_visible="true"
       lpeversion="1" />
    <inkscape:path-effect
       effect="spiro"
       id="path-effect9025"
       is_visible="true"
       lpeversion="1" />
    <inkscape:path-effect
       effect="spiro"
       id="path-effect9023"
       is_visible="true"
       lpeversion="1" />
    <inkscape:path-effect
       effect="spiro"
       id="path-effect9021"
       is_visible="true"
       lpeversion="1" />
    <inkscape:path-effect
       lpeversion="1"
       is_visible="true"
       id="path-effect9019"
       effect="spiro" />
    <inkscape:path-effect
       lpeversion="1"
       is_visible="true"
       id="path-effect1609"
       effect="spiro" />
    <inkscape:path-effect
       lpeversion="1"
       is_visible="true"
       id="path-effect1607"
       effect="spiro" />
    <inkscape:path-effect
       lpeversion="1"
       is_visible="true"
       id="path-effect1605"
       effect="spiro" />
    <inkscape:path-effect
       lpeversion="1"
       is_visible="true"
       id="path-effect780"
       effect="spiro" />
    <inkscape:path-effect
       lpeversion="1"
       is_visible="true"
       id="path-effect776"
       effect="spiro" />
    <inkscape:path-effect
       effect="spiro"
       id="path-effect769"
       is_visible="true"
       lpeversion="1" />
    <inkscape:path-effect
       lpeversion="1"
       is_visible="true"
       id="path-effect763"
       effect="spiro" />
    <inkscape:path-effect
       lpeversion="1"
       is_visible="true"
       id="path-effect759"
       effect="spiro" />
    <inkscape:path-effect
       lpeversion="1"
       is_visible="true"
       id="path-effect755"
       effect="spiro" />
    <inkscape:path-effect
       lpeversion="1"
       is_visible="true"
       id="path-effect744"
       effect="spiro" />
    <inkscape:path-effect
       lpeversion="1"
       is_visible="true"
       id="path-effect742"
       effect="spiro" />
    <inkscape:path-effect
       lpeversion="1"
       is_visible="true"
       id="path-effect740"
       effect="spiro" />
    <inkscape:path-effect
       effect="spiro"
       id="path-effect684"
       is_visible="true"
       lpeversion="1" />
    <inkscape:path-effect
       lpeversion="1"
       is_visible="true"
       id="path-effect680"
       effect="spiro" />
    <inkscape:path-effect
       lpeversion="1"
       is_visible="true"
       id="path-effect678"
       effect="spiro" />
    <inkscape:path-effect
       lpeversion="1"
       is_visible="true"
       id="path-effect676"
       effect="spiro" />
    <inkscape:path-effect
       lpeversion="1"
       is_visible="true"
       id="path-effect658"
       effect="spiro" />
    <inkscape:path-effect
       lpeversion="1"
       is_visible="true"
       id="path-effect654"
       effect="spiro" />
    <inkscape:path-effect
       lpeversion="1"
       is_visible="true"
       id="path-effect650"
       effect="spiro" />
    <inkscape:path-effect
       lpeversion="1"
       is_visible="true"
       id="path-effect646"
       effect="spiro" />
    <inkscape:path-effect
       lpeversion="1"
       is_visible="true"
       id="path-effect642"
       effect="spiro" />
    <inkscape:path-effect
       lpeversion="1"
       is_visible="true"
       id="path-effect630"
       effect="spiro" />
    <inkscape:path-effect
       lpeversion="1"
       is_visible="true"
       id="path-effect628"
       effect="spiro" />
    <inkscape:path-effect
       lpeversion="1"
       is_visible="true"
       id="path-effect626"
       effect="spiro" />
    <inkscape:path-effect
       effect="spiro"
       id="path-effect618"
       is_visible="true"
       lpeversion="1" />
    <inkscape:path-effect
       effect="spiro"
       id="path-effect612"
       is_visible="true"
       lpeversion="1" />
    <inkscape:path-effect
       effect="spiro"
       id="path-effect606"
       is_visible="true"
       lpeversion="1" />
    <inkscape:path-effect
       effect="spiro"
       id="path-effect2043"
       is_visible="true"
       lpeversion="1" />
    <inkscape:path-effect
       effect="spiro"
       id="path-effect319"
       is_visible="true"
       lpeversion="1" />
    <inkscape:path-effect
       lpeversion="1"
       is_visible="true"
       id="path-effect1168"
       effect="spiro" />
    <inkscape:path-effect
       lpeversion="1"
       is_visible="true"
       id="path-effect1164"
       effect="spiro" />
    <inkscape:path-effect
       lpeversion="1"
       is_visible="true"
       id="path-effect1160"
       effect="spiro" />
    <inkscape:path-effect
       lpeversion="1"
       is_visible="true"
       id="path-effect1156"
       effect="spiro" />
    <inkscape:path-effect
       lpeversion="1"
       is_visible="true"
       id="path-effect1152"
       effect="spiro" />
    <inkscape:path-effect
       lpeversion="1"
       is_visible="true"
       id="path-effect1148"
       effect="spiro" />
    <inkscape:path-effect
       lpeversion="1"
       is_visible="true"
       id="path-effect1144"
       effect="spiro" />
    <inkscape:path-effect
       lpeversion="1"
       is_visible="true"
       id="path-effect1140"
       effect="spiro" />
    <inkscape:path-effect
       effect="spiro"
       id="path-effect1462"
       is_visible="true"
       lpeversion="1" />
    <inkscape:path-effect
       effect="spiro"
       id="path-effect1453"
       is_visible="true"
       lpeversion="1" />
    <inkscape:path-effect
       effect="spiro"
       id="path-effect1441"
       is_visible="true"
       lpeversion="1" />
    <inkscape:path-effect
       lpeversion="1"
       is_visible="true"
       id="path-effect103"
       effect="spiro" />
    <inkscape:path-effect
       lpeversion="1"
       is_visible="true"
       id="path-effect99"
       effect="spiro" />
    <inkscape:path-effect
       lpeversion="1"
       is_visible="true"
       id="path-effect91"
       effect="spiro" />
    <inkscape:path-effect
       lpeversion="1"
       is_visible="true"
       id="path-effect87"
       effect="spiro" />
    <inkscape:path-effect
       lpeversion="1"
       is_visible="true"
       id="path-effect83"
       effect="spiro" />
    <inkscape:path-effect
       lpeversion="1"
       is_visible="true"
       id="path-effect79"
       effect="spiro" />
    <inkscape:path-effect
       lpeversion="1"
       is_visible="true"
       id="path-effect71"
       effect="spiro" />
    <inkscape:path-effect
       lpeversion="1"
       is_visible="true"
       id="path-effect67"
       effect="spiro" />
    <inkscape:path-effect
       lpeversion="1"
       is_visible="true"
       id="path-effect63"
       effect="spiro" />
    <inkscape:path-effect
       effect="spiro"
       id="path-effect44"
       is_visible="true"
       lpeversion="1" />
    <inkscape:path-effect
       effect="spiro"
       id="path-effect40"
       is_visible="true"
       lpeversion="1" />
    <inkscape:path-effect
       effect="spiro"
       id="path-effect36"
       is_visible="true"
       lpeversion="1" />
  </defs>
  <sodipodi:namedview
     id="base"
     pagecolor="#ffffff"
     bordercolor="#666666"
     borderopacity="1.0"
     inkscape:pageopacity="0.0"
     inkscape:pageshadow="2"
     inkscape:zoom="0.90509668"
     inkscape:cx="118.20532"
     inkscape:cy="236.17981"
     inkscape:document-units="mm"
     inkscape:current-layer="layer1"
     inkscape:document-rotation="0"
     showgrid="false"
     inkscape:window-width="1920"
     inkscape:window-height="1013"
     inkscape:window-x="-9"
     inkscape:window-y="-9"
     inkscape:window-maximized="1"
     inkscape:snap-global="true"
     units="px" />
  <metadata
     id="metadata5">
    <rdf:RDF>
      <cc:Work
         rdf:about="">
        <dc:format>image/svg+xml</dc:format>
        <dc:type
           rdf:resource="http://purl.org/dc/dcmitype/StillImage" />
        <dc:title></dc:title>
      </cc:Work>
    </rdf:RDF>
  </metadata>
  <g
     inkscape:label="Warstwa 1"
     inkscape:groupmode="layer"
     id="layer1">
    <g
       transform="matrix(0.5467578,0,0,0.5467578,-1350.1756,-225.58549)"
       id="g14787">
      <path
         d="m 2606.9668,583.93802 a 87.129309,87.129309 0 0 0 0.2337,-0.17657 87.129309,87.129309 0 0 0 0.3208,-0.24514 87.129309,87.129309 0 0 0 0.3196,-0.24696 87.129309,87.129309 0 0 0 0.3186,-0.24816 87.129309,87.129309 0 0 0 0.3175,-0.24943 87.129309,87.129309 0 0 0 0.3161,-0.25122 87.129309,87.129309 0 0 0 0.3153,-0.25242 87.129309,87.129309 0 0 0 0.3133,-0.25382 87.129309,87.129309 0 0 0 0.3128,-0.25552 87.129309,87.129309 0 0 0 0.3118,-0.25669 87.129309,87.129309 0 0 0 0.31,-0.25861 87.129309,87.129309 0 0 0 0.3093,-0.25976 87.129309,87.129309 0 0 0 0.3078,-0.26112 87.129309,87.129309 0 0 0 0.3066,-0.26234 87.129309,87.129309 0 0 0 0.3057,-0.26409 87.129309,87.129309 0 0 0 0.304,-0.26543 87.129309,87.129309 0 0 0 0.3031,-0.26718 87.129309,87.129309 0 0 0 0.3018,-0.26794 87.129309,87.129309 0 0 0 0.3005,-0.26973 87.129309,87.129309 0 0 0 0.2992,-0.27098 87.129309,87.129309 0 0 0 0.2977,-0.27232 87.129309,87.129309 0 0 0 0.2971,-0.27402 87.129309,87.129309 0 0 0 0.2956,-0.27479 87.129309,87.129309 0 0 0 0.2938,-0.27666 87.129309,87.129309 0 0 0 0.293,-0.27789 87.129309,87.129309 0 0 0 0.2916,-0.27914 87.129309,87.129309 0 0 0 0.2904,-0.28097 87.129309,87.129309 0 0 0 0.289,-0.28172 87.129309,87.129309 0 0 0 0.2877,-0.28352 87.129309,87.129309 0 0 0 0.2862,-0.28432 87.129309,87.129309 0 0 0 0.285,-0.28609 87.129309,87.129309 0 0 0 0.2837,-0.28739 87.129309,87.129309 0 0 0 0.2828,-0.28807 87.129309,87.129309 0 0 0 0.2809,-0.28998 87.129309,87.129309 0 0 0 0.2796,-0.29125 87.129309,87.129309 0 0 0 0.2783,-0.29251 87.129309,87.129309 0 0 0 0.277,-0.29383 87.129309,87.129309 0 0 0 0.276,-0.29503 87.129309,87.129309 0 0 0 0.2741,-0.2959 87.129309,87.129309 0 0 0 0.2729,-0.29769 87.129309,87.129309 0 0 0 0.2715,-0.29897 87.129309,87.129309 0 0 0 0.2702,-0.29975 87.129309,87.129309 0 0 0 0.2688,-0.30153 87.129309,87.129309 0 0 0 0.2669,-0.30243 87.129309,87.129309 0 0 0 0.2661,-0.3041 87.129309,87.129309 0 0 0 0.2647,-0.30491 87.129309,87.129309 0 0 0 0.2629,-0.30627 87.129309,87.129309 0 0 0 0.2615,-0.30757 87.129309,87.129309 0 0 0 0.2606,-0.30875 87.129309,87.129309 0 0 0 0.2587,-0.30964 87.129309,87.129309 0 0 0 0.2574,-0.31092 87.129309,87.129309 0 0 0 0.256,-0.31221 87.129309,87.129309 0 0 0 0.2542,-0.31355 87.129309,87.129309 0 0 0 0.2534,-0.31477 87.129309,87.129309 0 0 0 0.2513,-0.31567 87.129309,87.129309 0 0 0 0.25,-0.31692 87.129309,87.129309 0 0 0 0.2488,-0.31822 87.129309,87.129309 0 0 0 0.2473,-0.31949 87.129309,87.129309 0 0 0 0.2454,-0.3204 87.129309,87.129309 0 0 0 0.2445,-0.32157 87.129309,87.129309 0 0 0 0.2427,-0.32243 87.129309,87.129309 0 0 0 0.2407,-0.3238 87.129309,87.129309 0 0 0 0.24,-0.32501 87.129309,87.129309 0 0 0 0.2379,-0.3259 87.129309,87.129309 0 0 0 0.2366,-0.32716 87.129309,87.129309 0 0 0 0.2352,-0.32794 87.129309,87.129309 0 0 0 0.2339,-0.32976 87.129309,87.129309 0 0 0 0.2319,-0.33007 87.129309,87.129309 0 0 0 0.2306,-0.3314 87.129309,87.129309 0 0 0 0.2291,-0.33268 87.129309,87.129309 0 0 0 0.2273,-0.33353 87.129309,87.129309 0 0 0 0.2258,-0.33433 87.129309,87.129309 0 0 0 0.2246,-0.33611 87.129309,87.129309 0 0 0 0.2231,-0.33636 87.129309,87.129309 0 0 0 0.2211,-0.33779 87.129309,87.129309 0 0 0 0.2197,-0.33854 87.129309,87.129309 0 0 0 0.2179,-0.3399 87.129309,87.129309 0 0 0 0.2165,-0.34068 87.129309,87.129309 0 0 0 0.215,-0.34201 87.129309,87.129309 0 0 0 0.2137,-0.34275 87.129309,87.129309 0 0 0 0.2117,-0.34364 87.129309,87.129309 0 0 0 0.2104,-0.34492 87.129309,87.129309 0 0 0 0.2083,-0.34525 87.129309,87.129309 0 0 0 0.2071,-0.34708 87.129309,87.129309 0 0 0 0.2056,-0.34733 87.129309,87.129309 0 0 0 0.2036,-0.34874 87.129309,87.129309 0 0 0 0.2018,-0.34955 87.129309,87.129309 0 0 0 0.2009,-0.35028 87.129309,87.129309 0 0 0 0.1988,-0.35116 87.129309,87.129309 0 0 0 0.197,-0.35251 87.129309,87.129309 0 0 0 0.1961,-0.35321 87.129309,87.129309 0 0 0 0.1936,-0.35416 87.129309,87.129309 0 0 0 0.1928,-0.35483 87.129309,87.129309 0 0 0 0.1901,-0.35584 87.129309,87.129309 0 0 0 0.1894,-0.35646 87.129309,87.129309 0 0 0 0.1875,-0.35788 87.129309,87.129309 0 0 0 0.1855,-0.35874 87.129309,87.129309 0 0 0 0.184,-0.35903 87.129309,87.129309 0 0 0 0.1826,-0.36029 87.129309,87.129309 0 0 0 0.1808,-0.36116 87.129309,87.129309 0 0 0 0.179,-0.36145 87.129309,87.129309 0 0 0 0.1774,-0.3628 87.129309,87.129309 0 0 0 0.1758,-0.36358 87.129309,87.129309 0 0 0 0.174,-0.36447 87.129309,87.129309 0 0 0 0.1724,-0.36471 87.129309,87.129309 0 0 0 0.1706,-0.3661 87.129309,87.129309 0 0 0 0.1686,-0.36699 87.129309,87.129309 0 0 0 0.1676,-0.36715 87.129309,87.129309 0 0 0 0.1655,-0.36855 87.129309,87.129309 0 0 0 0.1645,-0.36875 87.129309,87.129309 0 0 0 0.1617,-0.36975 87.129309,87.129309 0 0 0 0.1598,-0.37064 87.129309,87.129309 0 0 0 0.1589,-0.3713 87.129309,87.129309 0 0 0 0.157,-0.37217 87.129309,87.129309 0 0 0 0.155,-0.37251 87.129309,87.129309 0 0 0 0.1532,-0.37336 87.129309,87.129309 0 0 0 0.1513,-0.37423 87.129309,87.129309 0 0 0 0.1504,-0.37492 87.129309,87.129309 0 0 0 0.1484,-0.37525 87.129309,87.129309 0 0 0 0.1466,-0.3766 87.129309,87.129309 0 0 0 0.1446,-0.37646 87.129309,87.129309 0 0 0 0.1427,-0.37782 87.129309,87.129309 0 0 0 0.1408,-0.37817 87.129309,87.129309 0 0 0 0.14,-0.37886 87.129309,87.129309 0 0 0 0.138,-0.37971 87.129309,87.129309 0 0 0 0.1361,-0.38005 87.129309,87.129309 0 0 0 0.1341,-0.38092 87.129309,87.129309 0 0 0 0.1323,-0.38125 87.129309,87.129309 0 0 0 0.1303,-0.38211 87.129309,87.129309 0 0 0 0.1293,-0.38229 87.129309,87.129309 0 0 0 0.1265,-0.38333 87.129309,87.129309 0 0 0 0.1256,-0.38399 87.129309,87.129309 0 0 0 0.1236,-0.38437 87.129309,87.129309 0 0 0 0.1217,-0.38469 87.129309,87.129309 0 0 0 0.1197,-0.38554 87.129309,87.129309 0 0 0 0.1189,-0.38625 87.129309,87.129309 0 0 0 0.1168,-0.38605 87.129309,87.129309 0 0 0 0.1151,-0.38744 87.129309,87.129309 0 0 0 0.1129,-0.38727 87.129309,87.129309 0 0 0 0.1111,-0.38815 87.129309,87.129309 0 0 0 0.1092,-0.389 87.129309,87.129309 0 0 0 0.1073,-0.38933 87.129309,87.129309 0 0 0 0.1062,-0.38949 87.129309,87.129309 0 0 0 0.1043,-0.38986 87.129309,87.129309 0 0 0 0.1024,-0.39071 87.129309,87.129309 0 0 0 0.1004,-0.39107 87.129309,87.129309 0 0 0 0.099,-0.39141 87.129309,87.129309 0 0 0 0.097,-0.39226 87.129309,87.129309 0 0 0 0.095,-0.3921 87.129309,87.129309 0 0 0 0.093,-0.39298 87.129309,87.129309 0 0 0 0.092,-0.39361 87.129309,87.129309 0 0 0 0.09,-0.3935 87.129309,87.129309 0 0 0 0.087,-0.39451 87.129309,87.129309 0 0 0 0.086,-0.39417 87.129309,87.129309 0 0 0 0.084,-0.39503 87.129309,87.129309 0 0 0 0.082,-0.39538 87.129309,87.129309 0 0 0 0.08,-0.39573 87.129309,87.129309 0 0 0 0.08,-0.39573 87.129309,87.129309 0 0 0 0.08,-0.39572 87.129309,87.129309 0 0 0 0.08,-0.39622 87.129309,87.129309 0 0 0 0.07,-0.39747 87.129309,87.129309 0 0 0 0.07,-0.39746 87.129309,87.129309 0 0 0 0.069,-0.39085 87.129309,87.129309 0 0 0 0.07,-0.39795 87.129309,87.129309 0 0 0 0.07,-0.39747 87.129309,87.129309 0 0 0 0.06,-0.39921 87.129309,87.129309 0 0 0 0.06,-0.39919 87.129309,87.129309 0 0 0 0.06,-0.39921 87.129309,87.129309 0 0 0 0.058,-0.39954 87.129309,87.129309 0 0 0 0.056,-0.3999 87.129309,87.129309 0 0 0 0.055,-0.40006 87.129309,87.129309 0 0 0 0.052,-0.40007 87.129309,87.129309 0 0 0 0.05,-0.40093 87.129309,87.129309 0 0 0 0.049,-0.4006 87.129309,87.129309 0 0 0 0.047,-0.40096 87.129309,87.129309 0 0 0 0.045,-0.40129 87.129309,87.129309 0 0 0 0.043,-0.40113 87.129309,87.129309 0 0 0 0.041,-0.40149 87.129309,87.129309 0 0 0 0.039,-0.40183 87.129309,87.129309 0 0 0 0.037,-0.40217 87.129309,87.129309 0 0 0 0.035,-0.4025 87.129309,87.129309 0 0 0 0.033,-0.40238 87.129309,87.129309 0 0 0 0.032,-0.40201 87.129309,87.129309 0 0 0 0.03,-0.4029 87.129309,87.129309 0 0 0 0.028,-0.40272 87.129309,87.129309 0 0 0 0.027,-0.40287 87.129309,87.129309 0 0 0 0.024,-0.40292 87.129309,87.129309 0 0 0 0.022,-0.40325 87.129309,87.129309 0 0 0 0.02,-0.4031 87.129309,87.129309 0 0 0 0.019,-0.40324 87.129309,87.129309 0 0 0 0.017,-0.40362 87.129309,87.129309 0 0 0 0.015,-0.40345 87.129309,87.129309 0 0 0 0.013,-0.4033 87.129309,87.129309 0 0 0 0.011,-0.40361 87.129309,87.129309 0 0 0 0.01,-0.40332 87.129309,87.129309 0 0 0 0.01,-0.40365 87.129309,87.129309 0 0 0 0.01,-0.40399 87.129309,87.129309 0 0 0 0,-0.40332 87.129309,87.129309 0 0 0 0,-0.40419 87.129309,87.129309 0 0 0 0,-0.4035 87.129309,87.129309 0 0 0 0,-0.40387 87.129309,87.129309 0 0 0 0,-0.40352 87.129309,87.129309 0 0 0 -0.01,-0.40387 87.129309,87.129309 0 0 0 -0.01,-0.40369 87.129309,87.129309 0 0 0 -0.01,-0.40356 87.129309,87.129309 0 0 0 -0.011,-0.40389 87.129309,87.129309 0 0 0 -0.013,-0.40322 87.129309,87.129309 0 0 0 -0.014,-0.4034 87.129309,87.129309 0 0 0 -0.016,-0.40323 87.129309,87.129309 0 0 0 -0.018,-0.40357 87.129309,87.129309 0 0 0 -0.02,-0.40342 87.129309,87.129309 0 0 0 -0.022,-0.40276 87.129309,87.129309 0 0 0 -0.023,-0.40293 87.129309,87.129309 0 0 0 -0.025,-0.40325 87.129309,87.129309 0 0 0 -0.028,-0.40262 87.129309,87.129309 0 0 0 -0.03,-0.40243 87.129309,87.129309 0 0 0 -0.031,-0.40275 87.129309,87.129309 0 0 0 -0.034,-0.40209 87.129309,87.129309 0 0 0 -0.035,-0.40236 87.129309,87.129309 0 0 0 -0.037,-0.40221 87.129309,87.129309 0 0 0 -0.039,-0.40196 87.129309,87.129309 0 0 0 -0.041,-0.40122 87.129309,87.129309 0 0 0 -0.043,-0.40166 87.129309,87.129309 0 0 0 -0.044,-0.40136 87.129309,87.129309 0 0 0 -0.046,-0.40116 87.129309,87.129309 0 0 0 -0.048,-0.40105 87.129309,87.129309 0 0 0 -0.05,-0.40029 87.129309,87.129309 0 0 0 -0.052,-0.40055 87.129309,87.129309 0 0 0 -0.054,-0.39992 87.129309,87.129309 0 0 0 -0.055,-0.40017 87.129309,87.129309 0 0 0 -0.058,-0.3995 87.129309,87.129309 0 0 0 -0.06,-0.39935 87.129309,87.129309 0 0 0 -0.061,-0.39903 87.129309,87.129309 0 0 0 -0.063,-0.3989 87.129309,87.129309 0 0 0 -0.065,-0.39872 87.129309,87.129309 0 0 0 -0.067,-0.39799 87.129309,87.129309 0 0 0 -0.068,-0.39772 87.129309,87.129309 0 0 0 -0.071,-0.3976 87.129309,87.129309 0 0 0 -0.072,-0.39734 87.129309,87.129309 0 0 0 -0.074,-0.39662 87.129309,87.129309 0 0 0 -0.076,-0.39695 87.129309,87.129309 0 0 0 -0.078,-0.3963 87.129309,87.129309 0 0 0 -0.079,-0.39549 87.129309,87.129309 0 0 0 -0.081,-0.39529 87.129309,87.129309 0 0 0 -0.083,-0.39516 87.129309,87.129309 0 0 0 -0.085,-0.39493 87.129309,87.129309 0 0 0 -0.087,-0.39419 87.129309,87.129309 0 0 0 -0.089,-0.39395 87.129309,87.129309 0 0 0 -0.091,-0.39327 87.129309,87.129309 0 0 0 -0.092,-0.39304 87.129309,87.129309 0 0 0 -0.094,-0.39279 87.129309,87.129309 0 0 0 -0.096,-0.39215 87.129309,87.129309 0 0 0 -0.098,-0.39139 87.129309,87.129309 0 0 0 -0.1,-0.39173 87.129309,87.129309 0 0 0 -0.1011,-0.39041 87.129309,87.129309 0 0 0 -0.1034,-0.39024 87.129309,87.129309 0 0 0 -0.1054,-0.39011 87.129309,87.129309 0 0 0 -0.1066,-0.38926 87.129309,87.129309 0 0 0 -0.1089,-0.38862 87.129309,87.129309 0 0 0 -0.1105,-0.38837 87.129309,87.129309 0 0 0 -0.112,-0.38811 87.129309,87.129309 0 0 0 -0.1144,-0.38697 87.129309,87.129309 0 0 0 -0.1159,-0.38725 87.129309,87.129309 0 0 0 -0.1177,-0.38594 87.129309,87.129309 0 0 0 -0.1193,-0.38573 87.129309,87.129309 0 0 0 -0.121,-0.38499 87.129309,87.129309 0 0 0 -0.1231,-0.38482 87.129309,87.129309 0 0 0 -0.125,-0.38359 87.129309,87.129309 0 0 0 -0.1266,-0.38334 87.129309,87.129309 0 0 0 -0.1281,-0.38308 87.129309,87.129309 0 0 0 -0.13,-0.38183 87.129309,87.129309 0 0 0 -0.1321,-0.3817 87.129309,87.129309 0 0 0 -0.1338,-0.38094 87.129309,87.129309 0 0 0 -0.1354,-0.3807 87.129309,87.129309 0 0 0 -0.1372,-0.37945 87.129309,87.129309 0 0 0 -0.1389,-0.3792 87.129309,87.129309 0 0 0 -0.1405,-0.37844 87.129309,87.129309 0 0 0 -0.1428,-0.3778 87.129309,87.129309 0 0 0 -0.1439,-0.37695 87.129309,87.129309 0 0 0 -0.1461,-0.3768 87.129309,87.129309 0 0 0 -0.1478,-0.37555 87.129309,87.129309 0 0 0 -0.149,-0.37522 87.129309,87.129309 0 0 0 -0.1513,-0.37404 87.129309,87.129309 0 0 0 -0.1529,-0.37381 87.129309,87.129309 0 0 0 -0.1547,-0.37308 87.129309,87.129309 0 0 0 -0.1563,-0.37231 87.129309,87.129309 0 0 0 -0.158,-0.37156 87.129309,87.129309 0 0 0 -0.1598,-0.37033 87.129309,87.129309 0 0 0 -0.162,-0.37014 87.129309,87.129309 0 0 0 -0.1631,-0.36933 87.129309,87.129309 0 0 0 -0.1648,-0.36857 87.129309,87.129309 0 0 0 -0.1666,-0.36783 87.129309,87.129309 0 0 0 -0.1682,-0.36705 87.129309,87.129309 0 0 0 -0.1701,-0.36581 87.129309,87.129309 0 0 0 -0.1717,-0.36561 87.129309,87.129309 0 0 0 -0.1734,-0.36482 87.129309,87.129309 0 0 0 -0.1751,-0.36356 87.129309,87.129309 0 0 0 -0.1769,-0.36283 87.129309,87.129309 0 0 0 -0.1786,-0.36207 87.129309,87.129309 0 0 0 -0.1802,-0.36183 87.129309,87.129309 0 0 0 -0.1821,-0.36006 87.129309,87.129309 0 0 0 -0.1832,-0.35975 87.129309,87.129309 0 0 0 -0.1854,-0.35906 87.129309,87.129309 0 0 0 -0.1867,-0.35774 87.129309,87.129309 0 0 0 -0.1883,-0.35699 87.129309,87.129309 0 0 0 -0.1902,-0.35623 87.129309,87.129309 0 0 0 -0.1918,-0.35497 87.129309,87.129309 0 0 0 -0.1936,-0.35475 87.129309,87.129309 0 0 0 -0.1949,-0.35338 87.129309,87.129309 0 0 0 -0.1969,-0.35272 87.129309,87.129309 0 0 0 -0.1983,-0.3514 87.129309,87.129309 0 0 0 -0.2,-0.35115 87.129309,87.129309 0 0 0 -0.2013,-0.34927 87.129309,87.129309 0 0 0 -0.2034,-0.34915 87.129309,87.129309 0 0 0 -0.2048,-0.34779 87.129309,87.129309 0 0 0 -0.2063,-0.34705 87.129309,87.129309 0 0 0 -0.2082,-0.34628 87.129309,87.129309 0 0 0 -0.2093,-0.34495 87.129309,87.129309 0 0 0 -0.2112,-0.3442 87.129309,87.129309 0 0 0 -0.213,-0.34295 87.129309,87.129309 0 0 0 -0.2146,-0.34219 87.129309,87.129309 0 0 0 -0.2159,-0.34083 87.129309,87.129309 0 0 0 -0.2176,-0.34009 87.129309,87.129309 0 0 0 -0.2194,-0.33936 87.129309,87.129309 0 0 0 -0.2205,-0.33799 87.129309,87.129309 0 0 0 -0.2223,-0.33726 87.129309,87.129309 0 0 0 -0.2236,-0.33589 87.129309,87.129309 0 0 0 -0.2254,-0.33466 87.129309,87.129309 0 0 0 -0.2272,-0.33389 87.129309,87.129309 0 0 0 -0.2282,-0.33304 87.129309,87.129309 0 0 0 -0.2301,-0.33181 87.129309,87.129309 0 0 0 -0.2318,-0.33105 87.129309,87.129309 0 0 0 -0.2332,-0.32921 87.129309,87.129309 0 0 0 -0.2344,-0.32888 87.129309,87.129309 0 0 0 -0.236,-0.32757 87.129309,87.129309 0 0 0 -0.2379,-0.32637 87.129309,87.129309 0 0 0 -0.2392,-0.32502 87.129309,87.129309 0 0 0 -0.2404,-0.32417 87.129309,87.129309 0 0 0 -0.2421,-0.3229 87.129309,87.129309 0 0 0 -0.2438,-0.32215 87.129309,87.129309 0 0 0 -0.2452,-0.32082 87.129309,87.129309 0 0 0 -0.2464,-0.31947 87.129309,87.129309 0 0 0 -0.2482,-0.31871 87.129309,87.129309 0 0 0 -0.2499,-0.31745 87.129309,87.129309 0 0 0 -0.2507,-0.31602 87.129309,87.129309 0 0 0 -0.2525,-0.31529 87.129309,87.129309 0 0 0 -0.2544,-0.3135 87.129309,87.129309 0 0 0 -0.2554,-0.31268 87.129309,87.129309 0 0 0 -0.2568,-0.31183 87.129309,87.129309 0 0 0 -0.258,-0.30997 87.129309,87.129309 0 0 0 -0.2598,-0.30924 87.129309,87.129309 0 0 0 -0.2611,-0.30789 87.129309,87.129309 0 0 0 -0.2629,-0.3066 87.129309,87.129309 0 0 0 -0.2642,-0.30529 87.129309,87.129309 0 0 0 -0.2654,-0.30443 87.129309,87.129309 0 0 0 -0.2666,-0.30308 87.129309,87.129309 0 0 0 -0.2683,-0.30183 87.129309,87.129309 0 0 0 -0.2699,-0.30049 87.129309,87.129309 0 0 0 -0.2709,-0.29912 87.129309,87.129309 0 0 0 -0.2724,-0.2978 87.129309,87.129309 0 0 0 -0.2735,-0.29695 87.129309,87.129309 0 0 0 -0.2753,-0.29518 87.129309,87.129309 0 0 0 -0.2766,-0.29433 87.129309,87.129309 0 0 0 -0.2779,-0.29301 87.129309,87.129309 0 0 0 -0.2791,-0.29166 87.129309,87.129309 0 0 0 -0.2805,-0.29031 87.129309,87.129309 0 0 0 -0.2822,-0.28905 87.129309,87.129309 0 0 0 -0.283,-0.28758 87.129309,87.129309 0 0 0 -0.2848,-0.28637 87.129309,87.129309 0 0 0 -0.2857,-0.28491 87.129309,87.129309 0 0 0 -0.2874,-0.28367 87.129309,87.129309 0 0 0 -0.2886,-0.28282 87.129309,87.129309 0 0 0 -0.2899,-0.28094 87.129309,87.129309 0 0 0 -0.2912,-0.27964 87.129309,87.129309 0 0 0 -0.2926,-0.27825 87.129309,87.129309 0 0 0 -0.2933,-0.27684 87.129309,87.129309 0 0 0 -0.295,-0.27608 87.129309,87.129309 0 0 0 -0.2964,-0.27421 87.129309,87.129309 0 0 0 -0.2977,-0.27291 87.129309,87.129309 0 0 0 -0.299,-0.27152 87.129309,87.129309 0 0 0 -0.2997,-0.27008 87.129309,87.129309 0 0 0 -0.3016,-0.26884 87.129309,87.129309 0 0 0 -0.3024,-0.26692 87.129309,87.129309 0 0 0 -0.3036,-0.26605 87.129309,87.129309 0 0 0 -0.3054,-0.26477 87.129309,87.129309 0 0 0 -0.3063,-0.26287 87.129309,87.129309 0 0 0 -0.3075,-0.2615 87.129309,87.129309 0 0 0 -0.3083,-0.26055 87.129309,87.129309 0 0 0 -0.3102,-0.25883 87.129309,87.129309 0 0 0 -0.3108,-0.25735 87.129309,87.129309 0 0 0 -0.3124,-0.25554 87.129309,87.129309 0 0 0 -0.3134,-0.25466 87.129309,87.129309 0 0 0 -0.3148,-0.25333 87.129309,87.129309 0 0 0 -0.3156,-0.25138 87.129309,87.129309 0 0 0 -0.3169,-0.25004 87.129309,87.129309 0 0 0 -0.3183,-0.24869 87.129309,87.129309 0 0 0 -0.319,-0.24725 87.129309,87.129309 0 0 0 -0.3203,-0.24541 87.129309,87.129309 0 0 0 -0.3218,-0.24404 87.129309,87.129309 0 0 0 -0.3228,-0.24269 87.129309,87.129309 0 0 0 -0.3237,-0.24128 87.129309,87.129309 0 0 0 -0.3246,-0.23983 87.129309,87.129309 0 0 0 -0.3263,-0.23803 87.129309,87.129309 0 0 0 -0.3272,-0.23662 87.129309,87.129309 0 0 0 -0.328,-0.2352 87.129309,87.129309 0 0 0 -0.3293,-0.23386 87.129309,87.129309 0 0 0 -0.3305,-0.23197 87.129309,87.129309 0 0 0 -0.3314,-0.23054 87.129309,87.129309 0 0 0 -0.3322,-0.22912 87.129309,87.129309 0 0 0 -0.334,-0.22732 87.129309,87.129309 0 0 0 -0.3343,-0.22582 87.129309,87.129309 0 0 0 -0.3356,-0.22449 87.129309,87.129309 0 0 0 -0.3369,-0.2231 87.129309,87.129309 0 0 0 -0.3378,-0.22118 87.129309,87.129309 0 0 0 -0.3385,-0.21974 87.129309,87.129309 0 0 0 -0.34,-0.21789 87.129309,87.129309 0 0 0 -0.3407,-0.21644 87.129309,87.129309 0 0 0 -0.3414,-0.21501 87.129309,87.129309 0 0 0 -0.3428,-0.21366 87.129309,87.129309 0 0 0 -0.3442,-0.21181 87.129309,87.129309 0 0 0 -0.3445,-0.20978 87.129309,87.129309 0 0 0 -0.3456,-0.20893 87.129309,87.129309 0 0 0 -0.3466,-0.20695 87.129309,87.129309 0 0 0 -0.3479,-0.20515 87.129309,87.129309 0 0 0 -0.3481,-0.20408 87.129309,87.129309 0 0 0 -0.3496,-0.20175 87.129309,87.129309 0 0 0 -0.3508,-0.20093 87.129309,87.129309 0 0 0 -0.3511,-0.19888 87.129309,87.129309 0 0 0 -0.3525,-0.197 87.129309,87.129309 0 0 0 -0.3529,-0.19549 87.129309,87.129309 0 0 0 -0.354,-0.19417 87.129309,87.129309 0 0 0 -0.3549,-0.19218 87.129309,87.129309 0 0 0 -0.3563,-0.19084 87.129309,87.129309 0 0 0 -0.3565,-0.1893 87.129309,87.129309 0 0 0 -0.3578,-0.18748 87.129309,87.129309 0 0 0 -0.3583,-0.18543 87.129309,87.129309 0 0 0 -0.3595,-0.18407 87.129309,87.129309 0 0 0 -0.3602,-0.18266 87.129309,87.129309 0 0 0 -0.3607,-0.18061 87.129309,87.129309 0 0 0 -0.362,-0.17927 87.129309,87.129309 0 0 0 -0.3628,-0.17732 87.129309,87.129309 0 0 0 -0.3636,-0.17587 87.129309,87.129309 0 0 0 -0.364,-0.17384 87.129309,87.129309 0 0 0 -0.3652,-0.17199 87.129309,87.129309 0 0 0 -0.3661,-0.17107 87.129309,87.129309 0 0 0 -0.3664,-0.1685 87.129309,87.129309 0 0 0 -0.3677,-0.16768 87.129309,87.129309 0 0 0 -0.3681,-0.16513 87.129309,87.129309 0 0 0 -0.3693,-0.16432 87.129309,87.129309 0 0 0 -0.3698,-0.16178 87.129309,87.129309 0 0 0 -0.3705,-0.16027 87.129309,87.129309 0 0 0 -0.3713,-0.1589 87.129309,87.129309 0 0 0 -0.3717,-0.15681 87.129309,87.129309 0 0 0 -0.3729,-0.15553 87.129309,87.129309 0 0 0 -0.3733,-0.15345 87.129309,87.129309 0 0 0 -0.3742,-0.15148 87.129309,87.129309 0 0 0 -0.375,-0.15009 87.129309,87.129309 0 0 0 -0.3752,-0.14851 87.129309,87.129309 0 0 0 -0.3761,-0.14664 87.129309,87.129309 0 0 0 -0.377,-0.14467 87.129309,87.129309 0 0 0 -0.3777,-0.14326 87.129309,87.129309 0 0 0 -0.3781,-0.1412 87.129309,87.129309 0 0 0 -0.379,-0.13923 87.129309,87.129309 0 0 0 -0.3791,-0.13824 87.129309,87.129309 0 0 0 -0.3806,-0.13585 87.129309,87.129309 0 0 0 -0.3804,-0.13419 87.129309,87.129309 0 0 0 -0.3818,-0.13241 87.129309,87.129309 0 0 0 -0.3815,-0.13073 87.129309,87.129309 0 0 0 -0.3828,-0.12894 87.129309,87.129309 0 0 0 -0.3832,-0.12738 87.129309,87.129309 0 0 0 -0.3836,-0.1254 87.129309,87.129309 0 0 0 -0.3842,-0.12391 87.129309,87.129309 0 0 0 -0.3853,-0.12144 87.129309,87.129309 0 0 0 -0.3854,-0.12046 87.129309,87.129309 0 0 0 -0.3859,-0.1179 87.129309,87.129309 0 0 0 -0.3866,-0.117 87.129309,87.129309 0 0 0 -0.387,-0.11445 87.129309,87.129309 0 0 0 -0.3879,-0.11297 87.129309,87.129309 0 0 0 -0.3881,-0.11098 87.129309,87.129309 0 0 0 -0.3889,-0.10949 87.129309,87.129309 0 0 0 -0.3888,-0.10736 87.129309,87.129309 0 0 0 -0.3896,-0.10595 87.129309,87.129309 0 0 0 -0.3905,-0.10349 87.129309,87.129309 0 0 0 -0.3907,-0.10249 87.129309,87.129309 0 0 0 -0.3911,-0.0999 87.129309,87.129309 0 0 0 -0.3913,-0.099 87.129309,87.129309 0 0 0 -0.3918,-0.0964 87.129309,87.129309 0 0 0 -0.3926,-0.0949 87.129309,87.129309 0 0 0 -0.3928,-0.0929 87.129309,87.129309 0 0 0 -0.3932,-0.0914 87.129309,87.129309 0 0 0 -0.3941,-0.0894 87.129309,87.129309 0 0 0 -0.3939,-0.0873 87.129309,87.129309 0 0 0 -0.3947,-0.0858 87.129309,87.129309 0 0 0 -0.3951,-0.0839 87.129309,87.129309 0 0 0 -0.3954,-0.0818 87.129309,87.129309 0 0 0 -0.3956,-0.0802 87.129309,87.129309 0 0 0 -0.3959,-0.0789 87.129309,87.129309 0 0 0 -0.3964,-0.076 87.129309,87.129309 0 0 0 -0.3966,-0.075 87.129309,87.129309 0 0 0 -0.3969,-0.073 87.129309,87.129309 0 0 0 -0.3978,-0.0711 87.129309,87.129309 0 0 0 -0.391,-0.0679 87.129309,87.129309 0 0 0 -0.398,-0.0671 87.129309,87.129309 0 0 0 -0.3984,-0.0652 87.129309,87.129309 0 0 0 -0.3991,-0.0633 87.129309,87.129309 0 0 0 -0.3989,-0.0622 87.129309,87.129309 0 0 0 -0.3993,-0.0599 87.129309,87.129309 0 0 0 -0.3996,-0.0579 87.129309,87.129309 0 0 0 -0.3999,-0.0563 87.129309,87.129309 0 0 0 -0.3997,-0.0547 87.129309,87.129309 0 0 0 -0.4006,-0.0523 87.129309,87.129309 0 0 0 -0.4002,-0.0507 87.129309,87.129309 0 0 0 -0.4007,-0.0491 87.129309,87.129309 0 0 0 -0.401,-0.0471 87.129309,87.129309 0 0 0 -0.4014,-0.0451 87.129309,87.129309 0 0 0 -0.4016,-0.043 87.129309,87.129309 0 0 0 -0.4015,-0.0414 87.129309,87.129309 0 0 0 -0.4018,-0.0399 87.129309,87.129309 0 0 0 -0.402,-0.0378 87.129309,87.129309 0 0 0 -0.402,-0.0358 87.129309,87.129309 0 0 0 -0.4023,-0.0337 87.129309,87.129309 0 0 0 -0.4025,-0.0321 87.129309,87.129309 0 0 0 -0.4025,-0.0305 87.129309,87.129309 0 0 0 -0.4027,-0.028 87.129309,87.129309 0 0 0 -0.403,-0.0265 87.129309,87.129309 0 0 0 -0.4029,-0.0248 87.129309,87.129309 0 0 0 -0.4031,-0.0229 87.129309,87.129309 0 0 0 -0.4035,-0.0208 87.129309,87.129309 0 0 0 -0.4033,-0.0192 87.129309,87.129309 0 0 0 -0.4032,-0.0171 87.129309,87.129309 0 0 0 -0.4034,-0.0155 87.129309,87.129309 0 0 0 -0.4038,-0.0134 87.129309,87.129309 0 0 0 -0.4036,-0.0113 87.129309,87.129309 0 0 0 -0.4034,-0.01 87.129309,87.129309 0 0 0 -0.4037,-0.008 87.129309,87.129309 0 0 0 -0.4035,-0.006 87.129309,87.129309 0 0 0 -0.4039,-0.004 87.129309,87.129309 0 0 0 -0.4036,-0.002 87.129309,87.129309 0 0 0 -0.404,-3.6e-4 87.129309,87.129309 0 0 0 -0.4038,0.002 87.129309,87.129309 0 0 0 -0.4036,0.003 87.129309,87.129309 0 0 0 -0.4034,0.006 87.129309,87.129309 0 0 0 -0.4038,0.007 87.129309,87.129309 0 0 0 -0.404,0.009 87.129309,87.129309 0 0 0 -0.4033,0.0107 87.129309,87.129309 0 0 0 -0.4038,0.0128 87.129309,87.129309 0 0 0 -0.4034,0.0144 87.129309,87.129309 0 0 0 -0.4033,0.0165 87.129309,87.129309 0 0 0 -0.4036,0.0186 87.129309,87.129309 0 0 0 -0.4029,0.0202 87.129309,87.129309 0 0 0 -0.4033,0.0223 87.129309,87.129309 0 0 0 -0.4029,0.0239 87.129309,87.129309 0 0 0 -0.4028,0.0256 87.129309,87.129309 0 0 0 -0.4027,0.0282 87.129309,87.129309 0 0 0 -0.403,0.0292 87.129309,87.129309 0 0 0 -0.4022,0.0314 87.129309,87.129309 0 0 0 -0.4026,0.0334 87.129309,87.129309 0 0 0 -0.4024,0.0351 87.129309,87.129309 0 0 0 -0.4017,0.0373 87.129309,87.129309 0 0 0 -0.4019,0.0388 87.129309,87.129309 0 0 0 -0.4018,0.0409 87.129309,87.129309 0 0 0 -0.4016,0.0425 87.129309,87.129309 0 0 0 -0.4014,0.0441 87.129309,87.129309 0 0 0 -0.4006,0.0464 87.129309,87.129309 0 0 0 -0.4011,0.0484 87.129309,87.129309 0 0 0 -0.4008,0.05 87.129309,87.129309 0 0 0 -0.4,0.0517 87.129309,87.129309 0 0 0 -0.4004,0.0538 87.129309,87.129309 0 0 0 -0.3997,0.056 87.129309,87.129309 0 0 0 -0.4,0.057 87.129309,87.129309 0 0 0 -0.3993,0.0597 87.129309,87.129309 0 0 0 -0.3991,0.0608 87.129309,87.129309 0 0 0 -0.3989,0.063 87.129309,87.129309 0 0 0 -0.3982,0.0652 87.129309,87.129309 0 0 0 -0.3985,0.0667 87.129309,87.129309 0 0 0 -0.3977,0.0684 87.129309,87.129309 0 0 0 -0.3976,0.0705 87.129309,87.129309 0 0 0 -0.3973,0.0721 87.129309,87.129309 0 0 0 -0.3968,0.0743 87.129309,87.129309 0 0 0 -0.3963,0.0755 87.129309,87.129309 0 0 0 -0.3963,0.0781 87.129309,87.129309 0 0 0 -0.3959,0.0792 87.129309,87.129309 0 0 0 -0.3955,0.0819 87.129309,87.129309 0 0 0 -0.3951,0.083 87.129309,87.129309 0 0 0 -0.3944,0.0853 87.129309,87.129309 0 0 0 -0.3947,0.0868 87.129309,87.129309 0 0 0 -0.3934,0.0886 87.129309,87.129309 0 0 0 -0.3937,0.0906 87.129309,87.129309 0 0 0 -0.3931,0.0923 87.129309,87.129309 0 0 0 -0.3924,0.0945 87.129309,87.129309 0 0 0 -0.3921,0.0956 87.129309,87.129309 0 0 0 -0.3918,0.0978 87.129309,87.129309 0 0 0 -0.3913,0.1 87.129309,87.129309 0 0 0 -0.3909,0.10109 87.129309,87.129309 0 0 0 -0.3903,0.10329 87.129309,87.129309 0 0 0 -0.3895,0.10552 87.129309,87.129309 0 0 0 -0.3898,0.10654 87.129309,87.129309 0 0 0 -0.3886,0.10883 87.129309,87.129309 0 0 0 -0.3884,0.11045 87.129309,87.129309 0 0 0 -0.3876,0.11217 87.129309,87.129309 0 0 0 -0.3875,0.11428 87.129309,87.129309 0 0 0 -0.3866,0.11603 87.129309,87.129309 0 0 0 -0.3865,0.1176 87.129309,87.129309 0 0 0 -0.3853,0.11938 87.129309,87.129309 0 0 0 -0.3855,0.12096 87.129309,87.129309 0 0 0 -0.3843,0.12322 87.129309,87.129309 0 0 0 -0.3841,0.12486 87.129309,87.129309 0 0 0 -0.3833,0.12655 87.129309,87.129309 0 0 0 -0.3826,0.12828 87.129309,87.129309 0 0 0 -0.3825,0.13038 87.129309,87.129309 0 0 0 -0.3815,0.1316 87.129309,87.129309 0 0 0 -0.3809,0.13381 87.129309,87.129309 0 0 0 -0.3802,0.13551 87.129309,87.129309 0 0 0 -0.38,0.13711 87.129309,87.129309 0 0 0 -0.3792,0.13885 87.129309,87.129309 0 0 0 -0.3785,0.14052 87.129309,87.129309 0 0 0 -0.3778,0.14275 87.129309,87.129309 0 0 0 -0.3769,0.14399 87.129309,87.129309 0 0 0 -0.3763,0.14615 87.129309,87.129309 0 0 0 -0.3761,0.14776 87.129309,87.129309 0 0 0 -0.3747,0.14909 87.129309,87.129309 0 0 0 -0.3745,0.15119 87.129309,87.129309 0 0 0 -0.3738,0.15291 87.129309,87.129309 0 0 0 -0.3727,0.15469 87.129309,87.129309 0 0 0 -0.3723,0.15632 87.129309,87.129309 0 0 0 -0.3715,0.15801 87.129309,87.129309 0 0 0 -0.3709,0.16023 87.129309,87.129309 0 0 0 -0.3701,0.16146 87.129309,87.129309 0 0 0 -0.3693,0.16313 87.129309,87.129309 0 0 0 -0.3685,0.16486 87.129309,87.129309 0 0 0 -0.3674,0.16661 87.129309,87.129309 0 0 0 -0.367,0.16828 87.129309,87.129309 0 0 0 -0.3664,0.16994 87.129309,87.129309 0 0 0 -0.3657,0.17219 87.129309,87.129309 0 0 0 -0.3642,0.17346 87.129309,87.129309 0 0 0 -0.3642,0.17509 87.129309,87.129309 0 0 0 -0.3627,0.17636 87.129309,87.129309 0 0 0 -0.362,0.17859 87.129309,87.129309 0 0 0 -0.3614,0.18028 87.129309,87.129309 0 0 0 -0.3606,0.18201 87.129309,87.129309 0 0 0 -0.3597,0.18321 87.129309,87.129309 0 0 0 -0.3585,0.18551 87.129309,87.129309 0 0 0 -0.1901,0.0992 87.129309,87.129309 0 0 0 -33.2936,54.39699 87.129309,87.129309 0 0 0 70.6755,100.93568 87.129309,87.129309 0 0 0 55.4574,-8.57141 z"
         style="fill:#93b5b9;fill-opacity:1;stroke-width:8.665;stroke-linecap:round;stroke-linejoin:round"
         id="circle14683" />
      <path
         sodipodi:nodetypes="ccssccsssssssssscscc"
         d="m 2581.7691,420.89816 c -23.8295,-4.20175 -48.333,1.69527 -67.6417,16.27858 0.064,-0.033 0.1267,-0.0662 0.1902,-0.0992 0.1194,-0.0621 0.2389,-0.12395 0.3586,-0.1855 0.1197,-0.0613 0.2396,-0.12244 0.3596,-0.18322 69.2715,-2.89282 127.4851,96.62524 95.3092,144.53242 -0.1036,0.0864 -0.2065,0.17263 -0.31,0.2586 -0.1035,0.0859 -0.2077,0.17137 -0.3118,0.2567 -0.1044,0.0853 -0.2083,0.17058 -0.3127,0.25552 -0.1044,0.0848 -0.2087,0.16945 -0.3134,0.25382 -0.1052,0.0843 -0.21,0.16852 -0.3153,0.25242 -0.1052,0.084 -0.2105,0.16772 -0.3161,0.25121 -0.1061,0.0833 -0.2114,0.16656 -0.3174,0.24946 -0.106,0.083 -0.2123,0.16567 -0.3187,0.24814 -0.106,0.0827 -0.2129,0.16488 -0.3195,0.24695 -0.1069,0.0819 -0.2137,0.16369 -0.3209,0.24515 -0.077,0.0591 -0.1557,0.11783 -0.2337,0.17656 23.9779,-12.51973 40.7811,-35.46592 45.4784,-62.10458 8.3559,-47.38913 -23.2869,-92.57937 -70.676,-100.93525 z"
         style="fill:#628288;fill-opacity:1;stroke-width:8.665;stroke-linecap:round;stroke-linejoin:round"
         id="path14718" />
    </g>
  </g>
</svg>
