<?xml version="1.0" encoding="UTF-8" standalone="no"?>
<svg
   xmlns:dc="http://purl.org/dc/elements/1.1/"
   xmlns:cc="http://creativecommons.org/ns#"
   xmlns:rdf="http://www.w3.org/1999/02/22-rdf-syntax-ns#"
   xmlns:svg="http://www.w3.org/2000/svg"
   xmlns="http://www.w3.org/2000/svg"
   xmlns:sodipodi="http://sodipodi.sourceforge.net/DTD/sodipodi-0.dtd"
   xmlns:inkscape="http://www.inkscape.org/namespaces/inkscape"
   inkscape:export-ydpi="96"
   inkscape:export-xdpi="96"
   inkscape:export-filename="C:\Users\Marek\Desktop\graphic\web_sun\mercury.png"
   width="400"
   height="400"
   viewBox="0 0 105.83333 105.83334"
   version="1.1"
   id="svg8"
   inkscape:version="1.0 (4035a4fb49, 2020-05-01)"
   sodipodi:docname="venus.svg">
  <defs
     id="defs2">
    <inkscape:path-effect
       lpeversion="1"
       is_visible="true"
       id="path-effect5049"
       effect="spiro" />
    <inkscape:path-effect
       lpeversion="1"
       is_visible="true"
       id="path-effect5047"
       effect="spiro" />
    <inkscape:path-effect
       lpeversion="1"
       is_visible="true"
       id="path-effect5045"
       effect="spiro" />
    <inkscape:path-effect
       lpeversion="1"
       is_visible="true"
       id="path-effect9974"
       effect="spiro" />
    <inkscape:path-effect
       lpeversion="1"
       is_visible="true"
       id="path-effect9972"
       effect="spiro" />
    <inkscape:path-effect
       lpeversion="1"
       is_visible="true"
       id="path-effect9970"
       effect="spiro" />
    <inkscape:path-effect
       lpeversion="1"
       is_visible="true"
       id="path-effect9927"
       effect="spiro" />
    <inkscape:path-effect
       lpeversion="1"
       is_visible="true"
       id="path-effect9477"
       effect="spiro" />
    <inkscape:path-effect
       effect="spiro"
       id="path-effect9029"
       is_visible="true"
       lpeversion="1" />
    <inkscape:path-effect
       effect="spiro"
       id="path-effect9027"
       is_visible="true"
       lpeversion="1" />
    <inkscape:path-effect
       effect="spiro"
       id="path-effect9025"
       is_visible="true"
       lpeversion="1" />
    <inkscape:path-effect
       effect="spiro"
       id="path-effect9023"
       is_visible="true"
       lpeversion="1" />
    <inkscape:path-effect
       effect="spiro"
       id="path-effect9021"
       is_visible="true"
       lpeversion="1" />
    <inkscape:path-effect
       lpeversion="1"
       is_visible="true"
       id="path-effect9019"
       effect="spiro" />
    <inkscape:path-effect
       lpeversion="1"
       is_visible="true"
       id="path-effect1609"
       effect="spiro" />
    <inkscape:path-effect
       lpeversion="1"
       is_visible="true"
       id="path-effect1607"
       effect="spiro" />
    <inkscape:path-effect
       lpeversion="1"
       is_visible="true"
       id="path-effect1605"
       effect="spiro" />
    <inkscape:path-effect
       lpeversion="1"
       is_visible="true"
       id="path-effect780"
       effect="spiro" />
    <inkscape:path-effect
       lpeversion="1"
       is_visible="true"
       id="path-effect776"
       effect="spiro" />
    <inkscape:path-effect
       effect="spiro"
       id="path-effect769"
       is_visible="true"
       lpeversion="1" />
    <inkscape:path-effect
       lpeversion="1"
       is_visible="true"
       id="path-effect763"
       effect="spiro" />
    <inkscape:path-effect
       lpeversion="1"
       is_visible="true"
       id="path-effect759"
       effect="spiro" />
    <inkscape:path-effect
       lpeversion="1"
       is_visible="true"
       id="path-effect755"
       effect="spiro" />
    <inkscape:path-effect
       lpeversion="1"
       is_visible="true"
       id="path-effect744"
       effect="spiro" />
    <inkscape:path-effect
       lpeversion="1"
       is_visible="true"
       id="path-effect742"
       effect="spiro" />
    <inkscape:path-effect
       lpeversion="1"
       is_visible="true"
       id="path-effect740"
       effect="spiro" />
    <inkscape:path-effect
       effect="spiro"
       id="path-effect684"
       is_visible="true"
       lpeversion="1" />
    <inkscape:path-effect
       lpeversion="1"
       is_visible="true"
       id="path-effect680"
       effect="spiro" />
    <inkscape:path-effect
       lpeversion="1"
       is_visible="true"
       id="path-effect678"
       effect="spiro" />
    <inkscape:path-effect
       lpeversion="1"
       is_visible="true"
       id="path-effect676"
       effect="spiro" />
    <inkscape:path-effect
       lpeversion="1"
       is_visible="true"
       id="path-effect658"
       effect="spiro" />
    <inkscape:path-effect
       lpeversion="1"
       is_visible="true"
       id="path-effect654"
       effect="spiro" />
    <inkscape:path-effect
       lpeversion="1"
       is_visible="true"
       id="path-effect650"
       effect="spiro" />
    <inkscape:path-effect
       lpeversion="1"
       is_visible="true"
       id="path-effect646"
       effect="spiro" />
    <inkscape:path-effect
       lpeversion="1"
       is_visible="true"
       id="path-effect642"
       effect="spiro" />
    <inkscape:path-effect
       lpeversion="1"
       is_visible="true"
       id="path-effect630"
       effect="spiro" />
    <inkscape:path-effect
       lpeversion="1"
       is_visible="true"
       id="path-effect628"
       effect="spiro" />
    <inkscape:path-effect
       lpeversion="1"
       is_visible="true"
       id="path-effect626"
       effect="spiro" />
    <inkscape:path-effect
       effect="spiro"
       id="path-effect618"
       is_visible="true"
       lpeversion="1" />
    <inkscape:path-effect
       effect="spiro"
       id="path-effect612"
       is_visible="true"
       lpeversion="1" />
    <inkscape:path-effect
       effect="spiro"
       id="path-effect606"
       is_visible="true"
       lpeversion="1" />
    <inkscape:path-effect
       effect="spiro"
       id="path-effect2043"
       is_visible="true"
       lpeversion="1" />
    <inkscape:path-effect
       effect="spiro"
       id="path-effect319"
       is_visible="true"
       lpeversion="1" />
    <inkscape:path-effect
       lpeversion="1"
       is_visible="true"
       id="path-effect1168"
       effect="spiro" />
    <inkscape:path-effect
       lpeversion="1"
       is_visible="true"
       id="path-effect1164"
       effect="spiro" />
    <inkscape:path-effect
       lpeversion="1"
       is_visible="true"
       id="path-effect1160"
       effect="spiro" />
    <inkscape:path-effect
       lpeversion="1"
       is_visible="true"
       id="path-effect1156"
       effect="spiro" />
    <inkscape:path-effect
       lpeversion="1"
       is_visible="true"
       id="path-effect1152"
       effect="spiro" />
    <inkscape:path-effect
       lpeversion="1"
       is_visible="true"
       id="path-effect1148"
       effect="spiro" />
    <inkscape:path-effect
       lpeversion="1"
       is_visible="true"
       id="path-effect1144"
       effect="spiro" />
    <inkscape:path-effect
       lpeversion="1"
       is_visible="true"
       id="path-effect1140"
       effect="spiro" />
    <inkscape:path-effect
       effect="spiro"
       id="path-effect1462"
       is_visible="true"
       lpeversion="1" />
    <inkscape:path-effect
       effect="spiro"
       id="path-effect1453"
       is_visible="true"
       lpeversion="1" />
    <inkscape:path-effect
       effect="spiro"
       id="path-effect1441"
       is_visible="true"
       lpeversion="1" />
    <inkscape:path-effect
       lpeversion="1"
       is_visible="true"
       id="path-effect103"
       effect="spiro" />
    <inkscape:path-effect
       lpeversion="1"
       is_visible="true"
       id="path-effect99"
       effect="spiro" />
    <inkscape:path-effect
       lpeversion="1"
       is_visible="true"
       id="path-effect91"
       effect="spiro" />
    <inkscape:path-effect
       lpeversion="1"
       is_visible="true"
       id="path-effect87"
       effect="spiro" />
    <inkscape:path-effect
       lpeversion="1"
       is_visible="true"
       id="path-effect83"
       effect="spiro" />
    <inkscape:path-effect
       lpeversion="1"
       is_visible="true"
       id="path-effect79"
       effect="spiro" />
    <inkscape:path-effect
       lpeversion="1"
       is_visible="true"
       id="path-effect71"
       effect="spiro" />
    <inkscape:path-effect
       lpeversion="1"
       is_visible="true"
       id="path-effect67"
       effect="spiro" />
    <inkscape:path-effect
       lpeversion="1"
       is_visible="true"
       id="path-effect63"
       effect="spiro" />
    <inkscape:path-effect
       effect="spiro"
       id="path-effect44"
       is_visible="true"
       lpeversion="1" />
    <inkscape:path-effect
       effect="spiro"
       id="path-effect40"
       is_visible="true"
       lpeversion="1" />
    <inkscape:path-effect
       effect="spiro"
       id="path-effect36"
       is_visible="true"
       lpeversion="1" />
  </defs>
  <sodipodi:namedview
     id="base"
     pagecolor="#ffffff"
     bordercolor="#666666"
     borderopacity="1.0"
     inkscape:pageopacity="0.0"
     inkscape:pageshadow="2"
     inkscape:zoom="1.8101934"
     inkscape:cx="110.12896"
     inkscape:cy="228.00081"
     inkscape:document-units="mm"
     inkscape:current-layer="layer1"
     inkscape:document-rotation="0"
     showgrid="false"
     inkscape:window-width="1920"
     inkscape:window-height="1013"
     inkscape:window-x="-9"
     inkscape:window-y="-9"
     inkscape:window-maximized="1"
     inkscape:snap-global="true"
     units="px" />
  <metadata
     id="metadata5">
    <rdf:RDF>
      <cc:Work
         rdf:about="">
        <dc:format>image/svg+xml</dc:format>
        <dc:type
           rdf:resource="http://purl.org/dc/dcmitype/StillImage" />
        <dc:title></dc:title>
      </cc:Work>
    </rdf:RDF>
  </metadata>
  <g
     inkscape:label="Warstwa 1"
     inkscape:groupmode="layer"
     id="layer1">
    <g
       id="g50373"
       transform="matrix(0.37423764,0,0,0.36718451,-462.3691,-317.33475)">
      <ellipse
         style="fill:#cfc2bb;fill-opacity:1;stroke-width:9.91052;stroke-linecap:round;stroke-linejoin:round"
         id="ellipse9935"
         cx="1377.3931"
         cy="1006.7052"
         rx="126.57958"
         ry="129.23831" />
      <path
         d="m 1377.3929,877.46695 c -58.2244,-1.00729 -112.4368,44.21366 -123.6404,101.07635 -11.5772,51.5224 10.9068,109.3004 56.0149,137.4985 39.913,26.1864 94.906,26.5989 134.8649,0.2491 44.289,-27.7976 67.5468,-83.9642 57.005,-135.02935 -9.3785,-50.02816 -50.6868,-92.6942 -101.0807,-101.67229 -7.6297,-1.44527 -15.3981,-2.16005 -23.1637,-2.12231 z m -39.3249,17.60295 c 5.0891,0.61596 7.0654,6.80904 11.8035,5.32191 -2.8222,2.84811 -9.5857,8.12641 -1.3225,8.94417 -8.0276,-0.45124 -20.7859,15.45618 -5.0767,11.93445 10.308,5.04786 25.7149,0.20038 31.8398,10.73059 0.3016,5.98861 2.054,6.3661 6.5617,8.16532 0.2365,3.76845 13.2325,12.71142 6.2922,21.04088 7.5478,-1.04191 -1.3469,9.28166 6.6727,6.09778 -1.8792,11.44353 -18.6791,12.01657 -26.8825,14.6939 -7.4128,2.60898 -5.5879,14.53313 2.1131,6.55507 7.9137,-7.21098 17.8872,-6.43701 11.849,-0.0884 9.6884,-7.27173 25.4995,-7.56185 22.661,8.24218 -0.8387,10.34175 25.126,9.08405 11.2205,18.65545 -5.3264,11.3599 -7.2656,24.0888 -13.1022,35.1339 -5.732,8.2622 -18.358,15.9645 -12.3264,24.1456 -7.5148,10.6029 10.3497,-5.1533 15.3712,-4.9966 11.8781,-1.1603 -5.2357,13.3334 -6.349,18.6508 -5.8729,11.9526 -12.5329,30.5699 -28.9052,28.721 -12.9655,-7.8955 13.6712,-24.3737 7.5374,-31.2058 -5.0206,3.765 -12.6758,12.1761 -14.5283,11.0379 -4.3785,6.5892 -10.897,5.2189 -5.123,-2.0038 -1.0223,-11.3817 -12.8664,13.3858 -11.0515,-2.2876 -6.5554,8.5215 -18.1463,0.8883 -28.081,6.5203 -0.1041,-4.843 -2.8622,-15.3956 -5.8059,-5.4973 -10.2272,-5.8458 -14.2147,-19.5057 -24.8869,-25.8788 -5.7276,-6.6895 6.577,-14.2398 2.8801,-23.3668 1.9238,-17.7501 -18.3604,-19.3017 -27.3074,-29.5837 -7.5252,-7.9926 5.5313,-16.90923 -3.7417,-22.30321 6.4116,-11.29501 0.3373,-25.82477 9.5871,-36.09537 4.8183,-12.17707 9.0696,-25.10015 19.6234,-33.67726 10.0752,-10.99832 22.6249,-19.57133 36.7661,-24.34048 3.6664,-1.74034 7.5736,-3.36102 11.7114,-3.26607 z m 12.1897,12.14035 c 4.1096,3.10417 -4.7415,0.12902 0,0 z"
         style="fill:#eee5dc;fill-opacity:1;stroke-width:0.331849"
         id="path9937" />
      <path
         d="m 1377.3929,877.46695 c -53.1228,-0.73887 -103.4248,36.51682 -119.6381,86.87904 -17.308,49.66241 -1.5569,109.17571 39.56,142.42031 36.089,30.8511 90.2414,38.2714 132.984,17.2917 45.5691,-20.6935 75.239,-70.1031 73.6108,-119.9204 -0.1452,-50.04568 -32.2078,-98.19732 -78.6537,-117.06886 -15.0921,-6.40641 -31.4686,-9.68276 -47.863,-9.60179 z m -18.2505,6.51255 c 12.2336,0.82667 29.8156,2.5516 35.1185,15.11467 5.3924,5.82273 16.3416,7.02159 17.6651,17.75746 6.6018,7.72761 17.6882,13.15155 18.8543,24.69038 2.0554,12.74631 15.9855,18.37746 11.6931,32.75859 2.2229,10.38538 16.2816,13.71778 9.374,26.7603 0.1746,8.5209 -7.1653,22.2107 1.6806,25.5645 -4.603,12.6606 10.4307,26.6413 -4.5158,36.2521 -4.3421,7.9346 -0.1418,17.2922 -8.9843,24.1938 -9.4716,8.9817 -13.7772,25.669 -28.349,27.9216 -12.8065,6.9618 -26.6637,12.8649 -41.096,15.3091 -16.2166,-1.7396 -32.3894,-5.3897 -47.9569,-10.2438 -51.4938,-24.0055 -78.5507,-87.1414 -64.4966,-141.51893 10.4317,-44.52131 46.5907,-83.36429 91.5709,-93.64368 3.1178,-0.54489 6.2768,-0.86443 9.4421,-0.91609 z"
         style="fill:#cebaa6;fill-opacity:1;stroke-width:0.331849"
         id="path9939" />
      <path
         d="m 1388.3352,879.44896 c 0.3036,0.0557 0.6886,0.0788 0.9709,0.14256 0.8213,0.18574 2.7621,0.57934 4.3135,0.87501 1.0381,0.19786 2.4989,0.57281 4.1268,1.04025 1.6277,0.46744 3.423,1.02729 5.1313,1.59511 1.7083,0.5678 3.3292,1.14341 4.6089,1.64239 1.2797,0.49893 2.2175,0.92135 2.5596,1.18221 0.1825,0.13921 2.273,1.26156 4.6458,2.49471 1.079,0.56073 2.2854,1.23293 3.5084,1.947 1.223,0.7141 2.4626,1.4696 3.6082,2.19658 1.1456,0.72698 2.1973,1.42536 3.0444,2.02481 0.847,0.59943 1.4896,1.10032 1.8168,1.43174 0.3822,0.38723 1.6484,1.45054 2.8135,2.36312 1.0229,0.80116 2.545,2.0897 4.2187,3.56155 1.6738,1.47185 3.4997,3.12699 5.1307,4.6595 0.8658,0.81363 2.3295,2.43252 3.2538,3.59784 0.4621,0.58267 1.0028,1.20525 1.5018,1.73963 0.4988,0.5344 0.9556,0.98065 1.2502,1.20879 0.4496,0.34828 0.9078,0.7542 1.3591,1.20037 0.4513,0.44616 0.8961,0.93217 1.3191,1.44016 0.4228,0.50799 0.8236,1.03799 1.188,1.57177 0.3643,0.53375 0.6917,1.07164 0.9676,1.59507 0.6648,1.26093 1.2629,2.25834 1.8972,3.13571 0.6341,0.87741 1.3041,1.63482 2.1142,2.41434 0.6397,0.61562 1.4696,1.60619 2.1395,2.50377 0.335,0.4488 0.6301,0.87446 0.8414,1.21788 0.2112,0.34341 0.3388,0.60511 0.3388,0.72593 0,0.18806 0.4044,0.8657 1.0053,1.73311 0.601,0.86743 1.398,1.9247 2.1836,2.87064 0.3791,0.45629 0.8098,1.07631 1.1978,1.70786 0.388,0.63154 0.7333,1.27464 0.9431,1.77656 0.2098,0.50192 0.5028,1.08973 0.8056,1.63332 0.3028,0.54358 0.6153,1.04295 0.8647,1.36564 0.2493,0.32271 0.5025,0.75466 0.709,1.1913 0.2064,0.43662 0.366,0.87791 0.4298,1.21786 0.064,0.33995 0.1554,0.66913 0.2507,0.92619 0.095,0.25705 0.1947,0.44195 0.2755,0.49193 0.08,0.0499 0.155,0.17688 0.2088,0.34157 0.054,0.16471 0.086,0.3672 0.088,0.56714 0,0.18816 0.014,0.35985 0.059,0.55545 0.046,0.19559 0.1242,0.41454 0.2515,0.69804 0.2552,0.56699 0.7095,1.39081 1.5076,2.79222 0.6235,1.09473 1.1878,2.147 1.6904,3.1519 0.5026,1.00495 0.944,1.9621 1.3215,2.86742 0.3777,0.90528 0.6913,1.75846 0.9399,2.55431 0.2485,0.79588 0.4316,1.5349 0.547,2.21148 0.1166,0.68444 0.3063,1.45559 0.5173,2.1473 0.2109,0.6917 0.4433,1.30393 0.6468,1.66896 0.2034,0.36505 0.4347,0.90184 0.6436,1.47325 0.2089,0.57138 0.3957,1.1774 0.5094,1.67933 0.2272,1.00384 0.7667,2.79911 1.1984,3.98932 0.2159,0.59511 0.4119,1.26458 0.5542,1.86407 0.1423,0.59948 0.2307,1.12898 0.2307,1.44341 0,0.31444 0.053,0.75055 0.1368,1.20036 0.085,0.4498 0.202,0.91329 0.3305,1.28138 0.4015,1.14956 0.7193,2.09294 0.9736,2.92376 0.2542,0.83085 0.4447,1.54858 0.5905,2.24583 0.1456,0.69728 0.2463,1.37445 0.322,2.12333 0.075,0.74886 0.1266,1.56995 0.1711,2.55562 0.051,1.12762 0.1497,2.43212 0.2684,3.62638 0.1192,1.19422 0.257,2.27822 0.3862,2.96265 0.1294,0.68444 0.2472,1.57659 0.3326,2.46295 0.085,0.88637 0.138,1.76697 0.138,2.42729 0,1.12862 0.1016,2.30725 0.2801,3.39301 0.1786,1.0858 0.4346,2.0787 0.7446,2.8337 0.1499,0.365 0.5028,1.4736 0.7843,2.463 0.2813,0.9893 0.7481,2.1586 1.0364,2.5984 0.2773,0.4233 0.5272,0.9421 0.7505,1.5464 0.2234,0.6044 0.4199,1.294 0.5911,2.0572 0.1712,0.7633 0.3167,1.6006 0.4376,2.5006 0.1204,0.9 0.2166,1.8626 0.289,2.8771 0.1447,2.029 0.1945,4.2652 0.1563,6.6195 -0.039,2.3542 -0.1647,4.8265 -0.3714,7.3286 -0.2068,2.502 -0.4939,5.0335 -0.8543,7.5061 -0.3604,2.4725 -0.7942,4.886 -1.2937,7.1516 -0.2499,1.1328 -0.5161,2.2286 -0.7978,3.2764 -0.2819,1.0478 -0.5794,2.0479 -0.8913,2.9886 -0.3119,0.9407 -0.6384,1.822 -0.9787,2.6334 -0.3402,0.8113 -0.6948,1.5522 -1.0617,2.2121 -0.2028,0.3651 -0.4114,0.8347 -0.584,1.297 -0.1725,0.4622 -0.3086,0.9178 -0.3674,1.2541 -0.1104,0.6272 -0.4003,1.5009 -0.9768,2.8726 -0.5765,1.3716 -1.4395,3.2413 -2.6936,5.8599 -1.4255,2.9759 -2.381,4.9968 -2.9802,6.3115 -0.5993,1.3147 -0.842,1.9225 -0.842,2.0728 0,0.1685 -0.6196,1.2629 -1.376,2.4318 -0.7564,1.1691 -1.8964,3.0966 -2.5329,4.283 -0.9497,1.7702 -1.6422,3.0115 -2.1506,3.8435 -0.5082,0.8319 -0.8318,1.2538 -1.0435,1.3844 -0.2206,0.1359 -1.0652,1.1588 -1.8763,2.2724 -0.811,1.1136 -2.1384,2.9057 -2.9497,3.9822 -0.8998,1.1939 -3.181,3.7808 -5.5268,6.3304 -2.3458,2.5497 -4.7562,5.0614 -5.9143,6.1042 -0.9272,0.8349 -2.3571,2.1618 -3.1785,2.9478 -0.8213,0.7859 -2.4888,2.1936 -3.7048,3.128 -1.216,0.9344 -3.3811,2.6018 -4.8117,3.706 -0.9832,0.7589 -2.0162,1.5072 -3.0931,2.2419 -1.0768,0.7349 -2.1974,1.4567 -3.356,2.1629 -1.1586,0.7063 -2.3549,1.3969 -3.5836,2.0702 -1.2287,0.6734 -2.4899,1.3291 -3.7767,1.9651 -1.287,0.636 -2.5997,1.2522 -3.9329,1.8466 -1.3334,0.5943 -2.687,1.1668 -4.0548,1.7149 -1.368,0.5484 -2.7503,1.0728 -4.141,1.5706 -1.3908,0.4977 -2.7904,0.9694 -4.1923,1.4122 a 126.57958,129.2383 0 0 0 0.3325,-0.078 126.57958,129.2383 0 0 0 0.5283,-0.1258 126.57958,129.2383 0 0 0 0.5275,-0.1277 126.57958,129.2383 0 0 0 0.5271,-0.1296 126.57958,129.2383 0 0 0 0.5269,-0.1322 126.57958,129.2383 0 0 0 0.5256,-0.1342 126.57958,129.2383 0 0 0 0.5257,-0.1367 126.57958,129.2383 0 0 0 0.5244,-0.1387 126.57958,129.2383 0 0 0 0.5242,-0.1413 126.57958,129.2383 0 0 0 0.5238,-0.1439 126.57958,129.2383 0 0 0 0.523,-0.1459 126.57958,129.2383 0 0 0 6e-4,0 126.57958,129.2383 0 0 0 0.5224,-0.1477 126.57958,129.2383 0 0 0 0.5218,-0.1504 126.57958,129.2383 0 0 0 0.5205,-0.153 126.57958,129.2383 0 0 0 0.5204,-0.1549 126.57958,129.2383 0 0 0 0.5199,-0.1574 126.57958,129.2383 0 0 0 0.5191,-0.1594 126.57958,129.2383 0 0 0 0.5185,-0.1615 126.57958,129.2383 0 0 0 0.5179,-0.164 126.57958,129.2383 0 0 0 0.5166,-0.1666 126.57958,129.2383 0 0 0 0.5165,-0.1684 126.57958,129.2383 0 0 0 0.516,-0.1712 126.57958,129.2383 0 0 0 0.5152,-0.173 126.57958,129.2383 0 0 0 0.514,-0.1751 126.57958,129.2383 0 0 0 6e-4,0 126.57958,129.2383 0 0 0 0.5128,-0.1776 126.57958,129.2383 0 0 0 0.5127,-0.1801 126.57958,129.2383 0 0 0 0.512,-0.1815 126.57958,129.2383 0 0 0 0.5113,-0.1847 126.57958,129.2383 0 0 0 0.5101,-0.1866 126.57958,129.2383 0 0 0 0.5095,-0.1887 126.57958,129.2383 0 0 0 0.5088,-0.1911 126.57958,129.2383 0 0 0 0.5081,-0.1932 126.57958,129.2383 0 0 0 6e-4,0 126.57958,129.2383 0 0 0 0.5069,-0.1951 126.57958,129.2383 0 0 0 0.5062,-0.1977 126.57958,129.2383 0 0 0 0.5056,-0.1997 126.57958,129.2383 0 0 0 0.5048,-0.2022 126.57958,129.2383 0 0 0 0.5037,-0.2042 126.57958,129.2383 0 0 0 0.5029,-0.2066 126.57958,129.2383 0 0 0 0.5024,-0.2088 126.57958,129.2383 0 0 0 0.5017,-0.2107 126.57958,129.2383 0 0 0 0.5003,-0.2132 126.57958,129.2383 0 0 0 6e-4,0 126.57958,129.2383 0 0 0 0.4991,-0.2151 126.57958,129.2383 0 0 0 0.4978,-0.2172 126.57958,129.2383 0 0 0 0.4978,-0.2196 126.57958,129.2383 0 0 0 0.497,-0.2218 126.57958,129.2383 0 0 0 0.496,-0.2242 126.57958,129.2383 0 0 0 0.4944,-0.2262 126.57958,129.2383 0 0 0 0.4939,-0.2281 126.57958,129.2383 0 0 0 0.4933,-0.2308 126.57958,129.2383 0 0 0 0.4925,-0.232 126.57958,129.2383 0 0 0 0.49,-0.2353 126.57958,129.2383 0 0 0 0.4901,-0.2366 126.57958,129.2383 0 0 0 0.4893,-0.2392 126.57958,129.2383 0 0 0 0.488,-0.241 126.57958,129.2383 0 0 0 0.4867,-0.2431 126.57958,129.2383 0 0 0 0.4862,-0.2457 126.57958,129.2383 0 0 0 6e-4,0 126.57958,129.2383 0 0 0 0.4841,-0.2476 126.57958,129.2383 0 0 0 0.4837,-0.2495 126.57958,129.2383 0 0 0 0.4827,-0.2522 126.57958,129.2383 0 0 0 0.4823,-0.2533 126.57958,129.2383 0 0 0 0.4802,-0.256 126.57958,129.2383 0 0 0 0.4797,-0.258 126.57958,129.2383 0 0 0 0.4783,-0.2605 126.57958,129.2383 0 0 0 0.4778,-0.2619 126.57958,129.2383 0 0 0 0.4763,-0.2645 126.57958,129.2383 0 0 0 6e-4,0 126.57958,129.2383 0 0 0 0.4745,-0.2663 126.57958,129.2383 0 0 0 0.4745,-0.269 126.57958,129.2383 0 0 0 0.4725,-0.2703 126.57958,129.2383 0 0 0 0.4718,-0.2729 126.57958,129.2383 0 0 0 0.4705,-0.2748 126.57958,129.2383 0 0 0 0.4699,-0.2767 126.57958,129.2383 0 0 0 7e-4,0 126.57958,129.2383 0 0 0 0.4673,-0.2787 126.57958,129.2383 0 0 0 0.4673,-0.2807 126.57958,129.2383 0 0 0 6e-4,0 126.57958,129.2383 0 0 0 0.4655,-0.2832 126.57958,129.2383 0 0 0 0.4647,-0.2846 126.57958,129.2383 0 0 0 0.464,-0.2871 126.57958,129.2383 0 0 0 0.4621,-0.2891 126.57958,129.2383 0 0 0 0.4609,-0.291 126.57958,129.2383 0 0 0 0.4601,-0.293 126.57958,129.2383 0 0 0 0.4589,-0.2949 126.57958,129.2383 0 0 0 0.4576,-0.2968 126.57958,129.2383 0 0 0 0.4564,-0.2994 126.57958,129.2383 0 0 0 0.4549,-0.3008 126.57958,129.2383 0 0 0 0.4531,-0.3033 126.57958,129.2383 0 0 0 0.4531,-0.3046 126.57958,129.2383 0 0 0 0.451,-0.3073 126.57958,129.2383 0 0 0 0.4499,-0.3092 126.57958,129.2383 0 0 0 0.4485,-0.3104 126.57958,129.2383 0 0 0 0.4471,-0.313 126.57958,129.2383 0 0 0 0.446,-0.315 126.57958,129.2383 0 0 0 0.4447,-0.3163 126.57958,129.2383 0 0 0 0.4432,-0.319 126.57958,129.2383 0 0 0 0.4415,-0.3208 126.57958,129.2383 0 0 0 0.4407,-0.3227 126.57958,129.2383 0 0 0 0.44,-0.3241 126.57958,129.2383 0 0 0 0.4369,-0.3267 126.57958,129.2383 0 0 0 0.4368,-0.3279 126.57958,129.2383 0 0 0 0.435,-0.3306 126.57958,129.2383 0 0 0 0.4336,-0.3319 126.57958,129.2383 0 0 0 0.4323,-0.3343 126.57958,129.2383 0 0 0 0.431,-0.3358 126.57958,129.2383 0 0 0 0.4297,-0.3376 126.57958,129.2383 0 0 0 0.4278,-0.3397 126.57958,129.2383 0 0 0 0.4264,-0.3416 126.57958,129.2383 0 0 0 0.4252,-0.3435 126.57958,129.2383 0 0 0 0.424,-0.3455 126.57958,129.2383 0 0 0 0.4225,-0.3467 126.57958,129.2383 0 0 0 0.4213,-0.3488 126.57958,129.2383 0 0 0 0.4187,-0.3513 126.57958,129.2383 0 0 0 0.4181,-0.3525 126.57958,129.2383 0 0 0 0.4161,-0.3545 126.57958,129.2383 0 0 0 0.4155,-0.3558 126.57958,129.2383 0 0 0 0.4135,-0.3585 126.57958,129.2383 0 0 0 0.4121,-0.3597 126.57958,129.2383 0 0 0 0.4097,-0.3617 126.57958,129.2383 0 0 0 0.409,-0.3636 126.57958,129.2383 0 0 0 6e-4,0 126.57958,129.2383 0 0 0 0.4071,-0.3649 126.57958,129.2383 0 0 0 0.4057,-0.3668 126.57958,129.2383 0 0 0 0.4044,-0.3688 126.57958,129.2383 0 0 0 7e-4,0 126.57958,129.2383 0 0 0 0.4018,-0.3707 126.57958,129.2383 0 0 0 0.4013,-0.3728 126.57958,129.2383 0 0 0 0.3992,-0.3739 126.57958,129.2383 0 0 0 0.3986,-0.3752 126.57958,129.2383 0 0 0 0,-8e-4 126.57958,129.2383 0 0 0 0.3961,-0.3771 126.57958,129.2383 0 0 0 0.3953,-0.3792 126.57958,129.2383 0 0 0 0.3928,-0.3812 126.57958,129.2383 0 0 0 0.3921,-0.3824 126.57958,129.2383 0 0 0 6e-4,-6e-4 126.57958,129.2383 0 0 0 0.389,-0.3843 126.57958,129.2383 0 0 0 0.3888,-0.3857 126.57958,129.2383 0 0 0 0.387,-0.3883 126.57958,129.2383 0 0 0 0.3856,-0.3894 126.57958,129.2383 0 0 0 0.383,-0.3909 126.57958,129.2383 0 0 0 0.3824,-0.3928 126.57958,129.2383 0 0 0 0.3798,-0.3947 126.57958,129.2383 0 0 0 0.3786,-0.3959 126.57958,129.2383 0 0 0 0.3766,-0.3981 126.57958,129.2383 0 0 0 0.3753,-0.3999 126.57958,129.2383 0 0 0 0.3739,-0.4012 126.57958,129.2383 0 0 0 0.3715,-0.4025 126.57958,129.2383 0 0 0 0.3707,-0.4044 126.57958,129.2383 0 0 0 0.3681,-0.4057 126.57958,129.2383 0 0 0 0.3669,-0.4078 126.57958,129.2383 0 0 0 0.3655,-0.409 126.57958,129.2383 0 0 0 0.363,-0.4109 126.57958,129.2383 0 0 0 6e-4,0 126.57958,129.2383 0 0 0 0.3611,-0.4129 126.57958,129.2383 0 0 0 0.3597,-0.4135 126.57958,129.2383 0 0 0 0.3583,-0.4154 126.57958,129.2383 0 0 0 0.3566,-0.4174 126.57958,129.2383 0 0 0 0.3545,-0.4186 126.57958,129.2383 0 0 0 0.3533,-0.4201 126.57958,129.2383 0 0 0 0.3505,-0.4219 126.57958,129.2383 0 0 0 0.3495,-0.4233 126.57958,129.2383 0 0 0 0.348,-0.4245 126.57958,129.2383 0 0 0 0.3454,-0.4265 126.57958,129.2383 0 0 0 0.3442,-0.4277 126.57958,129.2383 0 0 0 0.3421,-0.4291 126.57958,129.2383 0 0 0 0.3403,-0.4311 126.57958,129.2383 0 0 0 0.339,-0.4323 126.57958,129.2383 0 0 0 0.3364,-0.4336 126.57958,129.2383 0 0 0 0.3352,-0.4355 126.57958,129.2383 0 0 0 0.3331,-0.4368 126.57958,129.2383 0 0 0 6e-4,0 126.57958,129.2383 0 0 0 0.3306,-0.4382 126.57958,129.2383 0 0 0 0.3293,-0.4394 126.57958,129.2383 0 0 0 0.3279,-0.4407 126.57958,129.2383 0 0 0 0.326,-0.4428 126.57958,129.2383 0 0 0 0.3235,-0.444 126.57958,129.2383 0 0 0 0.3221,-0.4452 126.57958,129.2383 0 0 0 0.3202,-0.4465 126.57958,129.2383 0 0 0 0.3188,-0.4479 126.57958,129.2383 0 0 0 0.3157,-0.4499 126.57958,129.2383 0 0 0 0.3151,-0.4504 126.57958,129.2383 0 0 0 0.3123,-0.4524 126.57958,129.2383 0 0 0 0.3104,-0.4537 126.57958,129.2383 0 0 0 0.3093,-0.455 126.57958,129.2383 0 0 0 0.3065,-0.4563 126.57958,129.2383 0 0 0 0.3053,-0.4576 126.57958,129.2383 0 0 0 0.3033,-0.4589 126.57958,129.2383 0 0 0 0.3007,-0.4602 126.57958,129.2383 0 0 0 7e-4,0 126.57958,129.2383 0 0 0 0.2988,-0.4615 126.57958,129.2383 0 0 0 0.2968,-0.4633 126.57958,129.2383 0 0 0 0.2956,-0.4641 126.57958,129.2383 0 0 0 0.2936,-0.4654 126.57958,129.2383 0 0 0 0.291,-0.4666 126.57958,129.2383 0 0 0 0.2897,-0.4681 126.57958,129.2383 0 0 0 0.2878,-0.4692 126.57958,129.2383 0 0 0 0.2852,-0.4706 126.57958,129.2383 0 0 0 0.2832,-0.4718 126.57958,129.2383 0 0 0 0.2819,-0.4731 126.57958,129.2383 0 0 0 0.2795,-0.4745 126.57958,129.2383 0 0 0 0.2773,-0.4751 126.57958,129.2383 0 0 0 0.2762,-0.4764 126.57958,129.2383 0 0 0 0,-6e-4 126.57958,129.2383 0 0 0 0.2734,-0.4776 126.57958,129.2383 0 0 0 0.2717,-0.479 126.57958,129.2383 0 0 0 0.2695,-0.4804 126.57958,129.2383 0 0 0 0.267,-0.4815 126.57958,129.2383 0 0 0 0.2658,-0.4829 126.57958,129.2383 0 0 0 0.2638,-0.4835 126.57958,129.2383 0 0 0 0.2619,-0.4849 126.57958,129.2383 0 0 0 0.2586,-0.486 126.57958,129.2383 0 0 0 0.2573,-0.4874 126.57958,129.2383 0 0 0 0.2554,-0.4881 126.57958,129.2383 0 0 0 0.2534,-0.4893 126.57958,129.2383 0 0 0 0.2514,-0.4907 126.57958,129.2383 0 0 0 0.249,-0.4912 126.57958,129.2383 0 0 0 0.2476,-0.4927 126.57958,129.2383 0 0 0 0,-6e-4 126.57958,129.2383 0 0 0 0.2449,-0.4932 126.57958,129.2383 0 0 0 0.2425,-0.4952 126.57958,129.2383 0 0 0 0.241,-0.4959 126.57958,129.2383 0 0 0 0.2392,-0.497 126.57958,129.2383 0 0 0 0.2372,-0.4978 126.57958,129.2383 0 0 0 0.234,-0.4991 126.57958,129.2383 0 0 0 0.2327,-0.4997 126.57958,129.2383 0 0 0 0.2302,-0.5011 126.57958,129.2383 0 0 0 0.2281,-0.5023 126.57958,129.2383 0 0 0 0.2261,-0.5029 126.57958,129.2383 0 0 0 0.2243,-0.5042 126.57958,129.2383 0 0 0 0.2224,-0.505 126.57958,129.2383 0 0 0 0.2196,-0.5062 126.57958,129.2383 0 0 0 0.2178,-0.5068 126.57958,129.2383 0 0 0 0.2159,-0.5075 126.57958,129.2383 0 0 0 0.2132,-0.5088 126.57958,129.2383 0 0 0 0.2112,-0.5101 126.57958,129.2383 0 0 0 0.2094,-0.5108 126.57958,129.2383 0 0 0 0.2068,-0.5113 126.57958,129.2383 0 0 0 0.2048,-0.5127 126.57958,129.2383 0 0 0 0.2028,-0.5134 126.57958,129.2383 0 0 0 0.2009,-0.5139 126.57958,129.2383 0 0 0 0.1985,-0.5153 126.57958,129.2383 0 0 0 0.1963,-0.5159 126.57958,129.2383 0 0 0 0.1939,-0.5166 126.57958,129.2383 0 0 0 0.1925,-0.5173 126.57958,129.2383 0 0 0 0,-6e-4 126.57958,129.2383 0 0 0 0.1891,-0.5185 126.57958,129.2383 0 0 0 0.188,-0.5191 126.57958,129.2383 0 0 0 0.1854,-0.5205 126.57958,129.2383 0 0 0 0.1834,-0.5204 126.57958,129.2383 0 0 0 0.1815,-0.5218 126.57958,129.2383 0 0 0 0.1782,-0.5225 126.57958,129.2383 0 0 0 0,-6e-4 126.57958,129.2383 0 0 0 0.177,-0.523 126.57958,129.2383 0 0 0 0.1743,-0.5237 126.57958,129.2383 0 0 0 0,-7e-4 126.57958,129.2383 0 0 0 0.1718,-0.5243 126.57958,129.2383 0 0 0 0.1705,-0.5256 126.57958,129.2383 0 0 0 0.1684,-0.5263 126.57958,129.2383 0 0 0 0.1647,-0.5277 126.57958,129.2383 0 0 0 0.1639,-0.5275 126.57958,129.2383 0 0 0 0.1608,-0.5283 126.57958,129.2383 0 0 0 0.1594,-0.5289 126.57958,129.2383 0 0 0 7e-4,-6e-4 126.57958,129.2383 0 0 0 0.1562,-0.5296 126.57958,129.2383 0 0 0 0.1543,-0.5308 126.57958,129.2383 0 0 0 0.1523,-0.5307 126.57958,129.2383 0 0 0 0.1504,-0.5322 126.57958,129.2383 0 0 0 0.1477,-0.5328 126.57958,129.2383 0 0 0 6e-4,0 126.57958,129.2383 0 0 0 0.1453,-0.5327 126.57958,129.2383 0 0 0 0.1432,-0.5342 126.57958,129.2383 0 0 0 0.1412,-0.5346 126.57958,129.2383 0 0 0 0.1388,-0.5347 126.57958,129.2383 0 0 0 0.1368,-0.5355 126.57958,129.2383 0 0 0 0.1341,-0.5359 126.57958,129.2383 0 0 0 0,-7e-4 126.57958,129.2383 0 0 0 0.1323,-0.5366 126.57958,129.2383 0 0 0 0.1302,-0.5374 126.57958,129.2383 0 0 0 0.1277,-0.538 126.57958,129.2383 0 0 0 0.1254,-0.5386 126.57958,129.2383 0 0 0 0.1229,-0.5392 126.57958,129.2383 0 0 0 0.1204,-0.5393 126.57958,129.2383 0 0 0 0.1192,-0.5399 126.57958,129.2383 0 0 0 0,-6e-4 126.57958,129.2383 0 0 0 0.1166,-0.5405 126.57958,129.2383 0 0 0 0.1141,-0.5413 126.57958,129.2383 0 0 0 0.1117,-0.5411 126.57958,129.2383 0 0 0 0.1091,-0.5425 126.57958,129.2383 0 0 0 0.1079,-0.5426 126.57958,129.2383 0 0 0 0.1053,-0.5431 126.57958,129.2383 0 0 0 0.1029,-0.5431 126.57958,129.2383 0 0 0 0.1003,-0.5438 126.57958,129.2383 0 0 0 0,-7e-4 126.57958,129.2383 0 0 0 0.099,-0.5438 126.57958,129.2383 0 0 0 0.095,-0.5451 126.57958,129.2383 0 0 0 0.093,-0.5451 126.57958,129.2383 0 0 0 0.092,-0.5457 126.57958,129.2383 0 0 0 0.089,-0.5457 126.57958,129.2383 0 0 0 8e-4,-7e-4 126.57958,129.2383 0 0 0 0.087,-0.5464 126.57958,129.2383 0 0 0 0.084,-0.5463 126.57958,129.2383 0 0 0 0.083,-0.5471 126.57958,129.2383 0 0 0 0.079,-0.5477 126.57958,129.2383 0 0 0 0.078,-0.5476 126.57958,129.2383 0 0 0 0.075,-0.5484 126.57958,129.2383 0 0 0 0.073,-0.5483 126.57958,129.2383 0 0 0 0.07,-0.549 126.57958,129.2383 0 0 0 0.069,-0.5489 126.57958,129.2383 0 0 0 0.065,-0.5497 126.57958,129.2383 0 0 0 0.064,-0.5496 126.57958,129.2383 0 0 0 0.061,-0.5503 126.57958,129.2383 0 0 0 0.06,-0.5502 126.57958,129.2383 0 0 0 6e-4,0 126.57958,129.2383 0 0 0 0.056,-0.5503 126.57958,129.2383 0 0 0 0.054,-0.5509 126.57958,129.2383 0 0 0 0.053,-0.551 126.57958,129.2383 0 0 0 0.05,-0.5509 126.57958,129.2383 0 0 0 0.048,-0.5515 126.57958,129.2383 0 0 0 0.045,-0.5516 126.57958,129.2383 0 0 0 0.043,-0.5516 126.57958,129.2383 0 0 0 0.04,-0.5522 126.57958,129.2383 0 0 0 0.039,-0.5522 126.57958,129.2383 0 0 0 0.035,-0.5522 126.57958,129.2383 0 0 0 0.034,-0.5523 126.57958,129.2383 0 0 0 0.031,-0.5528 126.57958,129.2383 0 0 0 0.029,-0.5529 126.57958,129.2383 0 0 0 0.026,-0.5529 126.57958,129.2383 0 0 0 0.025,-0.5529 126.57958,129.2383 0 0 0 0.023,-0.5528 126.57958,129.2383 0 0 0 0.019,-0.5529 126.57958,129.2383 0 0 0 0,-6e-4 126.57958,129.2383 0 0 0 0.018,-0.5529 126.57958,129.2383 0 0 0 0.015,-0.5535 126.57958,129.2383 0 0 0 0.013,-0.5535 126.57958,129.2383 0 0 0 0.013,-0.5529 126.57958,129.2383 0 0 0 0.012,-0.5535 126.57958,129.2383 0 0 0 0,-0.5535 126.57958,129.2383 0 0 0 0,-0.5535 126.57958,129.2383 0 0 0 0,-0.5535 126.57958,129.2383 0 0 0 -6e-4,-0.4149 126.57958,129.2383 0 0 0 0,-0.5535 126.57958,129.2383 0 0 0 0,-0.5535 126.57958,129.2383 0 0 0 -0.013,-0.5535 126.57958,129.2383 0 0 0 -0.013,-0.5535 126.57958,129.2383 0 0 0 -0.013,-0.5535 126.57958,129.2383 0 0 0 -0.015,-0.5535 126.57958,129.2383 0 0 0 -0.016,-0.5529 126.57958,129.2383 0 0 0 -0.02,-0.5529 126.57958,129.2383 0 0 0 0,-6e-4 126.57958,129.2383 0 0 0 -0.021,-0.5529 126.57958,129.2383 0 0 0 -0.024,-0.5528 126.57958,129.2383 0 0 0 -0.026,-0.5529 126.57958,129.2383 0 0 0 -0.029,-0.55288 126.57958,129.2383 0 0 0 -0.03,-0.55289 126.57958,129.2383 0 0 0 -0.033,-0.55219 126.57958,129.2383 0 0 0 -0.035,-0.55224 126.57958,129.2383 0 0 0 -0.038,-0.55219 126.57958,129.2383 0 0 0 -0.04,-0.55224 126.57958,129.2383 0 0 0 -0.043,-0.55156 126.57958,129.2383 0 0 0 -0.045,-0.55157 126.57958,129.2383 0 0 0 0,-6.5e-4 126.57958,129.2383 0 0 0 -0.048,-0.55091 126.57958,129.2383 0 0 0 -0.049,-0.55157 126.57958,129.2383 0 0 0 -0.052,-0.55093 126.57958,129.2383 0 0 0 -0.054,-0.55095 126.57958,129.2383 0 0 0 -0.056,-0.55027 126.57958,129.2383 0 0 0 -0.058,-0.55027 126.57958,129.2383 0 0 0 -0.062,-0.54961 126.57958,129.2383 0 0 0 0,-6.6e-4 126.57958,129.2383 0 0 0 -0.064,-0.54962 126.57958,129.2383 0 0 0 -0.065,-0.54963 126.57958,129.2383 0 0 0 -0.068,-0.54898 126.57958,129.2383 0 0 0 -0.07,-0.54899 126.57958,129.2383 0 0 0 -0.073,-0.54831 126.57958,129.2383 0 0 0 -0.074,-0.54834 126.57958,129.2383 0 0 0 -0.078,-0.54766 126.57958,129.2383 0 0 0 0,-6.5e-4 126.57958,129.2383 0 0 0 -0.079,-0.54769 126.57958,129.2383 0 0 0 -0.082,-0.54702 126.57958,129.2383 0 0 0 -0.084,-0.54706 126.57958,129.2383 0 0 0 -0.087,-0.54636 126.57958,129.2383 0 0 0 -0.088,-0.54575 126.57958,129.2383 0 0 0 -0.09,-0.54573 126.57958,129.2383 0 0 0 -0.093,-0.5451 126.57958,129.2383 0 0 0 0,-6.3e-4 126.57958,129.2383 0 0 0 -0.095,-0.5451 126.57958,129.2383 0 0 0 -0.097,-0.54443 126.57958,129.2383 0 0 0 -0.1003,-0.5438 126.57958,129.2383 0 0 0 -0.1029,-0.5438 126.57958,129.2383 0 0 0 -0.1041,-0.54313 126.57958,129.2383 0 0 0 -0.1066,-0.54252 126.57958,129.2383 0 0 0 -0.1091,-0.54247 126.57958,129.2383 0 0 0 -0.1104,-0.54184 126.57958,129.2383 0 0 0 -0.1154,-0.54122 126.57958,129.2383 0 0 0 -0.1154,-0.54055 126.57958,129.2383 0 0 0 -0.1179,-0.53992 126.57958,129.2383 0 0 0 -0.1204,-0.53989 126.57958,129.2383 0 0 0 -0.1229,-0.53925 126.57958,129.2383 0 0 0 -0.1254,-0.53862 126.57958,129.2383 0 0 0 -0.1271,-0.53797 126.57958,129.2383 0 0 0 -0.129,-0.53795 126.57958,129.2383 0 0 0 -0.1316,-0.53664 126.57958,129.2383 0 0 0 -0.1341,-0.53603 126.57958,129.2383 0 0 0 0,-6.4e-4 126.57958,129.2383 0 0 0 -0.136,-0.53604 126.57958,129.2383 0 0 0 -0.1381,-0.5347 126.57958,129.2383 0 0 0 -0.1408,-0.53471 126.57958,129.2383 0 0 0 -0.1432,-0.53408 126.57958,129.2383 0 0 0 -0.1451,-0.53341 126.57958,129.2383 0 0 0 -0.1471,-0.53279 126.57958,129.2383 0 0 0 -0.1492,-0.53212 126.57958,129.2383 0 0 0 -0.1522,-0.53083 126.57958,129.2383 0 0 0 -0.1537,-0.53083 126.57958,129.2383 0 0 0 -0.1561,-0.53019 126.57958,129.2383 0 0 0 -0.1588,-0.52954 126.57958,129.2383 0 0 0 -0.1608,-0.52886 126.57958,129.2383 0 0 0 -6e-4,0 126.57958,129.2383 0 0 0 -0.1621,-0.52762 126.57958,129.2383 0 0 0 -0.1653,-0.52694 126.57958,129.2383 0 0 0 0,-6.2e-4 126.57958,129.2383 0 0 0 -0.1672,-0.52632 126.57958,129.2383 0 0 0 -0.1692,-0.52561 126.57958,129.2383 0 0 0 -0.1717,-0.52502 126.57958,129.2383 0 0 0 -0.1743,-0.52432 126.57958,129.2383 0 0 0 -0.1757,-0.52373 126.57958,129.2383 0 0 0 -0.1783,-0.52239 126.57958,129.2383 0 0 0 -0.1808,-0.52178 126.57958,129.2383 0 0 0 0,-6.2e-4 126.57958,129.2383 0 0 0 -0.1828,-0.52111 126.57958,129.2383 0 0 0 -0.1847,-0.51981 126.57958,129.2383 0 0 0 -0.1873,-0.51918 126.57958,129.2383 0 0 0 0,-6.2e-4 126.57958,129.2383 0 0 0 -0.1892,-0.51852 126.57958,129.2383 0 0 0 -0.1913,-0.51788 126.57958,129.2383 0 0 0 -0.1938,-0.51722 126.57958,129.2383 0 0 0 -0.1956,-0.51593 126.57958,129.2383 0 0 0 0,-6.3e-4 126.57958,129.2383 0 0 0 -0.1977,-0.5153 126.57958,129.2383 0 0 0 -0.2003,-0.51396 126.57958,129.2383 0 0 0 -0.2022,-0.51335 126.57958,129.2383 0 0 0 0,-6.3e-4 126.57958,129.2383 0 0 0 -0.2042,-0.51268 126.57958,129.2383 0 0 0 -0.2068,-0.51137 126.57958,129.2383 0 0 0 -0.2087,-0.51075 126.57958,129.2383 0 0 0 0,-6.7e-4 126.57958,129.2383 0 0 0 -0.2106,-0.50942 126.57958,129.2383 0 0 0 -0.2126,-0.50945 126.57958,129.2383 0 0 0 -0.2152,-0.50813 126.57958,129.2383 0 0 0 -0.2171,-0.50686 126.57958,129.2383 0 0 0 -0.2198,-0.50621 126.57958,129.2383 0 0 0 -0.2216,-0.50488 126.57958,129.2383 0 0 0 0,-6.7e-4 126.57958,129.2383 0 0 0 -0.2236,-0.50424 126.57958,129.2383 0 0 0 -0.2255,-0.50294 126.57958,129.2383 0 0 0 -0.2275,-0.50233 126.57958,129.2383 0 0 0 -0.2302,-0.50102 126.57958,129.2383 0 0 0 0,-6.3e-4 126.57958,129.2383 0 0 0 -0.232,-0.5004 126.57958,129.2383 0 0 0 -0.2339,-0.49906 126.57958,129.2383 0 0 0 -0.236,-0.49841 126.57958,129.2383 0 0 0 -0.2385,-0.49714 126.57958,129.2383 0 0 0 -0.2405,-0.49583 126.57958,129.2383 0 0 0 -0.2424,-0.49518 126.57958,129.2383 0 0 0 -0.2443,-0.49389 126.57958,129.2383 0 0 0 -0.247,-0.49257 126.57958,129.2383 0 0 0 -6e-4,-6.6e-4 126.57958,129.2383 0 0 0 -0.2476,-0.49194 126.57958,129.2383 0 0 0 -0.2508,-0.49063 126.57958,129.2383 0 0 0 -0.2529,-0.48935 126.57958,129.2383 0 0 0 -0.2546,-0.48871 126.57958,129.2383 0 0 0 -0.2574,-0.48739 126.57958,129.2383 0 0 0 -6e-4,0 126.57958,129.2383 0 0 0 -0.258,-0.48675 126.57958,129.2383 0 0 0 -0.2611,-0.48484 126.57958,129.2383 0 0 0 -0.2632,-0.48417 126.57958,129.2383 0 0 0 -0.2645,-0.48284 126.57958,129.2383 0 0 0 -0.267,-0.48158 126.57958,129.2383 0 0 0 -0.2697,-0.48028 126.57958,129.2383 0 0 0 0,-6.3e-4 126.57958,129.2383 0 0 0 -0.2709,-0.47899 126.57958,129.2383 0 0 0 -0.2728,-0.47833 126.57958,129.2383 0 0 0 -0.2754,-0.47704 126.57958,129.2383 0 0 0 -0.2768,-0.47574 126.57958,129.2383 0 0 0 -0.2793,-0.47444 126.57958,129.2383 0 0 0 -0.2807,-0.47379 126.57958,129.2383 0 0 0 -0.2832,-0.47185 126.57958,129.2383 0 0 0 -0.2853,-0.47056 126.57958,129.2383 0 0 0 -0.2871,-0.46924 126.57958,129.2383 0 0 0 0,-6.6e-4 126.57958,129.2383 0 0 0 -0.2884,-0.46861 126.57958,129.2383 0 0 0 -0.291,-0.46665 126.57958,129.2383 0 0 0 -0.293,-0.46601 126.57958,129.2383 0 0 0 -6e-4,0 126.57958,129.2383 0 0 0 -0.2943,-0.46472 126.57958,129.2383 0 0 0 -0.2975,-0.4628 126.57958,129.2383 0 0 0 -0.2981,-0.4621 126.57958,129.2383 0 0 0 -0.3008,-0.46084 126.57958,129.2383 0 0 0 -0.302,-0.45889 126.57958,129.2383 0 0 0 -0.3046,-0.45825 126.57958,129.2383 0 0 0 -0.3066,-0.45629 126.57958,129.2383 0 0 0 -0.3085,-0.45562 126.57958,129.2383 0 0 0 -0.3098,-0.45371 126.57958,129.2383 0 0 0 -0.3124,-0.45241 126.57958,129.2383 0 0 0 0,-6.3e-4 126.57958,129.2383 0 0 0 -0.3144,-0.45112 126.57958,129.2383 0 0 0 -0.3156,-0.44982 126.57958,129.2383 0 0 0 -0.3176,-0.44853 126.57958,129.2383 0 0 0 -0.3209,-0.44657 126.57958,129.2383 0 0 0 -0.3208,-0.4459 126.57958,129.2383 0 0 0 -0.3235,-0.44399 126.57958,129.2383 0 0 0 -0.3253,-0.44268 126.57958,129.2383 0 0 0 0,-6.3e-4 126.57958,129.2383 0 0 0 -0.3266,-0.44139 126.57958,129.2383 0 0 0 -0.3292,-0.43945 126.57958,129.2383 0 0 0 -0.3307,-0.43879 126.57958,129.2383 0 0 0 -0.3331,-0.43685 126.57958,129.2383 0 0 0 -0.3345,-0.43556 126.57958,129.2383 0 0 0 -0.3364,-0.43425 126.57958,129.2383 0 0 0 -0.3382,-0.43296 126.57958,129.2383 0 0 0 -0.3397,-0.43101 126.57958,129.2383 0 0 0 -0.3415,-0.42971 126.57958,129.2383 0 0 0 -0.3435,-0.42846 126.57958,129.2383 0 0 0 -0.3455,-0.42645 126.57958,129.2383 0 0 0 -0.3474,-0.4252 126.57958,129.2383 0 0 0 -0.3488,-0.42322 126.57958,129.2383 0 0 0 -0.3505,-0.4226 126.57958,129.2383 0 0 0 -0.3526,-0.42066 126.57958,129.2383 0 0 0 -0.3546,-0.41869 126.57958,129.2383 0 0 0 -0.3558,-0.41741 126.57958,129.2383 0 0 0 -0.3578,-0.4161 126.57958,129.2383 0 0 0 -0.3591,-0.41415 126.57958,129.2383 0 0 0 -0.3616,-0.41288 126.57958,129.2383 0 0 0 -0.363,-0.41156 126.57958,129.2383 0 0 0 -0.3642,-0.40964 126.57958,129.2383 0 0 0 -0.3663,-0.40767 126.57958,129.2383 0 0 0 -0.3681,-0.40639 126.57958,129.2383 0 0 0 -0.3701,-0.40509 126.57958,129.2383 0 0 0 -0.3714,-0.40316 126.57958,129.2383 0 0 0 -0.3733,-0.40121 126.57958,129.2383 0 0 0 -0.3746,-0.39987 126.57958,129.2383 0 0 0 -0.3766,-0.39862 126.57958,129.2383 0 0 0 -0.3786,-0.39667 126.57958,129.2383 0 0 0 -0.3797,-0.39473 126.57958,129.2383 0 0 0 -0.3812,-0.3934 126.57958,129.2383 0 0 0 -0.3831,-0.39149 126.57958,129.2383 0 0 0 -0.3849,-0.38952 126.57958,129.2383 0 0 0 -0.3863,-0.38889 126.57958,129.2383 0 0 0 -0.3882,-0.38632 126.57958,129.2383 0 0 0 -0.3895,-0.38497 126.57958,129.2383 0 0 0 -0.3915,-0.38306 126.57958,129.2383 0 0 0 -0.3928,-0.38112 126.57958,129.2383 0 0 0 -0.3947,-0.37981 126.57958,129.2383 0 0 0 -0.3961,-0.37788 126.57958,129.2383 0 0 0 -0.3972,-0.37654 126.57958,129.2383 0 0 0 -0.3994,-0.37463 126.57958,129.2383 0 0 0 -0.4004,-0.3727 126.57958,129.2383 0 0 0 -0.4025,-0.37074 126.57958,129.2383 0 0 0 -0.4039,-0.36946 126.57958,129.2383 0 0 0 -0.4057,-0.36747 126.57958,129.2383 0 0 0 -0.407,-0.36554 126.57958,129.2383 0 0 0 -0.4084,-0.36428 126.57958,129.2383 0 0 0 -0.4103,-0.36164 126.57958,129.2383 0 0 0 -0.4115,-0.3604 126.57958,129.2383 0 0 0 -0.4129,-0.35839 126.57958,129.2383 0 0 0 -0.4148,-0.35713 126.57958,129.2383 0 0 0 -0.4161,-0.35455 126.57958,129.2383 0 0 0 -0.4174,-0.35322 126.57958,129.2383 0 0 0 -0.4187,-0.3513 126.57958,129.2383 0 0 0 -0.4207,-0.34938 126.57958,129.2383 0 0 0 -0.4219,-0.34737 126.57958,129.2383 0 0 0 -0.4233,-0.34612 126.57958,129.2383 0 0 0 -0.4252,-0.34353 126.57958,129.2383 0 0 0 -0.4258,-0.34221 126.57958,129.2383 0 0 0 -0.4277,-0.34027 126.57958,129.2383 0 0 0 -0.429,-0.33832 126.57958,129.2383 0 0 0 -0.4311,-0.33577 126.57958,129.2383 0 0 0 -0.4316,-0.33507 126.57958,129.2383 0 0 0 -0.4337,-0.33251 126.57958,129.2383 0 0 0 -0.4349,-0.33055 126.57958,129.2383 0 0 0 -0.4356,-0.3286 126.57958,129.2383 0 0 0 -0.4374,-0.3273 126.57958,129.2383 0 0 0 -0.4395,-0.32473 126.57958,129.2383 0 0 0 -0.4401,-0.32279 126.57958,129.2383 0 0 0 -0.4414,-0.32149 126.57958,129.2383 0 0 0 -0.4426,-0.31887 126.57958,129.2383 0 0 0 -0.4446,-0.31758 126.57958,129.2383 0 0 0 -0.4453,-0.31499 126.57958,129.2383 0 0 0 -0.4473,-0.3137 126.57958,129.2383 0 0 0 -0.4478,-0.31115 126.57958,129.2383 0 0 0 -0.4498,-0.30977 126.57958,129.2383 0 0 0 -0.4512,-0.30724 126.57958,129.2383 0 0 0 -0.4517,-0.30526 126.57958,129.2383 0 0 0 -0.4537,-0.30334 126.57958,129.2383 0 0 0 0,-6.7e-4 126.57958,129.2383 0 0 0 -0.4543,-0.30139 126.57958,129.2383 0 0 0 -0.4556,-0.29942 126.57958,129.2383 0 0 0 -0.4577,-0.29751 126.57958,129.2383 0 0 0 -0.4582,-0.29554 126.57958,129.2383 0 0 0 -0.4595,-0.29362 126.57958,129.2383 0 0 0 -0.4608,-0.29166 126.57958,129.2383 0 0 0 -0.4622,-0.28908 126.57958,129.2383 0 0 0 -0.4635,-0.28778 126.57958,129.2383 0 0 0 -0.4647,-0.28515 126.57958,129.2383 0 0 0 -6e-4,0 126.57958,129.2383 0 0 0 -0.4647,-0.2839 126.57958,129.2383 0 0 0 -0.4673,-0.28131 126.57958,129.2383 0 0 0 -0.468,-0.27935 126.57958,129.2383 0 0 0 -0.4693,-0.27676 126.57958,129.2383 0 0 0 -0.4698,-0.27543 126.57958,129.2383 0 0 0 -0.4719,-0.27289 126.57958,129.2383 0 0 0 -0.4724,-0.27159 126.57958,129.2383 0 0 0 -0.4739,-0.26896 126.57958,129.2383 0 0 0 -6e-4,0 126.57958,129.2383 0 0 0 -0.4745,-0.26704 126.57958,129.2383 0 0 0 -0.4757,-0.26445 126.57958,129.2383 0 0 0 -0.477,-0.26249 126.57958,129.2383 0 0 0 -8e-4,-6.4e-4 126.57958,129.2383 0 0 0 -0.4776,-0.26056 126.57958,129.2383 0 0 0 -0.4796,-0.25861 126.57958,129.2383 0 0 0 -0.4802,-0.25666 126.57958,129.2383 0 0 0 -0.4817,-0.25406 126.57958,129.2383 0 0 0 -0.4829,-0.2528 126.57958,129.2383 0 0 0 -0.4835,-0.25018 126.57958,129.2383 0 0 0 -0.4841,-0.24759 126.57958,129.2383 0 0 0 -0.4861,-0.2463 126.57958,129.2383 0 0 0 -0.4868,-0.24368 126.57958,129.2383 0 0 0 -0.4874,-0.24175 126.57958,129.2383 0 0 0 -0.4887,-0.23984 126.57958,129.2383 0 0 0 -0.49,-0.2372 126.57958,129.2383 0 0 0 -0.4906,-0.23528 126.57958,129.2383 0 0 0 -0.4919,-0.23335 126.57958,129.2383 0 0 0 -0.4926,-0.23074 126.57958,129.2383 0 0 0 -0.4939,-0.22877 126.57958,129.2383 0 0 0 -0.4946,-0.22686 126.57958,129.2383 0 0 0 -0.4951,-0.22427 126.57958,129.2383 0 0 0 -0.4966,-0.2223 126.57958,129.2383 0 0 0 -0.4977,-0.22038 126.57958,129.2383 0 0 0 -0.4984,-0.21776 126.57958,129.2383 0 0 0 -0.499,-0.21584 126.57958,129.2383 0 0 0 -0.4999,-0.21324 126.57958,129.2383 0 0 0 -0.5009,-0.21129 126.57958,129.2383 0 0 0 -6e-4,-6.7e-4 126.57958,129.2383 0 0 0 -0.5017,-0.20869 126.57958,129.2383 0 0 0 -0.503,-0.20741 126.57958,129.2383 0 0 0 -0.5035,-0.20482 126.57958,129.2383 0 0 0 -0.5044,-0.20286 126.57958,129.2383 0 0 0 -0.5056,-0.20026 126.57958,129.2383 0 0 0 -0.5062,-0.19836 126.57958,129.2383 0 0 0 -0.5068,-0.19572 126.57958,129.2383 0 0 0 -0.5081,-0.19379 126.57958,129.2383 0 0 0 -0.5081,-0.19122 126.57958,129.2383 0 0 0 -0.5094,-0.18988 126.57958,129.2383 0 0 0 -0.5108,-0.18667 126.57958,129.2383 0 0 0 -0.5107,-0.18474 126.57958,129.2383 0 0 0 -0.5121,-0.18279 126.57958,129.2383 0 0 0 -0.5126,-0.18016 126.57958,129.2383 0 0 0 -0.5127,-0.17824 126.57958,129.2383 0 0 0 -0.514,-0.1763 126.57958,129.2383 0 0 0 -7e-4,0 126.57958,129.2383 0 0 0 -0.5146,-0.17369 126.57958,129.2383 0 0 0 -0.5153,-0.1711 126.57958,129.2383 0 0 0 -0.5165,-0.16917 126.57958,129.2383 0 0 0 -0.5166,-0.1666 126.57958,129.2383 0 0 0 -0.5179,-0.16464 126.57958,129.2383 0 0 0 -0.5179,-0.16266 126.57958,129.2383 0 0 0 -0.5191,-0.16009 126.57958,129.2383 0 0 0 -0.5199,-0.15749 126.57958,129.2383 0 0 0 -0.5204,-0.15558 126.57958,129.2383 0 0 0 -0.5205,-0.1536 126.57958,129.2383 0 0 0 -0.5217,-0.151 126.57958,129.2383 0 0 0 -0.5224,-0.14844 126.57958,129.2383 0 0 0 -0.5231,-0.14647 126.57958,129.2383 0 0 0 -0.523,-0.1439 126.57958,129.2383 0 0 0 -0.5244,-0.14193 126.57958,129.2383 0 0 0 -0.5244,-0.13937 126.57958,129.2383 0 0 0 -0.5249,-0.13739 126.57958,129.2383 0 0 0 -0.5262,-0.13483 126.57958,129.2383 0 0 0 -0.5264,-0.13287 126.57958,129.2383 0 0 0 -0.5269,-0.13025 126.57958,129.2383 0 0 0 -7e-4,0 126.57958,129.2383 0 0 0 -0.5262,-0.12836 126.57958,129.2383 0 0 0 -0.5283,-0.12574 126.57958,129.2383 0 0 0 -0.5282,-0.12316 126.57958,129.2383 0 0 0 -0.5295,-0.12116 126.57958,129.2383 0 0 0 -0.5296,-0.11865 126.57958,129.2383 0 0 0 -0.5295,-0.11665 126.57958,129.2383 0 0 0 -0.5309,-0.11401 126.57958,129.2383 0 0 0 -0.5308,-0.11212 126.57958,129.2383 0 0 0 -0.5314,-0.1095 126.57958,129.2383 0 0 0 -0.5322,-0.10699 126.57958,129.2383 0 0 0 -0.5322,-0.10498 126.57958,129.2383 0 0 0 -0.5326,-0.10247 126.57958,129.2383 0 0 0 -0.5328,-0.10046 126.57958,129.2383 0 0 0 -0.5341,-0.0978 126.57958,129.2383 0 0 0 -0.5342,-0.0953 126.57958,129.2383 0 0 0 -0.534,-0.0933 126.57958,129.2383 0 0 0 -0.5347,-0.0907 126.57958,129.2383 0 0 0 -0.5353,-0.0888 126.57958,129.2383 0 0 0 -0.5354,-0.0862 126.57958,129.2383 0 0 0 -0.5361,-0.0837 126.57958,129.2383 0 0 0 -0.5359,-0.0816 126.57958,129.2383 0 0 0 -0.5367,-0.079 126.57958,129.2383 0 0 0 -0.5373,-0.0765 126.57958,129.2383 0 0 0 -0.5367,-0.0745 126.57958,129.2383 0 0 0 -0.538,-0.072 126.57958,129.2383 0 0 0 -0.5379,-0.07 126.57958,129.2383 0 0 0 -0.372,-0.0467 126.57958,129.2383 0 0 0 -4.3607,1.03315 z"
         style="fill:#cfc2bb;fill-opacity:1;stroke-width:9.91052;stroke-linecap:round;stroke-linejoin:round"
         id="path9941" />
      <path
         id="path49071"
         style="fill:#000000;fill-opacity:0.474708;stroke-width:12.7483;stroke-linecap:round;stroke-linejoin:round"
         d="m 1399.7064,879.21399 c -34.7659,-6.23378 -70.5152,2.5151 -98.6855,24.15106 0.094,-0.049 0.1848,-0.0982 0.2772,-0.14717 0.1745,-0.0922 0.3488,-0.18391 0.5233,-0.27522 0.1747,-0.091 0.3496,-0.18164 0.5247,-0.27183 123.8611,-30.26747 220.9575,98.88997 139.0512,214.42967 -0.1511,0.127 -0.3012,0.2562 -0.4523,0.3837 -0.151,0.1271 -0.303,0.2544 -0.4549,0.381 -0.1522,0.1255 -0.3039,0.253 -0.4561,0.379 -0.1523,0.1256 -0.3046,0.2515 -0.4573,0.3768 -0.1535,0.1243 -0.3064,0.2498 -0.4601,0.3744 -0.1533,0.1242 -0.3071,0.2486 -0.461,0.3725 -0.1548,0.1229 -0.3085,0.2472 -0.4632,0.3703 -0.1544,0.1229 -0.3097,0.2457 -0.4648,0.3681 -0.1548,0.1229 -0.3106,0.2444 -0.4662,0.3661 -0.1561,0.1216 -0.3118,0.2429 -0.4683,0.3639 -0.1127,0.086 -0.2271,0.1748 -0.341,0.262 34.9826,-18.5746 59.4977,-52.6178 66.3507,-92.139 12.1909,-70.30704 -33.9743,-137.35176 -103.1125,-149.74862 z"
         sodipodi:nodetypes="ccssccsssssssssscscc" />
    </g>
  </g>
</svg>
